<?xml version="1.0" encoding="utf-8"?>
<!-- Generator: Adobe Illustrator 28.1.0, SVG Export Plug-In . SVG Version: 6.00 Build 0)  -->
<svg version="1.1" id="Camada_1" xmlns="http://www.w3.org/2000/svg" xmlns:xlink="http://www.w3.org/1999/xlink" x="0px" y="0px"
	 viewBox="0 0 500 500" style="enable-background:new 0 0 500 500;" xml:space="preserve">
<style type="text/css">
	.st0{fill:url(#SVGID_1_);}
	.st1{fill:url(#SVGID_00000173854452879892407620000003761143739553363859_);}
	.st2{fill:#FFFFFF;}
</style>
<linearGradient id="SVGID_1_" gradientUnits="userSpaceOnUse" x1="0" y1="265.5" x2="500" y2="265.5">
	<stop  offset="0" style="stop-color:#006633"/>
	<stop  offset="1" style="stop-color:#00323D"/>
</linearGradient>
<path class="st0" d="M108.1,31h283.8C451.6,31,500,79.4,500,139.1v299.3c0,34-27.6,61.6-61.6,61.6H61.6C27.6,500,0,472.4,0,438.4
	V139.1C0,79.4,48.4,31,108.1,31z"/>
<linearGradient id="SVGID_00000091695098833555796930000017542823181128074891_" gradientUnits="userSpaceOnUse" x1="118.7396" y1="346.1495" x2="433.7396" y2="52.1495">
	<stop  offset="0" style="stop-color:#00323D"/>
	<stop  offset="1" style="stop-color:#006633"/>
</linearGradient>
<path style="fill:url(#SVGID_00000091695098833555796930000017542823181128074891_);" d="M109.7,0h280.7C450.9,0,500,49.1,500,109.7
	v275.6H0V109.7C0,49.1,49.1,0,109.7,0z"/>
<g>
	<path class="st2" d="M189.1,149.5c-7.3,5.5-20.3,16.9-29.7,35.8c-8.4,16.9-10.2,32.3-10.6,41.2c-1.7-8.6-2.1-15.7-2.1-20.7
		c0-34.4,20.7-62,20.7-62c2.7-3.6,7-8.9,13.3-14.6c1.1,3.3,2.4,6.8,4,10.4C186.1,143.3,187.6,146.5,189.1,149.5"/>
	<path class="st2" d="M354.3,160.7c1.5,3.4,2.9,7.2,4.3,11.5c1.2,3.8,2.1,7.4,2.8,10.7c2.1,0.9,4.9,2.3,8.2,4.3
		c3.6,2.2,6.3,3.9,8.8,6.5c1.2,1.3,5.9,6.4,6,12.3c0.2,11.4-16.5,19.9-22.9,23.1c-6,3-11,4.4-11.8,4.6
		c-24.6,8.4-60.1,13.6-99.6,13.6c-22.7,0-44.1-1.7-62.8-4.8c6.2,10.5,13.7,17.3,17.5,20.3c1.3,1.1,2.7,2,4.1,2.9
		c13.1,1.4,27,2.2,41.2,2.2c33.6,0,64.8-4.3,90.2-11.5c4.8-1.4,9.4-2.8,13.8-4.4c31.3-11.3,51-27.6,51-45.7
		C405,188.2,385.4,171.9,354.3,160.7"/>
	<path class="st2" d="M148.5,233c-2.4-0.8-5.8-2.1-9.8-3.9c-6.2-2.9-10-4.7-13.9-8.3c-2.3-2.1-7.5-7-9.1-14.8
		c-1.1-5.4,0.1-9.8,0.8-12.3c4.8-17.3,25.7-30.8,29.2-33C114.6,171.9,95,188.2,95,206.3c0,18.2,19.7,34.5,51.1,45.8
		c1,0.4,2.1,0.7,3.1,1C148.6,246.3,148.3,239.6,148.5,233"/>
	<path class="st2" d="M298,151.7c-0.8-0.7-3.8-3.3-8.1-6.1c-0.4-0.3-2.7-1.6-5.8-3.3c-0.7-0.4-6.2-3.3-11.5-5.4
		c-2,1.9-10.3,9.1-22.7,9.1c-17.3,0-27.2-14.1-28.1-15.3c-2.6-4.2-4.2-9-4.8-13.8c-0.1-1.3-0.2-2.5-0.2-3.8c0,0,0-0.1,0-0.1
		c0,0,0,0,0,0c0-0.9,0.1-1.9,0.1-2.8c0-0.3,0.1-0.6,0.1-0.9c0.1-0.9,0.2-1.7,0.4-2.6c0-0.3,0.1-0.5,0.2-0.7c0.4-1.6,0.8-3.2,1.4-4.8
		l0.1-0.1C224,88.7,236,79.9,250,79.9c12,0,22.6,6.6,28.4,16.3c7.7,2,17.2,5.1,26.1,10c2.5,1.4,5,2.9,7.4,4.5
		C310.7,77.7,283.2,51,250,51c-34,0-62,28-62,62s62,118.8,62,118.8s30.9-42.3,49.1-79.1C298.7,152.3,298.4,152,298,151.7"/>
	<path class="st2" d="M230.7,125.3c2.2-0.6,5.6-1.5,10-2.1c3-0.4,18.3-2.3,34.6,3.7c5.9,2.2,12.2,5.5,13.8,6.3
		c3.9,2.1,6.5,3.7,6.5,3.7c0,0,0,0,0,0c4.9,3.2,8.3,6.2,9.3,7c17.5,15.4,23.4,34.8,24.8,39.7c0.7,2.6,2.9,10.9,3,22.3
		c0.1,5-0.3,9.7-1,14.3c-0.3,1.8-0.9,4.7-1.9,8.4c5.9-1.4,11.4-3,16.5-4.7l1.2-0.4c1.2-0.4,2.8-0.9,4.7-1.7c0.8-5,1.3-10.3,1.3-15.9
		c-0.1-36.8-20.7-72.5-53.7-90.7c-17.4-9.5-37.7-11.8-37.7-11.8c-3.6-0.5-7.5-0.8-11.8-0.9c-8.2-0.1-15.4,0.9-21.2,2.2
		c-0.7,2-1.9,5.9-1.4,10.9C227.9,120.2,229.7,123.5,230.7,125.3"/>
	<path class="st2" d="M294.9,275.7c-19,12-38,12.9-44.9,12.9c-8.2,0-28.7-1.2-48.4-15.3c-1.2-0.8-2.2-1.6-3.2-2.4c0,0,0,0-0.1,0
		c-4.7-3.7-22.1-18.2-28.7-44.3c-4-15.8-2.5-29.1-1-36.5c-2.6,5.1-5.8,12.5-7.7,22c-1.4,7-1.7,12.6-1.8,14.9
		c-0.2,6.4-0.8,29.2,14.5,48.3c5.5,6.9,11.2,10.9,17.5,15.3c9.8,6.9,19.5,11.2,27.9,14c4.6,1.5,10.2,2.8,16.5,3.7
		c5.4,0.8,10.3,1,14.5,1c0,0,0,0,0,0c9,0,24.5-1.2,41.8-8.8c7.7-3.4,25.1-12.3,39.8-31.1C320,272.1,307.7,274.2,294.9,275.7"/>
</g>
<g>
	<path class="st2" d="M159.2,440v4.7c0.1,2.4-0.2,6.7-2.4,11.4c-2.1,4.6-5.1,7.3-5.9,8c-0.7,0.6-2.3,2-4.8,3.2
		c-5.3,2.8-10.3,2.8-12,2.8c-2.2,0-13-0.4-20.3-9.3c-3.5-4.3-5.6-9.9-5.6-16.2c0-14.5,11.3-25.5,26.2-25.5c8.4,0,15.9,3.4,20.2,9
		l-10.3,8.2c-2.3-2.6-5.8-4.2-9.7-4.2c-7.1,0-12.5,5.3-12.5,12.5c0,7.1,5.3,12.5,12.4,12.5c4.3,0,7.8-2,9.6-5.1h-9.5
		c-0.3-1.7-0.5-3.7-0.5-6c0-2.4,0.2-4.4,0.5-6.1H159.2z"/>
	<path class="st2" d="M300.1,456.5c0.3,2,0.6,4.4,0.6,7.1c0,2.2-0.3,4.1-0.6,5.7h-34.4c-0.4-7.4-0.6-15.2-0.7-23.4
		c0-9,0.2-17.7,0.7-25.9h34c0.3,1.8,0.6,4,0.6,6.5c0,2.4-0.3,4.6-0.6,6.4h-20.4v5.2h18.1c0.3,1.9,0.6,4.2,0.6,6.8
		c0,2.3-0.3,4.3-0.6,6h-18.1v5.5H300.1z"/>
	<path class="st2" d="M342.5,456.5c0.3,2,0.6,4.4,0.6,7.1c0,2.2-0.3,4.1-0.6,5.7h-34.4c-0.4-7.4-0.6-15.2-0.7-23.4
		c0-9,0.2-17.7,0.7-25.9h34c0.3,1.8,0.6,4,0.6,6.5c0,2.4-0.3,4.6-0.6,6.4h-20.4v5.2h18.1c0.3,1.9,0.6,4.2,0.6,6.8
		c0,2.3-0.3,4.3-0.6,6h-18.1v5.5H342.5z"/>
	<path class="st2" d="M185.2,454.1h-4.8l0.6,15.3h-13.6c-0.4-7.7-0.7-15.8-0.7-24.2c0-8.7,0.2-17.1,0.7-25h22.1
		c10.3,0,18.2,7.4,18.2,17.3c0,6.3-3.3,11.4-8.3,14.3l9.8,17.6h-16.3L185.2,454.1z M180.3,442.2h8.9c2.6,0,4.5-2,4.5-4.6
		c0-2.6-1.9-4.6-4.5-4.6h-8.7L180.3,442.2z"/>
	<path class="st2" d="M391.7,437.6c0,10-7.8,17.5-18.2,17.5l-9.7,0l0.5,14.3h-13.6c-0.4-7.9-0.7-16.2-0.7-24.9
		c0-8.5,0.2-16.6,0.7-24.3h22.8C383.8,420.1,391.7,427.6,391.7,437.6 M377.7,437.6c0-2.6-1.9-4.6-4.5-4.6l-9.4,0
		c0,1.7-0.1,3.3-0.1,5c0,1.4,0,2.9,0,4.3c3.2,0,6.4,0,9.6,0C375.8,442.2,377.7,440.2,377.7,437.6"/>
	<path class="st2" d="M244.4,462.6c-5.9,0-11.8,0-17.7,0c-0.7,2.3-1.4,4.5-2.1,6.8H210c2.4-7.8,5-16,8-24.5c3.1-8.7,6.4-17,9.6-24.8
		h16.1c3.3,7.8,6.5,16,9.6,24.8c3,8.4,5.7,16.6,8,24.5h-14.9L244.4,462.6z M240.3,450c-0.7-2-1.4-3.9-2.1-5.9
		c-0.9-2.4-1.7-4.8-2.6-7.1c-0.8,2.2-1.7,4.4-2.5,6.7c-0.8,2.1-1.5,4.3-2.2,6.3H240.3z"/>
</g>
</svg>
