<?xml version="1.0" encoding="UTF-8"?>
<svg id="Camada_1" data-name="Camada 1" xmlns="http://www.w3.org/2000/svg" viewBox="0 0 36.64 36.79">
  <defs>
    <style>
      .cls-1 {
        fill: #bfa38b;
        stroke-width: 0px;
      }
    </style>
  </defs>
  <path class="cls-1" d="m36.64,17.32v1.84c-.12.8-.21,1.6-.37,2.39-2.21,11.36-13.89,17.88-24.63,13.62-1.64-.65-3.03-.75-4.65-.24-2.2.7-4.45,1.24-6.68,1.85h-.31c.04-.25.06-.5.12-.74.68-2.51,1.32-5.03,2.06-7.52.25-.82.16-1.47-.22-2.23C-3.07,16.26,2.3,3.92,13.09.76c1.04-.3,2.11-.51,3.16-.76,1.38,0,2.76,0,4.14,0,.14.05.27.12.41.14,7.72,1.34,12.78,5.74,15.09,13.23.39,1.27.51,2.63.75,3.95ZM4.36,32.41c1.77-.46,3.38-.91,5.01-1.28.4-.09.92-.04,1.27.16,3.09,1.73,6.37,2.48,9.87,1.92,8.37-1.33,13.88-8.78,12.77-17.21-1.07-8.13-9.11-14.07-17.23-12.73C5.52,5-.02,16.33,5.18,25.62c.54.97.61,1.78.29,2.78-.41,1.27-.72,2.58-1.11,4.02Z"/>
  <path class="cls-1" d="m23.07,27.02c-2.11-.13-4.03-.91-5.8-1.96-3.28-1.95-5.76-4.7-7.51-8.08-1.26-2.44-.9-4.79.82-6.57.55-.57,1.96-.88,2.63-.51.24.13.44.43.55.69.49,1.12.93,2.26,1.42,3.38.29.66-.07,1.13-.43,1.6-1.13,1.48-1.13,1.47-.02,2.98,1.38,1.88,3.16,3.23,5.31,4.12.48.2.82.13,1.13-.27.4-.53.84-1.02,1.23-1.56.29-.39.62-.51,1.05-.3,1.24.59,2.49,1.16,3.72,1.79.2.1.38.44.38.66,0,1.16-.28,2.22-1.29,2.95-.96.7-1.99,1.14-3.2,1.08Z"/>
</svg>