<?xml version="1.0" encoding="UTF-8"?>
<svg id="Camada_1" data-name="Camada 1" xmlns="http://www.w3.org/2000/svg" viewBox="0 0 240 120">
  <defs>
    <style>
      .cls-1 {
        fill: #bda189;
      }

      .cls-1, .cls-2, .cls-3, .cls-4 {
        stroke-width: 0px;
      }

      .cls-2 {
        fill: #f1e9dd;
      }

      .cls-3 {
        fill: #755647;
      }

      .cls-4 {
        fill: #745646;
      }
    </style>
  </defs>
  <g>
    <rect class="cls-1" x="14.88" y="13.11" width="93.78" height="93.78" rx="12" ry="12"/>
    <g>
      <path class="cls-2" d="m100.35,64.14c.63-1.23,1.31-2.41,1.92-3.62-.03-.22-.05-.45-.04-.69,0-.15-.03-.31-.05-.46-.18.02-.39-.22-.57-.32-3.19-1.88-6.37-3.79-9.57-5.65-.84-.48-.15-.84-.03-1.25.03-.09.06-.16.09-.21-.63-.24-1.19-.43-1.6-.55-.42-.12-.77-.3-1.09-.5-.35.68-.7,1.36-1.05,2.03-.56,3.03-1.94,5.77-4.45,8.12.42,2.02.83,4.03,1.25,6.05,1.29,6.2,2.58,12.41,3.88,18.6.93-.76,1.72-1.64,2.4-2.62-.47-2.25-.92-4.43-1.37-6.61-.98-4.69-1.95-9.38-2.93-14.07-.09-.44-.07-.8.16-1.21.9-1.65,1.78-3.32,2.62-4.99.23-.45.41-.49.83-.24,3.31,1.99,6.63,3.96,9.96,5.92.32.19.48.34.3.76-.22.51-.43,1.01-.65,1.52Z"/>
      <path class="cls-2" d="m47.97,28.34c.11.1.19.22.28.33.1-.42.23-.82.43-1.16.26-.45.71-.94,1.21-1.31-1.52.32-3.03.63-4.55.95.63.05,1.23.22,1.79.55.28.22.56.43.84.65Z"/>
      <path class="cls-2" d="m60.28,32.88c1.85-.34,3.69-.74,5.53-1.14.42-.09.6-.01.76.42,1.3,3.61,3.03,6.99,5.75,9.77,2.16,2.21,4.72,3.72,7.84,4.11,0,0,.01,0,.02,0-.27-1.08-.64-2.15-1.06-3.19-1.57-.46-2.92-1.29-4.12-2.41-2.69-2.5-4.33-5.67-5.61-9.06-.12-.32,0-.39.26-.44.91-.18,1.82-.37,2.73-.57.25-.06.43-.02.56.22.62,1.07,1.25,2.15,1.87,3.22-.67-1.71-1.31-3.44-2.19-5.06-.35-.64-.68-1.22-.98-1.8.01.08.03.15.04.23.07.3-.1.39-.35.45-1.44.3-2.89.59-4.33.91-.41.09-.54-.08-.6-.44-.11-.59-.22-1.18-.37-1.76-.1-.39.04-.54.41-.6.74-.13,1.47-.3,2.2-.45.17-.04.34-.08.51-.11.45-.06.99-.32,1.41-.37-.36-.85-.65-1.74-.84-2.74-4.39.91-8.78,1.83-13.16,2.74.08,0,.17-.02.25-.02,2.32-.05,4.05,1.94,4.15,4.15.1,2.27-1.98,4.1-4.15,4.15-.06,0-.44.03-.69.04-.21.03-.54.08-.61.09-.72.13-1.43.28-2.16.39-1.7.26-3.26-.17-4.26-1.36-.02,0-.03,0-.05,0-.06.21-.12.42-.23.61-.17.51-.45.96-.86,1.33-.04.04-.07.07-.11.11-.52.51-1.13.87-1.83,1.07l-1.1.15c-.75,0-1.45-.19-2.09-.57-.28-.22-.56-.43-.84-.65-.4-.38-.69-.82-.86-1.33-.26-.49-.38-1.03-.36-1.6-.02-.57.1-1.1.36-1.6.17-.51.45-.96.86-1.33l.11-.11c.3-.3.64-.54,1-.73-3.03.63-6.05,1.26-9.08,1.89-1.72.36-3.44.7-5.16,1.08-1.19.26-1.59.88-1.36,2.07.27,1.4.56,2.8.88,4.2.13.6.15,1.18.08,1.79-.57,4.7-1.13,9.4-1.69,14.1-.06.48-.06.94.03,1.42,3.14,15.07,6.27,30.13,9.41,45.2.49-.22,1.06-.34,1.71-.34,1.13,0,2.25.02,3.35-.07.09-.09.17-.19.27-.27.39-.32.76-.61,1.13-.88-.96.2-1.92.4-2.88.61-.66.14-.85-.02-.98-.66-1.38-6.74-2.79-13.47-4.19-20.2-1.4-6.73-2.8-13.46-4.2-20.19-.08-.36-.21-.68.26-.96,3.74-2.2,5.61-5.68,6.54-9.76.63-2.76.75-5.56.54-8.37-.04-.56.1-.73.63-.84,3.84-.77,7.67-1.57,11.5-2.39.57-.12.73.04.84.57,2.71,13,5.45,25.98,8.13,38.98.36,1.76.14,3.6.18,5.4,0,.1,0,.21,0,.31,1.61-.03,3.15.87,3.65,2.98.1.44.2.95.3,1.51,1.18,2.85,2.36,5.69,3.54,8.54,1.23.03,2.66-.55,4.13-.82,2.74-.51,5.43-1.29,8.08-2.21-2.93.61-5.85,1.21-8.78,1.82-.55.12-.77,0-.99-.53-2.32-5.63-4.67-11.25-7.01-16.87-.11-.28-.21-.56-.27-.86-.58-2.75-1.14-5.5-1.73-8.25-.1-.48-.02-.76.39-1.07,3.33-2.49,4.54-5.79,3.7-9.85-1.45-6.98-2.9-13.96-4.37-20.93-.12-.57,0-.78.58-.89Zm2.26-6.33c.34-.07.57-.06.62.36.04.32.13.63.19.95.06.27.1.54.17.8.1.36.09.6-.38.69-.42.08-.59-.04-.65-.45-.1-.59-.22-1.17-.36-1.75-.1-.39.04-.53.41-.6Zm-29.58,23.38c-.83,1.61-2.06,2.95-3.35,3.65.19-1.62.37-3.1.55-4.59.37-3.13.76-6.27,1.11-9.4.06-.55.26-.77.79-.84.79-.12,1.58-.31,2.36-.48.28-.06.46-.09.48.31.16,3.92-.1,7.77-1.94,11.35Zm2.95-14.92c-1.4.27-2.8.56-4.2.87-.42.09-.59-.02-.66-.44-.09-.57-.2-1.14-.35-1.69-.14-.48.06-.61.48-.68.69-.11,1.38-.28,2.06-.42.69-.14,1.38-.27,2.06-.44.4-.1.6-.02.67.42.09.57.21,1.13.35,1.69.1.39.02.6-.42.68Zm3.85-.8c-.34.08-.52,0-.57-.36-.04-.32-.13-.64-.19-.95-.06-.27-.1-.54-.17-.81-.09-.35-.12-.59.36-.69.48-.1.61.06.68.49.09.59.22,1.18.36,1.76.11.45-.17.48-.47.56Zm21.51,21.38c.5,2.41-.22,4.47-2.06,6.33-.09-.42-.13-.64-.18-.86-1.79-8.64-3.58-17.29-5.4-25.92-.15-.69,0-.94.68-1.01.79-.08,1.72-.69,2.3-.31.53.35.42,1.42.58,2.18,1.37,6.53,2.73,13.06,4.08,19.59Z"/>
    </g>
    <path class="cls-3" d="m104.88,57.62c-2.79,6.52-5.58,13.03-8.37,19.55-1.73,4.03-3.47,8.06-5.16,12.11-.36.86-.91,1.28-1.81,1.47-7.23,1.48-14.45,2.99-21.67,4.5-1.46.3-1.92.04-2.49-1.34-1.47-3.54-2.94-7.08-4.41-10.62-.09-.21-.19-.4-.38-.8.04,2.63.07,5.05.11,7.47.03,1.7.07,3.41.08,5.11.01,1.27-.34,1.72-1.58,1.98-7.32,1.53-14.64,3.05-21.96,4.57-1.38.29-1.98-.11-2.27-1.47-3.19-15.33-6.38-30.66-9.57-45.99-.1-.48-.09-.94-.03-1.42.57-4.7,1.12-9.4,1.69-14.1.07-.6.06-1.19-.08-1.79-.31-1.4-.6-2.8-.88-4.2-.23-1.19.17-1.81,1.36-2.07,1.71-.38,3.44-.72,5.16-1.08,12.33-2.57,24.66-5.13,37-7.7.25-.05.49-.11.74-.15,1.15-.19,1.77.2,2.03,1.35.29,1.27.57,2.55.8,3.83.16.9.5,1.71.97,2.5,2.34,3.94,4.64,7.9,6.97,11.85.26.44.41.91.51,1.4.94,4.55,1.89,9.09,2.83,13.63l.17.81c.34,0,.34-.29.43-.47,1.25-2.4,2.49-4.81,3.73-7.22.64-1.23,1.38-1.46,2.57-.76,4.14,2.47,8.27,4.94,12.41,7.41.34.2.62.49.93.73l.18.88Zm-71.64,19.93c1.4,6.73,2.81,13.46,4.19,20.2.13.64.31.8.98.66,6.19-1.32,12.38-2.61,18.57-3.86.77-.16.91-.48.89-1.18-.09-4.46-.13-8.92-.23-13.38-.04-1.8.19-3.64-.18-5.4-2.68-13-5.42-25.99-8.13-38.99-.11-.53-.26-.69-.84-.57-3.83.82-7.66,1.62-11.5,2.39-.53.11-.67.28-.63.84.2,2.81.09,5.61-.54,8.37-.93,4.08-2.79,7.56-6.54,9.76-.47.27-.34.59-.26.96,1.4,6.73,2.8,13.46,4.2,20.19Zm50.52-10.47c-1.41-6.76-2.82-13.51-4.2-20.27-.1-.5-.29-.71-.81-.77-3.12-.39-5.67-1.9-7.84-4.11-2.72-2.78-4.45-6.15-5.75-9.77-.16-.44-.33-.52-.76-.42-1.84.4-3.68.8-5.53,1.14-.59.11-.7.31-.58.89,1.47,6.97,2.92,13.95,4.37,20.93.84,4.06-.37,7.36-3.7,9.85-.41.31-.49.58-.39,1.07.6,2.75,1.15,5.5,1.73,8.25.06.29.16.58.27.86,2.34,5.62,4.69,11.24,7.01,16.87.22.54.44.64.99.53,6.26-1.32,12.52-2.63,18.79-3.91.63-.13.73-.34.6-.94-1.42-6.73-2.81-13.46-4.21-20.19Zm6.51,17.08c.13-.15.2-.19.22-.25,3.04-7.1,6.07-14.2,9.11-21.29.18-.41.02-.57-.3-.76-3.32-1.96-6.65-3.93-9.96-5.92-.43-.26-.61-.21-.83.24-.85,1.68-1.72,3.34-2.62,4.99-.22.41-.25.77-.16,1.21.99,4.69,1.96,9.38,2.93,14.07.53,2.53,1.05,5.06,1.6,7.71Zm-32.46-22.24c1.84-1.87,2.56-3.92,2.06-6.33-1.34-6.53-2.71-13.06-4.08-19.59-.16-.76-.05-1.82-.58-2.18-.58-.39-1.51.23-2.3.31-.68.06-.83.32-.68,1.01,1.82,8.64,3.6,17.28,5.4,25.92.05.22.09.44.18.86Zm-29.6-8.33c1.29-.7,2.52-2.05,3.35-3.65,1.84-3.58,2.1-7.43,1.94-11.35-.02-.4-.2-.37-.48-.31-.78.17-1.57.36-2.36.48-.53.08-.73.3-.79.84-.34,3.14-.73,6.27-1.11,9.4-.18,1.49-.36,2.97-.55,4.59Zm50.45-10.48c.03-.13.05-.16.04-.17-2.39-4.11-4.78-8.23-7.17-12.34-.14-.24-.31-.27-.56-.22-.91.2-1.82.39-2.73.57-.27.05-.38.13-.26.44,1.28,3.38,2.92,6.55,5.61,9.06,1.43,1.34,3.08,2.3,5.07,2.66Zm-33.45-10.35c.98-.2,1.96-.42,2.94-.61.38-.07.5-.23.4-.61-.14-.56-.27-1.12-.35-1.69-.06-.46-.24-.56-.69-.46-1.91.42-3.82.82-5.73,1.19-.43.09-.6.24-.48.7.15.53.26,1.07.34,1.62.07.45.26.58.71.47.95-.22,1.91-.41,2.86-.6Zm9.71-2c.98-.2,1.96-.42,2.95-.61.38-.07.51-.22.41-.61-.15-.58-.28-1.17-.37-1.77-.07-.45-.27-.5-.67-.41-1.91.41-3.83.81-5.75,1.2-.43.09-.61.22-.48.69.15.53.26,1.07.34,1.62.07.51.31.59.77.48.93-.22,1.87-.4,2.8-.59Zm46.59,27.33c-.19-.13-.35-.26-.51-.36-3.18-1.9-6.36-3.8-9.54-5.7-.32-.19-.66-.51-.85.12-.12.41-.8.77.03,1.25,3.21,1.85,6.38,3.77,9.57,5.65.22.13.5.48.7.26.28-.32.4-.79.6-1.22ZM31.84,32.65c-.69.14-1.37.31-2.06.42-.43.07-.62.2-.48.68.16.55.27,1.12.35,1.69.06.42.24.53.66.44,1.39-.31,2.79-.6,4.2-.87.44-.08.52-.29.42-.68-.14-.56-.26-1.12-.35-1.69-.07-.44-.27-.52-.67-.42-.68.17-1.37.29-2.06.44Zm35.39-7.36c-.73.15-1.47.32-2.2.45-.37.07-.51.21-.41.6.15.58.26,1.17.37,1.76.06.35.2.53.6.44,1.44-.32,2.89-.61,4.33-.91.25-.05.42-.15.35-.45-.19-.77-.07-1.76-.6-2.26-.39-.37-1.25.17-1.91.25-.17.02-.34.07-.51.11Zm-29.64,7.61c.07.32.15.63.19.95.05.36.23.44.57.36.31-.08.59-.11.47-.56-.15-.58-.27-1.17-.36-1.76-.07-.43-.2-.59-.68-.49-.48.1-.46.34-.36.69.07.26.11.54.17.81Zm24.36-5.03c-.07-.32-.15-.63-.19-.95-.05-.43-.28-.43-.62-.36-.37.07-.51.21-.41.6.15.58.27,1.16.36,1.75.07.41.23.52.65.45.47-.09.48-.33.38-.69-.07-.26-.11-.53-.17-.8Z"/>
  </g>
  <g>
    <path class="cls-4" d="m120.62,49.43c0-4.06,3.22-7.22,7.5-7.22,3.06,0,5.5,1.66,5.5,3.58,0,.98-.66,1.68-1.6,1.68s-1.64-.68-1.64-1.6c1,0,1.72-.5,1.72-1.22,0-.94-1.24-1.74-3.04-1.74-3.2,0-5.3,2.44-5.3,6.5s2.06,6.5,5.3,6.5c1.96,0,3.44-.9,4.24-2.34l.44.28c-.86,1.58-2.96,2.76-5.58,2.76-4.18,0-7.54-3.04-7.54-7.18Z"/>
    <path class="cls-4" d="m134.96,53.83c0-1.76,1.68-2.94,4.12-2.94,1.12,0,2.28.26,2.84.64v-2.42c0-1.46-.94-2.4-2.5-2.4-1.02,0-1.72.4-1.72,1.04,0,.5.42.86,1.04.86,0,.84-.6,1.48-1.48,1.48s-1.52-.6-1.52-1.48c0-1.42,1.74-2.4,4.3-2.4,2.94,0,4.94,1.6,4.94,3.7v4.78c0,.68.22,1.38.54,1.72h-3.4c-.12-.3-.2-.88-.2-1.4-.74.96-2.12,1.6-3.58,1.6-1.96,0-3.38-1.18-3.38-2.78Zm4.92,1.76c.8,0,1.58-.44,2.04-1.16v-2.46c-.36-.3-.98-.48-1.66-.48-1.34,0-2.16.78-2.16,2.08,0,1.2.68,2.02,1.78,2.02Z"/>
    <path class="cls-4" d="m147.38,54.69v-10.5c0-.68-.22-1.38-.54-1.72l3.6-.66v12.88c0,.68.2,1.38.52,1.72h-4.12c.32-.34.54-1.04.54-1.72Z"/>
    <path class="cls-4" d="m157.54,56.61l-.64.84c.22-.08.48-.12.78-.12,1.2,0,2.02.72,2.02,1.72,0,1.1-1.04,1.82-2.38,1.82-.82,0-1.5-.3-1.9-.76l.18-.28c.26.28.72.48,1.16.48.76,0,1.26-.52,1.26-1.32,0-.72-.4-1.2-1-1.2-.3,0-.52.12-.62.3l-.36-.12,1-1.42c-2.78-.34-4.72-2.48-4.72-5.14,0-2.96,2.38-5.2,5.52-5.2,2.24,0,3.94,1.18,3.94,2.7,0,.92-.62,1.54-1.48,1.54s-1.52-.64-1.52-1.48c.9,0,1.5-.42,1.5-1.08s-.62-1.04-1.58-1.04c-1.98,0-3.24,1.7-3.24,4.54s1.28,4.56,3.32,4.56c1.16,0,2.18-.56,2.64-1.38l.42.26c-.56,1.02-2.12,1.78-3.98,1.78h-.32Z"/>
    <path class="cls-4" d="m162.84,53.83c0-1.76,1.68-2.94,4.12-2.94,1.12,0,2.28.26,2.84.64v-2.42c0-1.46-.94-2.4-2.5-2.4-1.02,0-1.72.4-1.72,1.04,0,.5.42.86,1.04.86,0,.84-.6,1.48-1.48,1.48s-1.52-.6-1.52-1.48c0-1.42,1.74-2.4,4.3-2.4,2.94,0,4.94,1.6,4.94,3.7v4.78c0,.68.22,1.38.54,1.72h-3.4c-.12-.3-.2-.88-.2-1.4-.74.96-2.12,1.6-3.58,1.6-1.96,0-3.38-1.18-3.38-2.78Zm4.92,1.76c.8,0,1.58-.44,2.04-1.16v-2.46c-.36-.3-.98-.48-1.66-.48-1.34,0-2.16.78-2.16,2.08,0,1.2.68,2.02,1.78,2.02Z"/>
    <path class="cls-4" d="m174.68,54.43c0-.72.54-1.24,1.28-1.24s1.2.5,1.2,1.22c-.54,0-.9.28-.9.68,0,.64.92,1.08,2.28,1.08,1.48,0,2.42-.52,2.42-1.38s-.98-1.32-2.54-2.04c-1.32-.58-3.64-1.4-3.64-3.52,0-1.84,1.76-3.02,4.34-3.02,2,0,3.6.7,3.6,1.98,0,.68-.48,1.22-1.2,1.22s-1.26-.52-1.26-1.22c.52,0,.82-.26.82-.64,0-.56-.72-.9-1.82-.9-1.38,0-2.3.54-2.3,1.4s1.02,1.34,2.54,2c1.54.66,3.64,1.42,3.64,3.48,0,1.82-1.6,3.08-4.38,3.08-2.3,0-4.08-.86-4.08-2.18Z"/>
    <path class="cls-4" d="m120.28,77.39c0-1.12.7-1.72,1.6-1.72.96,0,1.62.66,1.62,1.6-.88,0-1.48.5-1.48,1.24,0,.92.94,1.54,2.2,1.54,1.74,0,2.7-1.16,2.7-3.04v-8.86c0-.7-.2-1.38-.52-1.74h4.12c-.32.36-.54,1.04-.54,1.74v7.76c0,2.92-2.12,4.7-5.2,4.7-2.64,0-4.5-1.38-4.5-3.22Z"/>
    <path class="cls-4" d="m131.58,75.39c0-2.98,2.36-5.18,5.34-5.18s4.94,2.1,4.94,4.86h-7.14c0,3.32,1.3,4.9,3.46,4.9,1.06,0,1.92-.4,1.92-1.1,0-.58-.58-1-1.38-1,0-.82.66-1.48,1.54-1.48s1.46.68,1.46,1.52c0,1.52-1.92,2.7-4.4,2.7-3.36,0-5.74-2.24-5.74-5.22Zm3.14-.72h4.26c-.06-2.54-.82-4.06-2.06-4.06s-2.12,1.7-2.2,4.06Z"/>
    <path class="cls-4" d="m142.98,77.83c0-1.76,1.68-2.94,4.12-2.94,1.12,0,2.28.26,2.84.64v-2.42c0-1.46-.94-2.4-2.5-2.4-1.02,0-1.72.4-1.72,1.04,0,.5.42.86,1.04.86,0,.84-.6,1.48-1.48,1.48s-1.52-.6-1.52-1.48c0-1.42,1.74-2.4,4.3-2.4,2.94,0,4.94,1.6,4.94,3.7v4.78c0,.68.22,1.38.54,1.72h-3.4c-.12-.3-.2-.88-.2-1.4-.74.96-2.12,1.6-3.58,1.6-1.96,0-3.38-1.18-3.38-2.78Zm4.92,1.76c.8,0,1.58-.44,2.04-1.16v-2.46c-.36-.3-.98-.48-1.66-.48-1.34,0-2.16.78-2.16,2.08,0,1.2.68,2.02,1.78,2.02Z"/>
    <path class="cls-4" d="m155.4,78.69v-6c0-.68-.22-1.38-.54-1.72l3.6-.66v1.78c.68-1.12,2.02-1.88,3.5-1.88,1.98,0,3.42,1.42,3.42,3.3v5.18c0,.68.22,1.38.54,1.72h-4.12c.32-.34.52-1.04.52-1.72v-5.88c0-.94-.66-1.66-1.56-1.66-.94.02-1.86.7-2.3,1.74v5.8c0,.68.2,1.38.52,1.72h-4.12c.32-.34.54-1.04.54-1.72Z"/>
    <path class="cls-4" d="m167.2,78.43c0-.72.54-1.24,1.28-1.24s1.2.5,1.2,1.22c-.54,0-.9.28-.9.68,0,.64.92,1.08,2.28,1.08,1.48,0,2.42-.52,2.42-1.38s-.98-1.32-2.54-2.04c-1.32-.58-3.64-1.4-3.64-3.52,0-1.84,1.76-3.02,4.34-3.02,2,0,3.6.7,3.6,1.98,0,.68-.48,1.22-1.2,1.22s-1.26-.52-1.26-1.22c.52,0,.82-.26.82-.64,0-.56-.72-.9-1.82-.9-1.38,0-2.3.54-2.3,1.4s1.02,1.34,2.54,2c1.54.66,3.64,1.42,3.64,3.48,0,1.82-1.6,3.08-4.38,3.08-2.3,0-4.08-.86-4.08-2.18Z"/>
  </g>
</svg>