<?xml version="1.0" encoding="UTF-8"?>
<svg id="Camada_1" data-name="Camada 1" xmlns="http://www.w3.org/2000/svg" viewBox="0 0 240 120">
  <defs>
    <style>
      .cls-1 {
        fill: #bda189;
      }

      .cls-1, .cls-2, .cls-3, .cls-4 {
        stroke-width: 0px;
      }

      .cls-2 {
        fill: #755647;
      }

      .cls-3 {
        fill: #f2eade;
      }

      .cls-4 {
        fill: #745646;
      }
    </style>
  </defs>
  <rect class="cls-1" x="14.88" y="13.11" width="93.78" height="93.78" rx="12" ry="12"/>
  <g>
    <path class="cls-4" d="m121.48,54.69v-10.56c0-.68-.22-1.38-.54-1.72h7.22c2.56,0,4.46,1.5,4.46,3.46,0,1.64-1.34,2.8-3.52,3.28,2.42.42,4.12,1.66,4.12,3.6,0,2.14-2,3.66-4.46,3.66h-7.82c.32-.34.54-1.04.54-1.72Zm3.06-11.88v6.2h2.08c1.72,0,2.86-.96,2.86-3.04,0-1.96-1.02-3.16-2.56-3.16h-2.38Zm2.68,6.6h-2.68v6.6h2.98c1.54,0,2.56-1.24,2.56-3.3,0-2.84-1.86-3.3-2.86-3.3Z"/>
    <path class="cls-4" d="m135.22,54.69v-10.5c0-.68-.22-1.38-.54-1.72l3.6-.66v12.88c0,.68.2,1.38.52,1.72h-4.12c.32-.34.54-1.04.54-1.72Z"/>
    <path class="cls-4" d="m140.7,53.29v-4.6c0-.68-.22-1.38-.52-1.72l3.58-.66v7.7c0,.92.64,1.62,1.54,1.62s1.76-.72,2.22-1.78v-5.16c0-.68-.22-1.38-.54-1.72l3.6-.66v8.38c0,.68.2,1.38.52,1.72h-3.38c-.12-.34-.2-1.02-.2-1.72-.7,1.14-2,1.92-3.42,1.92-1.92,0-3.4-1.4-3.4-3.32Z"/>
    <path class="cls-4" d="m152.54,54.43c0-.72.54-1.24,1.28-1.24s1.2.5,1.2,1.22c-.54,0-.9.28-.9.68,0,.64.92,1.08,2.28,1.08,1.48,0,2.42-.52,2.42-1.38s-.98-1.32-2.54-2.04c-1.32-.58-3.64-1.4-3.64-3.52,0-1.84,1.76-3.02,4.34-3.02,2,0,3.6.7,3.6,1.98,0,.68-.48,1.22-1.2,1.22s-1.26-.52-1.26-1.22c.52,0,.82-.26.82-.64,0-.56-.72-.9-1.82-.9-1.38,0-2.3.54-2.3,1.4s1.02,1.34,2.54,2c1.54.66,3.64,1.42,3.64,3.48,0,1.82-1.6,3.08-4.38,3.08-2.3,0-4.08-.86-4.08-2.18Z"/>
    <path class="cls-4" d="m162.24,53.83c0-1.76,1.68-2.94,4.12-2.94,1.12,0,2.28.26,2.84.64v-2.42c0-1.46-.94-2.4-2.5-2.4-1.02,0-1.72.4-1.72,1.04,0,.5.42.86,1.04.86,0,.84-.6,1.48-1.48,1.48s-1.52-.6-1.52-1.48c0-1.42,1.74-2.4,4.3-2.4,2.94,0,4.94,1.6,4.94,3.7v4.78c0,.68.22,1.38.54,1.72h-3.4c-.12-.3-.2-.88-.2-1.4-.74.96-2.12,1.6-3.58,1.6-1.96,0-3.38-1.18-3.38-2.78Zm4.92,1.76c.8,0,1.58-.44,2.04-1.16v-2.46c-.36-.3-.98-.48-1.66-.48-1.34,0-2.16.78-2.16,2.08,0,1.2.68,2.02,1.78,2.02Z"/>
    <path class="cls-4" d="m174.08,54.43c0-.72.54-1.24,1.28-1.24s1.2.5,1.2,1.22c-.54,0-.9.28-.9.68,0,.64.92,1.08,2.28,1.08,1.48,0,2.42-.52,2.42-1.38s-.98-1.32-2.54-2.04c-1.32-.58-3.64-1.4-3.64-3.52,0-1.84,1.76-3.02,4.34-3.02,2,0,3.6.7,3.6,1.98,0,.68-.48,1.22-1.2,1.22s-1.26-.52-1.26-1.22c.52,0,.82-.26.82-.64,0-.56-.72-.9-1.82-.9-1.38,0-2.3.54-2.3,1.4s1.02,1.34,2.54,2c1.54.66,3.64,1.42,3.64,3.48,0,1.82-1.6,3.08-4.38,3.08-2.3,0-4.08-.86-4.08-2.18Z"/>
    <path class="cls-4" d="m120.72,77.43c0-.88.62-1.48,1.42-1.48s1.4.6,1.4,1.36c-.74,0-1.2.4-1.2,1.04,0,1.02,1.26,1.68,3.06,1.68,2.12,0,3.56-.92,3.56-2.28,0-1.46-1.64-2.18-3.5-2.94-2.08-.86-4.5-1.86-4.5-4.46s2.22-4.14,5.2-4.14c2.72,0,4.78,1.34,4.78,2.98,0,.86-.58,1.46-1.38,1.46s-1.42-.6-1.42-1.36c.8,0,1.34-.36,1.34-.98,0-.9-1.14-1.54-2.72-1.54-2,0-3.42,1-3.42,2.4,0,1.58,1.8,2.3,3.64,3.02,2.22.86,4.5,1.76,4.5,4.28s-2.2,4.14-5.42,4.14c-3.02,0-5.34-1.4-5.34-3.18Z"/>
    <path class="cls-4" d="m132.84,75.41c0-2.96,2.34-5.2,5.46-5.2s5.46,2.24,5.46,5.2-2.34,5.2-5.46,5.2-5.46-2.24-5.46-5.2Zm7.78,0c0-3-.9-4.8-2.32-4.8s-2.32,1.8-2.32,4.8.88,4.8,2.32,4.8,2.32-1.8,2.32-4.8Z"/>
    <path class="cls-4" d="m145.1,75.41c0-2.96,2.38-5.2,5.52-5.2,2.24,0,3.94,1.18,3.94,2.7,0,.92-.62,1.54-1.48,1.54s-1.52-.64-1.52-1.48c.9,0,1.5-.42,1.5-1.08s-.62-1.04-1.58-1.04c-1.98,0-3.24,1.7-3.24,4.54s1.28,4.56,3.32,4.56c1.16,0,2.18-.56,2.64-1.38l.42.26c-.56,1.02-2.12,1.78-3.98,1.78-3.22,0-5.54-2.3-5.54-5.2Z"/>
    <path class="cls-4" d="m156.42,78.69v-6c0-.68-.22-1.38-.54-1.72l3.6-.66v8.38c0,.68.2,1.38.52,1.72h-4.12c.32-.34.54-1.04.54-1.72Zm-.14-11.16c0-.94.74-1.64,1.72-1.64.92,0,1.62.7,1.62,1.64s-.7,1.66-1.62,1.66c-.98,0-1.72-.7-1.72-1.66Z"/>
    <path class="cls-4" d="m161.36,77.83c0-1.76,1.68-2.94,4.12-2.94,1.12,0,2.28.26,2.84.64v-2.42c0-1.46-.94-2.4-2.5-2.4-1.02,0-1.72.4-1.72,1.04,0,.5.42.86,1.04.86,0,.84-.6,1.48-1.48,1.48s-1.52-.6-1.52-1.48c0-1.42,1.74-2.4,4.3-2.4,2.94,0,4.94,1.6,4.94,3.7v4.78c0,.68.22,1.38.54,1.72h-3.4c-.12-.3-.2-.88-.2-1.4-.74.96-2.12,1.6-3.58,1.6-1.96,0-3.38-1.18-3.38-2.78Zm4.92,1.76c.8,0,1.58-.44,2.04-1.16v-2.46c-.36-.3-.98-.48-1.66-.48-1.34,0-2.16.78-2.16,2.08,0,1.2.68,2.02,1.78,2.02Z"/>
    <path class="cls-4" d="m173.82,78.69v-6c0-.68-.22-1.38-.54-1.72l3.6-.66v8.38c0,.68.2,1.38.52,1.72h-4.12c.32-.34.54-1.04.54-1.72Zm-.14-11.16c0-.94.74-1.64,1.72-1.64.92,0,1.62.7,1.62,1.64s-.7,1.66-1.62,1.66c-.98,0-1.72-.7-1.72-1.66Z"/>
    <path class="cls-4" d="m178.9,78.43c0-.72.54-1.24,1.28-1.24s1.2.5,1.2,1.22c-.54,0-.9.28-.9.68,0,.64.92,1.08,2.28,1.08,1.48,0,2.42-.52,2.42-1.38s-.98-1.32-2.54-2.04c-1.32-.58-3.64-1.4-3.64-3.52,0-1.84,1.76-3.02,4.34-3.02,2,0,3.6.7,3.6,1.98,0,.68-.48,1.22-1.2,1.22s-1.26-.52-1.26-1.22c.52,0,.82-.26.82-.64,0-.56-.72-.9-1.82-.9-1.38,0-2.3.54-2.3,1.4s1.02,1.34,2.54,2c1.54.66,3.64,1.42,3.64,3.48,0,1.82-1.6,3.08-4.38,3.08-2.3,0-4.08-.86-4.08-2.18Z"/>
  </g>
  <path class="cls-3" d="m94.82,35.77c-.48-.22-.97-.39-1.46-.55-1.45.91-3.35,1-4.91-.58-.86-.87-1.55-1.96-2.11-3.15.31.94.63,1.88.94,2.82.09.28.23.55.13.9-.08.12-.16.28-.27.42-2.53,3.44-5.06,6.88-7.59,10.33-.38.52-.59.75-.97-.04-1.95-4.1-3.94-8.18-5.94-12.26-.3-.6-.26-.91.43-1.19,3.72-1.49,7.42-3.02,11.12-4.57.58-.25.85-.17,1.04.24-.25-1.21-.38-2.42-.34-3.55,0-.31.06-.61.13-.9-7.5-2.24-14.99-4.5-22.47-6.79-.96-.29-1.69-.14-2.45.5-2.07,1.73-4.2,3.39-6.29,5.1-.45.37-.87.55-1.46.35-.96-.33-1.93-.61-2.9-.87-3.94-1.08-7.83.95-9,4.79-5.77,19.07-11.52,38.15-17.25,57.23-.34,1.15-.41,2.28-.24,3.35,1.24.46,2.49.89,3.74,1.3-.61-.77-.88-1.73-.82-2.85.06-1.08.59-2.05.83-3.09.07-.31.29-.4.5-.12,1.36,1.74,3.39,2.2,5.34,2.79,14.1,4.26,28.2,8.5,42.3,12.76,1.22.37,2.46.47,3.7.19.45-.1.67-.05.72.15.05-.03.11-.04.16-.06.04-.48.14-.97.36-1.47,2.37-5.36,3.25-11.2,5.23-16.69,1.85-5.13,3.76-10.02,5.04-15.35.39-1.62.67-3.29.92-4.97-.66,2.17-1.31,4.34-1.96,6.51-1.72,5.71-3.45,11.42-5.17,17.13-.95,3.14-2.91,4.16-6.06,3.2-6.56-1.99-13.13-3.98-19.7-5.93-.69-.21-.9-.45-.68-1.18,2.24-7.32,4.46-14.65,6.66-21.99.25-.83.62-1.02,1.41-.73,1.12.4,2.26.73,3.4,1.07,1.38.42,1.99.1,2.41-1.27,1.09-3.58,2.16-7.16,3.24-10.74.07-.22.14-.45.2-.67.07-.01.15-.02.22-.03.72,1.49,1.43,2.98,2.17,4.46.86,1.75,2.06,1.83,3.21.26,2.89-3.95,5.8-7.89,8.68-11.85.46-.64.91-.92,1.7-.58.68.29,1.42.44,2.12.66,2.11.65,3.25,2.09,3.25,4,.03-.11.07-.22.1-.33.42-1.57.62-3.16.72-4.77-.59-.55-1.28-1.02-2.08-1.39Zm-13.7-10.11c-.09.42-.44.43-.69.54-2.98,1.24-5.98,2.45-8.96,3.69-.46.19-.74.19-1.02-.28-1.64-2.64-3.3-5.27-4.95-7.91-.14-.22-.22-.48-.41-.88,5.44,1.64,10.72,3.24,16.03,4.84Zm-26.16-.03c.28-.59.87-.87,1.33-1.26,1.37-1.18,2.81-2.27,4.2-3.43.47-.39.75-.42,1.1.14,2.05,3.33,4.13,6.64,6.21,9.95.27.43.18.68-.22.94-3.76,2.44-7.51,4.88-11.25,7.33-.45.29-.72.39-.76-.33-.19-4.3-.41-8.59-.62-12.88,0-.15,0-.3,0-.46Zm19.76,63.39c2.31.69,4.58,1.8,7.24.77-.37,1.43-.65,2.65-1.25,3.74-.84,1.51-2.75,2.25-4.47,1.86-.38-.09-.74-.21-1.11-.32-14.39-4.34-28.77-8.68-43.16-13.03-2.41-.73-3.66-2.22-3.58-4.36.04-1.11.53-2.12.84-3.18.12-.43.37-.29.58-.06,1.16,1.31,2.7,1.85,4.32,2.34,13.54,4.07,27.07,8.17,40.61,12.24Zm-13.5-32.41c-1.04,3.41-2.06,6.82-3.09,10.23.03.24.04.44.03.61-.17,2.4-1.51,4.47-1.75,6.82-.12,1.14-.65,2.14-1.39,2.88-.16.55-.33,1.09-.49,1.64-.22.73-.56.83-1.24.62-6.45-1.96-12.91-3.89-19.36-5.86-2.41-.74-3.56-2.91-2.83-5.33,4.05-13.45,8.11-26.9,12.18-40.34.76-2.5,2.93-3.66,5.44-2.93.77.22,1.53.51,2.31.68.71.16.94.54.97,1.24.21,4.92.45,9.85.69,14.77.02.33.02.66.07.98.18,1.17,1.21,1.71,2.25,1.12.88-.49,1.7-1.08,2.55-1.62.14-.09.28-.23.5-.15.1.33-.09.62-.18.92-.88,2.96-1.78,5.91-2.67,8.87-.46,1.53-.14,2.1,1.4,2.57,1.34.41,2.67.83,4.01,1.2.62.17.81.43.61,1.08Zm2.92-9.7c-.52,1.73-1.06,3.46-1.56,5.2-.17.6-.44.85-1.08.62-.78-.28-1.59-.49-2.38-.74-.41-.13-.69-.35-.55-.84.95-3.15,1.9-6.29,2.93-9.71.98,1.68,1.82,3.1,2.66,4.52.19.32.07.63-.02.95Zm7.25-.78c-.38,1.31-.78,2.61-1.18,3.92,0,0,0,0,0,0-.39,1.3-.81,2.6-1.17,3.92-.19.68-.48.9-1.21.69-2.63-.76-2.64-.74-1.85-3.35.3-.99.65-1.97.89-2.98.2-.85.63-1.41,1.47-1.71.83-.3,1.63-.71,2.44-1.07.21-.09.45-.32.65-.16.25.21.03.5-.04.74Zm.94-4.61c-1.65.75-3.3,1.48-4.93,2.25-.55.26-.88.26-1.21-.34-.82-1.48-1.7-2.92-2.58-4.36-.31-.5-.2-.78.27-1.08,1.67-1.07,3.34-2.15,4.99-3.25.56-.37.85-.32,1.14.31.84,1.83,1.74,3.63,2.61,5.45.1.21.16.44.23.62-.1.28-.32.32-.5.41Z"/>
  <g>
    <path class="cls-2" d="m89.18,71.28c-2.86,9.47-5.71,18.93-8.58,28.4-1.27,4.19-5.04,6.2-9.23,4.94-8.3-2.5-16.6-5.01-24.9-7.51-6.47-1.95-12.95-3.87-19.41-5.85-3.96-1.22-6.03-5.03-4.84-9,5.73-19.08,11.48-38.16,17.25-57.23,1.16-3.84,5.06-5.87,9-4.79.97.27,1.95.55,2.9.87.59.2,1.01.02,1.46-.35,2.09-1.71,4.22-3.37,6.29-5.1.76-.63,1.49-.79,2.45-.5,7.84,2.39,15.68,4.76,23.54,7.11.96.29,1.48.81,1.76,1.77.74,2.57,1.58,5.11,2.34,7.67.2.68.57,1.02,1.24,1.21,1.14.32,2.3.6,3.39,1.1,3.48,1.6,5.08,5.12,3.97,8.8-2.86,9.5-5.73,18.99-8.6,28.49h-.03Zm-15.22-27.73c-.07.01-.15.02-.22.03-.07.22-.14.45-.2.67-1.08,3.58-2.16,7.16-3.24,10.74-.42,1.37-1.02,1.69-2.41,1.27-1.14-.34-2.28-.67-3.4-1.07-.79-.28-1.16-.1-1.41.73-2.19,7.34-4.42,14.67-6.66,21.99-.22.72-.01.97.68,1.18,6.57,1.96,13.14,3.94,19.7,5.93,3.15.96,5.11-.07,6.06-3.2,1.73-5.71,3.45-11.42,5.17-17.13,2.27-7.53,4.56-15.06,6.82-22.6.81-2.69-.34-4.78-3.01-5.6-.71-.22-1.45-.37-2.12-.66-.79-.34-1.24-.06-1.7.58-2.88,3.96-5.79,7.9-8.68,11.85-1.15,1.58-2.34,1.49-3.21-.26-.73-1.48-1.44-2.98-2.17-4.46Zm-16.88-3.35c-.22-.08-.36.06-.5.15-.85.54-1.68,1.13-2.55,1.62-1.04.58-2.07.04-2.25-1.12-.05-.32-.05-.65-.07-.98-.24-4.92-.48-9.85-.69-14.77-.03-.71-.26-1.08-.97-1.24-.78-.17-1.54-.46-2.31-.68-2.51-.73-4.68.42-5.44,2.93-4.07,13.45-8.13,26.89-12.18,40.34-.73,2.41.42,4.59,2.83,5.33,6.45,1.97,12.91,3.9,19.36,5.86.67.21,1.02.11,1.24-.62,2.21-7.4,4.45-14.79,6.69-22.18.2-.65,0-.91-.61-1.08-1.35-.37-2.68-.79-4.01-1.2-1.54-.47-1.86-1.04-1.4-2.57.89-2.96,1.79-5.91,2.67-8.87.09-.3.28-.59.18-.92Zm23.9,47.81c-2.66,1.03-4.93-.07-7.24-.77-13.54-4.07-27.07-8.17-40.61-12.24-1.62-.49-3.16-1.03-4.32-2.34-.21-.23-.45-.37-.58.06-.3,1.05-.79,2.07-.84,3.18-.08,2.14,1.17,3.63,3.58,4.36,14.39,4.34,28.77,8.69,43.16,13.03.37.11.74.23,1.11.32,1.72.4,3.62-.35,4.47-1.86.61-1.09.89-2.31,1.25-3.74Zm-30.75,7.13c.6.18,1.19.36,1.79.54,6.65,2.01,13.3,4.02,19.96,6.02,2.13.64,3.84.19,5.06-1.37.69-.89.8-2.03,1.17-3.06.22-.63.12-.88-.63-.71-1.24.28-2.48.18-3.7-.19-14.1-4.25-28.2-8.5-42.3-12.76-1.95-.59-3.98-1.05-5.34-2.79-.21-.28-.43-.19-.5.12-.24,1.04-.77,2.01-.83,3.09-.1,1.76.61,3.12,2.18,3.96.54.29,1.15.49,1.74.67,7.13,2.16,14.27,4.31,21.4,6.47Zm36.2-61.69c.09-.35-.04-.62-.13-.9-.64-1.95-1.31-3.88-1.91-5.84-.22-.72-.46-.87-1.17-.57-3.69,1.56-7.4,3.08-11.12,4.57-.69.28-.73.58-.43,1.19,2,4.08,3.99,8.16,5.94,12.26.38.79.59.56.97.04,2.52-3.45,5.06-6.89,7.59-10.33.1-.14.19-.3.27-.42Zm-32.45-9.59c0,.16-.01.31,0,.46.21,4.29.43,8.59.62,12.88.03.72.31.63.76.33,3.75-2.45,7.5-4.9,11.25-7.33.4-.26.49-.51.22-.94-2.08-3.31-4.16-6.63-6.21-9.95-.35-.57-.63-.53-1.1-.14-1.39,1.16-2.83,2.25-4.2,3.43-.46.39-1.05.68-1.33,1.26Zm10.13-4.8c.18.4.27.66.41.88,1.65,2.64,3.31,5.26,4.95,7.91.29.46.56.47,1.02.28,2.98-1.24,5.97-2.46,8.96-3.69.25-.1.59-.11.69-.54l-16.03-4.84Zm7.74,20.28c-.06-.18-.13-.41-.23-.62-.87-1.82-1.77-3.62-2.61-5.45-.29-.63-.58-.69-1.14-.31-1.65,1.11-3.31,2.19-4.99,3.25-.47.3-.58.58-.27,1.08.89,1.44,1.76,2.88,2.58,4.36.33.6.66.6,1.21.34,1.63-.77,3.29-1.5,4.93-2.25.19-.08.4-.13.5-.41Zm-11.32.33c-1.03,3.42-1.98,6.57-2.93,9.71-.15.49.13.71.55.84.79.25,1.6.46,2.38.74.64.23.91-.02,1.08-.62.5-1.74,1.04-3.46,1.56-5.2.09-.31.21-.63.02-.95-.83-1.43-1.67-2.85-2.66-4.52Zm8.71,8.6h0c.39-1.31.79-2.61,1.18-3.92.07-.24.3-.53.04-.74-.2-.16-.44.07-.65.16-.81.36-1.61.77-2.44,1.07-.84.3-1.27.86-1.47,1.71-.24,1.01-.59,1.99-.89,2.98-.79,2.61-.78,2.59,1.85,3.35.73.21,1.02,0,1.21-.69.36-1.31.78-2.61,1.17-3.92Z"/>
    <path class="cls-2" d="m52.67,73.78c-.24.75-1.08,1.18-1.85.94-.8-.25-1.25-1.11-.99-1.9.24-.75,1.1-1.19,1.85-.95.78.24,1.24,1.13.98,1.91Z"/>
    <path class="cls-2" d="m56.13,62.3c-.25.77-1.06,1.22-1.83.99-.79-.23-1.27-1.11-1.03-1.89.24-.77,1.16-1.24,1.92-.97.73.26,1.17,1.13.94,1.87Z"/>
    <path class="cls-2" d="m54.42,67.99c-.22.77-1.02,1.22-1.8,1.02-.83-.22-1.32-1.05-1.07-1.84.24-.79,1.02-1.23,1.81-1.02.83.22,1.3,1.04,1.07,1.85Z"/>
    <path class="cls-2" d="m56.88,54.73c.79.25,1.22,1.05.99,1.83-.25.82-1.09,1.24-1.92.95-.77-.26-1.19-1.1-.93-1.86.26-.77,1.08-1.18,1.87-.93Z"/>
  </g>
</svg>