<?xml version="1.0" encoding="UTF-8"?>
<svg id="Camada_1" data-name="Camada 1" xmlns="http://www.w3.org/2000/svg" viewBox="0 0 240 120">
  <defs>
    <style>
      .cls-1 {
        fill: #bda189;
      }

      .cls-1, .cls-2, .cls-3 {
        stroke-width: 0px;
      }

      .cls-2 {
        fill: #f2eade;
      }

      .cls-3 {
        fill: #745646;
      }
    </style>
  </defs>
  <rect class="cls-1" x="14.88" y="13.11" width="93.78" height="93.78" rx="12" ry="12"/>
  <g>
    <path class="cls-3" d="m120.62,61.43c0-4.06,3.22-7.22,7.5-7.22,3.06,0,5.5,1.66,5.5,3.58,0,.98-.66,1.68-1.6,1.68s-1.64-.68-1.64-1.6c1,0,1.72-.5,1.72-1.22,0-.94-1.24-1.74-3.04-1.74-3.2,0-5.3,2.44-5.3,6.5s2.06,6.5,5.3,6.5c1.96,0,3.44-.9,4.24-2.34l.44.28c-.86,1.58-2.96,2.76-5.58,2.76-4.18,0-7.54-3.04-7.54-7.18Z"/>
    <path class="cls-3" d="m134.96,65.83c0-1.76,1.68-2.94,4.12-2.94,1.12,0,2.28.26,2.84.64v-2.42c0-1.46-.94-2.4-2.5-2.4-1.02,0-1.72.4-1.72,1.04,0,.5.42.86,1.04.86,0,.84-.6,1.48-1.48,1.48s-1.52-.6-1.52-1.48c0-1.42,1.74-2.4,4.3-2.4,2.94,0,4.94,1.6,4.94,3.7v4.78c0,.68.22,1.38.54,1.72h-3.4c-.12-.3-.2-.88-.2-1.4-.74.96-2.12,1.6-3.58,1.6-1.96,0-3.38-1.18-3.38-2.78Zm4.92,1.76c.8,0,1.58-.44,2.04-1.16v-2.46c-.36-.3-.98-.48-1.66-.48-1.34,0-2.16.78-2.16,2.08,0,1.2.68,2.02,1.78,2.02Z"/>
    <path class="cls-3" d="m147.38,66.69v-10.5c0-.68-.22-1.38-.54-1.72l3.6-.66v12.88c0,.68.2,1.38.52,1.72h-4.12c.32-.34.54-1.04.54-1.72Z"/>
    <path class="cls-3" d="m157.54,68.61l-.64.84c.22-.08.48-.12.78-.12,1.2,0,2.02.72,2.02,1.72,0,1.1-1.04,1.82-2.38,1.82-.82,0-1.5-.3-1.9-.76l.18-.28c.26.28.72.48,1.16.48.76,0,1.26-.52,1.26-1.32,0-.72-.4-1.2-1-1.2-.3,0-.52.12-.62.3l-.36-.12,1-1.42c-2.78-.34-4.72-2.48-4.72-5.14,0-2.96,2.38-5.2,5.52-5.2,2.24,0,3.94,1.18,3.94,2.7,0,.92-.62,1.54-1.48,1.54s-1.52-.64-1.52-1.48c.9,0,1.5-.42,1.5-1.08s-.62-1.04-1.58-1.04c-1.98,0-3.24,1.7-3.24,4.54s1.28,4.56,3.32,4.56c1.16,0,2.18-.56,2.64-1.38l.42.26c-.56,1.02-2.12,1.78-3.98,1.78h-.32Z"/>
    <path class="cls-3" d="m162.84,65.83c0-1.76,1.68-2.94,4.12-2.94,1.12,0,2.28.26,2.84.64v-2.42c0-1.46-.94-2.4-2.5-2.4-1.02,0-1.72.4-1.72,1.04,0,.5.42.86,1.04.86,0,.84-.6,1.48-1.48,1.48s-1.52-.6-1.52-1.48c0-1.42,1.74-2.4,4.3-2.4,2.94,0,4.94,1.6,4.94,3.7v4.78c0,.68.22,1.38.54,1.72h-3.4c-.12-.3-.2-.88-.2-1.4-.74.96-2.12,1.6-3.58,1.6-1.96,0-3.38-1.18-3.38-2.78Zm4.92,1.76c.8,0,1.58-.44,2.04-1.16v-2.46c-.36-.3-.98-.48-1.66-.48-1.34,0-2.16.78-2.16,2.08,0,1.2.68,2.02,1.78,2.02Z"/>
    <path class="cls-3" d="m174.52,63.41c0-2.96,1.94-5.2,4.4-5.2,1.34,0,2.56.66,3.26,1.7v-3.72c0-.68-.22-1.38-.54-1.72l3.6-.66v12.88c0,.68.2,1.38.52,1.72h-3.38c-.1-.28-.18-.8-.2-1.38-.74.96-1.92,1.58-3.22,1.58-2.5,0-4.44-2.24-4.44-5.2Zm5.56,4.32c.86,0,1.62-.6,2.1-1.54v-5.42c-.48-1.04-1.28-1.66-2.16-1.66-1.4,0-2.36,1.72-2.36,4.3s.98,4.32,2.42,4.32Z"/>
    <path class="cls-3" d="m187.12,63.41c0-2.96,2.34-5.2,5.46-5.2s5.46,2.24,5.46,5.2-2.34,5.2-5.46,5.2-5.46-2.24-5.46-5.2Zm7.78,0c0-3-.9-4.8-2.32-4.8s-2.32,1.8-2.32,4.8.88,4.8,2.32,4.8,2.32-1.8,2.32-4.8Z"/>
    <path class="cls-3" d="m199.3,66.43c0-.72.54-1.24,1.28-1.24s1.2.5,1.2,1.22c-.54,0-.9.28-.9.68,0,.64.92,1.08,2.28,1.08,1.48,0,2.42-.52,2.42-1.38s-.98-1.32-2.54-2.04c-1.32-.58-3.64-1.4-3.64-3.52,0-1.84,1.76-3.02,4.34-3.02,2,0,3.6.7,3.6,1.98,0,.68-.48,1.22-1.2,1.22s-1.26-.52-1.26-1.22c.52,0,.82-.26.82-.64,0-.56-.72-.9-1.82-.9-1.38,0-2.3.54-2.3,1.4s1.02,1.34,2.54,2c1.54.66,3.64,1.42,3.64,3.48,0,1.82-1.6,3.08-4.38,3.08-2.3,0-4.08-.86-4.08-2.18Z"/>
  </g>
  <g>
    <path class="cls-2" d="m68.79,69.27c-.57,3.5-.95,7.04-1.82,10.49.52-.77,1.05-1.54,1.59-2.29.98-3.45,1.46-7.08,1.76-10.19-.09-2.01-.13-4.03.19-5.91-.78,2.58-1.29,5.23-1.73,7.9Z"/>
    <path class="cls-2" d="m28.36,90.32c1.37.38,2.74.85,4.14,1.1.04,0,.86.11,1.02.13.39.05.79.09,1.18.13.92.09,1.84.17,2.77.23,3.41.23,6.85.25,10.26,0,1.19-.24,2.37-.49,3.57-.67,2.52-.4,5.19-.63,7.62-1.5-.11-.57,0-1.2.37-1.8-5.67,1.28-11.37,2.39-17.15,2.99-3.11.32-6.23.53-9.34-.04-.44-.08-.87-.21-1.31-.33-1.67-.46-2.3-2.42-.82-3.72,1.17-1.03,2.47-1.83,3.81-2.58,3.68-2.04,7.48-3.89,11.12-6.01.33-.19.59-.16.92,0,1.92.93,3.9,1.73,6.03,2.07,4.25.68,7.43-.98,9.28-4.87,1.24-2.62,1.79-5.44,2.24-8.27.85-5.33,1.35-10.71,2.34-16.02,1.14-6.11,2.85-12.03,5.81-17.54.39-.72.76-.88,1.54-.69,2.15.54,4.25,1.17,6.15,2.35,3.06,1.91,4.72,4.77,5.62,8.16.17.64.31,1.29.43,1.94-.12-1.27-.29-2.53-.54-3.79-.48-2.45-1.89-4.55-2-7.09-.03-.66.17-1.18.5-1.56-.32-.26-.64-.51-.98-.75-3.63-2.52-7.75-3.57-12.08-3.98-.36-.03-.44.2-.58.41-1.84,2.84-3.35,5.83-4.57,8.99-2.3,5.96-3.52,12.18-4.42,18.48-.62,4.33-1.03,8.7-1.9,13-.36,1.79-.82,3.56-1.74,5.16-.84,1.45-2.08,2.07-3.74,1.94-.74-.06-1.45-.21-2.16-.42-1.85-.56-3.56-1.42-5.25-2.34-.32-.17-.58-.29-.97-.06-3.94,2.36-8.05,4.43-12.09,6.61-2.09,1.12-4.17,2.27-5.87,3.95-1.63,1.61-2.27,3.66-1.88,5.7.9.22,1.8.46,2.7.7Z"/>
    <path class="cls-2" d="m85.9,53.76c-4.56-3.65-11.12-2.16-13.65,3.1-.11.22-.2.44-.3.67.36-.55.79-1.08,1.31-1.57,3.65-3.42,9.99-3.48,12.84.8-.04-.95-.04-1.9-.04-2.86-.05-.05-.11-.1-.17-.14Z"/>
  </g>
  <path class="cls-3" d="m88.38,43.35c.15,1.41.32,2.81.44,4.22.34,3.99.44,7.99.61,11.99.31,7.3,1.35,14.48,3.15,21.56.3,1.19.28,1.19-.92,1.46-.76.17-1.54.32-2.29.53-.52.15-.73.05-.85-.52-.63-2.9-1.3-5.79-1.95-8.68-1.22-5.39-2.43-10.78-3.68-16.16-.69-3.01-3.96-4.54-6.69-3.19-.93.46-1.57,1.19-2.02,2.12-1.39,2.89-2.19,5.95-2.73,9.09-.63,3.64-1.15,7.3-1.8,10.93-.45,2.55-1.16,5.03-2.42,7.33-1.69,3.09-4.25,5.04-7.68,5.83-6.47,1.48-12.98,2.8-19.61,3.41-3.66.34-7.33.53-10.95-.4-1.84-.48-3.46-1.32-4.46-3.04-1.56-2.68-1.16-5.7,1.06-7.88,1.71-1.68,3.79-2.83,5.87-3.95,4.04-2.18,8.15-4.25,12.09-6.61.39-.23.65-.12.97.06,1.69.91,3.4,1.78,5.25,2.34.71.21,1.42.36,2.16.42,1.65.13,2.9-.49,3.74-1.94.93-1.61,1.38-3.37,1.74-5.16.87-4.3,1.28-8.66,1.9-13,.9-6.3,2.12-12.52,4.42-18.48,1.22-3.15,2.73-6.15,4.57-8.99.13-.21.21-.44.58-.41,4.33.41,8.45,1.46,12.08,3.98,3.09,2.15,5.07,5.12,6.26,8.66.08.24.2.47.3.7l.85,3.75Zm-3.53,9.23c-.02-.4-.02-.63-.04-.87-.19-3.43-.37-6.87-1.25-10.21-.89-3.39-2.56-6.26-5.62-8.16-1.9-1.18-4-1.82-6.15-2.35-.77-.19-1.15-.04-1.54.69-2.97,5.51-4.67,11.43-5.82,17.54-.99,5.31-1.49,10.69-2.34,16.02-.45,2.83-.99,5.65-2.24,8.27-1.85,3.89-5.03,5.55-9.28,4.87-2.13-.34-4.1-1.14-6.03-2.07-.33-.16-.6-.19-.92,0-3.64,2.13-7.43,3.97-11.12,6.01-1.35.75-2.65,1.55-3.81,2.58-1.48,1.3-.84,3.26.82,3.72.43.12.87.25,1.31.33,3.11.57,6.23.37,9.34.04,6.24-.65,12.37-1.87,18.47-3.29,1.94-.45,3.44-1.54,4.51-3.21.8-1.25,1.3-2.63,1.69-4.05.99-3.64,1.37-7.4,1.98-11.11.7-4.26,1.57-8.48,3.46-12.41,2.53-5.25,9.09-6.75,13.65-3.1.27.22.53.45.9.76Z"/>
</svg>