<?xml version="1.0" encoding="UTF-8"?>
<svg id="Camada_1" data-name="Camada 1" xmlns="http://www.w3.org/2000/svg" viewBox="0 0 240 120">
  <defs>
    <style>
      .cls-1 {
        fill: #bda189;
      }

      .cls-1, .cls-2, .cls-3, .cls-4, .cls-5, .cls-6, .cls-7, .cls-8 {
        stroke-width: 0px;
      }

      .cls-2 {
        fill: #f1e9dd;
      }

      .cls-3 {
        fill: #755647;
      }

      .cls-4 {
        fill: #c7c7c7;
      }

      .cls-5 {
        fill: #e7e7e7;
      }

      .cls-6 {
        fill: #d6d6d6;
      }

      .cls-7 {
        fill: #745646;
      }

      .cls-8 {
        fill: #efefef;
      }
    </style>
  </defs>
  <g>
    <path class="cls-7" d="m121.48,54.69v-10.56c0-.68-.22-1.38-.54-1.72h10.46v3.1c-.7-1.62-2.1-2.7-3.5-2.7h-3.36v6.5h2.56c1.08,0,2.16-.62,2.7-1.56v3.52c-.54-.94-1.62-1.56-2.7-1.56h-2.56v4.98c0,.68.28,1.38.72,1.72h-4.32c.32-.34.54-1.04.54-1.72Z"/>
    <path class="cls-7" d="m132.38,54.69v-6c0-.68-.22-1.38-.54-1.72l3.6-.66v1.82c.54-1.18,1.54-1.92,2.76-1.92,1.34,0,2.28.88,2.28,2.06,0,.94-.6,1.58-1.5,1.58s-1.56-.66-1.56-1.52c.8,0,1.3-.34,1.3-.86,0-.4-.3-.62-.82-.62-1.08,0-2.04.88-2.46,2.18v5.66c0,.68.28,1.38.7,1.72h-4.3c.32-.34.54-1.04.54-1.72Z"/>
    <path class="cls-7" d="m140.86,51.39c0-2.98,2.36-5.18,5.34-5.18s4.94,2.1,4.94,4.86h-7.14c0,3.32,1.3,4.9,3.46,4.9,1.06,0,1.92-.4,1.92-1.1,0-.58-.58-1-1.38-1,0-.82.66-1.48,1.54-1.48s1.46.68,1.46,1.52c0,1.52-1.92,2.7-4.4,2.7-3.36,0-5.74-2.24-5.74-5.22Zm3.14-.72h4.26c-.06-2.54-.82-4.06-2.06-4.06s-2.12,1.7-2.2,4.06Z"/>
    <path class="cls-7" d="m153.08,53.91v-7.1h-1.2v-.2c1.58-.4,3.28-1.66,4.26-3.22v3.02h2.56v.4h-2.56v7.6c0,.84.54,1.46,1.28,1.46.6,0,1.2-.42,1.4-.98l.32.18c-.2.88-1.48,1.54-2.86,1.54-1.84,0-3.2-1.16-3.2-2.7Z"/>
    <path class="cls-7" d="m159.18,51.39c0-2.98,2.36-5.18,5.34-5.18s4.94,2.1,4.94,4.86h-7.14c0,3.32,1.3,4.9,3.46,4.9,1.06,0,1.92-.4,1.92-1.1,0-.58-.58-1-1.38-1,0-.82.66-1.48,1.54-1.48s1.46.68,1.46,1.52c0,1.52-1.92,2.7-4.4,2.7-3.36,0-5.74-2.24-5.74-5.22Zm3.14-.72h4.26c-.06-2.54-.82-4.06-2.06-4.06s-2.12,1.7-2.2,4.06Z"/>
    <path class="cls-7" d="m120.62,73.39c0-4.08,3.28-7.18,7.7-7.18,3.14,0,5.42,1.56,5.42,3.5,0,1.04-.64,1.72-1.58,1.72s-1.64-.66-1.64-1.6c1.02,0,1.7-.5,1.7-1.22,0-.96-1.26-1.74-3.06-1.74-3.38,0-5.4,2.4-5.4,6.74,0,3.96,1.74,6.6,4.6,6.6,1.44,0,2.46-.66,3-1.74v-2.06c0-.76-.38-1.54-.94-1.92h3.86v5.92h-.2l-1.68-1.52c-.72,1.06-2.3,1.72-4.24,1.72-4.2,0-7.54-3.1-7.54-7.22Z"/>
    <path class="cls-7" d="m136.52,78.69v-6c0-.68-.22-1.38-.54-1.72l3.6-.66v1.82c.54-1.18,1.54-1.92,2.76-1.92,1.34,0,2.28.88,2.28,2.06,0,.94-.6,1.58-1.5,1.58s-1.56-.66-1.56-1.52c.8,0,1.3-.34,1.3-.86,0-.4-.3-.62-.82-.62-1.08,0-2.04.88-2.46,2.18v5.66c0,.68.28,1.38.7,1.72h-4.3c.32-.34.54-1.04.54-1.72Z"/>
    <path class="cls-7" d="m144.82,77.83c0-1.76,1.68-2.94,4.12-2.94,1.12,0,2.28.26,2.84.64v-2.42c0-1.46-.94-2.4-2.5-2.4-1.02,0-1.72.4-1.72,1.04,0,.5.42.86,1.04.86,0,.84-.6,1.48-1.48,1.48s-1.52-.6-1.52-1.48c0-1.42,1.74-2.4,4.3-2.4,2.94,0,4.94,1.6,4.94,3.7v4.78c0,.68.22,1.38.54,1.72h-3.4c-.12-.3-.2-.88-.2-1.4-.74.96-2.12,1.6-3.58,1.6-1.96,0-3.38-1.18-3.38-2.78Zm4.92,1.76c.8,0,1.58-.44,2.04-1.16v-2.46c-.36-.3-.98-.48-1.66-.48-1.34,0-2.16.78-2.16,2.08,0,1.2.68,2.02,1.78,2.02Zm-.5-10.64c.46-1.12.84-2.46.92-3.4l3.4.34c-1,1.12-2.54,2.32-3.88,3.06h-.44Z"/>
    <path class="cls-7" d="m157.38,77.91v-7.1h-1.2v-.2c1.58-.4,3.28-1.66,4.26-3.22v3.02h2.56v.4h-2.56v7.6c0,.84.54,1.46,1.28,1.46.6,0,1.2-.42,1.4-.98l.32.18c-.2.88-1.48,1.54-2.86,1.54-1.84,0-3.2-1.16-3.2-2.7Z"/>
    <path class="cls-7" d="m164.72,78.69v-6c0-.68-.22-1.38-.54-1.72l3.6-.66v8.38c0,.68.2,1.38.52,1.72h-4.12c.32-.34.54-1.04.54-1.72Zm-.14-11.16c0-.94.74-1.64,1.72-1.64.92,0,1.62.7,1.62,1.64s-.7,1.66-1.62,1.66c-.98,0-1.72-.7-1.72-1.66Z"/>
    <path class="cls-7" d="m169.8,78.43c0-.72.54-1.24,1.28-1.24s1.2.5,1.2,1.22c-.54,0-.9.28-.9.68,0,.64.92,1.08,2.28,1.08,1.48,0,2.42-.52,2.42-1.38s-.98-1.32-2.54-2.04c-1.32-.58-3.64-1.4-3.64-3.52,0-1.84,1.76-3.02,4.34-3.02,2,0,3.6.7,3.6,1.98,0,.68-.48,1.22-1.2,1.22s-1.26-.52-1.26-1.22c.52,0,.82-.26.82-.64,0-.56-.72-.9-1.82-.9-1.38,0-2.3.54-2.3,1.4s1.02,1.34,2.54,2c1.54.66,3.64,1.42,3.64,3.48,0,1.82-1.6,3.08-4.38,3.08-2.3,0-4.08-.86-4.08-2.18Z"/>
  </g>
  <g>
    <rect class="cls-1" x="14.79" y="13.11" width="93.78" height="93.78" rx="12" ry="12"/>
    <g>
      <path class="cls-2" d="m92.26,50.06c-2.88-2.08-1.56-6.19.91-7.02-.14-.38-.38-.7-.79-.93-1.74-.98-3.48-1.93-5.23-2.89-3.1-1.69-6.21-3.35-9.31-5.05-3.57-1.96-7.13-3.94-10.69-5.92-1.62-.9-3.23-1.8-4.84-2.7h-.83c-.25.13-.5.25-.75.39-3.7,2.03-7.4,4.06-11.1,6.09-3.8,2.09-7.6,4.17-11.4,6.26-2.08,1.14-4.14,2.3-6.24,3.39-1.12.58-1.55,1.33-1.55,2.64.06,7.73.04,15.45.03,23.18.54.17,1.08.32,1.62.48.49.14,1.1.29,1.59.53.01-7.36.02-14.73.02-22.09.04-.04.07-.08.11-.12,1.89.99,3.79,1.98,5.69,2.97,0,.13,0,.24,0,.36,0,2.8.01,5.6,0,8.41,0,.67.37,1.14.91,1.3.44.13,1.02.07,1.46-.1.68-.27.84-.95.84-1.63.01-2.06.02-4.12.03-6.18,0-.03,0-.07,0-.1.03.03.07.06.1.09,2.6,1.38,5.2,2.75,7.79,4.14.13.07.25.31.25.46,0,4.12,0,8.24-.01,12.36l-.11.13c-.07,0-.15.03-.2,0-1.93-1.04-3.85-2.09-5.79-3.11-1.1-.59-2.21-1.17-3.35-1.68-.68-.3-1.5.15-1.77.84-.39.98-.05,1.72,1.09,2.34,3.62,1.96,7.24,3.92,10.88,5.85.31.16.76.21,1.1.13,1.01-.25,1.4-.83,1.4-1.93,0-4.61.01-9.22.02-13.83.03-.05.05-.09.08-.14.06.04.12.09.19.13,1.76.91,3.52,1.85,5.3,2.73.44.21.58.43.58.91-.01,10.34-.01,20.67-.01,31.01v.8c-.7-.37-1.26-.68-1.83-.98-3.53-1.84-7.06-3.68-10.59-5.51-2.14-1.11-4.3-2.21-6.44-3.32-2.82-1.47-5.63-2.97-8.46-4.4-.56-.29-1.23-.43-1.81.04,6.49,2.95,12.78,6.27,18.8,10.09,3.4,2.16,7.14,4.85,11.15,6.17,2.47-1.74,5.42-2.64,8.16-3.95,3.78-1.81,7.59-3.57,11.32-5.5,3.43-1.77,6.79-3.77,10.39-5.19.92-5.7.5-11.45,1.56-17.19.17-.95.53-2.42.83-4.03,0-2.42,0-4.84,0-7.27-.24-.6-.58-1.1-1.07-1.46Zm-38.96,2.26c-.34.2-.57.17-.9,0-2.47-1.3-4.96-2.57-7.53-3.91,1-.53,1.91-1.01,2.81-1.49,2.56-1.36,5.12-2.73,7.7-4.05.31-.16.83-.19,1.13-.04,2.27,1.14,4.51,2.35,6.86,3.59-.73.43-1.41.83-2.08,1.23-2.66,1.55-5.33,3.1-7.98,4.67Zm35.89,26.83c-2.07,1.02-4.11,2.09-6.16,3.15-3.63,1.88-7.26,3.78-10.89,5.67-2.24,1.17-4.48,2.34-6.73,3.51-.61.32-1.22.64-1.91.99v-.76c0-10.29,0-20.58-.01-30.87,0-.59.19-.87.71-1.14,3.25-1.66,6.47-3.36,9.7-5.05,2.93-1.53,5.87-3.07,8.79-4.61.75-.39,1.5-.79,2.19-1.26.68-.46.87-1.25.51-1.89-.45-.79-1.18-1.14-1.95-.8-1.28.56-2.52,1.22-3.77,1.87-2.12,1.1-4.23,2.23-6.35,3.34-3.63,1.9-7.26,3.79-10.88,5.7-.39.2-.69.23-1.09,0-1.67-.91-3.37-1.77-5.09-2.67,2.74-1.61,5.41-3.17,8.07-4.74.92-.54,1.83-1.13,2.78-1.63.72-.38,1.22-.81,1.18-1.72-.04-.83-.55-1.17-1.18-1.5-3.4-1.75-6.79-3.52-10.18-5.3-.66-.35-1.27-.35-1.94,0-4,2.11-8.03,4.15-11.99,6.32-1.11.61-2,.85-3.15.12-1.32-.84-2.75-1.5-4.14-2.24-.06-.03-.12-.05-.27-.12,1.23-.7,2.32-1.34,3.43-1.95,4.49-2.46,8.98-4.91,13.47-7.37,3-1.65,5.99-3.32,8.99-4.94.24-.13.67-.13.9,0,2.7,1.45,5.38,2.93,8.06,4.41,4,2.21,7.98,4.44,11.98,6.64,2.59,1.42,5.19,2.81,7.81,4.23v.83c0,10.75-.01,21.51.02,32.26,0,.8-.24,1.2-.93,1.54Z"/>
      <path class="cls-2" d="m54.13,57.13s.05-.09.08-.14c.06.04.12.09.19.13-.09,0-.18,0-.27.01Z"/>
      <path class="cls-2" d="m33.7,46.43s.07-.08.11-.12c-.04.04-.07.08-.11.12Z"/>
      <path class="cls-2" d="m42.74,51.43s0-.07,0-.1c.03.03.07.06.1.09l-.05.02h-.05Z"/>
      <path class="cls-2" d="m50.88,68.39s-.08.08-.11.13c.04-.04.08-.08.11-.13Z"/>
      <path class="cls-2" d="m72.5,76.54c-.78-.08-1.18-.4-1.43-1.27-.18-.62.01-1.3.6-1.69.48-.32,1-.57,1.51-.83,3.24-1.67,6.48-3.33,9.72-5,.51-.26.99-.58,1.51-.81,1.32-.59,2.62.21,2.5,1.52-.06.72-.59,1.12-1.16,1.42-1.6.85-3.21,1.65-4.82,2.48-2.5,1.29-4.99,2.59-7.5,3.87-.29.15-.63.21-.95.31Z"/>
      <path class="cls-2" d="m85.25,74.14c.88.09,1.36.42,1.59,1.19.22.72.02,1.24-.71,1.71-.45.29-.93.55-1.41.8-3.11,1.61-6.23,3.21-9.35,4.82-.64.33-1.25.71-1.9,1.01-1.04.48-2.15.21-2.4-1-.11-.56.08-1.33.64-1.64,1.67-.91,3.35-1.8,5.04-2.68,2.48-1.29,4.96-2.57,7.44-3.84.33-.17.71-.25,1.07-.36Z"/>
      <path class="cls-2" d="m76.5,64.64c-.05-.76.39-1.21,1-1.53,2.34-1.21,4.68-2.42,7.03-3.61.79-.4,1.89-.1,2.22.61.45.95,0,1.82-.8,2.23-2.4,1.24-4.79,2.48-7.19,3.71-1.16.59-2.27-.11-2.27-1.41Z"/>
    </g>
    <g>
      <path class="cls-3" d="m50.88,67.3c0-4.12.02-8.24.01-12.36,0-.16-.12-.39-.25-.46-2.59-1.39-5.19-2.77-7.79-4.14-.03-.03-.07-.06-.1-.09,0,.03,0,.07,0,.1,0,2.06-.01,4.12-.03,6.18,0,.68-.16,1.36-.84,1.63-.44.17-1.02.23-1.46.1-.54-.17-.91-.63-.91-1.3,0-2.8,0-5.6,0-8.41,0-.12,0-.23,0-.36-1.91-1-3.8-1.98-5.69-2.97-.04.04-.07.08-.11.12,0,7.88,0,15.75-.02,23.63,0,.4-.07.81-.16,1.2-.17.79-.82,1.21-1.72,1.16-.6-.03-1.25-.68-1.32-1.34-.03-.3-.02-.6-.02-.9,0-8.62.03-17.24-.03-25.85,0-1.31.43-2.07,1.55-2.64,2.1-1.09,4.17-2.25,6.24-3.39,3.8-2.08,7.6-4.17,11.4-6.26,3.7-2.03,7.4-4.06,11.1-6.09.25-.13.5-.26.75-.39.28,0,.56,0,.83,0,1.61.9,3.23,1.8,4.84,2.7,3.56,1.97,7.12,3.96,10.69,5.92,3.09,1.7,6.21,3.36,9.31,5.05,1.75.95,3.5,1.91,5.23,2.89.69.39.94,1.02.94,1.81-.01,8.5,0,17.01,0,25.51,0,3.15-.03,6.3.01,9.45.01,1.2-.4,1.97-1.52,2.51-2.81,1.37-5.57,2.85-8.34,4.29-3.57,1.85-7.14,3.71-10.71,5.57-3.37,1.75-6.75,3.5-10.12,5.26-.58.3-1.07.3-1.66,0-4.38-2.28-8.78-4.53-13.17-6.8-3.46-1.79-6.91-3.58-10.37-5.37-1.97-1.03-3.93-2.06-5.89-3.11-1.27-.68-1.48-1.96-.46-2.82.6-.51,1.28-.36,1.86-.07,2.84,1.44,5.64,2.94,8.46,4.4,2.14,1.11,4.3,2.21,6.44,3.32,3.53,1.83,7.06,3.67,10.59,5.51.57.3,1.13.61,1.83.98v-.8c0-10.34,0-20.67.01-31.01,0-.48-.14-.69-.58-.91-1.78-.88-3.54-1.81-5.3-2.73-.06-.04-.12-.09-.19-.13-.03.05-.05.09-.08.14,0,4.61-.01,9.22-.02,13.83,0,1.09-.39,1.68-1.4,1.93-.34.08-.79.04-1.1-.13-3.64-1.93-7.25-3.89-10.88-5.85-1.14-.62-1.48-1.35-1.09-2.34.28-.7,1.09-1.15,1.77-.84,1.14.51,2.25,1.09,3.35,1.68,1.94,1.03,3.86,2.08,5.79,3.11.05.03.14,0,.2,0,.04-.04.08-.08.11-.13Zm-15.42-24.87c.15.07.21.09.27.12,1.38.74,2.81,1.4,4.14,2.24,1.14.72,2.04.48,3.15-.12,3.96-2.17,7.99-4.21,11.99-6.32.67-.35,1.27-.35,1.94,0,3.39,1.78,6.78,3.55,10.18,5.3.64.33,1.15.67,1.18,1.5.04.91-.45,1.34-1.18,1.72-.95.5-1.85,1.08-2.78,1.63-2.66,1.57-5.33,3.13-8.07,4.74,1.72.9,3.42,1.77,5.09,2.67.4.22.7.2,1.09,0,3.62-1.91,7.25-3.8,10.88-5.7,2.12-1.11,4.23-2.23,6.35-3.34,1.24-.65,2.49-1.31,3.77-1.87.77-.34,1.5.01,1.95.8.37.63.17,1.42-.51,1.89-.69.47-1.45.87-2.19,1.26-2.93,1.54-5.86,3.08-8.79,4.61-3.23,1.69-6.45,3.39-9.7,5.05-.52.27-.71.55-.71,1.14.02,10.29.01,20.58.01,30.87v.76c.68-.36,1.3-.67,1.91-.99,2.24-1.17,4.48-2.34,6.73-3.51,3.63-1.89,7.25-3.78,10.89-5.67,2.05-1.06,4.09-2.13,6.16-3.15.69-.34.93-.75.93-1.54-.03-10.75-.02-21.51-.02-32.26,0-.28,0-.55,0-.83-2.62-1.41-5.22-2.8-7.81-4.23-4-2.2-7.99-4.43-11.98-6.64-2.68-1.48-5.36-2.96-8.06-4.41-.24-.13-.67-.12-.9,0-3.01,1.63-6,3.3-8.99,4.94-4.49,2.46-8.98,4.91-13.47,7.37-1.11.61-2.2,1.25-3.43,1.95Zm9.4,4.89c2.58,1.33,5.06,2.61,7.53,3.91.33.17.56.21.9,0,2.65-1.57,5.32-3.11,7.98-4.67.68-.4,1.35-.8,2.08-1.23-2.35-1.24-4.59-2.44-6.86-3.59-.3-.15-.82-.12-1.13.04-2.58,1.32-5.14,2.69-7.7,4.05-.91.48-1.81.96-2.81,1.49Z"/>
      <path class="cls-5" d="m54.13,56.04s.05-.09.08-.14c.06.04.12.09.19.13-.09,0-.18,0-.27.01Z"/>
      <path class="cls-4" d="m33.7,45.33s.07-.08.11-.12c-.04.04-.07.08-.11.12Z"/>
      <path class="cls-6" d="m42.74,50.34s0-.07,0-.1c.03.03.07.06.1.09l-.05.02h-.05Z"/>
      <path class="cls-8" d="m50.88,67.3s-.08.08-.11.13c.04-.04.08-.08.11-.13Z"/>
      <path class="cls-3" d="m72.5,75.45c-.78-.08-1.18-.4-1.43-1.27-.18-.62.01-1.3.6-1.69.48-.32,1-.57,1.51-.83,3.24-1.67,6.48-3.33,9.72-5,.51-.26.99-.58,1.51-.81,1.32-.59,2.62.21,2.5,1.52-.06.72-.59,1.12-1.16,1.42-1.6.85-3.21,1.65-4.82,2.48-2.5,1.29-4.99,2.59-7.5,3.87-.29.15-.63.21-.95.31Z"/>
      <path class="cls-3" d="m85.25,73.05c.88.09,1.36.42,1.59,1.19.22.72.02,1.24-.71,1.71-.45.29-.93.55-1.41.8-3.11,1.61-6.23,3.21-9.35,4.82-.64.33-1.25.71-1.9,1.01-1.04.48-2.15.21-2.4-1-.11-.56.08-1.33.64-1.64,1.67-.91,3.35-1.8,5.04-2.68,2.48-1.29,4.96-2.57,7.44-3.84.33-.17.71-.25,1.07-.36Z"/>
      <path class="cls-3" d="m76.5,63.55c-.05-.76.39-1.21,1-1.53,2.34-1.21,4.68-2.42,7.03-3.61.79-.4,1.89-.1,2.22.61.45.95,0,1.82-.8,2.23-2.4,1.24-4.79,2.48-7.19,3.71-1.16.59-2.27-.11-2.27-1.41Z"/>
    </g>
  </g>
</svg>