<?xml version="1.0" encoding="UTF-8"?>
<svg id="Camada_1" data-name="Camada 1" xmlns="http://www.w3.org/2000/svg" viewBox="0 0 240 120">
  <defs>
    <style>
      .cls-1 {
        fill: #bda189;
      }

      .cls-1, .cls-2, .cls-3 {
        stroke-width: 0px;
      }

      .cls-2 {
        fill: #f2eade;
      }

      .cls-3 {
        fill: #745646;
      }
    </style>
  </defs>
  <rect class="cls-1" x="14.88" y="13.11" width="93.78" height="93.78" rx="12" ry="12"/>
  <g>
    <path class="cls-3" d="m121.3,56.63c-.42-.96-.98-1.84-1.42-2.22h4.88c-.48.52-.56,1.46-.14,2.38l3.7,8.56,3.64-8.34c.42-.98.24-2-.48-2.6h2.9c-.6.42-1.34,1.42-1.86,2.62l-5,11.38h-1.06l-5.16-11.78Z"/>
    <path class="cls-3" d="m132.82,63.39c0-2.98,2.36-5.18,5.34-5.18s4.94,2.1,4.94,4.86h-7.14c0,3.32,1.3,4.9,3.46,4.9,1.06,0,1.92-.4,1.92-1.1,0-.58-.58-1-1.38-1,0-.82.66-1.48,1.54-1.48s1.46.68,1.46,1.52c0,1.52-1.92,2.7-4.4,2.7-3.36,0-5.74-2.24-5.74-5.22Zm3.14-.72h4.26c-.06-2.54-.82-4.06-2.06-4.06s-2.12,1.7-2.2,4.06Z"/>
    <path class="cls-3" d="m144.36,66.43c0-.72.54-1.24,1.28-1.24s1.2.5,1.2,1.22c-.54,0-.9.28-.9.68,0,.64.92,1.08,2.28,1.08,1.48,0,2.42-.52,2.42-1.38s-.98-1.32-2.54-2.04c-1.32-.58-3.64-1.4-3.64-3.52,0-1.84,1.76-3.02,4.34-3.02,2,0,3.6.7,3.6,1.98,0,.68-.48,1.22-1.2,1.22s-1.26-.52-1.26-1.22c.52,0,.82-.26.82-.64,0-.56-.72-.9-1.82-.9-1.38,0-2.3.54-2.3,1.4s1.02,1.34,2.54,2c1.54.66,3.64,1.42,3.64,3.48,0,1.82-1.6,3.08-4.38,3.08-2.3,0-4.08-.86-4.08-2.18Z"/>
    <path class="cls-3" d="m154.72,65.91v-7.1h-1.2v-.2c1.58-.4,3.28-1.66,4.26-3.22v3.02h2.56v.4h-2.56v7.6c0,.84.54,1.46,1.28,1.46.6,0,1.2-.42,1.4-.98l.32.18c-.2.88-1.48,1.54-2.86,1.54-1.84,0-3.2-1.16-3.2-2.7Z"/>
    <path class="cls-3" d="m162.06,66.69v-6c0-.68-.22-1.38-.54-1.72l3.6-.66v8.38c0,.68.2,1.38.52,1.72h-4.12c.32-.34.54-1.04.54-1.72Zm-.14-11.16c0-.94.74-1.64,1.72-1.64.92,0,1.62.7,1.62,1.64s-.7,1.66-1.62,1.66c-.98,0-1.72-.7-1.72-1.66Z"/>
    <path class="cls-3" d="m167.04,63.41c0-2.96,1.94-5.2,4.4-5.2,1.34,0,2.56.66,3.26,1.7v-3.72c0-.68-.22-1.38-.54-1.72l3.6-.66v12.88c0,.68.2,1.38.52,1.72h-3.38c-.1-.28-.18-.8-.2-1.38-.74.96-1.92,1.58-3.22,1.58-2.5,0-4.44-2.24-4.44-5.2Zm5.56,4.32c.86,0,1.62-.6,2.1-1.54v-5.42c-.48-1.04-1.28-1.66-2.16-1.66-1.4,0-2.36,1.72-2.36,4.3s.98,4.32,2.42,4.32Z"/>
    <path class="cls-3" d="m179.64,63.41c0-2.96,2.34-5.2,5.46-5.2s5.46,2.24,5.46,5.2-2.34,5.2-5.46,5.2-5.46-2.24-5.46-5.2Zm7.78,0c0-3-.9-4.8-2.32-4.8s-2.32,1.8-2.32,4.8.88,4.8,2.32,4.8,2.32-1.8,2.32-4.8Z"/>
    <path class="cls-3" d="m191.82,66.43c0-.72.54-1.24,1.28-1.24s1.2.5,1.2,1.22c-.54,0-.9.28-.9.68,0,.64.92,1.08,2.28,1.08,1.48,0,2.42-.52,2.42-1.38s-.98-1.32-2.54-2.04c-1.32-.58-3.64-1.4-3.64-3.52,0-1.84,1.76-3.02,4.34-3.02,2,0,3.6.7,3.6,1.98,0,.68-.48,1.22-1.2,1.22s-1.26-.52-1.26-1.22c.52,0,.82-.26.82-.64,0-.56-.72-.9-1.82-.9-1.38,0-2.3.54-2.3,1.4s1.02,1.34,2.54,2c1.54.66,3.64,1.42,3.64,3.48,0,1.82-1.6,3.08-4.38,3.08-2.3,0-4.08-.86-4.08-2.18Z"/>
  </g>
  <g>
    <path class="cls-2" d="m77.73,97.84c1.85-1.1,4.36-.79,6.39-1.46,1.25-.41,2.4-1.05,3.48-1.8.07-.5.3-.96.65-1.32-.2-.15-.38-.31-.58-.47-1.96-1.51-3.95-2.97-5.51-4.92-2.73-3.4-4.32-7.72-5.46-11.89-.62-2.27-1.1-4.58-1.72-6.86-.57-2.1-1.49-4.31-1.27-6.52.02-.19.06-.38.09-.57-.03.06-.06.11-.09.17-.22.42-.43.51-.86.39-.48-.13-.96-.29-1.47-.25-.79.06-1.34.53-1.49,1.28-.14.74.2,1.42.92,1.73.29.13.59.26.9.28.88.06,1.11.54,1.21,1.37.61,5.31,2.14,10.36,4.56,15.12,2.42,4.76,5.52,8.97,10.06,11.95.09.06.16.13.09.29-2.9,1.19-5.96,1.79-9.1,2.03-.39.03-.5-.17-.66-.42-3.5-5.68-6.02-11.76-7.38-18.3-.34-1.63-.51-3.27-.79-4.91-.13-.78-.63-1.27-1.44-1.34-.77-.07-1.31.31-1.62,1.01-.22.51-.09,1.04-.02,1.56,1.29,9.46,4.49,18,9.75,25.55.18-.65.6-1.24,1.37-1.7Z"/>
    <path class="cls-2" d="m81.18,44.87c-1.75-1.89-3.95-3.33-5.52-5.39-.57-.75-.95-1.54-1.12-2.38-1.23-.42-2.05-1.31-2.41-2.44-.35.07-.72.07-1.07.07,0,.04-.02.07-.02.11-.1.53-.31.78-.87.9-3.62.81-7.23,1.67-10.85,2.51-1.39.32-2.78.65-4.17.98.14.47.19.98.22,1.47.02.21.03.43.04.64.04.28.08.57.09.85,0,.17-.01.33-.05.48.09.13.13.32.14.59.17,5.52.35,11.04.54,16.56.01.41-.06.77-.25,1.14-1.8,3.61-3.85,7.07-6.38,10.22-3.71,4.62-7.84,8.69-13.73,10.46-.95.28-1.34,1.14-1.08,1.99.25.83,1.06,1.28,2.02,1.06,1.13-.27,2.21-.68,3.26-1.18,4.29-2.06,7.72-5.18,10.78-8.75,3-3.49,5.44-7.36,7.53-11.45.25-.5.51-.7,1.09-.53.83.25,1.69.43,2.54.59,1.15.22,1.95-.24,2.15-1.18.2-.94-.35-1.71-1.46-1.99-.9-.22-1.79-.45-2.7-.61-.47-.09-.58-.31-.59-.74-.17-5.5-.36-10.99-.55-16.48-.02-.49.08-.77.63-.85.73-.11,1.45-.28,2.15-.5.65-.21.83-.01.93.65.55,3.66,2.59,6.21,6.1,7.36,3.61,1.18,6.78.23,9.47-2.46.52-.52.71-1.66,1.46-1.56.52.07.98.6,1.46,1.05.23-.26.48-.49.76-.65-.19-.18-.37-.37-.54-.55Zm-4.7-1.66c-1.17,2.27-3.89,3.53-6.41,2.94-2.56-.6-4.49-3.03-4.46-5.55,0-.41.12-.54.49-.63,1.75-.39,3.49-.8,5.23-1.22.34-.08.59-.02.86.2,1.36,1.12,2.72,2.24,4.11,3.33.36.28.4.5.18.92Z"/>
    <path class="cls-2" d="m53.12,90.03c.34.16.6.38.79.63,0,0,0,0,0,0,2.83,1.32,5.79,2.18,8.73,3.15.07,0,.14.02.21.03-3.02-1.2-5.84-2.78-8.41-4.82-.39-.31-.37-.46.02-.73.95-.66,1.83-1.43,2.65-2.24,1.2-1.19,2.28-2.48,3.17-3.92.64-1.03.08-2.23-1.06-2.43-.86-.15-1.4.33-1.83.97-1,1.47-2.14,2.81-3.5,3.95-1.73,1.45-3.56,2.58-5.46,3.39,1.69.34,3.14,1.3,4.69,2.02Z"/>
  </g>
  <g>
    <path class="cls-3" d="m74.64,20.59c1.64.82,2.9,1.97,3.42,3.81.9,3.23-1.08,6.49-4.37,7.11-.55.1-.72.34-.92.84-.65,1.61-.17,2.6,1.21,3.66,4.15,3.19,8.16,6.56,12.23,9.87.54.44,1.07.89,1.04,1.67-.04,1.27-1.35,1.98-2.46,1.3-.53-.33-1.04-.73-1.49-1.17-.47-.45-.69-.41-1,.18-2.18,4.17-4.39,8.33-6.6,12.49-.2.37-.35.77-.6,1.11-.86,1.19-.92,2.47-.71,3.88.99,6.59,3.12,12.73,7,18.18,2.26,3.18,4.98,5.85,8.63,7.42.74.32,1.32.76,1.33,1.68,0,.89-.6,1.28-1.27,1.65-3.35,1.83-6.93,2.9-10.71,3.39-.83.11-.82.12-.32.77,1,1.3,2.09,2.51,3.2,3.71,1.27,1.37,1.01,2.51-.71,3.18l-.92-.21c-8.88-9.2-14.02-20.2-15.74-32.83-.07-.52-.2-1.05.02-1.56.31-.69.84-1.07,1.62-1.01.81.07,1.31.56,1.44,1.34.28,1.63.45,3.28.79,4.91,1.36,6.54,3.88,12.62,7.38,18.3.15.25.27.45.66.42,3.14-.24,6.2-.84,9.1-2.03.07-.16,0-.23-.09-.29-4.54-2.99-7.64-7.19-10.06-11.95-2.43-4.76-3.96-9.81-4.56-15.12-.1-.83-.32-1.31-1.21-1.37-.31-.02-.61-.15-.9-.28-.71-.31-1.06-.99-.92-1.73.15-.75.7-1.22,1.49-1.28.51-.04.99.12,1.47.25.43.12.64.03.86-.39,2.61-4.96,5.23-9.91,7.87-14.86.22-.41.15-.66-.21-.93-.63-.47-1.19-1.3-1.86-1.4-.75-.11-.94,1.03-1.46,1.56-2.69,2.69-5.86,3.64-9.47,2.46-3.51-1.15-5.55-3.7-6.1-7.36-.1-.66-.27-.85-.93-.65-.7.22-1.43.39-2.15.5-.55.08-.65.36-.63.85.19,5.49.38,10.99.55,16.48.01.43.12.66.59.74.91.17,1.8.39,2.7.61,1.11.28,1.67,1.05,1.46,1.99-.2.94-1.01,1.4-2.15,1.18-.85-.16-1.71-.34-2.54-.59-.58-.18-.84.03-1.09.53-2.09,4.09-4.53,7.96-7.53,11.45-3.06,3.57-6.49,6.69-10.78,8.75-1.05.5-2.13.92-3.26,1.18-.96.23-1.77-.22-2.02-1.06-.26-.85.14-1.71,1.08-1.99,5.89-1.77,10.02-5.84,13.73-10.46,2.53-3.15,4.58-6.61,6.38-10.22.18-.36.26-.73.25-1.14-.19-5.52-.37-11.04-.54-16.56-.02-.63-.16-.92-.84-.64-.29.12-.61.16-.92.22-1.14.23-1.98-.19-2.22-1.11-.24-.96.33-1.77,1.48-2.04,2.07-.5,4.15-.98,6.23-1.46,3.61-.84,7.23-1.7,10.85-2.51.56-.12.77-.37.87-.9.2-1.03.46-2.06.7-3.08.33-1.41.84-1.78,2.29-1.67,1.54.12,2.7-.89,2.73-2.38.03-1.15-.76-2.14-1.9-2.4-1.12-.25-2.3.34-2.75,1.36-.09.22-.16.45-.26.66-.42.87-1.27,1.24-2.08.91-.81-.33-1.17-1.2-.89-2.11.78-2.48,2.78-4.02,5.39-4.13.18,0,.36-.03.54-.05.51.12,1.03.24,1.54.36Zm-6.29,23.85c2.52.59,5.24-.68,6.41-2.94.22-.42.17-.63-.18-.92-1.38-1.09-2.75-2.21-4.11-3.33-.27-.23-.52-.28-.86-.2-1.74.42-3.48.83-5.23,1.22-.37.08-.49.22-.49.63-.03,2.52,1.9,4.95,4.46,5.55Z"/>
    <path class="cls-3" d="m65.59,93.64c.44.1,1.11.22,1.77.42.92.27,1.41,1.1,1.2,1.93-.22.84-1.04,1.35-1.97,1.16-2.46-.49-4.85-1.24-7.17-2.2-3.5-1.46-6.72-3.38-9.59-5.87-.38-.33-.68-.34-1.12-.14-4.71,2.14-9.61,2.67-14.66,1.63-2.7-.56-5.23-1.6-7.56-3.1-.92-.59-1.17-1.46-.69-2.29.45-.78,1.35-1.02,2.27-.49,2.18,1.27,4.44,2.29,6.94,2.75,6.44,1.19,12.17-.34,17.18-4.54,1.36-1.14,2.5-2.49,3.5-3.95.43-.64.97-1.13,1.83-.97,1.14.2,1.69,1.4,1.06,2.43-.89,1.44-1.96,2.73-3.17,3.92-.83.82-1.7,1.58-2.65,2.24-.39.27-.4.42-.02.73,2.87,2.29,6.04,4.01,9.48,5.26,1.04.38,2.11.68,3.39,1.09Z"/>
  </g>
</svg>