<?xml version="1.0" encoding="UTF-8"?>
<svg id="Camada_1" data-name="Camada 1" xmlns="http://www.w3.org/2000/svg" viewBox="0 0 240 120">
  <defs>
    <style>
      .cls-1 {
        fill: #bda189;
      }

      .cls-1, .cls-2, .cls-3 {
        stroke-width: 0px;
      }

      .cls-2 {
        fill: #f2eade;
      }

      .cls-3 {
        fill: #745646;
      }
    </style>
  </defs>
  <rect class="cls-1" x="14.88" y="13.11" width="93.78" height="93.78" rx="12" ry="12"/>
  <path class="cls-2" d="m66.03,89.76c.03-.5.2-.62.7-.57,3.7.4,7.4.77,11.11,1.14.34.03.67.07,1.01.1,3.92.4,7.83.81,11.75,1.18v-2.54c-3.88-.41-7.75-.8-11.63-1.19-3.49-.36-6.99-.7-10.48-1.08-.69-.07-1.6.14-1.99-.34-.36-.45.01-1.3.09-1.96.28-2.47.27-4.94-.17-7.39-.31-1.73-.81-3.41-1.53-5.02-.11-.25-.2-.5-.16-.79.14-1.22.27-2.44.37-3.66.03-.36.15-.48.52-.54,4.17-.59,6.92-3.45,7.36-7.66.52-4.95,1.02-9.89,1.5-14.84.05-.56.2-.74.8-.67,2.99.34,5.98.64,8.97.91.56.05.67.27.7.77.17,2.72.13,5.46.56,8.16.85,5.4,3.46,9.79,7.76,13.17.12.09.22.19.3.28-.04-1.24-.14-2.47-.35-3.71-1.31-1.29-2.36-2.68-3.21-4.23-1.48-2.69-2.14-5.58-2.25-8.63-.06-1.58-.16-3.17-.27-4.75-.04-.53.04-.75.67-.67,1.7.22,3.41.38,5.11.53.04,0,.06.01.09.02.04-.85.1-1.7.19-2.56-.07,0-.16,0-.26,0-2.69-.29-5.39-.56-8.08-.83-2.67-.27-5.35-.55-8.02-.81-.45-.04-.61-.16-.56-.65.25-2.14.46-4.29.66-6.44.04-.49.21-.58.67-.53,5.37.56,10.74,1.11,16.11,1.64.15.02.26.05.34.09.08-.88.14-1.74.17-2.58-18.35-1.87-36.7-3.74-55.06-5.61-1.27-.13-1.74.25-1.88,1.53-.17,1.66-.37,3.32-.5,4.99-.22,2.83-.71,5.6-1.53,8.33-1.83,6.05-2.94,12.25-3.7,18.52-.06.48-.09.97-.25,1.43-.93,9.14-1.86,18.28-2.79,27.42.8-.92,1.72-.93,2.67-.77,0-.05,0-.09,0-.15.13-.84.21-1.68.26-2.53.03-.5.21-.62.7-.57,5.85.61,11.7,1.2,17.56,1.8,1.98.2,3.95.41,5.93.6.29-.83.45-1.66.52-2.49-3.43-.36-6.86-.71-10.29-1.06-4.48-.46-8.97-.92-13.45-1.37-.41-.04-.65-.09-.6-.62.72-6.82,1.43-13.64,2.11-20.46.05-.53.27-.79.74-1.03,5.67-2.85,9.33-7.35,11.02-13.46.55-2,1.08-4,1.59-6.01.09-.37.24-.46.6-.42,5.43.56,10.86,1.12,16.3,1.66.5.05.5.27.46.66-.48,4.59-.94,9.18-1.41,13.77-.46,4.53-.93,9.05-1.38,13.58-.04.35-.15.65-.34.94.92.89.94,2.19.84,3.45.02-.03.03-.06.05-.09.08-.14.18-.28.26-.42.23.07.23.26.27.41.8,2.51,1.08,5.09.85,7.7-.29,3.35-.64,6.69-1,10.03.93-.19,1.78-.51,2.64-.76.12-.78.2-1.57.24-2.36Zm5.9-45.09c-.44,4.1-.84,8.21-1.27,12.31-.13,1.26-.1,2.55-.53,3.76-.71,1.98-2.12,3.2-4.15,3.74-.45.12-.57.02-.52-.47.36-3.3.68-6.61,1.02-9.91.33-3.28.68-6.57.99-9.85.05-.54.22-.65.74-.58,1.05.15,2.1.25,3.16.32.49.03.62.18.57.68Zm-26.86-3.28c-.76,2.64-1.23,5.36-2.26,7.92-1.49,3.69-3.97,6.55-7.34,8.65-.17.11-.36.2-.61.35.11-1.37.36-2.62.59-3.88.84-4.6,1.9-9.15,3.24-13.63.13-.44.29-.57.74-.52,1.74.2,3.49.37,5.24.54.4.04.54.12.41.57Zm12.25-8.98c-.25,2.19-.46,4.38-.67,6.57-.04.38-.15.5-.54.46-5.43-.56-10.86-1.12-16.29-1.66-.4-.04-.48-.21-.44-.57.23-2.19.46-4.38.66-6.57.04-.48.26-.51.66-.47,2.69.29,5.39.56,8.08.83,2.67.27,5.35.55,8.02.81.43.04.57.15.52.61Zm2.39,7.39c-.47-.04-.59-.18-.54-.66.24-2.14.46-4.29.66-6.44.04-.49.21-.57.67-.53,4.59.48,9.18.95,13.77,1.4.44.04.56.18.51.62-.24,2.17-.46,4.33-.66,6.51-.04.45-.2.55-.63.5-2.31-.25-4.63-.48-6.95-.72-2.27-.23-4.55-.48-6.82-.68Z"/>
  <path class="cls-3" d="m90.72,96.6c-9.48-.97-18.95-1.93-28.43-2.9-.71-.4-.92-1-.83-1.81.38-3.55.76-7.11,1.07-10.67.23-2.61-.05-5.19-.85-7.7-.05-.15-.04-.34-.27-.41-.09.14-.18.27-.26.42-1.45,2.59-2.18,5.39-2.49,8.32-.33,3.18-.67,6.35-.96,9.54-.07.81-.33,1.41-1.09,1.74-9.52-.97-19.04-1.94-28.56-2.91-.44-.26-.72-.65-.91-1.11.97-9.48,1.93-18.95,2.9-28.43.17-.46.2-.95.25-1.43.75-6.27,1.86-12.47,3.7-18.52.83-2.73,1.32-5.5,1.53-8.33.13-1.67.33-3.33.5-4.99.13-1.28.6-1.66,1.87-1.53,18.74,1.91,37.47,3.82,56.21,5.73,1.25.13,1.64.6,1.51,1.83-.31,3.05-.62,6.11-.93,9.16-.03.29-.04.59-.01.88.76,8.32.79,16.64-.06,24.96-.91,8.86-1.81,17.73-2.7,26.59-.08.82-.4,1.35-1.19,1.59Zm-28.76-40.96c.47-4.59.93-9.18,1.41-13.77.04-.39.04-.61-.46-.66-5.43-.54-10.87-1.09-16.3-1.66-.37-.04-.51.06-.6.42-.51,2.01-1.04,4.01-1.59,6.01-1.68,6.11-5.35,10.61-11.01,13.46-.47.24-.69.5-.74,1.03-.69,6.82-1.39,13.64-2.11,20.46-.06.53.19.58.6.62,4.49.45,8.97.91,13.45,1.37,3.56.36,7.12.72,10.67,1.1.46.05.63-.05.66-.53.05-.91.16-1.81.27-2.72.5-3.81,1.72-7.36,3.98-10.51.23-.32.35-.65.39-1.04.45-4.53.92-9.05,1.38-13.58Zm15.38,30.62c4.04.41,8.09.82,12.13,1.24.47.05.66-.02.71-.55.67-6.76,1.35-13.52,2.06-20.27.07-.64-.12-.98-.61-1.36-4.29-3.38-6.9-7.77-7.76-13.17-.43-2.7-.39-5.44-.56-8.16-.03-.5-.14-.72-.7-.77-2.99-.27-5.98-.58-8.97-.91-.6-.07-.74.11-.8.67-.48,4.95-.99,9.9-1.5,14.84-.44,4.21-3.19,7.07-7.36,7.66-.37.05-.49.18-.52.54-.1,1.22-.23,2.44-.37,3.66-.03.29.05.54.16.79.73,1.61,1.23,3.28,1.53,5.02.44,2.46.45,4.92.17,7.39-.07.67-.44,1.51-.09,1.96.39.49,1.31.27,1.99.34,3.49.37,6.99.72,10.48,1.08Zm6.23-45.5c2.7.27,5.39.54,8.08.83.44.05.59-.06.63-.51.2-2.17.42-4.34.66-6.51.05-.46-.09-.57-.52-.61-5.37-.53-10.74-1.08-16.11-1.64-.46-.05-.63.05-.67.53-.19,2.15-.41,4.3-.66,6.44-.06.49.1.61.56.65,2.68.25,5.35.54,8.02.81Zm-36.43-11.4c-2.69-.27-5.39-.54-8.08-.83-.4-.04-.61-.01-.66.47-.2,2.19-.43,4.38-.66,6.57-.04.36.03.53.44.57,5.43.54,10.86,1.1,16.29,1.66.39.04.51-.08.54-.46.21-2.19.43-4.38.67-6.57.05-.46-.09-.57-.52-.61-2.67-.25-5.35-.54-8.02-.81Zm17.75,9.5c2.32.24,4.63.46,6.95.72.43.05.59-.04.63-.5.2-2.17.42-4.34.66-6.51.05-.44-.07-.58-.51-.62-4.59-.45-9.18-.92-13.77-1.4-.46-.05-.62.04-.67.53-.19,2.15-.41,4.3-.66,6.44-.05.48.07.62.54.66,2.28.21,4.55.45,6.82.68Zm12.31,49.95c-.34-.03-.67-.07-1.01-.1-3.7-.38-7.41-.75-11.11-1.14-.5-.05-.67.07-.7.57-.04.82-.12,1.65-.25,2.46-.09.57.06.75.65.81,7.18.71,14.35,1.45,21.52,2.18.88.09,1.77.16,2.65.28.39.05.52-.07.55-.45.06-.86.13-1.73.27-2.59.09-.56-.04-.75-.64-.81-3.98-.38-7.95-.8-11.93-1.2Zm-34.7.31c4.02.41,8.04.81,12.06,1.24.53.06.7-.08.72-.6.04-.84.13-1.69.26-2.53.07-.48-.04-.66-.55-.7-2.19-.19-4.38-.43-6.57-.66-5.85-.6-11.71-1.19-17.56-1.8-.49-.05-.67.06-.7.57-.05.84-.13,1.69-.26,2.53-.08.52.07.69.6.74,4,.39,8,.8,12,1.21Zm-9.29-32.44c.25-.14.44-.24.61-.35,3.37-2.1,5.85-4.97,7.34-8.65,1.03-2.56,1.5-5.28,2.26-7.92.13-.46-.01-.54-.41-.58-1.75-.16-3.5-.34-5.24-.54-.45-.05-.61.08-.74.52-1.33,4.48-2.4,9.03-3.24,13.63-.23,1.26-.48,2.52-.59,3.88Zm59.3,6.1c.06-1.92.12-3.67.15-5.43.08-4.21-.09-8.41-.45-12.61-.04-.42-.17-.57-.59-.61-1.71-.15-3.41-.31-5.11-.53-.63-.08-.7.15-.67.67.11,1.58.21,3.16.27,4.75.11,3.05.78,5.94,2.25,8.63,1.05,1.9,2.37,3.58,4.15,5.12Zm-27.68-10.31c-.34,3.3-.66,6.61-1.02,9.91-.05.49.07.59.52.47,2.03-.54,3.44-1.75,4.15-3.74.43-1.21.4-2.5.53-3.76.44-4.1.83-8.21,1.27-12.31.05-.51-.08-.65-.57-.68-1.05-.07-2.11-.18-3.16-.32-.51-.07-.69.04-.74.58-.31,3.29-.66,6.57-.99,9.85Z"/>
  <g>
    <path class="cls-3" d="m121.48,66.69v-10.56c0-.68-.22-1.38-.54-1.72h7.22c2.56,0,4.46,1.5,4.46,3.46,0,1.64-1.34,2.8-3.52,3.28,2.42.42,4.12,1.66,4.12,3.6,0,2.14-2,3.66-4.46,3.66h-7.82c.32-.34.54-1.04.54-1.72Zm3.06-11.88v6.2h2.08c1.72,0,2.86-.96,2.86-3.04,0-1.96-1.02-3.16-2.56-3.16h-2.38Zm2.68,6.6h-2.68v6.6h2.98c1.54,0,2.56-1.24,2.56-3.3,0-2.84-1.86-3.3-2.86-3.3Z"/>
    <path class="cls-3" d="m134.56,63.39c0-2.98,2.36-5.18,5.34-5.18s4.94,2.1,4.94,4.86h-7.14c0,3.32,1.3,4.9,3.46,4.9,1.06,0,1.92-.4,1.92-1.1,0-.58-.58-1-1.38-1,0-.82.66-1.48,1.54-1.48s1.46.68,1.46,1.52c0,1.52-1.92,2.7-4.4,2.7-3.36,0-5.74-2.24-5.74-5.22Zm3.14-.72h4.26c-.06-2.54-.82-4.06-2.06-4.06s-2.12,1.7-2.2,4.06Z"/>
    <path class="cls-3" d="m146.68,66.69v-6c0-.68-.22-1.38-.54-1.72l3.6-.66v1.82c.54-1.18,1.54-1.92,2.76-1.92,1.34,0,2.28.88,2.28,2.06,0,.94-.6,1.58-1.5,1.58s-1.56-.66-1.56-1.52c.8,0,1.3-.34,1.3-.86,0-.4-.3-.62-.82-.62-1.08,0-2.04.88-2.46,2.18v5.66c0,.68.28,1.38.7,1.72h-4.3c.32-.34.54-1.04.54-1.72Z"/>
    <path class="cls-3" d="m156.08,66.69v-6c0-.68-.22-1.38-.54-1.72l3.6-.66v1.8c.68-1.14,1.94-1.9,3.3-1.9,1.5,0,2.72.88,3.16,2.22.62-1.32,1.98-2.22,3.5-2.22,1.86,0,3.32,1.4,3.32,3.3v5.18c0,.68.22,1.38.54,1.72h-4.12c.3-.34.52-1.04.52-1.72v-5.88c0-.92-.62-1.62-1.46-1.62s-1.74.78-2.16,1.88c.02.14.04.3.04.44v5.18c0,.68.22,1.38.52,1.72h-4.12c.32-.34.54-1.04.54-1.72v-5.88c0-.92-.62-1.62-1.46-1.62s-1.7.72-2.12,1.78v5.72c0,.68.2,1.38.52,1.72h-4.12c.32-.34.54-1.04.54-1.72Z"/>
    <path class="cls-3" d="m174.68,65.29v-4.6c0-.68-.22-1.38-.52-1.72l3.58-.66v7.7c0,.92.64,1.62,1.54,1.62s1.76-.72,2.22-1.78v-5.16c0-.68-.22-1.38-.54-1.72l3.6-.66v8.38c0,.68.2,1.38.52,1.72h-3.38c-.12-.34-.2-1.02-.2-1.72-.7,1.14-2,1.92-3.42,1.92-1.92,0-3.4-1.4-3.4-3.32Z"/>
    <path class="cls-3" d="m186.42,63.41c0-2.96,1.94-5.2,4.4-5.2,1.34,0,2.56.66,3.26,1.7v-3.72c0-.68-.22-1.38-.54-1.72l3.6-.66v12.88c0,.68.2,1.38.52,1.72h-3.38c-.1-.28-.18-.8-.2-1.38-.74.96-1.92,1.58-3.22,1.58-2.5,0-4.44-2.24-4.44-5.2Zm5.56,4.32c.86,0,1.62-.6,2.1-1.54v-5.42c-.48-1.04-1.28-1.66-2.16-1.66-1.4,0-2.36,1.72-2.36,4.3s.98,4.32,2.42,4.32Z"/>
    <path class="cls-3" d="m199,65.83c0-1.76,1.68-2.94,4.12-2.94,1.12,0,2.28.26,2.84.64v-2.42c0-1.46-.94-2.4-2.5-2.4-1.02,0-1.72.4-1.72,1.04,0,.5.42.86,1.04.86,0,.84-.6,1.48-1.48,1.48s-1.52-.6-1.52-1.48c0-1.42,1.74-2.4,4.3-2.4,2.94,0,4.94,1.6,4.94,3.7v4.78c0,.68.22,1.38.54,1.72h-3.4c-.12-.3-.2-.88-.2-1.4-.74.96-2.12,1.6-3.58,1.6-1.96,0-3.38-1.18-3.38-2.78Zm4.92,1.76c.8,0,1.58-.44,2.04-1.16v-2.46c-.36-.3-.98-.48-1.66-.48-1.34,0-2.16.78-2.16,2.08,0,1.2.68,2.02,1.78,2.02Z"/>
    <path class="cls-3" d="m210.84,66.43c0-.72.54-1.24,1.28-1.24s1.2.5,1.2,1.22c-.54,0-.9.28-.9.68,0,.64.92,1.08,2.28,1.08,1.48,0,2.42-.52,2.42-1.38s-.98-1.32-2.54-2.04c-1.32-.58-3.64-1.4-3.64-3.52,0-1.84,1.76-3.02,4.34-3.02,2,0,3.6.7,3.6,1.98,0,.68-.48,1.22-1.2,1.22s-1.26-.52-1.26-1.22c.52,0,.82-.26.82-.64,0-.56-.72-.9-1.82-.9-1.38,0-2.3.54-2.3,1.4s1.02,1.34,2.54,2c1.54.66,3.64,1.42,3.64,3.48,0,1.82-1.6,3.08-4.38,3.08-2.3,0-4.08-.86-4.08-2.18Z"/>
  </g>
</svg>