<?xml version="1.0" encoding="UTF-8"?>
<svg id="Camada_1" data-name="Camada 1" xmlns="http://www.w3.org/2000/svg" viewBox="0 0 240 120">
  <defs>
    <style>
      .cls-1 {
        fill: #bda189;
      }

      .cls-1, .cls-2, .cls-3, .cls-4 {
        stroke-width: 0px;
      }

      .cls-2 {
        fill: #f1e9dd;
      }

      .cls-3 {
        fill: #755647;
      }

      .cls-4 {
        fill: #745646;
      }
    </style>
  </defs>
  <g>
    <rect class="cls-1" x="14.88" y="13.11" width="93.78" height="93.78" rx="12" ry="12"/>
    <g>
      <path class="cls-2" d="m97.37,74.04c.96-.99,1.96-1.92,2.89-2.9.04-.22.08-.45.16-.68.05-.15.06-.3.09-.46-.18-.04-.31-.32-.45-.47-2.5-2.73-4.98-5.49-7.5-8.2-.66-.71.1-.85.34-1.21.05-.08.1-.14.15-.18-.53-.41-1.01-.76-1.37-1-.36-.24-.65-.51-.9-.8-.53.55-1.07,1.09-1.6,1.64-1.43,2.73-3.55,4.95-6.63,6.46-.19,2.05-.38,4.1-.57,6.15-.58,6.31-1.17,12.62-1.74,18.93,1.11-.45,2.12-1.07,3.06-1.8.21-2.29.42-4.51.62-6.72.44-4.77.89-9.54,1.31-14.31.04-.45.17-.79.5-1.11,1.34-1.32,2.67-2.65,3.97-4.01.35-.36.53-.35.87.02,2.58,2.87,5.18,5.73,7.79,8.58.25.28.36.47.07.81-.36.42-.71.84-1.07,1.26Z"/>
      <path class="cls-2" d="m57.77,24.46c.07.13.12.26.17.4.22-.37.46-.72.75-.98.38-.35.95-.69,1.54-.9-1.54-.14-3.09-.29-4.63-.43.59.23,1.11.57,1.55,1.05.2.29.41.58.61.87Z"/>
      <path class="cls-2" d="m68.21,32.4c1.87.21,3.75.37,5.62.53.43.04.58.16.6.63.19,3.84.85,7.57,2.64,11.02,1.42,2.75,3.42,4.94,6.29,6.23,0,0,0,0,.02,0,.06-1.11.02-2.25-.08-3.36-1.36-.9-2.42-2.09-3.23-3.51-1.84-3.18-2.48-6.69-2.71-10.3-.02-.34.11-.37.38-.35.92.09,1.85.18,2.77.25.26.02.41.11.47.37.28,1.21.56,2.42.85,3.63-.14-1.83-.25-3.67-.61-5.48-.14-.71-.29-1.37-.42-2,0,.08-.02.15-.02.23-.02.31-.21.35-.46.32-1.47-.14-2.94-.28-4.41-.4-.42-.03-.49-.24-.45-.59.07-.6.13-1.19.16-1.79.02-.4.2-.5.57-.46.74.09,1.49.14,2.24.21.17.02.35.02.52.05.45.07,1.04-.02,1.46.06-.1-.92-.11-1.85,0-2.87-4.46-.41-8.93-.82-13.39-1.24.08.02.16.03.24.06,2.24.63,3.3,3.04,2.75,5.18-.57,2.2-3.09,3.34-5.18,2.75-.06-.02-.43-.1-.67-.16-.21-.03-.54-.08-.61-.09-.73-.08-1.45-.16-2.17-.26-1.71-.25-3.07-1.12-3.68-2.55-.02,0-.03,0-.05,0-.12.18-.24.36-.4.52-.31.44-.71.78-1.21,1.02-.05.02-.09.05-.14.07-.65.34-1.33.5-2.06.48l-1.1-.18c-.72-.22-1.33-.61-1.84-1.15-.2-.29-.41-.58-.61-.87-.28-.48-.42-.99-.43-1.53-.1-.55-.06-1.09.13-1.63.15-.55.42-1.03.81-1.42.31-.44.71-.78,1.21-1.03l.14-.07c.38-.2.77-.33,1.17-.4-3.08-.28-6.16-.57-9.23-.85-1.75-.16-3.5-.34-5.25-.48-1.21-.1-1.78.38-1.9,1.58-.15,1.42-.28,2.85-.39,4.27-.05.61-.2,1.18-.45,1.73-1.92,4.33-3.83,8.66-5.75,12.98-.2.44-.34.88-.38,1.37-1.41,15.33-2.83,30.65-4.24,45.98.53-.06,1.11-.02,1.74.17,1.08.33,2.15.68,3.22.91.11-.06.22-.13.34-.18.47-.2.91-.36,1.34-.51-.98-.09-1.95-.18-2.93-.26-.68-.06-.8-.27-.74-.91.66-6.84,1.28-13.69,1.91-20.54.63-6.85,1.26-13.69,1.9-20.54.03-.37,0-.71.53-.84,4.22-1.01,7.02-3.79,9.11-7.42,1.41-2.45,2.34-5.1,2.97-7.84.12-.54.31-.67.85-.62,3.9.38,7.79.75,11.69,1.08.58.05.68.25.63.79-1.22,13.22-2.4,26.44-3.65,39.66-.17,1.79-.92,3.48-1.41,5.22-.03.1-.06.2-.09.3,1.55.44,2.76,1.75,2.62,3.92-.03.45-.08.97-.16,1.53.3,3.07.59,6.13.89,9.2,1.17.39,2.71.25,4.19.42,2.77.31,5.57.36,8.37.25-2.98-.27-5.95-.56-8.93-.83-.56-.05-.74-.22-.79-.79-.57-6.06-1.17-12.12-1.76-18.18-.03-.3-.04-.6,0-.9.25-2.8.52-5.6.76-8.4.04-.49.2-.73.68-.91,3.91-1.41,6.04-4.21,6.42-8.34.66-7.1,1.32-14.19,1.95-21.29.05-.59.22-.75.82-.68Zm4.01-5.39c.35.04.57.11.49.53-.06.32-.06.64-.09.96-.02.27-.06.54-.07.82-.01.37-.09.6-.56.55-.43-.05-.55-.21-.49-.62.08-.59.14-1.19.16-1.78.02-.4.19-.49.57-.46Zm-35.13,13.7c-1.26,1.29-2.83,2.22-4.27,2.51.66-1.49,1.26-2.86,1.87-4.22,1.28-2.89,2.57-5.77,3.81-8.67.22-.51.47-.66,1-.58.79.12,1.6.16,2.4.23.28.02.47.05.37.44-.99,3.8-2.37,7.4-5.18,10.29Zm7.19-13.4c-1.42-.15-2.84-.28-4.27-.39-.43-.03-.56-.19-.5-.61.08-.57.15-1.15.16-1.72,0-.5.23-.57.66-.51.7.09,1.4.14,2.1.2.7.06,1.4.15,2.1.19.41.02.58.16.52.6-.08.57-.13,1.15-.16,1.72-.02.4-.16.58-.6.53Zm3.91.36c-.35-.02-.5-.15-.44-.51.05-.32.06-.65.09-.97.02-.27.06-.55.07-.82.01-.36.06-.6.55-.56.49.04.57.24.51.67-.09.59-.14,1.19-.17,1.79-.02.46-.3.41-.62.4Zm14.31,26.74c-.23,2.45-1.52,4.21-3.82,5.45.04-.43.06-.65.08-.87.82-8.79,1.64-17.58,2.43-26.37.06-.7.28-.9.95-.76.78.16,1.84-.16,2.29.38.41.49-.01,1.48-.08,2.25-.6,6.64-1.21,13.29-1.84,19.93Z"/>
    </g>
    <path class="cls-3" d="m103.61,69.12c-4.58,5.41-9.15,10.82-13.73,16.24-2.83,3.35-5.68,6.69-8.48,10.07-.6.72-1.25.96-2.16.87-7.34-.7-14.69-1.37-22.04-2.05-1.48-.14-1.85-.52-1.99-2.01-.36-3.82-.73-7.63-1.1-11.45-.02-.22-.06-.44-.13-.88-.73,2.53-1.41,4.85-2.08,7.18-.47,1.64-.93,3.28-1.42,4.91-.36,1.22-.83,1.55-2.09,1.43-7.45-.68-14.89-1.37-22.34-2.06-1.4-.13-1.86-.69-1.74-2.07,1.44-15.59,2.88-31.18,4.31-46.77.04-.48.19-.93.38-1.37,1.92-4.33,3.83-8.66,5.75-12.98.25-.56.4-1.12.45-1.73.11-1.43.24-2.85.39-4.27.13-1.2.69-1.68,1.9-1.58,1.75.14,3.5.32,5.25.48,12.54,1.16,25.09,2.32,37.63,3.48.25.02.5.04.75.07,1.15.16,1.63.71,1.54,1.88-.09,1.3-.21,2.6-.36,3.9-.11.91-.02,1.78.19,2.67,1.08,4.45,2.13,8.92,3.19,13.37.12.5.13.99.08,1.49-.43,4.62-.86,9.24-1.28,13.87l-.08.83c.33.09.41-.18.55-.32,1.9-1.93,3.79-3.87,5.68-5.81.97-.99,1.75-.99,2.68.03,3.24,3.57,6.47,7.14,9.69,10.72.26.29.45.65.67.97l-.08.9Zm-74.34-1.93c-.63,6.85-1.26,13.69-1.91,20.54-.06.65.07.85.74.91,6.3.55,12.6,1.13,18.89,1.75.78.08,1.01-.19,1.2-.86,1.22-4.29,2.49-8.57,3.7-12.86.49-1.73,1.25-3.42,1.41-5.22,1.25-13.22,2.43-26.44,3.65-39.66.05-.54-.05-.74-.63-.79-3.9-.33-7.8-.7-11.69-1.08-.54-.05-.72.07-.85.62-.63,2.75-1.56,5.39-2.97,7.84-2.09,3.63-4.89,6.41-9.11,7.42-.53.13-.5.47-.53.84-.63,6.85-1.26,13.69-1.9,20.54Zm51.37,4.78c.63-6.87,1.26-13.74,1.92-20.61.05-.51-.08-.76-.54-.97-2.87-1.29-4.87-3.48-6.29-6.23-1.79-3.45-2.45-7.19-2.64-11.02-.02-.46-.17-.59-.6-.63-1.88-.15-3.75-.31-5.62-.53-.59-.07-.76.09-.82.68-.64,7.1-1.29,14.19-1.95,21.29-.38,4.13-2.51,6.93-6.42,8.34-.48.17-.64.41-.68.91-.23,2.8-.51,5.6-.76,8.4-.03.3-.02.6,0,.9.59,6.06,1.19,12.12,1.76,18.18.05.58.23.75.79.79,6.37.57,12.75,1.16,19.11,1.77.64.06.8-.11.85-.72.61-6.85,1.25-13.69,1.88-20.54Zm1.22,18.24c.17-.1.24-.12.28-.17,4.98-5.9,9.96-11.8,14.95-17.69.29-.34.18-.53-.07-.81-2.6-2.85-5.2-5.71-7.79-8.58-.33-.37-.52-.38-.87-.02-1.3,1.36-2.63,2.69-3.97,4.01-.33.32-.46.67-.5,1.11-.43,4.77-.87,9.54-1.31,14.31-.24,2.57-.47,5.14-.72,7.84Zm-24.52-30.77c2.3-1.25,3.59-3,3.82-5.45.63-6.64,1.23-13.28,1.84-19.93.07-.77.49-1.76.08-2.25-.44-.54-1.51-.22-2.29-.38-.67-.14-.89.06-.95.76-.79,8.79-1.61,17.58-2.43,26.37-.02.22-.04.45-.08.87Zm-25.86-16.63c1.44-.29,3.01-1.22,4.27-2.51,2.81-2.88,4.18-6.49,5.18-10.29.1-.39-.09-.41-.37-.44-.8-.07-1.6-.11-2.4-.23-.53-.08-.78.07-1,.58-1.25,2.9-2.54,5.78-3.81,8.67-.6,1.37-1.21,2.74-1.87,4.22Zm51.31,4.75c.07-.11.09-.14.09-.15-1.08-4.63-2.17-9.27-3.24-13.9-.06-.27-.22-.35-.47-.37-.93-.07-1.85-.16-2.77-.25-.27-.03-.4,0-.38.35.24,3.61.88,7.12,2.71,10.3.98,1.7,2.27,3.1,4.07,4.03Zm-28.96-19.69c1,.09,1.99.17,2.99.28.39.04.54-.08.56-.47.03-.57.07-1.15.16-1.72.07-.46-.06-.61-.53-.65-1.95-.16-3.89-.34-5.83-.54-.44-.05-.65.05-.66.53-.02.55-.07,1.1-.15,1.64-.07.45.08.63.54.66.97.06,1.94.17,2.92.26Zm9.87.93c1,.09,2,.17,3,.28.38.04.55-.06.57-.46.03-.6.08-1.2.17-1.8.07-.45-.11-.55-.52-.59-1.95-.16-3.9-.34-5.85-.54-.43-.04-.65.04-.66.52-.01.55-.06,1.1-.15,1.65-.08.51.12.65.6.68.95.06,1.9.17,2.85.25Zm36.54,39.77c-.14-.19-.26-.35-.39-.49-2.48-2.75-4.97-5.5-7.45-8.25-.25-.27-.48-.68-.84-.13-.24.36-.99.5-.34,1.21,2.53,2.71,5,5.47,7.5,8.2.17.19.34.61.59.46.36-.23.61-.64.93-.99ZM41.09,23.86c-.7-.06-1.4-.11-2.1-.2-.43-.06-.65.01-.66.51-.01.57-.07,1.15-.16,1.72-.06.42.07.58.5.61,1.42.11,2.85.24,4.27.39.44.05.58-.12.6-.53.03-.58.08-1.15.16-1.72.06-.44-.11-.57-.52-.6-.7-.04-1.4-.12-2.1-.19Zm36,3.32c-.75-.07-1.5-.12-2.24-.21-.38-.05-.55.05-.57.46-.03.6-.09,1.2-.16,1.79-.04.36.03.56.45.59,1.47.12,2.94.26,4.41.4.26.02.45-.02.46-.32.04-.79.44-1.7.09-2.34-.27-.47-1.25-.21-1.91-.32-.17-.03-.35-.03-.52-.05Zm-30.57-1.41c-.03.32-.04.65-.09.97-.06.36.09.49.44.51.32.02.6.07.62-.4.03-.6.08-1.2.17-1.79.06-.43-.02-.63-.51-.67-.49-.04-.54.19-.55.56,0,.27-.05.55-.07.82Zm24.76,2.32c.03-.32.04-.65.09-.96.08-.42-.14-.49-.49-.53-.37-.04-.55.06-.57.46-.03.6-.08,1.19-.16,1.78-.06.41.07.57.49.62.47.05.55-.17.56-.55,0-.27.05-.54.07-.82Z"/>
  </g>
  <g>
    <path class="cls-4" d="m120.62,49.43c0-4.06,3.22-7.22,7.5-7.22,3.06,0,5.5,1.66,5.5,3.58,0,.98-.66,1.68-1.6,1.68s-1.64-.68-1.64-1.6c1,0,1.72-.5,1.72-1.22,0-.94-1.24-1.74-3.04-1.74-3.2,0-5.3,2.44-5.3,6.5s2.06,6.5,5.3,6.5c1.96,0,3.44-.9,4.24-2.34l.44.28c-.86,1.58-2.96,2.76-5.58,2.76-4.18,0-7.54-3.04-7.54-7.18Z"/>
    <path class="cls-4" d="m134.96,53.83c0-1.76,1.68-2.94,4.12-2.94,1.12,0,2.28.26,2.84.64v-2.42c0-1.46-.94-2.4-2.5-2.4-1.02,0-1.72.4-1.72,1.04,0,.5.42.86,1.04.86,0,.84-.6,1.48-1.48,1.48s-1.52-.6-1.52-1.48c0-1.42,1.74-2.4,4.3-2.4,2.94,0,4.94,1.6,4.94,3.7v4.78c0,.68.22,1.38.54,1.72h-3.4c-.12-.3-.2-.88-.2-1.4-.74.96-2.12,1.6-3.58,1.6-1.96,0-3.38-1.18-3.38-2.78Zm4.92,1.76c.8,0,1.58-.44,2.04-1.16v-2.46c-.36-.3-.98-.48-1.66-.48-1.34,0-2.16.78-2.16,2.08,0,1.2.68,2.02,1.78,2.02Z"/>
    <path class="cls-4" d="m147.38,54.69v-10.5c0-.68-.22-1.38-.54-1.72l3.6-.66v12.88c0,.68.2,1.38.52,1.72h-4.12c.32-.34.54-1.04.54-1.72Z"/>
    <path class="cls-4" d="m157.54,56.61l-.64.84c.22-.08.48-.12.78-.12,1.2,0,2.02.72,2.02,1.72,0,1.1-1.04,1.82-2.38,1.82-.82,0-1.5-.3-1.9-.76l.18-.28c.26.28.72.48,1.16.48.76,0,1.26-.52,1.26-1.32,0-.72-.4-1.2-1-1.2-.3,0-.52.12-.62.3l-.36-.12,1-1.42c-2.78-.34-4.72-2.48-4.72-5.14,0-2.96,2.38-5.2,5.52-5.2,2.24,0,3.94,1.18,3.94,2.7,0,.92-.62,1.54-1.48,1.54s-1.52-.64-1.52-1.48c.9,0,1.5-.42,1.5-1.08s-.62-1.04-1.58-1.04c-1.98,0-3.24,1.7-3.24,4.54s1.28,4.56,3.32,4.56c1.16,0,2.18-.56,2.64-1.38l.42.26c-.56,1.02-2.12,1.78-3.98,1.78h-.32Z"/>
    <path class="cls-4" d="m162.84,53.83c0-1.76,1.68-2.94,4.12-2.94,1.12,0,2.28.26,2.84.64v-2.42c0-1.46-.94-2.4-2.5-2.4-1.02,0-1.72.4-1.72,1.04,0,.5.42.86,1.04.86,0,.84-.6,1.48-1.48,1.48s-1.52-.6-1.52-1.48c0-1.42,1.74-2.4,4.3-2.4,2.94,0,4.94,1.6,4.94,3.7v4.78c0,.68.22,1.38.54,1.72h-3.4c-.12-.3-.2-.88-.2-1.4-.74.96-2.12,1.6-3.58,1.6-1.96,0-3.38-1.18-3.38-2.78Zm4.92,1.76c.8,0,1.58-.44,2.04-1.16v-2.46c-.36-.3-.98-.48-1.66-.48-1.34,0-2.16.78-2.16,2.08,0,1.2.68,2.02,1.78,2.02Z"/>
    <path class="cls-4" d="m174.68,54.43c0-.72.54-1.24,1.28-1.24s1.2.5,1.2,1.22c-.54,0-.9.28-.9.68,0,.64.92,1.08,2.28,1.08,1.48,0,2.42-.52,2.42-1.38s-.98-1.32-2.54-2.04c-1.32-.58-3.64-1.4-3.64-3.52,0-1.84,1.76-3.02,4.34-3.02,2,0,3.6.7,3.6,1.98,0,.68-.48,1.22-1.2,1.22s-1.26-.52-1.26-1.22c.52,0,.82-.26.82-.64,0-.56-.72-.9-1.82-.9-1.38,0-2.3.54-2.3,1.4s1.02,1.34,2.54,2c1.54.66,3.64,1.42,3.64,3.48,0,1.82-1.6,3.08-4.38,3.08-2.3,0-4.08-.86-4.08-2.18Z"/>
    <path class="cls-4" d="m189.34,51.39c0-2.98,2.36-5.18,5.34-5.18s4.94,2.1,4.94,4.86h-7.14c0,3.32,1.3,4.9,3.46,4.9,1.06,0,1.92-.4,1.92-1.1,0-.58-.58-1-1.38-1,0-.82.66-1.48,1.54-1.48s1.46.68,1.46,1.52c0,1.52-1.92,2.7-4.4,2.7-3.36,0-5.74-2.24-5.74-5.22Zm3.14-.72h4.26c-.06-2.54-.82-4.06-2.06-4.06s-2.12,1.7-2.2,4.06Z"/>
    <path class="cls-4" d="m201.46,54.69v-6c0-.68-.22-1.38-.54-1.72l3.6-.66v1.8c.68-1.14,1.94-1.9,3.3-1.9,1.5,0,2.72.88,3.16,2.22.62-1.32,1.98-2.22,3.5-2.22,1.86,0,3.32,1.4,3.32,3.3v5.18c0,.68.22,1.38.54,1.72h-4.12c.3-.34.52-1.04.52-1.72v-5.88c0-.92-.62-1.62-1.46-1.62s-1.74.78-2.16,1.88c.02.14.04.3.04.44v5.18c0,.68.22,1.38.52,1.72h-4.12c.32-.34.54-1.04.54-1.72v-5.88c0-.92-.62-1.62-1.46-1.62s-1.7.72-2.12,1.78v5.72c0,.68.2,1.38.52,1.72h-4.12c.32-.34.54-1.04.54-1.72Z"/>
    <path class="cls-4" d="m121.5,77.79l4.98-11.38h1.08l5.14,11.78c.42.96.98,1.84,1.44,2.22h-4.9c.48-.52.56-1.46.16-2.38l-.6-1.4h-6.24l-.5,1.18c-.44.98-.24,2,.46,2.6h-2.9c.62-.42,1.34-1.42,1.88-2.62Zm7.12-1.56l-2.92-6.76-2.96,6.76h5.88Z"/>
    <path class="cls-4" d="m135.22,78.69v-10.5c0-.68-.22-1.38-.54-1.72l3.6-.66v12.88c0,.68.2,1.38.52,1.72h-4.12c.32-.34.54-1.04.54-1.72Z"/>
    <path class="cls-4" d="m141.16,78.69v-7.88h-1.2v-.4h1.2v-1.1c0-1.98,1.76-3.5,4.1-3.5,1.84,0,3.24.86,3.24,2.04,0,.76-.58,1.34-1.36,1.34-.82,0-1.44-.58-1.44-1.38.8,0,1.34-.32,1.34-.82,0-.38-.34-.62-.9-.62-1.1,0-1.92.88-1.92,2.04v2h2.04v.4h-2.04v7.88c0,.68.28,1.38.7,1.72h-4.3c.32-.34.54-1.04.54-1.72Z"/>
    <path class="cls-4" d="m146.7,77.83c0-1.76,1.68-2.94,4.12-2.94,1.12,0,2.28.26,2.84.64v-2.42c0-1.46-.94-2.4-2.5-2.4-1.02,0-1.72.4-1.72,1.04,0,.5.42.86,1.04.86,0,.84-.6,1.48-1.48,1.48s-1.52-.6-1.52-1.48c0-1.42,1.74-2.4,4.3-2.4,2.94,0,4.94,1.6,4.94,3.7v4.78c0,.68.22,1.38.54,1.72h-3.4c-.12-.3-.2-.88-.2-1.4-.74.96-2.12,1.6-3.58,1.6-1.96,0-3.38-1.18-3.38-2.78Zm4.92,1.76c.8,0,1.58-.44,2.04-1.16v-2.46c-.36-.3-.98-.48-1.66-.48-1.34,0-2.16.78-2.16,2.08,0,1.2.68,2.02,1.78,2.02Z"/>
    <path class="cls-4" d="m159.16,78.69v-6c0-.68-.22-1.38-.54-1.72l3.6-.66v8.38c0,.68.2,1.38.52,1.72h-4.12c.32-.34.54-1.04.54-1.72Zm-.14-11.16c0-.94.74-1.64,1.72-1.64.92,0,1.62.7,1.62,1.64s-.7,1.66-1.62,1.66c-.98,0-1.72-.7-1.72-1.66Z"/>
    <path class="cls-4" d="m164.1,77.83c0-1.76,1.68-2.94,4.12-2.94,1.12,0,2.28.26,2.84.64v-2.42c0-1.46-.94-2.4-2.5-2.4-1.02,0-1.72.4-1.72,1.04,0,.5.42.86,1.04.86,0,.84-.6,1.48-1.48,1.48s-1.52-.6-1.52-1.48c0-1.42,1.74-2.4,4.3-2.4,2.94,0,4.94,1.6,4.94,3.7v4.78c0,.68.22,1.38.54,1.72h-3.4c-.12-.3-.2-.88-.2-1.4-.74.96-2.12,1.6-3.58,1.6-1.96,0-3.38-1.18-3.38-2.78Zm4.92,1.76c.8,0,1.58-.44,2.04-1.16v-2.46c-.36-.3-.98-.48-1.66-.48-1.34,0-2.16.78-2.16,2.08,0,1.2.68,2.02,1.78,2.02Z"/>
    <path class="cls-4" d="m176.66,77.91v-7.1h-1.2v-.2c1.58-.4,3.28-1.66,4.26-3.22v3.02h2.56v.4h-2.56v7.6c0,.84.54,1.46,1.28,1.46.6,0,1.2-.42,1.4-.98l.32.18c-.2.88-1.48,1.54-2.86,1.54-1.84,0-3.2-1.16-3.2-2.7Z"/>
    <path class="cls-4" d="m183.32,77.83c0-1.76,1.68-2.94,4.12-2.94,1.12,0,2.28.26,2.84.64v-2.42c0-1.46-.94-2.4-2.5-2.4-1.02,0-1.72.4-1.72,1.04,0,.5.42.86,1.04.86,0,.84-.6,1.48-1.48,1.48s-1.52-.6-1.52-1.48c0-1.42,1.74-2.4,4.3-2.4,2.94,0,4.94,1.6,4.94,3.7v4.78c0,.68.22,1.38.54,1.72h-3.4c-.12-.3-.2-.88-.2-1.4-.74.96-2.12,1.6-3.58,1.6-1.96,0-3.38-1.18-3.38-2.78Zm4.92,1.76c.8,0,1.58-.44,2.04-1.16v-2.46c-.36-.3-.98-.48-1.66-.48-1.34,0-2.16.78-2.16,2.08,0,1.2.68,2.02,1.78,2.02Z"/>
    <path class="cls-4" d="m195.74,78.69v-6c0-.68-.22-1.38-.54-1.72l3.6-.66v1.82c.54-1.18,1.54-1.92,2.76-1.92,1.34,0,2.28.88,2.28,2.06,0,.94-.6,1.58-1.5,1.58s-1.56-.66-1.56-1.52c.8,0,1.3-.34,1.3-.86,0-.4-.3-.62-.82-.62-1.08,0-2.04.88-2.46,2.18v5.66c0,.68.28,1.38.7,1.72h-4.3c.32-.34.54-1.04.54-1.72Z"/>
    <path class="cls-4" d="m205.18,78.69v-6c0-.68-.22-1.38-.54-1.72l3.6-.66v8.38c0,.68.2,1.38.52,1.72h-4.12c.32-.34.54-1.04.54-1.72Zm-.14-11.16c0-.94.74-1.64,1.72-1.64.92,0,1.62.7,1.62,1.64s-.7,1.66-1.62,1.66c-.98,0-1.72-.7-1.72-1.66Z"/>
    <path class="cls-4" d="m210.12,77.83c0-1.76,1.68-2.94,4.12-2.94,1.12,0,2.28.26,2.84.64v-2.42c0-1.46-.94-2.4-2.5-2.4-1.02,0-1.72.4-1.72,1.04,0,.5.42.86,1.04.86,0,.84-.6,1.48-1.48,1.48s-1.52-.6-1.52-1.48c0-1.42,1.74-2.4,4.3-2.4,2.94,0,4.94,1.6,4.94,3.7v4.78c0,.68.22,1.38.54,1.72h-3.4c-.12-.3-.2-.88-.2-1.4-.74.96-2.12,1.6-3.58,1.6-1.96,0-3.38-1.18-3.38-2.78Zm4.92,1.76c.8,0,1.58-.44,2.04-1.16v-2.46c-.36-.3-.98-.48-1.66-.48-1.34,0-2.16.78-2.16,2.08,0,1.2.68,2.02,1.78,2.02Z"/>
  </g>
</svg>