<?xml version="1.0" encoding="UTF-8"?>
<svg id="Camada_1" data-name="Camada 1" xmlns="http://www.w3.org/2000/svg" viewBox="0 0 120 120">
  <defs>
    <style>
      .cls-1 {
        fill: #755647;
      }

      .cls-2 {
        fill: #bda189;
      }

      .cls-3 {
        fill: #f1e9dd;
      }
    </style>
  </defs>
  <rect class="cls-2" x="13.11" y="13.11" width="93.78" height="93.78" rx="12" ry="12"/>
  <g>
    <g>
      <path class="cls-3" d="m38.88,84.28c5.88,5.63,15.26,5.04,22.86,5.6,4.35.32,8.72.56,13.05,1.09,2.78.34,7.82,1.98,10.19.28-.03-.35-.02-.71.06-1.09.49-2.31.26-4.61.16-6.9-.16.75-.33.69-1.43.5-1.2-.21-2.42-.3-3.63-.46-1.23-.16-2.45-.35-3.68-.52-1.18-.16-2.37-.3-3.55-.46-1.27-.17-2.54-.37-3.81-.54-1.21-.16-2.42-.29-3.63-.45-1.23-.16-2.45-.35-3.68-.52-1.21-.16-2.42-.31-3.62-.47-1.27-.18-2.54-.38-3.81-.55-1.19-.16-2.38-.28-3.56-.44-1.25-.17-2.49-.37-3.74-.54-1.23-.16-2.47-.29-3.7-.45-.67-.09-1.32-.21-1.99-.32.16-1.14.28-2.06.41-2.99.18-1.27.36-2.54.53-3.82.16-1.21.33-2.41.45-3.63.14-1.4.6-2.61,1.9-3.33.75-.42,1.57-.39,2.38-.3,1.27.15,2.54.36,3.81.55,1.59.23,3.17.48,4.76.7,1.23.17,2.47.27,3.7.44,1.59.21,3.17.48,4.76.69,1.55.21,3.11.37,4.65.58,1.59.21,3.18.46,4.77.68,1.57.21,3.15.39,4.72.59,2.12.28,4.26.44,6.34.89,1.09.24,1.97,1.15,2.1,2.35.1.91-.05,1.85-.16,2.77-.1.88-.23,1.75-.35,2.62.94-2.01,2.51-5.14,1.75-6.08-1.23-1.51-1.07-3.28-.27-4.61-.25-.17-.51-.33-.79-.48-.51-.27-1.08-.47-1.65-.57-1.2-.2-2.42-.3-3.63-.46-1.61-.22-3.22-.47-4.84-.68-1.21-.16-2.42-.28-3.63-.44-1.25-.17-2.49-.37-3.74-.54-1.21-.16-2.42-.29-3.63-.46-1.23-.17-2.45-.36-3.68-.53-1.23-.17-2.46-.31-3.69-.47-1.57-.21-3.13-.45-4.7-.66-1.21-.16-2.42-.31-3.62-.47-1.34-.18-2.69-.37-4.22-.59-.81.21-1.85.3-2.73.73-1.84.9-3.1,2.35-3.77,4.37-.57,1.7-.62,3.46-.9,5.2-.19,1.18-.31,2.37-.47,3.55-.17,1.23-.36,2.45-.52,3.68-.16,1.21-.24,2.43-.46,3.63-.14.77-.23,1.53-.21,2.29.73.08,1.47.4,2.14,1.04Zm1.98-2.21c14.57,1.96,29.14,3.92,43.69,5.87.13,2.82-2.07,3.81-4.28,3.51-1.2-.16-2.4-.36-3.6-.53-1.63-.24-3.27-.48-4.9-.69-1.23-.16-2.47-.28-3.7-.44-1.2-.16-2.4-.36-3.6-.53-1.16-.16-2.32-.3-3.48-.46-1.3-.18-2.59-.37-3.88-.54-1.18-.16-2.37-.29-3.56-.45-1.27-.17-2.54-.38-3.81-.55-1.21-.16-2.42-.29-3.63-.43-.87-.11-1.75-.16-2.6-.35-2.01-.44-3.11-2.45-2.63-4.41Z"/>
      <path class="cls-3" d="m77.65,40.3c-1.78-2.35-3.6-4.69-5.36-7.05-.8-1.07-1.67-2.1-2.82-2.72-1.37-.74-2.9-1.1-4.51-.89-1.2.16-2.31.52-3.28,1.24-1.05.78-2.07,1.6-3.11,2.39-1.93,1.47-3.87,2.92-5.8,4.4-2.64,2.02-5.27,4.05-7.91,6.06-2.29,1.75-4.61,3.47-6.9,5.22-2.1,1.6-4.14,3.27-6.28,4.81-1.61,1.16-2.64,2.73-2.97,4.58-.31,1.81-.09,3.68,1.08,5.26.51.68,1.03,1.36,1.54,2.04.57-.97,1.59-1.68,3.07-1.68.23,0,.43.03.63.06-.61-.79-1.22-1.57-1.82-2.37-.96-1.26-.57-3.77.71-4.72.75-.56,1.5-1.12,2.25-1.69,2.27-1.74,4.54-3.5,6.81-5.24,1.64-1.25,3.31-2.45,4.94-3.7,2.73-2.09,5.43-4.22,8.17-6.31,2.49-1.91,4.99-3.8,7.51-5.67,1.3-.97,3.37-1.06,4.5.24.68.78,1.31,1.6,1.94,2.42,1.35,1.76,2.69,3.54,4.06,5.34-1.14.86-2.29,1.69-3.4,2.58-1.45,1.15-2.87,2.35-4.31,3.52-.98.79-1.99,1.55-2.98,2.34-1.37,1.09-2.71,2.21-4.08,3.3-.98.79-2.03,1.51-2.97,2.35-1.21,1.08-.76,2.65.25,3.23.75.43,1.82.33,2.56-.28,1.61-1.32,3.19-2.65,4.82-3.95,1.67-1.33,3.38-2.61,5.05-3.94,2.38-1.89,4.75-3.79,7.11-5.7.29-.24.46-.23.68.07.39.54.79,1.07,1.21,1.58.09-.22.18-.43.25-.65.42-1.35,1.34-2.12,2.4-2.44-1.03-1.33-2.01-2.69-3.02-4.03Z"/>
    </g>
    <g>
      <path class="cls-1" d="m44.85,58.45c1.54.22,2.88.41,4.22.59,1.21.16,2.42.3,3.62.47,1.57.21,3.13.45,4.7.66,1.23.17,2.46.3,3.69.47,1.23.17,2.45.36,3.68.53,1.21.16,2.42.29,3.63.46,1.25.17,2.49.38,3.74.54,1.21.16,2.42.28,3.63.44,1.61.22,3.22.47,4.84.68,1.21.16,2.43.26,3.63.46.57.09,1.14.3,1.65.57,2.13,1.12,3.43,2.91,3.86,5.25.18.95.03,1.98-.08,2.96-.13,1.25-.36,2.49-.54,3.74-.19,1.27-.38,2.54-.55,3.81-.16,1.21-.27,2.42-.44,3.63-.26,1.86-.43,3.74-.89,5.55-.41,1.59-1.54,2.79-2.93,3.7-1.06.7-2.24,1.15-3.48,1.23-1.07.06-2.15-.15-3.23-.28-.89-.1-1.77-.26-2.65-.39-1.61-.23-3.22-.46-4.84-.68-1.21-.16-2.42-.29-3.63-.45-1.61-.22-3.23-.46-4.84-.68-1.21-.16-2.42-.29-3.63-.45-1.23-.16-2.45-.35-3.68-.52-1.18-.16-2.37-.31-3.55-.47-1.27-.17-2.54-.36-3.82-.53-1.21-.16-2.42-.29-3.63-.46-.88-.12-1.83-.11-2.63-.46-2.13-.91-3.74-2.43-4.54-4.67-.53-1.49-.48-3.02-.19-4.56.22-1.2.3-2.42.46-3.63.16-1.23.35-2.45.52-3.68.16-1.18.28-2.37.47-3.55.28-1.74.33-3.5.9-5.2.67-2.01,1.93-3.46,3.77-4.37.88-.43,1.92-.53,2.73-.73Zm-4.43,18.24c.66.11,1.32.23,1.99.32,1.23.16,2.47.28,3.7.45,1.25.17,2.49.37,3.74.54,1.19.16,2.38.28,3.56.44,1.27.17,2.54.38,3.81.55,1.21.17,2.42.31,3.62.47,1.23.17,2.45.35,3.68.52,1.21.16,2.42.29,3.63.45,1.27.17,2.54.36,3.81.54,1.18.16,2.37.3,3.55.46,1.23.17,2.45.36,3.68.52,1.21.16,2.43.24,3.63.46,1.26.22,1.31.27,1.5-.9.27-1.63.48-3.27.71-4.9.18-1.25.38-2.5.52-3.75.1-.92.26-1.86.16-2.77-.14-1.2-1.02-2.12-2.1-2.35-2.08-.45-4.22-.62-6.34-.89-1.57-.2-3.15-.38-4.72-.59-1.59-.21-3.18-.47-4.77-.68-1.55-.21-3.11-.37-4.65-.58-1.59-.21-3.17-.48-4.76-.69-1.23-.17-2.47-.27-3.7-.44-1.59-.21-3.18-.46-4.76-.7-1.27-.19-2.54-.4-3.81-.55-.81-.1-1.63-.12-2.38.3-1.3.73-1.76,1.93-1.9,3.33-.12,1.21-.29,2.42-.45,3.63-.17,1.27-.36,2.54-.53,3.82-.13.93-.26,1.86-.41,2.99Zm-.51,4.04c-.48,1.96.63,3.98,2.63,4.41.85.18,1.73.24,2.6.35,1.21.15,2.42.27,3.63.43,1.27.17,2.54.38,3.81.55,1.18.16,2.37.29,3.56.45,1.3.17,2.59.37,3.88.54,1.16.16,2.32.3,3.48.46,1.2.17,2.4.37,3.61.53,1.23.16,2.47.28,3.7.44,1.64.22,3.27.46,4.9.69,1.2.17,2.4.37,3.6.53,2.21.29,4.41-.69,4.28-3.51-14.55-1.96-29.12-3.91-43.69-5.87Z"/>
      <path class="cls-1" d="m73.14,40.97c-1.36-1.8-2.7-3.57-4.06-5.34-.63-.82-1.26-1.64-1.94-2.42-1.13-1.3-3.2-1.21-4.5-.24-2.51,1.88-5.02,3.77-7.51,5.67-2.73,2.09-5.43,4.22-8.17,6.31-1.63,1.25-3.3,2.45-4.94,3.7-2.28,1.74-4.54,3.49-6.81,5.24-.74.57-1.49,1.13-2.25,1.69-1.28.95-1.67,3.46-.71,4.72,1.25,1.64,2.5,3.28,3.78,4.9.52.66.5,1.84-.03,2.38-.69.7-1.88,1.19-2.57.53-.57-.55-1.05-1.19-1.53-1.82-1.03-1.34-2.06-2.69-3.06-4.05-1.17-1.58-1.39-3.46-1.08-5.26.32-1.85,1.35-3.42,2.97-4.58,2.14-1.54,4.18-3.21,6.28-4.81,2.29-1.75,4.61-3.47,6.9-5.22,2.64-2.01,5.27-4.05,7.91-6.06,1.93-1.47,3.87-2.93,5.8-4.4,1.04-.79,2.06-1.61,3.11-2.39.97-.72,2.08-1.09,3.28-1.24,1.61-.21,3.14.15,4.51.89,1.15.62,2.03,1.65,2.82,2.72,1.77,2.37,3.58,4.7,5.36,7.05,1.24,1.64,2.42,3.34,3.71,4.93,1.05,1.29,1.57,2.76,1.57,4.35,0,1.49-.4,2.93-1.25,4.25-.83,1.31-2.09,2.1-3.24,3.02-1.89,1.51-3.88,2.91-5.78,4.42-.9.71-2.99.62-3.38-.93-.24-.96.15-1.75,1.29-2.61,2.37-1.78,4.72-3.57,7.05-5.4,1.5-1.18,1.7-3.32.48-4.8-.45-.55-.88-1.12-1.3-1.69-.22-.3-.39-.31-.68-.07-2.36,1.91-4.73,3.82-7.11,5.7-1.67,1.33-3.38,2.61-5.05,3.94-1.62,1.3-3.21,2.64-4.82,3.95-.74.6-1.81.71-2.56.28-1.01-.58-1.45-2.15-.25-3.23.94-.84,1.98-1.56,2.97-2.35,1.37-1.09,2.71-2.21,4.08-3.3.99-.79,1.99-1.55,2.98-2.34,1.44-1.17,2.86-2.37,4.31-3.52,1.11-.88,2.27-1.72,3.4-2.58Z"/>
    </g>
  </g>
</svg>