<?xml version="1.0" encoding="UTF-8"?>
<svg id="Camada_1" data-name="Camada 1" xmlns="http://www.w3.org/2000/svg" viewBox="0 0 240 120">
  <defs>
    <style>
      .cls-1 {
        fill: #bda189;
      }

      .cls-1, .cls-2, .cls-3 {
        stroke-width: 0px;
      }

      .cls-2 {
        fill: #f2eade;
      }

      .cls-3 {
        fill: #745646;
      }
    </style>
  </defs>
  <rect class="cls-1" x="14.88" y="13.11" width="93.78" height="93.78" rx="12" ry="12"/>
  <g>
    <path class="cls-3" d="m120.62,61.43c0-4.06,3.22-7.22,7.5-7.22,3.06,0,5.5,1.66,5.5,3.58,0,.98-.66,1.68-1.6,1.68s-1.64-.68-1.64-1.6c1,0,1.72-.5,1.72-1.22,0-.94-1.24-1.74-3.04-1.74-3.2,0-5.3,2.44-5.3,6.5s2.06,6.5,5.3,6.5c1.96,0,3.44-.9,4.24-2.34l.44.28c-.86,1.58-2.96,2.76-5.58,2.76-4.18,0-7.54-3.04-7.54-7.18Z"/>
    <path class="cls-3" d="m135.78,66.69v-6c0-.68-.22-1.38-.54-1.72l3.6-.66v8.38c0,.68.2,1.38.52,1.72h-4.12c.32-.34.54-1.04.54-1.72Zm-.14-11.16c0-.94.74-1.64,1.72-1.64.92,0,1.62.7,1.62,1.64s-.7,1.66-1.62,1.66c-.98,0-1.72-.7-1.72-1.66Z"/>
    <path class="cls-3" d="m141.44,66.69v-6c0-.68-.22-1.38-.54-1.72l3.6-.66v1.78c.68-1.12,2.02-1.88,3.5-1.88,1.98,0,3.42,1.42,3.42,3.3v5.18c0,.68.22,1.38.54,1.72h-4.12c.32-.34.52-1.04.52-1.72v-5.88c0-.94-.66-1.66-1.56-1.66-.94.02-1.86.7-2.3,1.74v5.8c0,.68.2,1.38.52,1.72h-4.12c.32-.34.54-1.04.54-1.72Z"/>
    <path class="cls-3" d="m153.96,65.91v-7.1h-1.2v-.2c1.58-.4,3.28-1.66,4.26-3.22v3.02h2.56v.4h-2.56v7.6c0,.84.54,1.46,1.28,1.46.6,0,1.2-.42,1.4-.98l.32.18c-.2.88-1.48,1.54-2.86,1.54-1.84,0-3.2-1.16-3.2-2.7Z"/>
    <path class="cls-3" d="m160.06,63.41c0-2.96,2.34-5.2,5.46-5.2s5.46,2.24,5.46,5.2-2.34,5.2-5.46,5.2-5.46-2.24-5.46-5.2Zm7.78,0c0-3-.9-4.8-2.32-4.8s-2.32,1.8-2.32,4.8.88,4.8,2.32,4.8,2.32-1.8,2.32-4.8Z"/>
    <path class="cls-3" d="m172.24,66.43c0-.72.54-1.24,1.28-1.24s1.2.5,1.2,1.22c-.54,0-.9.28-.9.68,0,.64.92,1.08,2.28,1.08,1.48,0,2.42-.52,2.42-1.38s-.98-1.32-2.54-2.04c-1.32-.58-3.64-1.4-3.64-3.52,0-1.84,1.76-3.02,4.34-3.02,2,0,3.6.7,3.6,1.98,0,.68-.48,1.22-1.2,1.22s-1.26-.52-1.26-1.22c.52,0,.82-.26.82-.64,0-.56-.72-.9-1.82-.9-1.38,0-2.3.54-2.3,1.4s1.02,1.34,2.54,2c1.54.66,3.64,1.42,3.64,3.48,0,1.82-1.6,3.08-4.38,3.08-2.3,0-4.08-.86-4.08-2.18Z"/>
  </g>
  <g>
    <path class="cls-2" d="m24.8,55.67c1.38,2.89,5.16,4.71,7.8,6.35,3.67,2.29,7.99,3.5,11.56,5.94,1.41.97,2.23,2.23,2.77,3.84.24.7.33,1.4.57,1.76-.02-.02.13.14.07.09.32.23.66.41,1.01.59,3.91,2.02,8.2,3.2,12.28,4.81,1.81.71,3.55,1.49,5.44,1.98.48.13.97.24,1.47.32.04-1.23.96-2.45,2.39-2.43,3.45.05,6.85,1.04,10.09,2.23,2.53.27,5.04.94,7.48,1.5,1.75.41,3.5.72,5.29.96.32.04.67.1,1.04.16.28-.39.69-.71,1.23-.89.63-.2,1.29-.26,1.94-.39.09-.02.18-.04.28-.05,0,0,0,0,0,0,.78-1.02,1.51-2.09,2.12-3.23-.67-.52-1.04-1.37-.7-2.41.6-1.82,1.43-3.55,2.17-5.31.37-1.55.55-3.14.52-4.6,0-.3.04-.57.12-.81-1.27-1.05-2.58-1.93-3.81-2.68-8.67-5.33-17.72-9.15-27.81-13.24h-.04c-8.14-3.05-16.92-6.15-25.97-8.25l-.36-.08c-4.24-.99-8.63-2.01-13.28-1.15-1.46.27-2.38,1.03-2.88,2.38l-.45,1.19c-1.17,3.13-2.39,6.37-3.68,9.5-.11.26-.19.53-.26.79.67.13,1.29.5,1.59,1.13Zm44.25,20.25c-5.46-1.85-11.03-3.99-16.55-6.35.09-.23.19-.46.27-.65.26.09.59.21.89.33l.34.13c.3.12.6.24.91.34,1.66.57,3.14-.1,3.69-1.67.52-1.5-.16-2.92-1.69-3.53l-.14-.05c-.66-.27-1.34-.54-2.05-.8.13-.38.25-.74.35-.99.35.12.88.34,1.4.55l.11.05c1.59.66,3.21,1.27,4.79,1.86.71.27,1.41.53,2.12.8l1.4.54.03-.07.94.36c1.94.75,3.89,1.51,5.85,2.23-.98,2.43-1.85,4.7-2.66,6.92Zm20.95,3.01c-.78,1.42-2.37,2.13-3.95,1.8-3.77-.81-7.7-1.85-11.69-3.09.33-.77.62-1.55.9-2.31.14-.38.28-.77.43-1.15l.41-1.05c.31-.79.61-1.57.91-2.38,3.85,1.24,7.74,2.24,11.71,3.24.54.14,1.04.64,1.36,1.38.5,1.14.46,2.57-.08,3.55Zm8.35-3.59l-1.04,2.69c-.47,1.21-.94,2.43-1.38,3.65-.02.04-.03.08-.04.1h-.01c-.38.05-.76.08-1.15.08,1.23-2.07,1.6-4.31,1.11-6.68.82.07,1.65.14,2.51.16Zm-57.36-28.43c9.87,2.17,19.14,5.47,26.91,8.41,7.99,3.13,17.35,7.03,26.19,12.25,1.12.66,2.28,1.36,3.38,2.17-2.08-.14-4.19-.55-6.44-1.01-3.99-.83-8.05-1.9-12.42-3.28.06-2.24-1.24-4.13-3.42-4.98-5.63-2.18-11.26-4.35-16.91-6.49-2.14-.82-4.32-.28-5.85,1.42-5.48-2.55-11.26-5.42-16.44-9.11-.14-.1-.28-.2-.41-.31,1.86.19,3.68.56,5.41.94Zm-11.83,7.75l.67-1.73c.44-1.14.88-2.28,1.32-3.43,4.19,3.62,9.08,6.09,13.83,8.47l1.36.69c1.14.58,2.37,1.15,3.73,1.74-.32.78-.62,1.57-.91,2.36l-.91,2.38c-.27.7-.54,1.4-.81,2.13-6.54-3.04-11.96-5.87-16.94-9.57-.24-.18-.48-.38-.71-.58-.44-.39-.94-.82-1.1-1.03.05-.26.28-.86.5-1.44Z"/>
    <path class="cls-3" d="m103.28,65.89c-2-2.65-4.6-4.45-6.88-5.85-8.67-5.33-17.72-9.15-27.81-13.24h-.04c-8.14-3.05-16.92-6.15-25.97-8.25l-.36-.08c-4.24-.99-8.63-2.01-13.28-1.15-1.46.27-2.38,1.03-2.88,2.38l-.45,1.19c-1.17,3.13-2.39,6.37-3.68,9.5-.81,1.98-.54,3.86.81,5.58,1.46,1.86,3.3,3.25,4.75,4.25,5.33,3.68,11.06,6.47,16.45,8.93.01,0,.03.01.04.02-.55,2.54.79,4.97,3.32,5.95,5.77,2.24,11.5,4.44,17.03,6.54,2.46.93,5.12,0,6.34-2.21,0,0,.01-.02.02-.03.06.02.15.04.25.08,5.25,1.66,11.49,3.48,17.95,4.32,1.16.15,2.36.28,3.59.28,1.11,0,2.24-.1,3.37-.37,1.79-.43,2.99-1.41,3.56-2.92,1.45-3.82,2.92-7.64,4.4-11.46.62-1.6-.02-2.73-.56-3.45Zm-76.16-13.15c.05-.26.28-.86.5-1.44l.67-1.73c.44-1.14.88-2.28,1.32-3.43,4.19,3.62,9.08,6.09,13.83,8.47l1.36.69c1.14.58,2.37,1.15,3.73,1.74-.32.78-.62,1.57-.91,2.36l-.91,2.38c-.27.7-.54,1.4-.81,2.13-6.54-3.04-11.96-5.87-16.94-9.57-.24-.18-.48-.38-.71-.58-.44-.39-.94-.82-1.1-1.03Zm62.37,12.62c-3.99-.83-8.05-1.9-12.42-3.28.06-2.24-1.24-4.13-3.42-4.98-5.63-2.18-11.26-4.35-16.91-6.49-2.14-.82-4.32-.28-5.85,1.42-5.48-2.55-11.26-5.42-16.44-9.11-.14-.1-.28-.2-.41-.31,1.86.19,3.68.56,5.41.94,9.87,2.17,19.14,5.47,26.91,8.41,7.99,3.13,17.35,7.03,26.19,12.25,1.12.66,2.28,1.36,3.38,2.17-2.08-.14-4.19-.55-6.44-1.01Zm-21.97,7.2c-5.46-1.85-11.03-3.99-16.55-6.35.09-.23.19-.46.27-.65.26.09.59.21.89.33l.34.13c.3.12.6.24.91.34,1.66.57,3.14-.1,3.69-1.67.52-1.5-.16-2.92-1.69-3.53l-.14-.05c-.66-.27-1.34-.54-2.05-.8.13-.38.25-.74.35-.99.35.12.88.34,1.4.55l.11.05c1.59.66,3.21,1.27,4.79,1.86.71.27,1.41.53,2.12.8l1.4.54.03-.07.94.36c1.94.75,3.89,1.51,5.85,2.23-.98,2.43-1.85,4.7-2.66,6.92Zm17,4.81c-3.77-.81-7.7-1.85-11.69-3.09.33-.77.62-1.55.9-2.31.14-.38.28-.77.43-1.15l.41-1.05c.31-.79.61-1.57.91-2.38,3.85,1.24,7.74,2.24,11.71,3.24.54.14,1.04.64,1.36,1.38.5,1.14.46,2.57-.08,3.55-.78,1.42-2.37,2.13-3.95,1.8Zm9.88.96s-.03.08-.04.1h-.01c-.38.05-.76.08-1.15.08,1.23-2.07,1.6-4.31,1.11-6.68.82.07,1.65.14,2.51.16l-1.04,2.69c-.47,1.21-.94,2.43-1.38,3.65Z"/>
  </g>
</svg>