<?xml version="1.0" encoding="UTF-8"?>
<svg id="Camada_1" data-name="Camada 1" xmlns="http://www.w3.org/2000/svg" viewBox="0 0 240 120">
  <defs>
    <style>
      .cls-1 {
        fill: #bda189;
      }

      .cls-1, .cls-2, .cls-3 {
        stroke-width: 0px;
      }

      .cls-2 {
        fill: #f2eade;
      }

      .cls-3 {
        fill: #745646;
      }
    </style>
  </defs>
  <rect class="cls-1" x="14.88" y="13.11" width="93.78" height="93.78" rx="12" ry="12"/>
  <g>
    <path class="cls-3" d="m120.72,53.43c0-.88.62-1.48,1.42-1.48s1.4.6,1.4,1.36c-.74,0-1.2.4-1.2,1.04,0,1.02,1.26,1.68,3.06,1.68,2.12,0,3.56-.92,3.56-2.28,0-1.46-1.64-2.18-3.5-2.94-2.08-.86-4.5-1.86-4.5-4.46s2.22-4.14,5.2-4.14c2.72,0,4.78,1.34,4.78,2.98,0,.86-.58,1.46-1.38,1.46s-1.42-.6-1.42-1.36c.8,0,1.34-.36,1.34-.98,0-.9-1.14-1.54-2.72-1.54-2,0-3.42,1-3.42,2.4,0,1.58,1.8,2.3,3.64,3.02,2.22.86,4.5,1.76,4.5,4.28s-2.2,4.14-5.42,4.14c-3.02,0-5.34-1.4-5.34-3.18Z"/>
    <path class="cls-3" d="m133.34,54.69v-10.5c0-.68-.22-1.38-.54-1.72l3.6-.66v6.28c.68-1.12,2.02-1.88,3.5-1.88,1.98,0,3.42,1.42,3.42,3.3v5.18c0,.68.22,1.38.54,1.72h-4.12c.32-.34.52-1.04.52-1.72v-5.88c0-.94-.66-1.66-1.56-1.66-.94.02-1.86.7-2.3,1.74v5.8c0,.68.2,1.38.52,1.72h-4.12c.32-.34.54-1.04.54-1.72Z"/>
    <path class="cls-3" d="m144.98,51.41c0-2.96,2.34-5.2,5.46-5.2s5.46,2.24,5.46,5.2-2.34,5.2-5.46,5.2-5.46-2.24-5.46-5.2Zm7.78,0c0-3-.9-4.8-2.32-4.8s-2.32,1.8-2.32,4.8.88,4.8,2.32,4.8,2.32-1.8,2.32-4.8Z"/>
    <path class="cls-3" d="m157.74,54.69v-6c0-.68-.22-1.38-.54-1.72l3.6-.66v1.82c.54-1.18,1.54-1.92,2.76-1.92,1.34,0,2.28.88,2.28,2.06,0,.94-.6,1.58-1.5,1.58s-1.56-.66-1.56-1.52c.8,0,1.3-.34,1.3-.86,0-.4-.3-.62-.82-.62-1.08,0-2.04.88-2.46,2.18v5.66c0,.68.28,1.38.7,1.72h-4.3c.32-.34.54-1.04.54-1.72Z"/>
    <path class="cls-3" d="m167.52,53.91v-7.1h-1.2v-.2c1.58-.4,3.28-1.66,4.26-3.22v3.02h2.56v.4h-2.56v7.6c0,.84.54,1.46,1.28,1.46.6,0,1.2-.42,1.4-.98l.32.18c-.2.88-1.48,1.54-2.86,1.54-1.84,0-3.2-1.16-3.2-2.7Z"/>
    <path class="cls-3" d="m174.3,54.43c0-.72.54-1.24,1.28-1.24s1.2.5,1.2,1.22c-.54,0-.9.28-.9.68,0,.64.92,1.08,2.28,1.08,1.48,0,2.42-.52,2.42-1.38s-.98-1.32-2.54-2.04c-1.32-.58-3.64-1.4-3.64-3.52,0-1.84,1.76-3.02,4.34-3.02,2,0,3.6.7,3.6,1.98,0,.68-.48,1.22-1.2,1.22s-1.26-.52-1.26-1.22c.52,0,.82-.26.82-.64,0-.56-.72-.9-1.82-.9-1.38,0-2.3.54-2.3,1.4s1.02,1.34,2.54,2c1.54.66,3.64,1.42,3.64,3.48,0,1.82-1.6,3.08-4.38,3.08-2.3,0-4.08-.86-4.08-2.18Z"/>
    <path class="cls-3" d="m120.28,77.39c0-1.12.7-1.72,1.6-1.72.96,0,1.62.66,1.62,1.6-.88,0-1.48.5-1.48,1.24,0,.92.94,1.54,2.2,1.54,1.74,0,2.7-1.16,2.7-3.04v-8.86c0-.7-.2-1.38-.52-1.74h4.12c-.32.36-.54,1.04-.54,1.74v7.76c0,2.92-2.12,4.7-5.2,4.7-2.64,0-4.5-1.38-4.5-3.22Z"/>
    <path class="cls-3" d="m131.58,75.39c0-2.98,2.36-5.18,5.34-5.18s4.94,2.1,4.94,4.86h-7.14c0,3.32,1.3,4.9,3.46,4.9,1.06,0,1.92-.4,1.92-1.1,0-.58-.58-1-1.38-1,0-.82.66-1.48,1.54-1.48s1.46.68,1.46,1.52c0,1.52-1.92,2.7-4.4,2.7-3.36,0-5.74-2.24-5.74-5.22Zm3.14-.72h4.26c-.06-2.54-.82-4.06-2.06-4.06s-2.12,1.7-2.2,4.06Z"/>
    <path class="cls-3" d="m142.98,77.83c0-1.76,1.68-2.94,4.12-2.94,1.12,0,2.28.26,2.84.64v-2.42c0-1.46-.94-2.4-2.5-2.4-1.02,0-1.72.4-1.72,1.04,0,.5.42.86,1.04.86,0,.84-.6,1.48-1.48,1.48s-1.52-.6-1.52-1.48c0-1.42,1.74-2.4,4.3-2.4,2.94,0,4.94,1.6,4.94,3.7v4.78c0,.68.22,1.38.54,1.72h-3.4c-.12-.3-.2-.88-.2-1.4-.74.96-2.12,1.6-3.58,1.6-1.96,0-3.38-1.18-3.38-2.78Zm4.92,1.76c.8,0,1.58-.44,2.04-1.16v-2.46c-.36-.3-.98-.48-1.66-.48-1.34,0-2.16.78-2.16,2.08,0,1.2.68,2.02,1.78,2.02Z"/>
    <path class="cls-3" d="m155.4,78.69v-6c0-.68-.22-1.38-.54-1.72l3.6-.66v1.78c.68-1.12,2.02-1.88,3.5-1.88,1.98,0,3.42,1.42,3.42,3.3v5.18c0,.68.22,1.38.54,1.72h-4.12c.32-.34.52-1.04.52-1.72v-5.88c0-.94-.66-1.66-1.56-1.66-.94.02-1.86.7-2.3,1.74v5.8c0,.68.2,1.38.52,1.72h-4.12c.32-.34.54-1.04.54-1.72Z"/>
    <path class="cls-3" d="m167.2,78.43c0-.72.54-1.24,1.28-1.24s1.2.5,1.2,1.22c-.54,0-.9.28-.9.68,0,.64.92,1.08,2.28,1.08,1.48,0,2.42-.52,2.42-1.38s-.98-1.32-2.54-2.04c-1.32-.58-3.64-1.4-3.64-3.52,0-1.84,1.76-3.02,4.34-3.02,2,0,3.6.7,3.6,1.98,0,.68-.48,1.22-1.2,1.22s-1.26-.52-1.26-1.22c.52,0,.82-.26.82-.64,0-.56-.72-.9-1.82-.9-1.38,0-2.3.54-2.3,1.4s1.02,1.34,2.54,2c1.54.66,3.64,1.42,3.64,3.48,0,1.82-1.6,3.08-4.38,3.08-2.3,0-4.08-.86-4.08-2.18Z"/>
  </g>
  <g>
    <path class="cls-2" d="m98.43,67.69c-.39-.68-.74-1.38-1.09-2.09.55,2.04,1.08,4.09,1.63,6.13-.15-1.35-.32-2.7-.54-4.04Z"/>
    <path class="cls-2" d="m68.92,90.93c.47.28,1.11.26,1.74.15-.02-.05-.05-.08-.07-.13-1.15-2.64-2.36-5.25-3.54-7.87-.31-.69-.67-1.35-1.54-1.26-.87.08-1.11.78-1.27,1.53-.08.38-.16.75-.24,1.13.2.11.4.26.58.45.96,1.01,1.71,2.2,2.46,3.37.49.77,1.34,2.31,1.88,2.64Z"/>
    <path class="cls-2" d="m29.08,90.29c.35.05.7.1,1.05.14,0-.04,0-.08,0-.13.19-3.77.38-7.53.59-11.3.27-4.89.46-9.79,1.04-14.66.11-.9.44-1.12,1.25-1.19,5.34-.45,9.96-2.48,13.59-6.49,3.38-3.74,5.16-8.13,5.2-13.19,0-.67.12-1.06.94-1.08,1.61-.05,3.23-.18,4.83-.37.77-.09.99.13,1.07.89.53,5.2,1.1,10.39,1.66,15.58.56,5.16,1.11,10.32,1.67,15.48.16,1.49.75,1.92,2.21,1.62,1.87-.39,3.62-1.06,5.08-2.35,1.89-1.67,2.84-3.68,2.54-6.29-.94-8.33-1.81-16.67-2.71-25.01-.12-1.11.8-1.83,1.86-1.48.36.12.29.42.34.67,1.89,8.48,8.89,14.71,17.57,15.6,1.61.17,3.23.1,4.83-.11.03,0,.05,0,.08,0-.06-.18-.12-.36-.18-.54-.2-.66-.37-1.31-.55-1.97-.05,0-.1.02-.16.02-8.53,1.04-16.79-4.56-18.91-12.85-.07-.27-.08-.54-.15-.81-.07-.31-.05-.53.34-.58.33-.05.43.05.58.37.4.86,1.08,1.37,2.09,1.27,2.02-.21,4.03-.44,6.05-.65.93-.09,1.34-.58,1.31-1.49-.05-1.5-.04-1.5,1.62-1.78.5-.3.82-.21,1.06.09,0-.04-.02-.08-.02-.13-.35-2.25-.39-4.52-.76-6.76-.25-1.55-.51-3.1-.67-4.67-.21,0-.43.02-.66.06-1.79.31-3.57.71-5.36,1.03-4.9.87-9.76,1.98-14.71,2.57-6.35.75-12.69,1.47-19.1,1.52-3.5.03-7,.22-10.5.27-1.52.03-2.67,1.22-2.57,2.75.11,1.61.28,3.22.5,4.82.21,1.52.13,2.98-.2,4.48-1.57,7.27-3.11,14.54-3.84,21.96-.54,5.46-.72,10.94-1.03,16.42-.16,2.94-.32,5.88-.42,8.82.42-.38.95-.61,1.51-.54Zm53.62-61.07c.68-.06,1.35-.24,2.01-.4.59-.14.89,0,.91.67.03.75.15,1.5.23,2.25.09.82.16,1.64.27,2.45.07.5-.06.73-.59.84-1.81.37-1.8.39-2.32-1.36-.35-1.18-.7-2.36-1.09-3.52-.2-.6-.1-.86.58-.92Zm-6.78,1.28c.98-.16,1.97-.31,2.95-.47.31-.05.5.01.63.35.93,2.45,1.52,4.98,1.95,7.56.07.45-.2.52-.54.55-.55.06-1.09.12-1.64.18-1.94.21-1.98.22-2.35-1.65-.39-1.95-.82-3.89-1.49-5.77-.19-.53.06-.67.49-.74Zm-6.69,36.32c.3,2.79-1.35,5.13-4.06,5.86-.8.22-.74-.3-.79-.77-.64-5.91-1.27-11.81-1.91-17.72-.42-3.86-.81-7.72-1.26-11.57-.08-.7.07-.98.8-1.03,1.16-.08,2.33-.21,3.47-.42.79-.15,1.01.11,1.08.87.42,4.24.9,8.47,1.35,12.7.43,4.03.87,8.06,1.3,12.08Zm-12.75-30.54c.88-.92,1.72-1.87,2.56-2.83.3-.34.64-.46,1.07-.51,3.93-.41,7.85-.9,11.73-1.68.57-.11.88,0,1.06.59.46,1.51.94,3.01,1.24,4.56.12.59.05.85-.63.94-2.52.35-5.03.78-7.54,1.17,0,0,0,.01,0,.02-.82.09-1.64.17-2.46.27q-3.73.42-6.85-1.65c-.41-.27-.63-.44-.19-.9Zm-8.97-1.63c.06-.38.07-.75.61-.77,2.38-.11,4.77-.25,7.39-.39-.88.97-1.6,1.75-2.29,2.56-.72.84-.61,1.63.3,2.24.28.19.58.36.87.54.29.18.58.36,1.01.63-1.47.16-2.79.33-4.13.44-1.09.09-2.19.1-3.29.16-.51.03-.76-.14-.75-.69.03-1.57.03-3.15.27-4.71Zm-6.82,5.24c.09-1.68.27-3.34.6-4.99.12-.59.33-.91.99-.89.72.03,1.44-.02,2.16-.05.37-.02.55.02.48.49-.3,2.21-.35,4.44-.16,6.67.04.47-.17.6-.58.62-.48.03-.96.1-1.43.15-2.2.22-2.18.22-2.06-2.01Zm-5.04-5.74c.79,0,1.57-.02,2.36-.04.58-.02.85.11.69.81-.36,1.53-.52,3.1-.55,4.67,0,.49-.15.67-.64.66-1.97-.02-1.74.52-1.99-1.68-.05-.44-.1-.89-.14-1.33,0,0,0,0,0,0-.09-.82-.17-1.63-.27-2.45-.05-.43.08-.64.55-.64Zm-.44,10.78c.03-.13.06-.27.09-.4.34-1.65.82-1.97,2.47-1.71.42.07.48.3.5.63.08,1.06.73,1.42,1.69,1.33,2.09-.2,4.17-.42,6.26-.62.6-.06,1.11-.31,1.23-.91.21-.97.97-.64,1.47-.6.61.05.31.65.29,1-.43,7.91-5.02,13.89-12.49,16.22-1.41.44-2.86.7-4.43.71.67-5.35,1.87-10.49,2.92-15.65Z"/>
    <path class="cls-2" d="m62.24,34.15c1.04-.11,1.9.58,1.99,1.6.08.97-.61,1.79-1.6,1.9-1.02.11-1.93-.62-2-1.6-.07-.95.64-1.79,1.61-1.9Z"/>
  </g>
  <g>
    <path class="cls-3" d="m64.27,85.91c-.44,2.04-.9,4.07-1.3,6.12-.19.98-.69,1.43-1.71,1.56-11.17,1.41-22.25.79-33.29-1.25-1.43-.27-2.18-1.08-2.13-2.58.1-3.15.27-6.3.45-9.45.31-5.48.49-10.96,1.03-16.42.73-7.42,2.27-14.69,3.84-21.96.33-1.5.41-2.97.2-4.48-.22-1.6-.39-3.21-.5-4.82-.1-1.53,1.05-2.72,2.57-2.75,3.5-.06,7-.25,10.5-.27,6.41-.05,12.75-.77,19.1-1.52,4.95-.59,9.81-1.7,14.71-2.57,1.79-.32,3.57-.72,5.36-1.03,1.86-.32,3.35.67,3.32,2.55-.07,6.15,2.75,11.38,5.06,16.78,3.18,7.42,5.62,15.08,7.59,22.91,1.17,4.65,2.44,9.29,3.7,13.92.61,2.26.21,3.15-1.99,4.1-10.16,4.4-20.78,7.01-31.8,8.01-.95.09-1.48-.26-1.84-1.1-.85-1.93-1.74-3.85-2.61-5.77l-.25.02Zm-5.66-29.12c-.56-5.19-1.14-10.39-1.66-15.58-.08-.76-.3-.98-1.07-.89-1.6.18-3.22.32-4.83.37-.82.03-.94.41-.94,1.08-.04,5.06-1.82,9.46-5.2,13.19-3.63,4.01-8.25,6.05-13.59,6.49-.82.07-1.15.29-1.25,1.19-.58,4.87-.77,9.77-1.04,14.66-.21,3.77-.39,7.53-.59,11.3-.03.61-.17,1.14.78,1.31,10.05,1.82,20.15,2.43,30.32,1.22.72-.09,1.05-.31,1.2-1.05.56-2.82,1.2-5.63,1.79-8.44.16-.75.39-1.45,1.27-1.53.87-.08,1.23.57,1.54,1.26,1.18,2.63,2.39,5.23,3.54,7.87.28.65.61.84,1.31.74,2.35-.32,4.71-.55,7.05-.95,7.64-1.3,15.01-3.51,22.15-6.52.96-.4.98-.86.75-1.7-.93-3.37-1.79-6.76-2.69-10.14-1.35-5.03-2.58-10.1-4.26-15.04-.23-.69-.54-.82-1.18-.74-1.6.21-3.22.27-4.83.11-8.68-.89-15.68-7.11-17.57-15.6-.06-.25.02-.55-.34-.67-1.06-.35-1.98.37-1.86,1.48.9,8.34,1.77,16.68,2.71,25.01.3,2.61-.65,4.62-2.54,6.29-1.46,1.29-3.2,1.96-5.08,2.35-1.46.3-2.05-.13-2.21-1.62-.56-5.16-1.11-10.32-1.67-15.48Zm-28.02,2.09c1.57,0,3.03-.27,4.43-.71,7.47-2.33,12.07-8.31,12.49-16.22.02-.35.33-.95-.29-1-.51-.04-1.27-.38-1.47.6-.13.6-.63.85-1.23.91-2.09.2-4.17.43-6.26.62-.96.09-1.61-.27-1.69-1.33-.02-.33-.09-.57-.5-.63-1.65-.26-2.13.06-2.47,1.71-.03.13-.06.27-.09.4-1.05,5.16-2.25,10.3-2.92,15.65Zm53.54-22.99c-1.67.28-1.67.28-1.62,1.78.03.92-.38,1.4-1.31,1.49-2.02.2-4.03.44-6.05.65-1.01.11-1.69-.41-2.09-1.27-.15-.32-.25-.42-.58-.37-.39.06-.41.27-.34.58.06.27.08.55.15.81,2.11,8.29,10.37,13.89,18.91,12.85.74-.09.77-.25.53-.93-1.79-5.01-4.04-9.82-6.09-14.72-.33-.79-.66-1.4-1.5-.89Zm-17.91,17.14c-.46-4.23-.93-8.46-1.35-12.7-.08-.75-.29-1.01-1.08-.87-1.15.21-2.31.35-3.47.42-.74.05-.89.32-.8,1.03.45,3.85.85,7.71,1.26,11.57.64,5.91,1.27,11.81,1.91,17.72.05.47-.02.99.79.77,2.71-.72,4.35-3.07,4.06-5.86-.43-4.03-.87-8.06-1.3-12.08Zm-1.94-16.18s0-.01,0-.02c2.51-.4,5.02-.82,7.54-1.17.68-.1.75-.35.63-.94-.3-1.55-.78-3.06-1.24-4.56-.18-.59-.49-.7-1.06-.59-3.88.78-7.8,1.27-11.73,1.68-.43.04-.78.17-1.07.51-.84.96-1.68,1.91-2.56,2.83-.44.46-.22.63.19.9q3.13,2.06,6.85,1.65c.82-.09,1.64-.18,2.46-.27Zm-10.47-5.07c-2.62.14-5,.28-7.39.39-.54.03-.55.4-.61.77-.24,1.56-.25,3.14-.27,4.71,0,.55.23.72.75.69,1.1-.06,2.19-.07,3.29-.16,1.33-.11,2.66-.28,4.13-.44-.43-.27-.72-.45-1.01-.63-.29-.18-.59-.35-.87-.54-.91-.62-1.02-1.4-.3-2.24.69-.8,1.42-1.58,2.29-2.56Zm23.76,5.18c.55-.06,1.09-.12,1.64-.18.34-.03.61-.1.54-.55-.43-2.58-1.02-5.11-1.95-7.56-.13-.33-.32-.4-.63-.35-.98.16-1.97.32-2.95.47-.44.07-.68.21-.49.74.67,1.88,1.1,3.81,1.49,5.77.37,1.87.41,1.86,2.35,1.65Zm-36.52,3.24c.48-.05.95-.12,1.43-.15.41-.03.62-.15.58-.62-.19-2.23-.14-4.45.16-6.67.06-.47-.11-.51-.48-.49-.72.04-1.44.08-2.16.05-.65-.02-.87.29-.99.89-.33,1.65-.51,3.31-.6,4.99-.12,2.23-.14,2.23,2.06,2.01Zm43.1-10.17c-.08-.75-.2-1.5-.23-2.25-.02-.67-.32-.81-.91-.67-.66.16-1.33.34-2.01.4-.68.06-.78.32-.58.92.39,1.16.74,2.34,1.09,3.52.52,1.74.51,1.72,2.32,1.36.54-.11.66-.34.59-.84-.11-.81-.18-1.63-.27-2.45Zm-50.47,5.51h0c.05.44.09.88.14,1.33.25,2.2.01,1.66,1.99,1.68.5,0,.63-.17.64-.66.03-1.57.19-3.14.55-4.67.16-.7-.11-.83-.69-.81-.79.02-1.57.05-2.36.04-.46,0-.6.21-.55.64.1.82.18,1.63.27,2.45Z"/>
    <path class="cls-3" d="m60.54,32.44c1.04-.11,1.9.58,1.99,1.6.08.97-.61,1.79-1.6,1.9-1.02.11-1.93-.62-2-1.6-.07-.95.64-1.79,1.61-1.9Z"/>
  </g>
</svg>