<?xml version="1.0" encoding="UTF-8"?>
<svg id="Camada_1" data-name="Camada 1" xmlns="http://www.w3.org/2000/svg" viewBox="0 0 240 120">
  <defs>
    <style>
      .cls-1 {
        fill: #bda189;
      }

      .cls-1, .cls-2, .cls-3, .cls-4 {
        stroke-width: 0px;
      }

      .cls-2 {
        fill: #f1e9dd;
      }

      .cls-3 {
        fill: #755647;
      }

      .cls-4 {
        fill: #745646;
      }
    </style>
  </defs>
  <g>
    <path class="cls-4" d="m120.72,53.32c0-.88.62-1.48,1.42-1.48s1.4.6,1.4,1.36c-.74,0-1.2.4-1.2,1.04,0,1.02,1.26,1.68,3.06,1.68,2.12,0,3.56-.92,3.56-2.28,0-1.46-1.64-2.18-3.5-2.94-2.08-.86-4.5-1.86-4.5-4.46s2.22-4.14,5.2-4.14c2.72,0,4.78,1.34,4.78,2.98,0,.86-.58,1.46-1.38,1.46s-1.42-.6-1.42-1.36c.8,0,1.34-.36,1.34-.98,0-.9-1.14-1.54-2.72-1.54-2,0-3.42,1-3.42,2.4,0,1.58,1.8,2.3,3.64,3.02,2.22.86,4.5,1.76,4.5,4.28s-2.2,4.14-5.42,4.14c-3.02,0-5.34-1.4-5.34-3.18Z"/>
    <path class="cls-4" d="m132.84,51.27c0-2.98,2.36-5.18,5.34-5.18s4.94,2.1,4.94,4.86h-7.14c0,3.32,1.3,4.9,3.46,4.9,1.06,0,1.92-.4,1.92-1.1,0-.58-.58-1-1.38-1,0-.82.66-1.48,1.54-1.48s1.46.68,1.46,1.52c0,1.52-1.92,2.7-4.4,2.7-3.36,0-5.74-2.24-5.74-5.22Zm3.14-.72h4.26c-.06-2.54-.82-4.06-2.06-4.06s-2.12,1.7-2.2,4.06Z"/>
    <path class="cls-4" d="m141,58.82c0-.76.56-1.3,1.34-1.3.82,0,1.44.58,1.44,1.36-.72,0-1.2.34-1.2.82,0,.4.34.64.88.64,1.04,0,1.74-.82,1.74-2.02v-9.74c0-.68-.2-1.38-.52-1.72l3.58-.66v11.2c0,2-1.76,3.5-4.06,3.5-1.82,0-3.2-.88-3.2-2.08Zm4.06-15.4c0-.94.74-1.64,1.72-1.64.92,0,1.62.7,1.62,1.64s-.7,1.66-1.62,1.66c-.98,0-1.72-.7-1.72-1.66Z"/>
    <path class="cls-4" d="m150.06,53.72c0-1.76,1.68-2.94,4.12-2.94,1.12,0,2.28.26,2.84.64v-2.42c0-1.46-.94-2.4-2.5-2.4-1.02,0-1.72.4-1.72,1.04,0,.5.42.86,1.04.86,0,.84-.6,1.48-1.48,1.48s-1.52-.6-1.52-1.48c0-1.42,1.74-2.4,4.3-2.4,2.94,0,4.94,1.6,4.94,3.7v4.78c0,.68.22,1.38.54,1.72h-3.4c-.12-.3-.2-.88-.2-1.4-.74.96-2.12,1.6-3.58,1.6-1.96,0-3.38-1.18-3.38-2.78Zm4.92,1.76c.8,0,1.58-.44,2.04-1.16v-2.46c-.36-.3-.98-.48-1.66-.48-1.34,0-2.16.78-2.16,2.08,0,1.2.68,2.02,1.78,2.02Z"/>
    <path class="cls-4" d="m121.48,78.58v-10.56c0-.68-.22-1.38-.54-1.72h6.5c2.98,0,5.26,1.68,5.26,4.02,0,2.08-1.8,3.6-4.28,3.92,1.26.22,2.38.8,2.86,1.86l1.3,2.68c.3.64.84,1.24,1.34,1.52h-3.18c-.56-.28-1.08-.84-1.36-1.44l-1.74-3.74c-.2-.36-.48-.66-.94-.82h-2.16v4.28c0,.68.2,1.38.52,1.72h-4.12c.32-.34.54-1.04.54-1.72Zm3.06-11.88v7.2h2.18c1.72,0,2.84-1.42,2.84-3.6s-1.12-3.6-2.84-3.6h-2.18Z"/>
    <path class="cls-4" d="m133.34,75.27c0-2.98,2.36-5.18,5.34-5.18s4.94,2.1,4.94,4.86h-7.14c0,3.32,1.3,4.9,3.46,4.9,1.06,0,1.92-.4,1.92-1.1,0-.58-.58-1-1.38-1,0-.82.66-1.48,1.54-1.48s1.46.68,1.46,1.52c0,1.52-1.92,2.7-4.4,2.7-3.36,0-5.74-2.24-5.74-5.22Zm3.14-.72h4.26c-.06-2.54-.82-4.06-2.06-4.06s-2.12,1.7-2.2,4.06Z"/>
    <path class="cls-4" d="m144.32,72.79c-.5-1.12-1.1-2.1-1.56-2.5h4.88c-.48.52-.52,1.5-.1,2.48l1.92,4.48,1.94-4.46c.38-.86.24-1.86-.36-2.5h2.64c-.58.48-1.26,1.46-1.7,2.5l-3.3,7.5h-1.08l-3.28-7.5Z"/>
    <path class="cls-4" d="m152.8,75.27c0-2.98,2.36-5.18,5.34-5.18s4.94,2.1,4.94,4.86h-7.14c0,3.32,1.3,4.9,3.46,4.9,1.06,0,1.92-.4,1.92-1.1,0-.58-.58-1-1.38-1,0-.82.66-1.48,1.54-1.48s1.46.68,1.46,1.52c0,1.52-1.92,2.7-4.4,2.7-3.36,0-5.74-2.24-5.74-5.22Zm3.14-.72h4.26c-.06-2.54-.82-4.06-2.06-4.06s-2.12,1.7-2.2,4.06Z"/>
    <path class="cls-4" d="m164.32,78.58v-6c0-.68-.22-1.38-.54-1.72l3.6-.66v1.78c.68-1.12,2.02-1.88,3.5-1.88,1.98,0,3.42,1.42,3.42,3.3v5.18c0,.68.22,1.38.54,1.72h-4.12c.32-.34.52-1.04.52-1.72v-5.88c0-.94-.66-1.66-1.56-1.66-.94.02-1.86.7-2.3,1.74v5.8c0,.68.2,1.38.52,1.72h-4.12c.32-.34.54-1.04.54-1.72Z"/>
    <path class="cls-4" d="m175.36,75.3c0-2.96,1.94-5.2,4.4-5.2,1.34,0,2.56.66,3.26,1.7v-3.72c0-.68-.22-1.38-.54-1.72l3.6-.66v12.88c0,.68.2,1.38.52,1.72h-3.38c-.1-.28-.18-.8-.2-1.38-.74.96-1.92,1.58-3.22,1.58-2.5,0-4.44-2.24-4.44-5.2Zm5.56,4.32c.86,0,1.62-.6,2.1-1.54v-5.42c-.48-1.04-1.28-1.66-2.16-1.66-1.4,0-2.36,1.72-2.36,4.3s.98,4.32,2.42,4.32Z"/>
    <path class="cls-4" d="m187.36,75.27c0-2.98,2.36-5.18,5.34-5.18s4.94,2.1,4.94,4.86h-7.14c0,3.32,1.3,4.9,3.46,4.9,1.06,0,1.92-.4,1.92-1.1,0-.58-.58-1-1.38-1,0-.82.66-1.48,1.54-1.48s1.46.68,1.46,1.52c0,1.52-1.92,2.7-4.4,2.7-3.36,0-5.74-2.24-5.74-5.22Zm3.14-.72h4.26c-.06-2.54-.82-4.06-2.06-4.06s-2.12,1.7-2.2,4.06Z"/>
    <path class="cls-4" d="m198.38,75.3c0-2.96,1.94-5.2,4.4-5.2,1.34,0,2.56.66,3.26,1.7v-3.72c0-.68-.22-1.38-.54-1.72l3.6-.66v12.88c0,.68.2,1.38.52,1.72h-3.38c-.1-.28-.18-.8-.2-1.38-.74.96-1.92,1.58-3.22,1.58-2.5,0-4.44-2.24-4.44-5.2Zm5.56,4.32c.86,0,1.62-.6,2.1-1.54v-5.42c-.48-1.04-1.28-1.66-2.16-1.66-1.4,0-2.36,1.72-2.36,4.3s.98,4.32,2.42,4.32Z"/>
    <path class="cls-4" d="m210.38,75.3c0-2.96,2.34-5.2,5.46-5.2s5.46,2.24,5.46,5.2-2.34,5.2-5.46,5.2-5.46-2.24-5.46-5.2Zm7.78,0c0-3-.9-4.8-2.32-4.8s-2.32,1.8-2.32,4.8.88,4.8,2.32,4.8,2.32-1.8,2.32-4.8Z"/>
    <path class="cls-4" d="m222.54,78.58v-6c0-.68-.22-1.38-.54-1.72l3.6-.66v1.82c.54-1.18,1.54-1.92,2.76-1.92,1.34,0,2.28.88,2.28,2.06,0,.94-.6,1.58-1.5,1.58s-1.56-.66-1.56-1.52c.8,0,1.3-.34,1.3-.86,0-.4-.3-.62-.82-.62-1.08,0-2.04.88-2.46,2.18v5.66c0,.68.28,1.38.7,1.72h-4.3c.32-.34.54-1.04.54-1.72Z"/>
  </g>
  <g>
    <rect class="cls-1" x="14.79" y="13.11" width="93.78" height="93.78" rx="12" ry="12"/>
    <g>
      <g>
        <path class="cls-2" d="m83.22,75.13c-.28,2.26-.55,4.52-.82,6.79-.19,1.59-.38,3.19-.55,4.78-.14,1.31-.26,2.62-.39,3.94-.03.34-.12.64-.25.9.78-.65,1.49-1.42,2.1-2.28-.06-.2-.1-.4-.13-.61-.66-5.25-.09-10.96.44-16.44-.13.97-.27,1.95-.39,2.92Z"/>
        <path class="cls-2" d="m85.12,44c-2.79,1.15-6.65-1.97-4.76-5.39.37-.67-.12-2.82-.44-3.7-.59-1.61-1.88-3.23-3.25-4.27-1.14-.87-1.9-2.13-1.85-3.47-.91-.44-1.88-.79-2.92-1.04-3.31-.8-6.58-.42-9.55,1.23-4.15,2.31-6.56,5.9-7.14,10.65-2.31-.46-4.52-.91-6.72-1.35-1.27-.25-2.19.13-2.54,1.1-.29.81-.54,1.65-.78,2.48-.47,1.6-.92,3.21-1.37,4.82-.45,1.56-.9,3.13-1.34,4.69-.46,1.63-.92,3.26-1.39,4.89-.45,1.56-.9,3.13-1.34,4.69-.46,1.63-.93,3.26-1.38,4.89-.37,1.34-.71,2.69-1.08,4.04-.17.63-.34,1.26-.53,1.88-.41,1.39-.83,2.78-1.23,4.18-.21.71-.37,1.43-.57,2.15-.48,1.74-1,3.47-1.43,5.21-.24.95-.16,1.86.12,2.72,2.95.93,5.95,2.02,8.97,3.1.14,0,.26,0,.41,0,.33.04.66.1,1,.14h0s.04,0,.06,0c3.34.46,6.66,1.21,9.98,1.95,1.35.25,2.68.53,3.98.86,1.56.32,3.12.61,4.69.83,3.68.53,7.33,1.06,10.91,2.08.41.12.82.24,1.22.36.46-.2,1.01-.32,1.64-.31,1.07.01,2.12-.29,3.1-.8-.15.01-.31.01-.46,0-.22-.03-.43-.08-.65-.12-13.14-2.63-26.27-5.29-39.42-7.87-1.62-.32-2.12-1.96-1.55-3.13.26-.54.38-1.15.54-1.73.36-1.3.69-2.61,1.06-3.9.54-1.88,1.11-3.74,1.66-5.61.17-.58.33-1.17.49-1.76.52-1.91,1.03-3.82,1.55-5.73.44-1.59.9-3.17,1.36-4.76.61-2.15,1.22-4.3,1.83-6.45.45-1.56.9-3.13,1.34-4.69.46-1.63.92-3.26,1.39-4.89.11-.37.27-.72.42-1.12,1.72.34,3.46.69,5.26,1.05-.3,1.51-.61,3.02-.91,4.53-.15.76-.31,1.51-.45,2.27-.22,1.12.29,2.28,1.1,2.4,1.61.24,2.4-.24,2.73-1.69.47-2.06.85-4.15,1.26-6.22.03-.15.06-.3.1-.5,6.37,1.28,12.73,2.55,19.14,3.84-.46,2.32-.92,4.63-1.39,6.93-.16.79.14,1.39.68,1.95.85.89,2.62.26,2.97-.73.14-.39.27-.78.35-1.18.42-2.05.83-4.1,1.25-6.2,1.53.31,3.06.61,4.62.93.19-1.22.4-2.45.65-3.66.02-.09.05-.16.08-.24-.04,0-.07-.02-.11-.02-.45-.09-.9-.18-1.34-.28Zm-7.06-1.44c-6.35-1.27-12.69-2.54-19.03-3.82.3-3.64,2.51-7.02,6.38-8.49,3.66-1.4,7.74-.38,10.38,2.34,2.96,3.05,3.32,6.93,2.27,9.96Z"/>
        <path class="cls-2" d="m60.34,81.54c-5.01-1-10.02-2.03-15.04-3-1.4-.27-1.82-1.13-1.85-2.06-.03-.87.81-1.99,2.19-1.84.15.02.3.05.46.08,10.05,2.01,20.09,4.03,30.14,6.04,1.13.23,1.65.77,1.76,1.83.12,1.13-.9,2.16-2.03,2.05-.26-.02-.52-.08-.78-.13-4.95-.99-9.89-1.98-14.84-2.97Z"/>
      </g>
      <g>
        <path class="cls-3" d="m35.67,86.8c-1.05-.57-2.03-1.23-2.68-2.26-.81-1.3-1.24-2.71-.86-4.23.44-1.75.96-3.48,1.43-5.21.2-.71.36-1.43.57-2.15.4-1.39.82-2.78,1.23-4.18.18-.63.36-1.25.53-1.88.36-1.34.71-2.69,1.08-4.04.45-1.63.92-3.26,1.38-4.89.45-1.56.9-3.13,1.34-4.69.46-1.63.92-3.26,1.39-4.89.45-1.56.9-3.13,1.34-4.69.46-1.61.91-3.22,1.37-4.82.24-.83.49-1.66.78-2.48.35-.96,1.27-1.35,2.54-1.1,2.21.44,4.41.88,6.72,1.35.58-4.75,2.99-8.34,7.14-10.65,2.98-1.66,6.25-2.04,9.55-1.23,3.78.92,6.75,3.06,8.72,6.45,1.96,3.38,2.33,6.97,1.24,10.77,1.58.32,3.09.61,4.59.93.98.21,1.97.42,2.93.72.72.22,1.23,1.03,1.11,1.95-.24,1.84-.38,3.7-.59,5.55-.17,1.43-.41,2.84-.58,4.27-.22,1.85-.39,3.7-.58,5.56-.06.6-.14,1.21-.22,1.81-.18,1.36-.37,2.72-.55,4.08-.22,1.75-.44,3.49-.65,5.24-.19,1.59-.37,3.19-.56,4.78-.2,1.68-.4,3.36-.61,5.04-.2,1.64-.38,3.28-.58,4.91-.16,1.32-.27,2.65-.54,3.94-.42,2.07-1.77,3.4-3.73,4.08-.68.24-1.43.27-2.14.4-14.05-2.82-28.09-5.63-42.14-8.45Zm12.11-47.33c-.15.4-.31.75-.42,1.12-.47,1.63-.93,3.26-1.39,4.89-.45,1.56-.9,3.13-1.34,4.69-.61,2.15-1.22,4.3-1.83,6.45-.45,1.59-.92,3.17-1.36,4.76-.53,1.91-1.03,3.82-1.55,5.73-.16.59-.32,1.17-.49,1.76-.55,1.87-1.12,3.74-1.66,5.61-.37,1.3-.7,2.6-1.06,3.9-.16.58-.28,1.19-.54,1.73-.57,1.18-.06,2.81,1.55,3.13,13.15,2.58,26.28,5.24,39.42,7.87.22.04.43.1.65.12,1.12.14,2.2-.56,2.33-1.96.12-1.31.25-2.63.39-3.94.17-1.6.36-3.19.55-4.78.27-2.26.54-4.53.82-6.79.17-1.38.37-2.76.56-4.14.08-.58.15-1.16.21-1.75.19-1.83.37-3.66.56-5.49.17-1.59.36-3.19.55-4.78.27-2.28.55-4.57.83-6.85.16-1.27.32-2.53.49-3.8l-5.2-1.04c-.42,2.1-.83,4.15-1.25,6.2-.08.4-.21.8-.35,1.18-.35.99-2.11,1.62-2.97.73-.54-.57-.84-1.16-.68-1.95.47-2.3.93-4.61,1.39-6.93-6.41-1.28-12.76-2.56-19.14-3.84-.04.2-.07.35-.1.5-.42,2.07-.79,4.16-1.26,6.22-.33,1.45-1.12,1.93-2.73,1.69-.81-.12-1.32-1.28-1.1-2.4.15-.76.3-1.51.45-2.27.3-1.51.6-3.01.91-4.53l-5.26-1.05Zm28.9,1.73c1.04-3.03.69-6.91-2.27-9.96-2.64-2.72-6.72-3.74-10.38-2.34-3.87,1.47-6.07,4.85-6.38,8.49,6.34,1.27,12.69,2.54,19.03,3.81Z"/>
        <path class="cls-3" d="m58.97,80.17c-5.01-1-10.02-2.03-15.04-3-1.4-.27-1.82-1.13-1.85-2.06-.03-.87.81-1.99,2.19-1.84.15.02.3.05.46.08,10.05,2.01,20.09,4.03,30.14,6.04,1.13.23,1.65.77,1.76,1.83.12,1.13-.9,2.16-2.03,2.05-.26-.02-.52-.08-.78-.13-4.95-.99-9.89-1.98-14.84-2.97Z"/>
      </g>
    </g>
  </g>
</svg>