<?xml version="1.0" encoding="UTF-8"?>
<svg id="Camada_1" data-name="Camada 1" xmlns="http://www.w3.org/2000/svg" viewBox="0 0 240 120">
  <defs>
    <style>
      .cls-1 {
        fill: #bda189;
      }

      .cls-1, .cls-2, .cls-3 {
        stroke-width: 0px;
      }

      .cls-2 {
        fill: #f2eade;
      }

      .cls-3 {
        fill: #745646;
      }
    </style>
  </defs>
  <rect class="cls-1" x="14.88" y="13.11" width="93.78" height="93.78" rx="12" ry="12"/>
  <g>
    <path class="cls-3" d="m120.62,61.43c0-4.06,3.22-7.22,7.5-7.22,3.06,0,5.5,1.66,5.5,3.58,0,.98-.66,1.68-1.6,1.68s-1.64-.68-1.64-1.6c1,0,1.72-.5,1.72-1.22,0-.94-1.24-1.74-3.04-1.74-3.2,0-5.3,2.44-5.3,6.5s2.06,6.5,5.3,6.5c1.96,0,3.44-.9,4.24-2.34l.44.28c-.86,1.58-2.96,2.76-5.58,2.76-4.18,0-7.54-3.04-7.54-7.18Z"/>
    <path class="cls-3" d="m134.96,65.83c0-1.76,1.68-2.94,4.12-2.94,1.12,0,2.28.26,2.84.64v-2.42c0-1.46-.94-2.4-2.5-2.4-1.02,0-1.72.4-1.72,1.04,0,.5.42.86,1.04.86,0,.84-.6,1.48-1.48,1.48s-1.52-.6-1.52-1.48c0-1.42,1.74-2.4,4.3-2.4,2.94,0,4.94,1.6,4.94,3.7v4.78c0,.68.22,1.38.54,1.72h-3.4c-.12-.3-.2-.88-.2-1.4-.74.96-2.12,1.6-3.58,1.6-1.96,0-3.38-1.18-3.38-2.78Zm4.92,1.76c.8,0,1.58-.44,2.04-1.16v-2.46c-.36-.3-.98-.48-1.66-.48-1.34,0-2.16.78-2.16,2.08,0,1.2.68,2.02,1.78,2.02Z"/>
    <path class="cls-3" d="m147.38,66.69v-6c0-.68-.22-1.38-.54-1.72l3.6-.66v1.82c.54-1.18,1.54-1.92,2.76-1.92,1.34,0,2.28.88,2.28,2.06,0,.94-.6,1.58-1.5,1.58s-1.56-.66-1.56-1.52c.8,0,1.3-.34,1.3-.86,0-.4-.3-.62-.82-.62-1.08,0-2.04.88-2.46,2.18v5.66c0,.68.28,1.38.7,1.72h-4.3c.32-.34.54-1.04.54-1.72Z"/>
    <path class="cls-3" d="m157.16,65.91v-7.1h-1.2v-.2c1.58-.4,3.28-1.66,4.26-3.22v3.02h2.56v.4h-2.56v7.6c0,.84.54,1.46,1.28,1.46.6,0,1.2-.42,1.4-.98l.32.18c-.2.88-1.48,1.54-2.86,1.54-1.84,0-3.2-1.16-3.2-2.7Z"/>
    <path class="cls-3" d="m163.26,63.39c0-2.98,2.36-5.18,5.34-5.18s4.94,2.1,4.94,4.86h-7.14c0,3.32,1.3,4.9,3.46,4.9,1.06,0,1.92-.4,1.92-1.1,0-.58-.58-1-1.38-1,0-.82.66-1.48,1.54-1.48s1.46.68,1.46,1.52c0,1.52-1.92,2.7-4.4,2.7-3.36,0-5.74-2.24-5.74-5.22Zm3.14-.72h4.26c-.06-2.54-.82-4.06-2.06-4.06s-2.12,1.7-2.2,4.06Z"/>
    <path class="cls-3" d="m175.46,66.69v-6c0-.68-.22-1.38-.54-1.72l3.6-.66v8.38c0,.68.2,1.38.52,1.72h-4.12c.32-.34.54-1.04.54-1.72Zm-.14-11.16c0-.94.74-1.64,1.72-1.64.92,0,1.62.7,1.62,1.64s-.7,1.66-1.62,1.66c-.98,0-1.72-.7-1.72-1.66Z"/>
    <path class="cls-3" d="m181.12,66.69v-6c0-.68-.22-1.38-.54-1.72l3.6-.66v1.82c.54-1.18,1.54-1.92,2.76-1.92,1.34,0,2.28.88,2.28,2.06,0,.94-.6,1.58-1.5,1.58s-1.56-.66-1.56-1.52c.8,0,1.3-.34,1.3-.86,0-.4-.3-.62-.82-.62-1.08,0-2.04.88-2.46,2.18v5.66c0,.68.28,1.38.7,1.72h-4.3c.32-.34.54-1.04.54-1.72Z"/>
    <path class="cls-3" d="m189.42,65.83c0-1.76,1.68-2.94,4.12-2.94,1.12,0,2.28.26,2.84.64v-2.42c0-1.46-.94-2.4-2.5-2.4-1.02,0-1.72.4-1.72,1.04,0,.5.42.86,1.04.86,0,.84-.6,1.48-1.48,1.48s-1.52-.6-1.52-1.48c0-1.42,1.74-2.4,4.3-2.4,2.94,0,4.94,1.6,4.94,3.7v4.78c0,.68.22,1.38.54,1.72h-3.4c-.12-.3-.2-.88-.2-1.4-.74.96-2.12,1.6-3.58,1.6-1.96,0-3.38-1.18-3.38-2.78Zm4.92,1.76c.8,0,1.58-.44,2.04-1.16v-2.46c-.36-.3-.98-.48-1.66-.48-1.34,0-2.16.78-2.16,2.08,0,1.2.68,2.02,1.78,2.02Z"/>
    <path class="cls-3" d="m201.26,66.43c0-.72.54-1.24,1.28-1.24s1.2.5,1.2,1.22c-.54,0-.9.28-.9.68,0,.64.92,1.08,2.28,1.08,1.48,0,2.42-.52,2.42-1.38s-.98-1.32-2.54-2.04c-1.32-.58-3.64-1.4-3.64-3.52,0-1.84,1.76-3.02,4.34-3.02,2,0,3.6.7,3.6,1.98,0,.68-.48,1.22-1.2,1.22s-1.26-.52-1.26-1.22c.52,0,.82-.26.82-.64,0-.56-.72-.9-1.82-.9-1.38,0-2.3.54-2.3,1.4s1.02,1.34,2.54,2c1.54.66,3.64,1.42,3.64,3.48,0,1.82-1.6,3.08-4.38,3.08-2.3,0-4.08-.86-4.08-2.18Z"/>
  </g>
  <g>
    <path class="cls-2" d="m91.62,54.68c-.88-1.01-.74-2.22-.14-3.09-5.95-5.96-11.91-11.92-17.87-17.88-.93-.93-2.1-1.38-3.44-1.36-1.25.04-2.36.57-3.41,1.64-2.79,2.84-5.61,5.66-8.42,8.47-.78.78-1.56,1.55-2.35,2.33-.79.78-1.58,1.55-2.36,2.33-2.38,2.39-4.76,4.77-7.14,7.16l-6.01,6.03c-.62.62-1.24,1.23-1.87,1.85-.68.67-1.37,1.35-2.05,2.03-1.59,1.6-1.85,3.88-.67,5.75,0,1.63,0,3.27,0,4.93-1.25.78-1.92,2.02-1.88,3.52.03.92-.06,1.83-.15,2.8-.05.54-.1,1.08-.13,1.62-.09,1.58-.21,3.16-.32,4.74-.08,1.1-.16,2.19-.23,3.29,1.85-.03,3.68.23,5.52.65.14-.08.28-.15.42-.24.02,0,.02-.01.04-.02,0,0,.01-.02.03-.04.08-.08.16-.17.24-.25.02-.05.2-.33.21-.36.03-.05.04-.08.06-.11,0,0,0-.02.02-.08.12-.38.21-.8.23-1.02.12-1.3,0-2.63-.1-3.93-.22-2.69-.47-5.32.01-7.99-.73-.58-1.47-1.16-2.18-1.74-1.01-.84-.86-2.57,0-3.43.99-.99,2.42-.83,3.43,0,3,2.48,6.21,4.78,8.23,8.19.34.57.41,1.14.3,1.66.08.06.17.12.25.18.07.03.14.07.21.11.44.28.85.6,1.23.97.61.59.77,1.35.63,2.06.01.16,0,.32-.02.47.06.03.11.06.17.1,2.05,1.11,4.12,2.04,5.89,3.6.08.07.15.15.22.23.96-.38,2.14-1.16,3.04-1.91.86-.72,1.64-1.49,2.37-2.29-.28-.76-.19-1.65.56-2.4,8.96-8.81,17.87-17.7,27.45-25.84.16-.18.32-.36.44-.56.5-.78.25-1.32-.49-2.17Zm-53.63,28.86c.03-.44.05-.88.07-1.32h0c0,.17,0,.33,0,.48.08,1,.14,1.99.18,2.78l.13,2.04c.05.78.1,1.45.15,2.11-.18,0-.36,0-.53,0-.14,0-.29,0-.42,0,.15-2.03.28-4.06.41-6.09Zm3.09-14.27l-1.44-1.44c-.18-.18-.18-.26-.18-.3v-.04s0-.11.18-.29l30.33-30.33c.15-.15.25-.23.35-.23s.2.08.35.23l3.37,3.37c3.06,3.06,6.11,6.12,9.21,9.19-2.63,2.62-5.26,5.25-7.88,7.87l-5.85,5.85s-.08.08-.13.13c.11-.41.19-.82.19-1.26,0-1.29-.49-2.48-1.38-3.37-.9-.89-2.11-1.38-3.42-1.38h-.01c-1.26,0-2.44.51-3.33,1.41-.88.9-1.37,2.1-1.36,3.37,0,2.6,2.14,4.72,4.75,4.73h0c.43,0,.85-.08,1.26-.19-4.61,4.6-9.21,9.21-13.85,13.85-3.71-3.73-7.43-7.45-11.15-11.17Zm24.22-7.26c0,.17-.09.28-.14.33-.05.05-.17.14-.33.14-.24,0-.47-.22-.48-.46,0-.12.05-.24.14-.33.09-.1.21-.15.33-.15h0c.16,0,.28.09.33.14.05.05.14.17.15.33Zm25.03-4.93c-1.33,1.35-2.68,2.69-4.02,4.04l-26.33,26.32c-.15.15-.25.24-.31.23h-.04s-.04,0-.04,0c-.07,0-.12,0-.25-.12l-1.24-1.24c-.94-.94-1.88-1.88-2.84-2.83,3.73-3.72,7.46-7.45,11.19-11.18l9.59-9.59c3.4-3.4,6.8-6.8,10.23-10.24.82.84,1.65,1.66,2.48,2.49l1.56,1.56c.25.25.21.38.01.58Z"/>
    <path class="cls-2" d="m38.06,78.53l.02-.35c.08.08.15.17.19.25-.06.05-.14.09-.21.09Z"/>
    <path class="cls-2" d="m37.84,78.45c.03-.06.06-.12.1-.18l.03.25s-.1-.04-.14-.07Z"/>
    <path class="cls-3" d="m92.04,51.99c-6.58-6.59-13.16-13.17-19.74-19.75-.93-.93-2.1-1.38-3.44-1.36-1.25.04-2.36.57-3.41,1.64-2.79,2.84-5.61,5.66-8.42,8.47-.78.78-1.56,1.55-2.35,2.33-.79.78-1.58,1.55-2.36,2.33-2.38,2.39-4.76,4.77-7.14,7.16l-6.01,6.03c-.62.62-1.24,1.23-1.87,1.85-.68.67-1.37,1.35-2.05,2.03-1.59,1.6-1.85,3.88-.67,5.75,0,1.63,0,3.27,0,4.93-1.25.78-1.92,2.02-1.88,3.52.03.92-.06,1.83-.15,2.8-.05.54-.1,1.08-.13,1.62-.09,1.58-.21,3.16-.32,4.74-.08,1.15-.17,2.3-.24,3.45-.05.81.19,1.55.69,2.09.51.54,1.25.84,2.08.85.65,0,1.3,0,1.95,0,.72,0,1.45,0,2.17,0,.87,0,1.61-.29,2.12-.84.52-.55.76-1.3.7-2.18-.04-.62-.08-1.25-.13-1.87-.06-.86-.13-1.72-.17-2.59-.06-1.16-.15-2.31-.24-3.46-.13-1.57-.26-3.2-.29-4.79-.03-1.41-.68-2.55-1.87-3.33,0-.14,0-.27,0-.41,5.34,5.34,10.68,10.68,16.02,16.02.96.96,2.19,1.47,3.41,1.48,1.23,0,2.44-.54,3.4-1.51,2.05-2.05,4.1-4.11,6.16-6.16l8.48-8.48c5.23-5.23,10.46-10.46,15.68-15.69,1.93-1.93,1.93-4.74,0-6.67Zm-55.29,25.06l.02-.35c.08.08.15.17.19.25-.06.05-.14.09-.21.09Zm-.23-.09c.03-.06.06-.12.1-.18l.03.25s-.1-.04-.14-.07Zm.15,5.1c.03-.44.05-.88.07-1.32h0c0,.17,0,.33,0,.48.08,1,.14,1.99.18,2.78l.13,2.04c.05.78.1,1.45.15,2.11-.18,0-.36,0-.53,0-.14,0-.29,0-.42,0,.15-2.03.28-4.06.41-6.09Zm28.47-11.26l9.59-9.59c3.4-3.4,6.8-6.8,10.23-10.24.82.84,1.65,1.66,2.48,2.49l1.56,1.56c.25.25.21.38.01.58-1.33,1.35-2.68,2.69-4.02,4.04l-26.33,26.32c-.15.15-.25.24-.31.23h-.04s-.04,0-.04,0c-.07,0-.12,0-.25-.12l-1.24-1.24c-.94-.94-1.88-1.88-2.84-2.83,3.73-3.72,7.46-7.45,11.19-11.18Zm-1.15-10.27c0,.17-.09.28-.14.33-.05.05-.17.14-.33.14-.24,0-.47-.22-.48-.46,0-.12.05-.24.14-.33.09-.1.21-.15.33-.15h0c.16,0,.28.09.33.14.05.05.14.17.15.33Zm2.9-3.37c-.9-.89-2.11-1.38-3.42-1.38h-.01c-1.26,0-2.44.51-3.33,1.41-.88.9-1.37,2.1-1.36,3.37,0,2.6,2.14,4.72,4.75,4.73h0c.43,0,.85-.08,1.26-.19-4.61,4.6-9.21,9.21-13.85,13.85-3.71-3.73-7.43-7.45-11.15-11.17l-1.44-1.44c-.18-.18-.18-.26-.18-.3v-.04s0-.11.18-.29l30.33-30.33c.15-.15.25-.23.35-.23s.2.08.35.23l3.37,3.37c3.06,3.06,6.11,6.12,9.21,9.19-2.63,2.62-5.26,5.25-7.88,7.87l-5.85,5.85s-.08.08-.13.13c.11-.41.19-.82.19-1.26,0-1.29-.49-2.48-1.38-3.37Z"/>
  </g>
</svg>