<?xml version="1.0" encoding="UTF-8"?>
<svg id="Camada_1" data-name="Camada 1" xmlns="http://www.w3.org/2000/svg" viewBox="0 0 240 120">
  <defs>
    <style>
      .cls-1 {
        fill: #bda189;
      }

      .cls-1, .cls-2, .cls-3, .cls-4 {
        stroke-width: 0px;
      }

      .cls-2 {
        fill: #f1e9dd;
      }

      .cls-3 {
        fill: #755647;
      }

      .cls-4 {
        fill: #745646;
      }
    </style>
  </defs>
  <g>
    <path class="cls-4" d="m120.72,65.43c0-.88.62-1.48,1.42-1.48s1.4.6,1.4,1.36c-.74,0-1.2.4-1.2,1.04,0,1.02,1.26,1.68,3.06,1.68,2.12,0,3.56-.92,3.56-2.28,0-1.46-1.64-2.18-3.5-2.94-2.08-.86-4.5-1.86-4.5-4.46s2.22-4.14,5.2-4.14c2.72,0,4.78,1.34,4.78,2.98,0,.86-.58,1.46-1.38,1.46s-1.42-.6-1.42-1.36c.8,0,1.34-.36,1.34-.98,0-.9-1.14-1.54-2.72-1.54-2,0-3.42,1-3.42,2.4,0,1.58,1.8,2.3,3.64,3.02,2.22.86,4.5,1.76,4.5,4.28s-2.2,4.14-5.42,4.14c-3.02,0-5.34-1.4-5.34-3.18Z"/>
    <path class="cls-4" d="m133.32,65.29v-4.6c0-.68-.22-1.38-.52-1.72l3.58-.66v7.7c0,.92.64,1.62,1.54,1.62s1.76-.72,2.22-1.78v-5.16c0-.68-.22-1.38-.54-1.72l3.6-.66v8.38c0,.68.2,1.38.52,1.72h-3.38c-.12-.34-.2-1.02-.2-1.72-.7,1.14-2,1.92-3.42,1.92-1.92,0-3.4-1.4-3.4-3.32Z"/>
    <path class="cls-4" d="m145.74,71.09v-10.4c0-.68-.22-1.38-.54-1.72l3.6-.66v1.6c.7-1.04,1.92-1.7,3.26-1.7,2.46,0,4.4,2.24,4.4,5.2s-1.94,5.2-4.44,5.2c-1.32,0-2.5-.62-3.22-1.58v4.06c0,.68.2,1.38.52,1.72h-4.12c.32-.34.54-1.04.54-1.72Zm3.06-10.32v5.42c.46.94,1.24,1.54,2.1,1.54,1.44,0,2.42-1.72,2.42-4.32s-.96-4.3-2.36-4.3c-.88,0-1.68.62-2.16,1.66Z"/>
    <path class="cls-4" d="m157.8,63.41c0-2.96,2.34-5.2,5.46-5.2s5.46,2.24,5.46,5.2-2.34,5.2-5.46,5.2-5.46-2.24-5.46-5.2Zm7.78,0c0-3-.9-4.8-2.32-4.8s-2.32,1.8-2.32,4.8.88,4.8,2.32,4.8,2.32-1.8,2.32-4.8Z"/>
    <path class="cls-4" d="m170.56,66.69v-6c0-.68-.22-1.38-.54-1.72l3.6-.66v1.82c.54-1.18,1.54-1.92,2.76-1.92,1.34,0,2.28.88,2.28,2.06,0,.94-.6,1.58-1.5,1.58s-1.56-.66-1.56-1.52c.8,0,1.3-.34,1.3-.86,0-.4-.3-.62-.82-.62-1.08,0-2.04.88-2.46,2.18v5.66c0,.68.28,1.38.7,1.72h-4.3c.32-.34.54-1.04.54-1.72Z"/>
    <path class="cls-4" d="m180.34,65.91v-7.1h-1.2v-.2c1.58-.4,3.28-1.66,4.26-3.22v3.02h2.56v.4h-2.56v7.6c0,.84.54,1.46,1.28,1.46.6,0,1.2-.42,1.4-.98l.32.18c-.2.88-1.48,1.54-2.86,1.54-1.84,0-3.2-1.16-3.2-2.7Z"/>
    <path class="cls-4" d="m186.44,63.39c0-2.98,2.36-5.18,5.34-5.18s4.94,2.1,4.94,4.86h-7.14c0,3.32,1.3,4.9,3.46,4.9,1.06,0,1.92-.4,1.92-1.1,0-.58-.58-1-1.38-1,0-.82.66-1.48,1.54-1.48s1.46.68,1.46,1.52c0,1.52-1.92,2.7-4.4,2.7-3.36,0-5.74-2.24-5.74-5.22Zm3.14-.72h4.26c-.06-2.54-.82-4.06-2.06-4.06s-2.12,1.7-2.2,4.06Z"/>
  </g>
  <g>
    <rect class="cls-1" x="14.99" y="13.11" width="93.78" height="93.78" rx="12" ry="12"/>
    <g>
      <g>
        <path class="cls-2" d="m65.03,90.71c.34,0,.66-.04.95-.11-.03-.15-.06-.32-.08-.54-.11-1.11-.34-2.2-.3-3.32.16-4.26,2.86-7.76,7.05-9.17.98-.33,1.97-.59,3-.68,3.02-.27,6-.9,9.05-.85,4.15.07,8.28,2.38,9.72,6.66.03-.72.02-1.4-.14-2-.41-1.51-.89-2.79-1.13-4.32-.47-.38-.95-.74-1.49-1.07-1.49-.92-3.12-1.45-4.83-1.75-1.53,1.04-3.62.4-4.55-.95-1,.64-2.15,1.08-3.41,1.22-4.43.49-8.4-2.69-8.89-7.14-.47-4.34,2.71-8.3,7.06-8.79,3.3-.37,6.35,1.31,7.89,4.02.15-.78.3-1.57.48-2.36-.07-.05-.14-.1-.2-.15-.91-.84-1.56-1.8-1.99-2.87-4.63-2.61-10.6-1.44-13.88,2.98-3.32,4.48-2.85,11.37,2.78,15.33-.09.07-.12.11-.17.13-.18.07-.36.13-.54.21-4,1.6-6.83,4.31-8.06,8.52-.73,2.49-.44,5,.05,7.46.44-.28.98-.45,1.64-.45Z"/>
        <path class="cls-2" d="m75.2,45.39c-.27-.32-.48-.69-.6-1.15-.33-1.3-.62-2.61-.87-3.93.24,2.09.47,4.19.71,6.28.29-.33.54-.72.76-1.2Z"/>
        <path class="cls-2" d="m34.87,53.48c.03.27.08.51.14.75.41-.07.85-.07,1.33.04,5.07,1.18,10.14-1.62,15.08-.74,1.95.35,3.09,1.39,4.66,2.48,1.15.8,1.88.99,2.49.73-1.1-1.1-2.23-2.17-3.29-3.31-.72-.77-1.46-1.02-2.51-.89-4.61.57-9.24,1.07-13.85,1.59-1.19.13-1.28.06-1.42-1.13-.71-6.25-1.41-12.5-2.12-18.75-.13-1.12-.04-1.23,1.11-1.36,5.81-.66,11.62-1.31,17.43-1.97,5.75-.65,11.51-1.3,17.26-1.95.86-.1,1.14-.07,1.28.42-.05-1.02-.08-2.05-.09-3.08-.4-.06-.82-.08-1.29-.02-5.84.66-11.67,1.32-17.51,1.98-5.84.66-11.67,1.32-17.51,1.98-2.43.27-3.61,1.74-3.33,4.15.72,6.36,1.43,12.73,2.15,19.09Z"/>
        <path class="cls-2" d="m56.88,80.92s.01-.02.02-.03c.2-.25.39-.51.59-.76,0-.01.02-.02.03-.03-1.19-.19-2.27-.96-2.53-2.14-1,.9-2.28,1.52-3.72,1.67-3.71.4-7.01-2.28-7.39-6.01-.37-3.61,2.31-6.89,5.96-7.28,2.55-.27,4.91.94,6.24,2.94.04-1.24.06-2.48.13-3.72-.04-.03-.07-.06-.11-.09-4.08-3-9.79-2.24-12.93,1.74-2.94,3.73-2.93,9.78,2.04,13.52-.1.23-.29.25-.43.32-3.3,1.79-5.18,4.54-5.63,8.26-.16,1.28.04,2.55.2,3.82.89-.04,1.78-.09,2.67-.17-.04-.61-.14-1.21-.19-1.81-.36-3.76,1.97-7.25,5.61-8.26,2.15-.6,4.41-.58,6.61-.89.83-.12,1.94-.42,2.74-.3.06-.39-.13-.45.1-.79Z"/>
      </g>
      <g>
        <path class="cls-3" d="m96.28,85.47c-.1-1.11-.21-2.01-.32-2.84-.56-4-2.6-7.11-6.08-9.24-1.52-.93-3.26-1.55-5.31-1.87,1.94-2.51,2.8-5.47,2.44-8.44-.38-3.18-2.14-6.14-4.69-7.91-5-3.47-11.77-2.34-15.41,2.56-1.77,2.38-2.51,5.44-2.04,8.39.45,2.78,1.95,5.28,4.25,7.14-4.3,1.74-7.09,4.71-8.3,8.82-.84,2.85-.38,5.67.11,8.09.34,1.69,1.89,2.85,3.7,2.85.16,0,.31,0,.47-.03,9.24-1.03,18.48-2.07,27.72-3.13,2.18-.25,3.66-2.14,3.45-4.38Zm-14.5-16.41c-1.25,1.57-3.03,2.56-5.01,2.78-2,.23-3.98-.34-5.55-1.6-1.58-1.26-2.57-3.07-2.79-5.09-.45-4.08,2.52-7.78,6.62-8.24,4.13-.47,7.86,2.5,8.32,6.61.23,2-.34,3.97-1.6,5.55Zm-11.01,7.49c1.1-.37,2.02-.58,2.88-.66,1.06-.09,2.11-.23,3.16-.37,1.8-.24,3.66-.48,5.5-.48.11,0,.22,0,.33,0,4.39.07,9.32,2.83,9.75,8.73.03.34.07.69.11,1.03l.06.48c.07.61.04.79.01.83-.04.04-.2.1-.77.17l-26.53,3c-.61.07-.73.03-.75,0-.03-.02-.1-.14-.16-.76-.03-.34-.08-.67-.12-1.01-.1-.77-.2-1.5-.17-2.24.15-4.03,2.72-7.37,6.71-8.72Zm-.68-3.2h0s0,0,0,0h0s0,0,0,0Z"/>
        <path class="cls-3" d="m64.12,52.74c2.03-.19,4.08-.43,6.06-.66l1.92-.22c2.63-.3,4.02-2.05,3.72-4.67-.72-6.39-1.44-12.78-2.17-19.17-.3-2.62-2.05-4.01-4.68-3.71l-35.02,3.95c-2.7.31-4.08,2.02-3.77,4.7.72,6.36,1.43,12.73,2.15,19.09.3,2.69,2.02,4.06,4.72,3.76l2.8-.31c3.5-.39,6.99-.78,10.48-1.2.51-.06.81.05,1.18.43,1.09,1.13,2.21,2.23,3.32,3.34l1.23,1.22c.4.4,1.01.92,1.72.92.05,0,.11,0,.16,0,.78-.09,1.3-.77,1.63-1.28l.41-.64c1.02-1.59,2.04-3.19,3.03-4.8.31-.5.59-.68,1.11-.73Zm8.07-4.64s-.18.08-.65.13l-2.2.25c-2.19.25-4.39.51-6.59.72-1.08.11-1.8.55-2.32,1.44-.55.92-1.13,1.83-1.7,2.74-.44.69-.87,1.37-1.3,2.07,0,0,0,0,0,0-.51-.52-1.03-1.03-1.55-1.54-.76-.74-1.54-1.51-2.27-2.29-.69-.74-1.44-1.08-2.38-1.08-.18,0-.36.01-.55.04-3.42.43-6.9.81-10.27,1.19l-3.58.4c-.18.02-.65.07-.72.05-.07-.09-.12-.56-.14-.74l-2.12-18.75c-.02-.15-.07-.59-.04-.67.09-.07.56-.12.71-.14l34.68-3.92c.15-.02.62-.07.7-.04.06.09.11.53.13.68l2.13,18.84c.05.46.04.62.03.64Z"/>
        <path class="cls-3" d="m57.54,78.14c-.43-.17-.87-.32-1.32-.47,2.07-2.79,2.26-5.5,2.04-7.33-.33-2.7-1.75-5.16-3.91-6.75-4.32-3.18-10.3-2.37-13.62,1.83-1.62,2.06-2.36,4.74-2.02,7.36.33,2.51,1.57,4.72,3.62,6.45-3.33,1.86-5.26,4.74-5.72,8.55-.15,1.2,0,2.38.15,3.53.04.3.08.61.11.91.14,1.25.58,2.19,1.33,2.78.6.48,1.39.73,2.34.73.22,0,.46-.01.7-.04l15.27-1.72h.14c.16-.03.32-.05.48-.08,1.02-.21,1.67-1.07,1.54-2.05-.13-.95-.91-1.57-1.91-1.58-.2,0-.41.03-.61.05l-3.95.45c-3.75.42-7.51.84-11.26,1.29-.3.03-.38,0-.39,0,0,0-.05-.07-.06-.31-.02-.46-.07-.91-.13-1.36-.03-.25-.06-.5-.09-.75-.34-3.54,1.86-6.79,5.25-7.73,1.35-.38,2.79-.5,4.18-.62.79-.07,1.58-.14,2.36-.25,1.38-.2,2.71-.03,4.08.51.66.26,1.27.28,1.76.07.42-.18.73-.53.91-1,.39-1.03-.11-1.99-1.28-2.46Zm-8.38-.49c-1.65.18-3.27-.29-4.56-1.33-1.3-1.05-2.11-2.55-2.28-4.23-.34-3.35,2.13-6.37,5.51-6.73.22-.02.44-.03.66-.03,1.4,0,2.75.48,3.86,1.37,1.29,1.04,2.1,2.53,2.27,4.19.35,3.36-2.1,6.4-5.47,6.77Z"/>
      </g>
    </g>
  </g>
</svg>