<?xml version="1.0" encoding="UTF-8"?>
<svg id="Camada_1" data-name="Camada 1" xmlns="http://www.w3.org/2000/svg" viewBox="0 0 240 120">
  <defs>
    <style>
      .cls-1 {
        fill: #bda189;
      }

      .cls-1, .cls-2, .cls-3 {
        stroke-width: 0px;
      }

      .cls-2 {
        fill: #f2eade;
      }

      .cls-3 {
        fill: #745646;
      }
    </style>
  </defs>
  <rect class="cls-1" x="14.88" y="13.11" width="93.78" height="93.78" rx="12" ry="12"/>
  <g>
    <path class="cls-2" d="m91.41,87.81c.64-.33,1.29-.66,1.93-.98-.34-1.17-.69-2.33-1.04-3.49-.57-1.91-1.14-3.82-1.71-5.73-.56-1.87-1.13-3.74-1.71-5.6-.65-2.11-1.29-4.22-1.95-6.33-.66-2.09-1.34-4.18-2.02-6.27-.86-2.67-1.87-5.28-2.9-7.88-.76-1.92-1.54-3.84-2.31-5.75-.24-.59-.72-.88-1.26-.76-.56.12-.88.6-.83,1.25.05.55.09,1.1.14,1.65.84.19,1.5.86,1.85,1.72.71,1.76,1.15,3.58,1.49,5.43.59,1.54,1.16,3.08,1.67,4.65.67,2.07,1.35,4.13,2,6.21.66,2.1,1.31,4.21,1.96,6.32.62,2.01,1.22,4.02,1.83,6.03.59,1.94,1.17,3.88,1.75,5.82.37,1.24.74,2.49,1.11,3.73Z"/>
    <path class="cls-2" d="m79,26.37c-.47-.3-.94-.57-1.51-.67-3.77-.71-7.54-1.44-11.3-2.16-.21-.04-.37-.12-.53-.26-.07-.06-.14-.12-.21-.18-6.2,2.22-13,2.1-19.19,4.4-.48.18-.99.14-1.45-.05-1.97,1.11-3.93,2.22-5.9,3.34-1.25.71-2.49,1.45-3.77,2.12-2.08,1.1-3.29,2.83-3.41,5.13-.33,6.55-.59,13.11-.78,19.67-.13,4.64-.04,9.27.23,13.9.13,2.13.24,4.26.37,6.39.13,2.11.26,4.21.4,6.32.14,2.18.29,4.36.44,6.54.13,1.8.25,3.61.38,5.41.57-.16,1.2-.21,1.88-.1.09.01.17.02.26.03-.01-.04-.02-.08-.02-.13-.29-4.32-.61-8.64-.89-12.95-.25-3.88-.46-7.77-.7-11.66-.34-5.5-.33-11-.14-16.5.2-5.61.43-11.23.69-16.84.06-1.32.75-2.45,1.85-3.08,1.75-1.01,3.52-2,5.29-2.97.78-.43,1.55-.87,2.32-1.31.02.01.03.02.05.03-.6,1.11-1.2,2.22-1.8,3.33-.11.21-.22.41-.33.62-.23.43-.18.84.1,1.22,1.41,1.93,2.83,3.85,4.25,5.78,4.24,5.76,8.48,11.53,12.73,17.29,1,1.36,2,2.71,2.99,4.07.28.38.38.85.53,1.28.46,1.32.94,2.64,1.19,4.02.25,1.41.38,2.83.5,4.26.15,1.78.29,3.55.37,5.33.05,1.1.09,2.2.13,3.3,2.01.06,3.96,1.38,3.96,3.99v.67c0,.06-.02.12-.02.18,0,.44-.01.89-.02,1.35.4,1.18.79,2.36,1.29,3.5.67,1.49,1.55,2.79,2.73,3.84.11-.03.2-.07.32-.09.86-.14,1.77-.28,2.68-.44-.24-.12-.48-.25-.71-.4-1.66-1.09-2.71-2.67-3.38-4.5-1.15-3.15-2.23-6.32-3.27-9.51-.58-1.77-1.14-3.56-1.69-5.34-.23-.74-.19-1.51-.27-2.27-.17-1.78-.31-3.57-.75-5.32-.33-1.31-.77-2.6-1.24-3.87-.09-.24-.1-.46-.03-.71,1.49-5.24,2.97-10.49,4.45-15.74,1.53-5.41,3.05-10.82,4.58-16.23.17-.6.05-1.06-.44-1.47-.94-.78-1.85-1.59-2.77-2.39-.08-.07-.15-.14-.28-.27.88.17,1.69.32,2.5.48,1.79.34,3.58.69,5.37,1.03.2.04.38.11.56.21.43.25.84.54,1.24.83.06.04.11.09.16.13-.06-.31-.12-.62-.17-.93-.09-.58-.03-1.16.18-1.66Zm-22.36,26.76c-1.12-1.52-2.24-3.03-3.35-4.55-2.16-2.94-4.33-5.88-6.49-8.82-1.08-1.47-2.16-2.93-3.24-4.4-.09-.12-.13-.22-.05-.37.83-1.52,1.65-3.04,2.48-4.56.01-.03.04-.05.09-.1,3.55,7.61,7.09,15.19,10.63,22.78-.02,0-.05,0-.07.01Zm5.01,5.37s-.05,0-.07,0c-.61-1.3-1.22-2.61-1.83-3.91-3.45-7.38-6.89-14.77-10.33-22.15-.54-1.15-1.07-2.31-1.62-3.45-.11-.24-.06-.3.19-.34,2.47-.43,4.93-.88,7.4-1.32,2.84-.51,5.69-1.01,8.53-1.51.09-.02.19-.03.31-.06-.86,10.94-1.72,21.84-2.57,32.75Zm8.6-28.41c.15.12.16.23.11.4-.7,2.45-1.38,4.91-2.08,7.36-1.27,4.49-2.54,8.98-3.8,13.48-.03.11-.07.22-.1.33-.02,0-.04-.02-.05-.02.65-8.31,1.31-16.61,1.96-24.98.76.66,1.48,1.29,2.2,1.91.59.51,1.16,1.02,1.76,1.52Z"/>
    <path class="cls-2" d="m44.48,66.19c.51,1.87.99,3.76,1.37,5.66.41,2.07.55,4.16.67,6.26.15,2.64.21,5.28.24,7.92.04,3.45.02,6.89-.05,10.34,0,.5-.02.99-.03,1.49.49-.1,1.01-.12,1.58-.03.17.03.36.06.56.09,0-.03,0-.04,0-.08.09-4.38.14-8.76.06-13.14-.05-3.19-.16-6.38-.44-9.57-.19-2.16-.59-4.29-1.11-6.39-.61-2.47-1.27-4.93-1.97-7.38-.65-2.3-1.33-4.59-2-6.88-.29-1.01-.6-2.01-.9-3.02-.13-.45-.39-.78-.88-.86-.43-.07-.79.08-1.06.43-.15.21-.19.44-.2.69-.03,1.08-.05,2.17-.08,3.25,1.19.34,2.24,1.2,2.73,2.68.88,2.63,1.28,5.48,1.45,8.38.01.05.03.09.04.14Z"/>
    <path class="cls-2" d="m54.96,98.16c-1.06.02-2.12.04-3.18.07,1.06.06,2.16.06,3.18-.07Z"/>
    <path class="cls-2" d="m56.03,82.34c-.93.17-1.86.34-2.79.51-.64.11-1.17-.24-1.29-.84-.12-.61.26-1.14.92-1.26,1.85-.34,3.7-.67,5.54-1.01.5-.09.92.09,1.15.49.23.39.2.87-.08,1.22-.19.24-.44.35-.74.4-.91.16-1.82.33-2.73.49Z"/>
    <path class="cls-2" d="m75.77,76.59c.91-.17,1.82-.33,2.73-.49.68-.12,1.23.23,1.34.85.11.62-.28,1.13-.97,1.25-1.82.33-3.63.66-5.45.99-.68.12-1.23-.22-1.34-.85-.11-.63.27-1.13.97-1.25.91-.17,1.82-.33,2.73-.5Z"/>
  </g>
  <g>
    <path class="cls-3" d="m121.48,66.69v-10.56c0-.68-.22-1.38-.54-1.72h7.22c2.56,0,4.46,1.5,4.46,3.46,0,1.64-1.34,2.8-3.52,3.28,2.42.42,4.12,1.66,4.12,3.6,0,2.14-2,3.66-4.46,3.66h-7.82c.32-.34.54-1.04.54-1.72Zm3.06-11.88v6.2h2.08c1.72,0,2.86-.96,2.86-3.04,0-1.96-1.02-3.16-2.56-3.16h-2.38Zm2.68,6.6h-2.68v6.6h2.98c1.54,0,2.56-1.24,2.56-3.3,0-2.84-1.86-3.3-2.86-3.3Z"/>
    <path class="cls-3" d="m135.22,66.69v-10.5c0-.68-.22-1.38-.54-1.72l3.6-.66v12.88c0,.68.2,1.38.52,1.72h-4.12c.32-.34.54-1.04.54-1.72Z"/>
    <path class="cls-3" d="m140.14,65.83c0-1.76,1.68-2.94,4.12-2.94,1.12,0,2.28.26,2.84.64v-2.42c0-1.46-.94-2.4-2.5-2.4-1.02,0-1.72.4-1.72,1.04,0,.5.42.86,1.04.86,0,.84-.6,1.48-1.48,1.48s-1.52-.6-1.52-1.48c0-1.42,1.74-2.4,4.3-2.4,2.94,0,4.94,1.6,4.94,3.7v4.78c0,.68.22,1.38.54,1.72h-3.4c-.12-.3-.2-.88-.2-1.4-.74.96-2.12,1.6-3.58,1.6-1.96,0-3.38-1.18-3.38-2.78Zm4.92,1.76c.8,0,1.58-.44,2.04-1.16v-2.46c-.36-.3-.98-.48-1.66-.48-1.34,0-2.16.78-2.16,2.08,0,1.2.68,2.02,1.78,2.02Z"/>
    <path class="cls-3" d="m151.84,68.09l5.22-9.28h-1.54c-1.34,0-2.7,1.04-3.38,2.58v-2.98h8.26v.32l-5.22,9.28h1.8c1.34,0,2.7-1.04,3.38-2.58v2.98h-8.52v-.32Z"/>
    <path class="cls-3" d="m161.22,63.39c0-2.98,2.36-5.18,5.34-5.18s4.94,2.1,4.94,4.86h-7.14c0,3.32,1.3,4.9,3.46,4.9,1.06,0,1.92-.4,1.92-1.1,0-.58-.58-1-1.38-1,0-.82.66-1.48,1.54-1.48s1.46.68,1.46,1.52c0,1.52-1.92,2.7-4.4,2.7-3.36,0-5.74-2.24-5.74-5.22Zm3.14-.72h4.26c-.06-2.54-.82-4.06-2.06-4.06s-2.12,1.7-2.2,4.06Z"/>
    <path class="cls-3" d="m173.34,66.69v-6c0-.68-.22-1.38-.54-1.72l3.6-.66v1.82c.54-1.18,1.54-1.92,2.76-1.92,1.34,0,2.28.88,2.28,2.06,0,.94-.6,1.58-1.5,1.58s-1.56-.66-1.56-1.52c.8,0,1.3-.34,1.3-.86,0-.4-.3-.62-.82-.62-1.08,0-2.04.88-2.46,2.18v5.66c0,.68.28,1.38.7,1.72h-4.3c.32-.34.54-1.04.54-1.72Z"/>
    <path class="cls-3" d="m182.18,66.43c0-.72.54-1.24,1.28-1.24s1.2.5,1.2,1.22c-.54,0-.9.28-.9.68,0,.64.92,1.08,2.28,1.08,1.48,0,2.42-.52,2.42-1.38s-.98-1.32-2.54-2.04c-1.32-.58-3.64-1.4-3.64-3.52,0-1.84,1.76-3.02,4.34-3.02,2,0,3.6.7,3.6,1.98,0,.68-.48,1.22-1.2,1.22s-1.26-.52-1.26-1.22c.52,0,.82-.26.82-.64,0-.56-.72-.9-1.82-.9-1.38,0-2.3.54-2.3,1.4s1.02,1.34,2.54,2c1.54.66,3.64,1.42,3.64,3.48,0,1.82-1.6,3.08-4.38,3.08-2.3,0-4.08-.86-4.08-2.18Z"/>
  </g>
  <g>
    <path class="cls-3" d="m79.22,52.44c-.06.33.02.65.05.96.34,3.74.63,7.49,1.13,11.21.18,1.3.54,2.55.89,3.81.76,2.66,1.64,5.29,2.57,7.9,1.11,3.12,2.27,6.22,3.48,9.29.64,1.63,1.3,3.25,1.94,4.88.28.71.03,1.27-.68,1.52-3.62,1.27-7.23,2.58-10.87,3.8-1.76.59-3.49.31-5.11-.55-2.14-1.14-3.57-2.93-4.55-5.11-.68-1.51-1.14-3.1-1.69-4.66-.44-1.23-.85-2.46-1.31-3.69.03,1.02.07,2.05.09,3.07.03,2.02.21,4.05.06,6.07-.16,2.17-.84,4.18-2.25,5.88-1.46,1.76-3.34,2.58-5.64,2.59-3.06.02-6.13.12-9.19.19-.49.01-.98.02-1.46.03-.75,0-1.19-.43-1.18-1.18.02-.96.05-1.93.07-2.89.07-3.45.09-6.89.05-10.34-.03-2.64-.09-5.28-.24-7.92-.12-2.1-.26-4.2-.67-6.26-.38-1.9-.86-3.79-1.37-5.66-.53-1.95-1.07-3.89-1.61-5.83-.16-.58-.34-1.16-.57-1.72-.01,1.48-.04,2.96-.04,4.44,0,3.82.23,7.63.45,11.44.18,3.15.37,6.29.57,9.43.16,2.55.35,5.1.53,7.65.14,1.98.29,3.96.42,5.94.05.74-.43,1.23-1.19,1.2-2.7-.09-5.4-.19-8.1-.29-.35-.01-.7-.02-1.05-.04-.59-.03-1-.42-1.04-1.01-.16-2.19-.32-4.38-.47-6.57-.15-2.18-.3-4.36-.44-6.54-.14-2.11-.27-4.21-.4-6.32-.13-2.13-.24-4.26-.37-6.39-.27-4.63-.36-9.26-.23-13.9.19-6.56.45-13.12.78-19.67.12-2.3,1.32-4.04,3.41-5.13,1.27-.67,2.51-1.41,3.77-2.12,2.04-1.15,4.07-2.31,6.12-3.46.22-.12.38-.28.5-.5.64-1.2,1.3-2.39,1.93-3.59.21-.39.51-.6.94-.68,4.32-.78,8.63-1.57,12.94-2.35.44-.08.81.01,1.15.31,1.05.93,2.12,1.84,3.17,2.76.16.14.33.22.53.26,3.77.72,7.53,1.46,11.31,2.16.63.12,1.15.43,1.66.76.95.61,1.86,1.27,2.53,2.2.43.6.64,1.31.94,1.98,1.72,3.89,3.53,7.73,5.29,11.6,1.53,3.37,3.06,6.74,4.38,10.2.69,1.82,1.28,3.66,1.87,5.51.71,2.2,1.4,4.41,2.09,6.62.67,2.16,1.32,4.32,1.98,6.48.63,2.08,1.27,4.16,1.89,6.24.7,2.34,1.39,4.68,2.08,7.02.05.18.12.36.16.55.12.55-.12,1.02-.64,1.24-2.29.96-4.58,1.91-6.87,2.87-.5.21-1,.41-1.5.62-.8.34-1.38.09-1.63-.75-.48-1.58-.94-3.17-1.41-4.76-.58-1.94-1.16-3.88-1.75-5.82-.61-2.01-1.21-4.02-1.83-6.03-.65-2.11-1.29-4.22-1.96-6.32-.66-2.07-1.33-4.14-2-6.21-.7-2.16-1.51-4.28-2.34-6.39,0-.01-.03-.02-.06-.05Zm-37.02-22.48l-.05-.03c-.77.44-1.54.88-2.32,1.31-1.77.97-3.54,1.96-5.29,2.97-1.1.63-1.79,1.76-1.85,3.08-.26,5.61-.49,11.23-.69,16.84-.19,5.5-.2,11,.14,16.5.24,3.89.45,7.77.7,11.66.28,4.32.6,8.64.89,12.95.02.23.08.27.3.28,2.18.07,4.37.14,6.55.24.27.01.3-.08.28-.3-.06-.7-.11-1.4-.16-2.09-.17-2.4-.33-4.8-.49-7.21-.17-2.49-.34-4.97-.49-7.46-.15-2.52-.29-5.04-.43-7.56-.13-2.36-.25-4.72-.29-7.09-.06-4.38.08-8.76.19-13.13,0-.25.04-.49.2-.69.27-.36.62-.51,1.06-.43.49.08.74.41.88.86.3,1.01.6,2.01.9,3.02.67,2.29,1.35,4.58,2,6.88.69,2.45,1.36,4.91,1.97,7.38.52,2.11.92,4.23,1.11,6.39.28,3.18.39,6.37.44,9.57.07,4.38.03,8.76-.06,13.14-.01.53-.07.46.45.45,3.07-.06,6.15-.17,9.22-.19,1.93-.01,3.36-.81,4.4-2.39,1.03-1.56,1.41-3.31,1.39-5.14-.02-1.98-.07-3.97-.14-5.95-.07-2.22-.17-4.43-.27-6.64-.08-1.78-.22-3.56-.37-5.33-.12-1.43-.25-2.85-.5-4.26-.24-1.38-.72-2.7-1.19-4.02-.15-.44-.25-.9-.53-1.28-1-1.36-2-2.71-2.99-4.07-4.24-5.76-8.48-11.53-12.73-17.29-1.42-1.93-2.84-3.85-4.25-5.78-.28-.38-.33-.79-.1-1.22.11-.21.22-.41.33-.62.6-1.11,1.2-2.22,1.8-3.33Zm25.8-4.5c.13.12.2.2.28.27.92.8,1.83,1.61,2.77,2.39.49.41.61.87.44,1.47-1.53,5.41-3.05,10.82-4.58,16.23-1.48,5.25-2.96,10.49-4.45,15.74-.07.25-.06.47.03.71.47,1.27.91,2.56,1.24,3.87.44,1.74.58,3.53.75,5.32.07.76.04,1.53.27,2.27.56,1.78,1.11,3.57,1.69,5.34,1.05,3.18,2.12,6.36,3.27,9.51.67,1.83,1.71,3.41,3.38,4.5,1.31.86,2.73,1.17,4.24.65,3.08-1.07,6.14-2.15,9.22-3.23.37-.13.37-.13.22-.5-1.23-3.06-2.43-6.13-3.57-9.22-1.4-3.78-2.75-7.58-3.87-11.45-.59-2.03-1.05-4.09-1.27-6.2-.33-3.13-.63-6.27-.89-9.41-.23-2.75-.47-5.5-.7-8.25-.05-.65.27-1.13.83-1.25.54-.12,1.03.17,1.26.76.77,1.92,1.55,3.83,2.31,5.75,1.03,2.6,2.04,5.21,2.9,7.88.67,2.09,1.36,4.18,2.02,6.27.66,2.1,1.3,4.22,1.95,6.33.57,1.87,1.14,3.73,1.71,5.6.58,1.91,1.14,3.82,1.71,5.73.36,1.22.73,2.44,1.09,3.66.05.18.11.23.31.15,2.03-.86,4.07-1.71,6.1-2.55.2-.08.23-.17.17-.35-.1-.29-.18-.59-.27-.88-.58-1.95-1.16-3.91-1.74-5.86-.67-2.25-1.35-4.49-2.04-6.73-.6-1.99-1.21-3.98-1.83-5.96-.68-2.19-1.37-4.37-2.08-6.55-.65-2.03-1.31-4.06-2.1-6.04-1.27-3.19-2.69-6.32-4.11-9.45-1.8-3.96-3.68-7.88-5.38-11.87-.36-.85-.86-1.55-1.61-2.07-.41-.29-.81-.58-1.24-.83-.18-.1-.36-.17-.56-.21-1.79-.34-3.58-.69-5.37-1.03-.81-.16-1.62-.31-2.5-.48Zm-4.92-.52c-.13.02-.22.04-.31.06-2.84.5-5.69,1.01-8.53,1.51-2.47.44-4.93.89-7.4,1.32-.24.04-.3.1-.19.34.55,1.15,1.08,2.3,1.62,3.45,3.45,7.38,6.89,14.77,10.33,22.15.61,1.3,1.22,2.61,1.83,3.91.02,0,.05,0,.07,0,.86-10.9,1.71-21.81,2.57-32.75Zm-7.58,27.37s.05,0,.07-.01c-3.54-7.59-7.08-15.17-10.63-22.78-.05.05-.08.07-.09.1-.83,1.52-1.65,3.04-2.48,4.56-.08.15-.04.25.05.37,1.08,1.46,2.16,2.93,3.24,4.4,2.16,2.94,4.33,5.88,6.49,8.82,1.12,1.52,2.23,3.03,3.35,4.55Zm7.69-1.48s.04.02.06.02c.03-.11.07-.22.1-.33,1.27-4.49,2.54-8.98,3.8-13.48.69-2.45,1.38-4.91,2.08-7.36.05-.17.03-.28-.11-.4-.59-.5-1.17-1.01-1.76-1.52-.72-.62-1.44-1.25-2.2-1.91-.66,8.36-1.31,16.67-1.96,24.98Zm-16.2-25.18l14.84-2.7c-.52-.45-1-.87-1.48-1.29-.1-.09-.2-.09-.32-.06-3.94.72-7.88,1.43-11.82,2.15-.1.02-.21.03-.27.14-.3.57-.61,1.14-.95,1.76Z"/>
    <path class="cls-3" d="m54.88,81.53c-.93.17-1.86.34-2.79.51-.64.11-1.17-.24-1.29-.84-.12-.61.26-1.14.92-1.26,1.85-.34,3.7-.67,5.54-1.01.5-.09.92.09,1.15.49.23.39.2.87-.08,1.22-.19.24-.44.35-.74.4-.91.16-1.82.33-2.73.49Z"/>
    <path class="cls-3" d="m74.62,75.78c.91-.17,1.82-.33,2.73-.49.68-.12,1.23.23,1.34.85.11.62-.28,1.13-.97,1.25-1.82.33-3.63.66-5.45.99-.68.12-1.23-.22-1.34-.85-.11-.63.27-1.13.97-1.25.91-.17,1.82-.33,2.73-.5Z"/>
  </g>
</svg>