<?xml version="1.0" encoding="UTF-8"?>
<svg id="Camada_1" data-name="Camada 1" xmlns="http://www.w3.org/2000/svg" viewBox="0 0 240 120">
  <defs>
    <style>
      .cls-1 {
        fill: #bda189;
      }

      .cls-1, .cls-2, .cls-3 {
        stroke-width: 0px;
      }

      .cls-2 {
        fill: #f2eade;
      }

      .cls-3 {
        fill: #745646;
      }
    </style>
  </defs>
  <rect class="cls-1" x="14.88" y="13.11" width="93.78" height="93.78" rx="12" ry="12"/>
  <g>
    <path class="cls-3" d="m120.72,53.43c0-.88.62-1.48,1.42-1.48s1.4.6,1.4,1.36c-.74,0-1.2.4-1.2,1.04,0,1.02,1.26,1.68,3.06,1.68,2.12,0,3.56-.92,3.56-2.28,0-1.46-1.64-2.18-3.5-2.94-2.08-.86-4.5-1.86-4.5-4.46s2.22-4.14,5.2-4.14c2.72,0,4.78,1.34,4.78,2.98,0,.86-.58,1.46-1.38,1.46s-1.42-.6-1.42-1.36c.8,0,1.34-.36,1.34-.98,0-.9-1.14-1.54-2.72-1.54-2,0-3.42,1-3.42,2.4,0,1.58,1.8,2.3,3.64,3.02,2.22.86,4.5,1.76,4.5,4.28s-2.2,4.14-5.42,4.14c-3.02,0-5.34-1.4-5.34-3.18Z"/>
    <path class="cls-3" d="m133.34,54.69v-10.5c0-.68-.22-1.38-.54-1.72l3.6-.66v6.28c.68-1.12,2.02-1.88,3.5-1.88,1.98,0,3.42,1.42,3.42,3.3v5.18c0,.68.22,1.38.54,1.72h-4.12c.32-.34.52-1.04.52-1.72v-5.88c0-.94-.66-1.66-1.56-1.66-.94.02-1.86.7-2.3,1.74v5.8c0,.68.2,1.38.52,1.72h-4.12c.32-.34.54-1.04.54-1.72Z"/>
    <path class="cls-3" d="m144.98,51.41c0-2.96,2.34-5.2,5.46-5.2s5.46,2.24,5.46,5.2-2.34,5.2-5.46,5.2-5.46-2.24-5.46-5.2Zm7.78,0c0-3-.9-4.8-2.32-4.8s-2.32,1.8-2.32,4.8.88,4.8,2.32,4.8,2.32-1.8,2.32-4.8Z"/>
    <path class="cls-3" d="m157.74,54.69v-6c0-.68-.22-1.38-.54-1.72l3.6-.66v1.82c.54-1.18,1.54-1.92,2.76-1.92,1.34,0,2.28.88,2.28,2.06,0,.94-.6,1.58-1.5,1.58s-1.56-.66-1.56-1.52c.8,0,1.3-.34,1.3-.86,0-.4-.3-.62-.82-.62-1.08,0-2.04.88-2.46,2.18v5.66c0,.68.28,1.38.7,1.72h-4.3c.32-.34.54-1.04.54-1.72Z"/>
    <path class="cls-3" d="m167.52,53.91v-7.1h-1.2v-.2c1.58-.4,3.28-1.66,4.26-3.22v3.02h2.56v.4h-2.56v7.6c0,.84.54,1.46,1.28,1.46.6,0,1.2-.42,1.4-.98l.32.18c-.2.88-1.48,1.54-2.86,1.54-1.84,0-3.2-1.16-3.2-2.7Z"/>
    <path class="cls-3" d="m174.3,54.43c0-.72.54-1.24,1.28-1.24s1.2.5,1.2,1.22c-.54,0-.9.28-.9.68,0,.64.92,1.08,2.28,1.08,1.48,0,2.42-.52,2.42-1.38s-.98-1.32-2.54-2.04c-1.32-.58-3.64-1.4-3.64-3.52,0-1.84,1.76-3.02,4.34-3.02,2,0,3.6.7,3.6,1.98,0,.68-.48,1.22-1.2,1.22s-1.26-.52-1.26-1.22c.52,0,.82-.26.82-.64,0-.56-.72-.9-1.82-.9-1.38,0-2.3.54-2.3,1.4s1.02,1.34,2.54,2c1.54.66,3.64,1.42,3.64,3.48,0,1.82-1.6,3.08-4.38,3.08-2.3,0-4.08-.86-4.08-2.18Z"/>
    <path class="cls-3" d="m188.96,51.39c0-2.98,2.36-5.18,5.34-5.18s4.94,2.1,4.94,4.86h-7.14c0,3.32,1.3,4.9,3.46,4.9,1.06,0,1.92-.4,1.92-1.1,0-.58-.58-1-1.38-1,0-.82.66-1.48,1.54-1.48s1.46.68,1.46,1.52c0,1.52-1.92,2.7-4.4,2.7-3.36,0-5.74-2.24-5.74-5.22Zm3.14-.72h4.26c-.06-2.54-.82-4.06-2.06-4.06s-2.12,1.7-2.2,4.06Z"/>
    <path class="cls-3" d="m201.08,54.69v-6c0-.68-.22-1.38-.54-1.72l3.6-.66v1.8c.68-1.14,1.94-1.9,3.3-1.9,1.5,0,2.72.88,3.16,2.22.62-1.32,1.98-2.22,3.5-2.22,1.86,0,3.32,1.4,3.32,3.3v5.18c0,.68.22,1.38.54,1.72h-4.12c.3-.34.52-1.04.52-1.72v-5.88c0-.92-.62-1.62-1.46-1.62s-1.74.78-2.16,1.88c.02.14.04.3.04.44v5.18c0,.68.22,1.38.52,1.72h-4.12c.32-.34.54-1.04.54-1.72v-5.88c0-.92-.62-1.62-1.46-1.62s-1.7.72-2.12,1.78v5.72c0,.68.2,1.38.52,1.72h-4.12c.32-.34.54-1.04.54-1.72Z"/>
    <path class="cls-3" d="m121.5,77.79l4.98-11.38h1.08l5.14,11.78c.42.96.98,1.84,1.44,2.22h-4.9c.48-.52.56-1.46.16-2.38l-.6-1.4h-6.24l-.5,1.18c-.44.98-.24,2,.46,2.6h-2.9c.62-.42,1.34-1.42,1.88-2.62Zm7.12-1.56l-2.92-6.76-2.96,6.76h5.88Z"/>
    <path class="cls-3" d="m135.22,78.69v-10.5c0-.68-.22-1.38-.54-1.72l3.6-.66v12.88c0,.68.2,1.38.52,1.72h-4.12c.32-.34.54-1.04.54-1.72Z"/>
    <path class="cls-3" d="m141.16,78.69v-7.88h-1.2v-.4h1.2v-1.1c0-1.98,1.76-3.5,4.1-3.5,1.84,0,3.24.86,3.24,2.04,0,.76-.58,1.34-1.36,1.34-.82,0-1.44-.58-1.44-1.38.8,0,1.34-.32,1.34-.82,0-.38-.34-.62-.9-.62-1.1,0-1.92.88-1.92,2.04v2h2.04v.4h-2.04v7.88c0,.68.28,1.38.7,1.72h-4.3c.32-.34.54-1.04.54-1.72Z"/>
    <path class="cls-3" d="m146.7,77.83c0-1.76,1.68-2.94,4.12-2.94,1.12,0,2.28.26,2.84.64v-2.42c0-1.46-.94-2.4-2.5-2.4-1.02,0-1.72.4-1.72,1.04,0,.5.42.86,1.04.86,0,.84-.6,1.48-1.48,1.48s-1.52-.6-1.52-1.48c0-1.42,1.74-2.4,4.3-2.4,2.94,0,4.94,1.6,4.94,3.7v4.78c0,.68.22,1.38.54,1.72h-3.4c-.12-.3-.2-.88-.2-1.4-.74.96-2.12,1.6-3.58,1.6-1.96,0-3.38-1.18-3.38-2.78Zm4.92,1.76c.8,0,1.58-.44,2.04-1.16v-2.46c-.36-.3-.98-.48-1.66-.48-1.34,0-2.16.78-2.16,2.08,0,1.2.68,2.02,1.78,2.02Z"/>
    <path class="cls-3" d="m159.16,78.69v-6c0-.68-.22-1.38-.54-1.72l3.6-.66v8.38c0,.68.2,1.38.52,1.72h-4.12c.32-.34.54-1.04.54-1.72Zm-.14-11.16c0-.94.74-1.64,1.72-1.64.92,0,1.62.7,1.62,1.64s-.7,1.66-1.62,1.66c-.98,0-1.72-.7-1.72-1.66Z"/>
    <path class="cls-3" d="m164.1,77.83c0-1.76,1.68-2.94,4.12-2.94,1.12,0,2.28.26,2.84.64v-2.42c0-1.46-.94-2.4-2.5-2.4-1.02,0-1.72.4-1.72,1.04,0,.5.42.86,1.04.86,0,.84-.6,1.48-1.48,1.48s-1.52-.6-1.52-1.48c0-1.42,1.74-2.4,4.3-2.4,2.94,0,4.94,1.6,4.94,3.7v4.78c0,.68.22,1.38.54,1.72h-3.4c-.12-.3-.2-.88-.2-1.4-.74.96-2.12,1.6-3.58,1.6-1.96,0-3.38-1.18-3.38-2.78Zm4.92,1.76c.8,0,1.58-.44,2.04-1.16v-2.46c-.36-.3-.98-.48-1.66-.48-1.34,0-2.16.78-2.16,2.08,0,1.2.68,2.02,1.78,2.02Z"/>
    <path class="cls-3" d="m176.66,77.91v-7.1h-1.2v-.2c1.58-.4,3.28-1.66,4.26-3.22v3.02h2.56v.4h-2.56v7.6c0,.84.54,1.46,1.28,1.46.6,0,1.2-.42,1.4-.98l.32.18c-.2.88-1.48,1.54-2.86,1.54-1.84,0-3.2-1.16-3.2-2.7Z"/>
    <path class="cls-3" d="m183.32,77.83c0-1.76,1.68-2.94,4.12-2.94,1.12,0,2.28.26,2.84.64v-2.42c0-1.46-.94-2.4-2.5-2.4-1.02,0-1.72.4-1.72,1.04,0,.5.42.86,1.04.86,0,.84-.6,1.48-1.48,1.48s-1.52-.6-1.52-1.48c0-1.42,1.74-2.4,4.3-2.4,2.94,0,4.94,1.6,4.94,3.7v4.78c0,.68.22,1.38.54,1.72h-3.4c-.12-.3-.2-.88-.2-1.4-.74.96-2.12,1.6-3.58,1.6-1.96,0-3.38-1.18-3.38-2.78Zm4.92,1.76c.8,0,1.58-.44,2.04-1.16v-2.46c-.36-.3-.98-.48-1.66-.48-1.34,0-2.16.78-2.16,2.08,0,1.2.68,2.02,1.78,2.02Z"/>
    <path class="cls-3" d="m195.74,78.69v-6c0-.68-.22-1.38-.54-1.72l3.6-.66v1.82c.54-1.18,1.54-1.92,2.76-1.92,1.34,0,2.28.88,2.28,2.06,0,.94-.6,1.58-1.5,1.58s-1.56-.66-1.56-1.52c.8,0,1.3-.34,1.3-.86,0-.4-.3-.62-.82-.62-1.08,0-2.04.88-2.46,2.18v5.66c0,.68.28,1.38.7,1.72h-4.3c.32-.34.54-1.04.54-1.72Z"/>
    <path class="cls-3" d="m205.18,78.69v-6c0-.68-.22-1.38-.54-1.72l3.6-.66v8.38c0,.68.2,1.38.52,1.72h-4.12c.32-.34.54-1.04.54-1.72Zm-.14-11.16c0-.94.74-1.64,1.72-1.64.92,0,1.62.7,1.62,1.64s-.7,1.66-1.62,1.66c-.98,0-1.72-.7-1.72-1.66Z"/>
    <path class="cls-3" d="m210.12,77.83c0-1.76,1.68-2.94,4.12-2.94,1.12,0,2.28.26,2.84.64v-2.42c0-1.46-.94-2.4-2.5-2.4-1.02,0-1.72.4-1.72,1.04,0,.5.42.86,1.04.86,0,.84-.6,1.48-1.48,1.48s-1.52-.6-1.52-1.48c0-1.42,1.74-2.4,4.3-2.4,2.94,0,4.94,1.6,4.94,3.7v4.78c0,.68.22,1.38.54,1.72h-3.4c-.12-.3-.2-.88-.2-1.4-.74.96-2.12,1.6-3.58,1.6-1.96,0-3.38-1.18-3.38-2.78Zm4.92,1.76c.8,0,1.58-.44,2.04-1.16v-2.46c-.36-.3-.98-.48-1.66-.48-1.34,0-2.16.78-2.16,2.08,0,1.2.68,2.02,1.78,2.02Z"/>
  </g>
  <g>
    <path class="cls-2" d="m94.66,81.99c-.08-.78-.13-1.56-.17-2.35-.3,2.09-.63,4.18-.94,6.27.4-1.3.78-2.61,1.11-3.92Z"/>
    <path class="cls-2" d="m58.34,91.61c.32.45.92.68,1.54.82,0-.05-.01-.09-.01-.15,0-2.88-.09-5.75-.13-8.63-.01-.76-.08-1.5-.91-1.77-.83-.27-1.33.28-1.77.9-.22.32-.45.63-.67.94.14.18.27.39.36.64.48,1.31.7,2.7.92,4.07.15.9.31,2.65.68,3.17Z"/>
    <path class="cls-2" d="m22.03,75.21c.3.18.61.37.91.55.02-.04.04-.07.06-.11,1.67-3.38,3.34-6.76,5.02-10.14,2.19-4.38,4.31-8.8,6.77-13.05.45-.78.85-.86,1.62-.6,5.08,1.71,10.12,1.67,15.05-.57,4.59-2.09,7.96-5.42,10.01-10.05.27-.62.53-.92,1.3-.62,1.5.59,3.03,1.11,4.58,1.58.74.22.86.51.63,1.24-1.58,4.98-3.11,9.97-4.66,14.96-1.54,4.96-3.08,9.91-4.61,14.87-.44,1.43-.07,2.06,1.38,2.36,1.87.39,3.74.46,5.59-.14,2.4-.79,4.07-2.26,4.83-4.77,2.44-8.02,4.95-16.03,7.44-24.04.33-1.06,1.46-1.36,2.3-.62.28.25.09.5.05.75-1.63,8.54,2.32,17.03,9.94,21.29,1.41.79,2.92,1.38,4.48,1.82.03,0,.05.02.07.03.02-.19.03-.38.05-.57.08-.68.18-1.35.28-2.03-.05-.01-.1-.02-.15-.04-8.24-2.44-13.6-10.85-12.25-19.3.04-.27.14-.53.19-.8.06-.32.16-.51.54-.4.32.09.37.22.38.57.03.94.45,1.69,1.42,1.99,1.94.61,3.88,1.19,5.81,1.81.89.28,1.46,0,1.79-.85.55-1.4.55-1.39,2.19-.99.58-.08.83.13.94.5.01-.04.02-.08.03-.13.57-2.2,1.43-4.3,1.99-6.51.38-1.52.76-3.05,1.24-4.55-.2-.08-.4-.15-.63-.21-1.77-.42-3.56-.76-5.33-1.18-4.84-1.15-9.74-2.05-14.52-3.48-6.12-1.83-12.23-3.68-18.14-6.18-3.22-1.36-6.51-2.58-9.75-3.92-1.41-.58-2.93.06-3.45,1.5-.54,1.52-1.02,3.07-1.45,4.62-.41,1.47-1.06,2.79-1.96,4.04-4.33,6.05-8.62,12.11-12.24,18.63-2.66,4.8-5.01,9.76-7.46,14.66-1.32,2.63-2.63,5.27-3.89,7.93.54-.18,1.11-.18,1.6.11Zm73.46-34.78c.64.21,1.33.31,2,.43.6.1.81.35.57.97-.27.7-.46,1.43-.68,2.15-.24.78-.51,1.56-.72,2.36-.13.48-.34.64-.88.53-1.81-.38-1.81-.36-1.59-2.17.15-1.22.29-2.44.4-3.66.05-.63.25-.83.9-.61Zm-6.74-1.51c.96.25,1.93.5,2.89.74.3.08.46.21.44.57-.12,2.62-.58,5.17-1.21,7.71-.11.44-.39.39-.71.29-.52-.17-1.05-.33-1.57-.49-1.87-.58-1.91-.59-1.51-2.45.42-1.95.79-3.9.92-5.89.04-.57.32-.6.75-.49Zm-20.56,30.68c-.83,2.68-3.27,4.17-6.05,3.77-.82-.12-.56-.57-.42-1.02,1.76-5.67,3.52-11.35,5.28-17.02,1.15-3.71,2.32-7.41,3.43-11.12.2-.68.45-.87,1.15-.62,1.1.39,2.22.73,3.36.99.78.18.88.5.65,1.22-1.29,4.06-2.54,8.13-3.8,12.19-1.2,3.87-2.4,7.74-3.6,11.61Zm.42-33.09c1.17-.49,2.33-1.03,3.47-1.58.41-.19.77-.17,1.19-.04,3.77,1.19,7.57,2.29,11.44,3.12.57.12.81.34.74.96-.18,1.57-.34,3.13-.67,4.68-.13.59-.29.8-.95.61-2.45-.68-4.92-1.28-7.39-1.91,0,0,0,.01,0,.02-.79-.24-1.57-.49-2.36-.73q-3.59-1.09-5.64-4.23c-.27-.41-.4-.65.18-.9Zm-7.58-5.05c.2-.32.36-.66.87-.47,2.23.84,4.48,1.66,6.94,2.57-1.19.55-2.16.97-3.12,1.44-1,.48-1.2,1.25-.61,2.18.18.29.39.56.59.84.19.28.39.56.68.98-1.41-.44-2.69-.81-3.96-1.24-1.04-.35-2.05-.78-3.08-1.16-.48-.18-.64-.43-.41-.93.65-1.44,1.28-2.88,2.12-4.22Zm-8.34,2.11c.75-1.5,1.58-2.96,2.53-4.34.34-.5.66-.7,1.26-.42.65.31,1.33.56,2,.81.35.13.49.24.25.65-1.15,1.91-2.09,3.94-2.8,6.06-.15.45-.39.48-.78.34-.45-.16-.92-.29-1.38-.43-2.1-.67-2.09-.66-1.09-2.66Zm-2.35-7.27c.72.32,1.45.61,2.18.9.54.21.74.44.31,1.02-.93,1.26-1.71,2.64-2.36,4.07-.2.44-.4.55-.85.35-1.8-.8-1.8-.22-1.16-2.33.13-.43.26-.85.4-1.28,0,0,0,0,0,0,.24-.78.49-1.57.73-2.36.12-.41.33-.55.75-.37Zm-4.69,9.72c.08-.11.16-.22.24-.33.96-1.38,1.54-1.48,2.95-.59.36.23.32.47.21.78-.35,1,.11,1.59,1.03,1.89,1.99.65,3.99,1.27,5.99,1.91.58.18,1.14.16,1.49-.35.58-.81,1.14-.2,1.59.04.54.29.02.71-.13,1.03-3.53,7.09-10.12,10.75-17.9,9.93-1.47-.16-2.91-.49-4.35-1.11,2.74-4.65,5.88-8.89,8.89-13.21Z"/>
    <path class="cls-2" d="m74.75,36.84c1,.31,1.51,1.29,1.19,2.26-.31.92-1.27,1.4-2.22,1.11-.98-.3-1.52-1.33-1.2-2.27.31-.9,1.3-1.39,2.24-1.1Z"/>
  </g>
  <g>
    <path class="cls-3" d="m56.07,85.15c-1.21,1.7-2.44,3.38-3.62,5.1-.57.82-1.2,1.04-2.19.76-10.81-3.14-20.74-8.1-30.06-14.36-1.21-.81-1.57-1.85-.93-3.21,1.34-2.86,2.75-5.68,4.16-8.5,2.45-4.9,4.8-9.86,7.46-14.66,3.62-6.52,7.91-12.58,12.24-18.63.9-1.25,1.55-2.56,1.96-4.04.43-1.56.91-3.1,1.45-4.62.51-1.45,2.04-2.08,3.45-1.5,3.24,1.34,6.53,2.55,9.75,3.92,5.91,2.5,12.01,4.36,18.14,6.18,4.78,1.42,9.68,2.33,14.52,3.48,1.77.42,3.56.76,5.33,1.18,1.84.44,2.81,1.94,2.04,3.66-2.5,5.61-1.99,11.53-2.01,17.41-.03,8.07-.83,16.08-2.12,24.04-.77,4.74-1.45,9.49-2.13,14.24-.33,2.32-1.06,2.97-3.45,2.97-11.08,0-21.85-1.81-32.37-5.26-.9-.3-1.25-.83-1.26-1.74-.01-2.11-.07-4.22-.11-6.33l-.24-.08Zm6.36-28.97c1.55-4.99,3.08-9.98,4.66-14.96.23-.73.11-1.02-.63-1.24-1.54-.47-3.08-.98-4.58-1.58-.76-.3-1.02,0-1.3.62-2.05,4.63-5.42,7.96-10.01,10.05-4.93,2.24-9.97,2.28-15.05.57-.78-.26-1.17-.19-1.62.6-2.47,4.24-4.59,8.66-6.77,13.05-1.68,3.37-3.35,6.76-5.02,10.14-.27.54-.61.98.2,1.52,8.5,5.66,17.53,10.22,27.35,13.16.7.21,1.09.14,1.52-.49,1.63-2.37,3.33-4.69,4.99-7.04.44-.63.94-1.17,1.77-.9.84.27.9,1.01.91,1.77.04,2.88.12,5.75.13,8.63,0,.71.22,1.01.91,1.2,2.28.64,4.54,1.36,6.84,1.93,7.53,1.84,15.17,2.74,22.92,2.81,1.04,0,1.24-.4,1.36-1.26.49-3.46,1.04-6.92,1.55-10.38.76-5.15,1.64-10.29,2.06-15.49.06-.72-.17-.97-.79-1.15-1.56-.44-3.07-1.03-4.48-1.82-7.61-4.26-11.57-12.75-9.94-21.29.05-.25.24-.5-.05-.75-.84-.74-1.97-.44-2.3.62-2.49,8.01-5,16.01-7.44,24.04-.76,2.51-2.43,3.98-4.83,4.77-1.85.6-3.72.53-5.59.14-1.46-.3-1.83-.93-1.38-2.36,1.53-4.96,3.07-9.91,4.61-14.87Zm-26.55-9.2c1.45.61,2.89.95,4.35,1.11,7.79.83,14.37-2.84,17.9-9.93.16-.32.68-.74.13-1.03-.45-.24-1.01-.85-1.59-.04-.36.5-.92.53-1.49.35-2-.64-4-1.26-5.99-1.91-.92-.3-1.37-.89-1.03-1.89.11-.31.15-.56-.21-.78-1.41-.89-1.98-.79-2.95.59-.08.11-.16.22-.24.33-3.01,4.33-6.15,8.56-8.89,13.21Zm58.26.14c-1.64-.41-1.65-.41-2.19.99-.34.85-.91,1.14-1.79.85-1.93-.62-3.87-1.2-5.81-1.81-.97-.3-1.39-1.05-1.42-1.99,0-.35-.07-.48-.38-.57-.38-.1-.49.08-.54.4-.05.27-.14.53-.19.8-1.35,8.45,4.01,16.87,12.25,19.3.71.21.81.08.85-.64.34-5.31.19-10.62.25-15.93,0-.86-.05-1.55-1.02-1.41Zm-23.24,8.63c1.26-4.07,2.51-8.14,3.8-12.19.23-.72.13-1.04-.65-1.22-1.14-.26-2.26-.6-3.36-.99-.7-.25-.94-.06-1.15.62-1.12,3.71-2.28,7.42-3.43,11.12-1.76,5.67-3.52,11.35-5.28,17.02-.14.45-.41.9.42,1.02,2.77.41,5.21-1.09,6.05-3.77,1.2-3.87,2.4-7.74,3.6-11.61Zm4.64-15.62s0-.01,0-.02c2.46.63,4.93,1.24,7.39,1.91.66.18.82-.02.95-.61.34-1.55.5-3.11.67-4.68.07-.62-.17-.84-.74-.96-3.87-.83-7.66-1.93-11.44-3.12-.41-.13-.78-.15-1.19.04-1.15.55-2.3,1.09-3.47,1.58-.58.24-.45.49-.18.9q2.05,3.13,5.64,4.23c.79.24,1.58.49,2.36.73Zm-7.6-8.81c-2.46-.91-4.7-1.73-6.94-2.57-.51-.19-.67.14-.87.47-.84,1.34-1.47,2.78-2.12,4.22-.23.5-.07.76.41.93,1.03.38,2.04.8,3.08,1.16,1.27.43,2.55.8,3.96,1.24-.29-.42-.48-.7-.68-.98-.2-.28-.4-.56-.59-.84-.59-.93-.38-1.69.61-2.18.95-.46,1.93-.89,3.12-1.44Zm19.75,14.18c.53.16,1.05.32,1.57.49.32.1.6.15.71-.29.63-2.53,1.09-5.09,1.21-7.71.02-.36-.14-.49-.44-.57-.97-.24-1.93-.49-2.89-.74-.43-.11-.71-.08-.75.49-.13,1.99-.5,3.94-.92,5.89-.4,1.86-.36,1.87,1.51,2.45Zm-34.81-11.52c.46.14.92.27,1.38.43.38.14.62.11.78-.34.71-2.12,1.64-4.14,2.8-6.06.25-.41.1-.51-.25-.65-.67-.25-1.35-.5-2-.81-.59-.28-.91-.07-1.26.42-.95,1.39-1.78,2.84-2.53,4.34-1,2-1.01,1.99,1.09,2.66Zm43.6,7.77c.22-.72.41-1.45.68-2.15.24-.62.03-.87-.57-.97-.67-.12-1.36-.22-2-.43-.65-.22-.85-.02-.9.61-.1,1.22-.25,2.44-.4,3.66-.22,1.81-.22,1.78,1.59,2.17.53.11.74-.05.88-.53.22-.79.48-1.57.72-2.36Zm-48.52-14.98h0c-.13.43-.27.85-.4,1.28-.65,2.12-.65,1.53,1.16,2.33.45.2.65.09.85-.35.65-1.43,1.42-2.81,2.36-4.07.43-.58.23-.8-.31-1.02-.73-.29-1.46-.58-2.18-.9-.42-.19-.63-.04-.75.37-.23.79-.48,1.57-.73,2.36Z"/>
    <path class="cls-3" d="m73.86,34.6c1,.31,1.51,1.29,1.19,2.26-.31.92-1.27,1.4-2.22,1.11-.98-.3-1.52-1.33-1.2-2.27.31-.9,1.3-1.39,2.24-1.1Z"/>
  </g>
</svg>