<?xml version="1.0" encoding="UTF-8"?>
<svg id="Camada_1" data-name="Camada 1" xmlns="http://www.w3.org/2000/svg" viewBox="0 0 240 120">
  <defs>
    <style>
      .cls-1 {
        fill: #bda189;
      }

      .cls-1, .cls-2, .cls-3 {
        stroke-width: 0px;
      }

      .cls-2 {
        fill: #f2eade;
      }

      .cls-3 {
        fill: #745646;
      }
    </style>
  </defs>
  <rect class="cls-1" x="14.88" y="13.11" width="93.78" height="93.78" rx="12" ry="12"/>
  <g>
    <path class="cls-3" d="m120.72,53.43c0-.88.62-1.48,1.42-1.48s1.4.6,1.4,1.36c-.74,0-1.2.4-1.2,1.04,0,1.02,1.26,1.68,3.06,1.68,2.12,0,3.56-.92,3.56-2.28,0-1.46-1.64-2.18-3.5-2.94-2.08-.86-4.5-1.86-4.5-4.46s2.22-4.14,5.2-4.14c2.72,0,4.78,1.34,4.78,2.98,0,.86-.58,1.46-1.38,1.46s-1.42-.6-1.42-1.36c.8,0,1.34-.36,1.34-.98,0-.9-1.14-1.54-2.72-1.54-2,0-3.42,1-3.42,2.4,0,1.58,1.8,2.3,3.64,3.02,2.22.86,4.5,1.76,4.5,4.28s-2.2,4.14-5.42,4.14c-3.02,0-5.34-1.4-5.34-3.18Z"/>
    <path class="cls-3" d="m132.82,53.83c0-1.76,1.68-2.94,4.12-2.94,1.12,0,2.28.26,2.84.64v-2.42c0-1.46-.94-2.4-2.5-2.4-1.02,0-1.72.4-1.72,1.04,0,.5.42.86,1.04.86,0,.84-.6,1.48-1.48,1.48s-1.52-.6-1.52-1.48c0-1.42,1.74-2.4,4.3-2.4,2.94,0,4.94,1.6,4.94,3.7v4.78c0,.68.22,1.38.54,1.72h-3.4c-.12-.3-.2-.88-.2-1.4-.74.96-2.12,1.6-3.58,1.6-1.96,0-3.38-1.18-3.38-2.78Zm4.92,1.76c.8,0,1.58-.44,2.04-1.16v-2.46c-.36-.3-.98-.48-1.66-.48-1.34,0-2.16.78-2.16,2.08,0,1.2.68,2.02,1.78,2.02Z"/>
    <path class="cls-3" d="m145.28,54.69v-6c0-.68-.22-1.38-.54-1.72l3.6-.66v8.38c0,.68.2,1.38.52,1.72h-4.12c.32-.34.54-1.04.54-1.72Zm-.14-11.16c0-.94.74-1.64,1.72-1.64.92,0,1.62.7,1.62,1.64s-.7,1.66-1.62,1.66c-.98,0-1.72-.7-1.72-1.66Z"/>
    <path class="cls-3" d="m150.22,53.83c0-1.76,1.68-2.94,4.12-2.94,1.12,0,2.28.26,2.84.64v-2.42c0-1.46-.94-2.4-2.5-2.4-1.02,0-1.72.4-1.72,1.04,0,.5.42.86,1.04.86,0,.84-.6,1.48-1.48,1.48s-1.52-.6-1.52-1.48c0-1.42,1.74-2.4,4.3-2.4,2.94,0,4.94,1.6,4.94,3.7v4.78c0,.68.22,1.38.54,1.72h-3.4c-.12-.3-.2-.88-.2-1.4-.74.96-2.12,1.6-3.58,1.6-1.96,0-3.38-1.18-3.38-2.78Zm4.92,1.76c.8,0,1.58-.44,2.04-1.16v-2.46c-.36-.3-.98-.48-1.66-.48-1.34,0-2.16.78-2.16,2.08,0,1.2.68,2.02,1.78,2.02Z"/>
    <path class="cls-3" d="m162.06,54.43c0-.72.54-1.24,1.28-1.24s1.2.5,1.2,1.22c-.54,0-.9.28-.9.68,0,.64.92,1.08,2.28,1.08,1.48,0,2.42-.52,2.42-1.38s-.98-1.32-2.54-2.04c-1.32-.58-3.64-1.4-3.64-3.52,0-1.84,1.76-3.02,4.34-3.02,2,0,3.6.7,3.6,1.98,0,.68-.48,1.22-1.2,1.22s-1.26-.52-1.26-1.22c.52,0,.82-.26.82-.64,0-.56-.72-.9-1.82-.9-1.38,0-2.3.54-2.3,1.4s1.02,1.34,2.54,2c1.54.66,3.64,1.42,3.64,3.48,0,1.82-1.6,3.08-4.38,3.08-2.3,0-4.08-.86-4.08-2.18Z"/>
    <path class="cls-3" d="m176.72,51.39c0-2.98,2.36-5.18,5.34-5.18s4.94,2.1,4.94,4.86h-7.14c0,3.32,1.3,4.9,3.46,4.9,1.06,0,1.92-.4,1.92-1.1,0-.58-.58-1-1.38-1,0-.82.66-1.48,1.54-1.48s1.46.68,1.46,1.52c0,1.52-1.92,2.7-4.4,2.7-3.36,0-5.74-2.24-5.74-5.22Zm3.14-.72h4.26c-.06-2.54-.82-4.06-2.06-4.06s-2.12,1.7-2.2,4.06Z"/>
    <path class="cls-3" d="m188.84,54.69v-6c0-.68-.22-1.38-.54-1.72l3.6-.66v1.8c.68-1.14,1.94-1.9,3.3-1.9,1.5,0,2.72.88,3.16,2.22.62-1.32,1.98-2.22,3.5-2.22,1.86,0,3.32,1.4,3.32,3.3v5.18c0,.68.22,1.38.54,1.72h-4.12c.3-.34.52-1.04.52-1.72v-5.88c0-.92-.62-1.62-1.46-1.62s-1.74.78-2.16,1.88c.02.14.04.3.04.44v5.18c0,.68.22,1.38.52,1.72h-4.12c.32-.34.54-1.04.54-1.72v-5.88c0-.92-.62-1.62-1.46-1.62s-1.7.72-2.12,1.78v5.72c0,.68.2,1.38.52,1.72h-4.12c.32-.34.54-1.04.54-1.72Z"/>
    <path class="cls-3" d="m121.5,77.79l4.98-11.38h1.08l5.14,11.78c.42.96.98,1.84,1.44,2.22h-4.9c.48-.52.56-1.46.16-2.38l-.6-1.4h-6.24l-.5,1.18c-.44.98-.24,2,.46,2.6h-2.9c.62-.42,1.34-1.42,1.88-2.62Zm7.12-1.56l-2.92-6.76-2.96,6.76h5.88Z"/>
    <path class="cls-3" d="m135.22,78.69v-10.5c0-.68-.22-1.38-.54-1.72l3.6-.66v12.88c0,.68.2,1.38.52,1.72h-4.12c.32-.34.54-1.04.54-1.72Z"/>
    <path class="cls-3" d="m141.16,78.69v-7.88h-1.2v-.4h1.2v-1.1c0-1.98,1.76-3.5,4.1-3.5,1.84,0,3.24.86,3.24,2.04,0,.76-.58,1.34-1.36,1.34-.82,0-1.44-.58-1.44-1.38.8,0,1.34-.32,1.34-.82,0-.38-.34-.62-.9-.62-1.1,0-1.92.88-1.92,2.04v2h2.04v.4h-2.04v7.88c0,.68.28,1.38.7,1.72h-4.3c.32-.34.54-1.04.54-1.72Z"/>
    <path class="cls-3" d="m146.7,77.83c0-1.76,1.68-2.94,4.12-2.94,1.12,0,2.28.26,2.84.64v-2.42c0-1.46-.94-2.4-2.5-2.4-1.02,0-1.72.4-1.72,1.04,0,.5.42.86,1.04.86,0,.84-.6,1.48-1.48,1.48s-1.52-.6-1.52-1.48c0-1.42,1.74-2.4,4.3-2.4,2.94,0,4.94,1.6,4.94,3.7v4.78c0,.68.22,1.38.54,1.72h-3.4c-.12-.3-.2-.88-.2-1.4-.74.96-2.12,1.6-3.58,1.6-1.96,0-3.38-1.18-3.38-2.78Zm4.92,1.76c.8,0,1.58-.44,2.04-1.16v-2.46c-.36-.3-.98-.48-1.66-.48-1.34,0-2.16.78-2.16,2.08,0,1.2.68,2.02,1.78,2.02Z"/>
    <path class="cls-3" d="m159.16,78.69v-6c0-.68-.22-1.38-.54-1.72l3.6-.66v8.38c0,.68.2,1.38.52,1.72h-4.12c.32-.34.54-1.04.54-1.72Zm-.14-11.16c0-.94.74-1.64,1.72-1.64.92,0,1.62.7,1.62,1.64s-.7,1.66-1.62,1.66c-.98,0-1.72-.7-1.72-1.66Z"/>
    <path class="cls-3" d="m164.1,77.83c0-1.76,1.68-2.94,4.12-2.94,1.12,0,2.28.26,2.84.64v-2.42c0-1.46-.94-2.4-2.5-2.4-1.02,0-1.72.4-1.72,1.04,0,.5.42.86,1.04.86,0,.84-.6,1.48-1.48,1.48s-1.52-.6-1.52-1.48c0-1.42,1.74-2.4,4.3-2.4,2.94,0,4.94,1.6,4.94,3.7v4.78c0,.68.22,1.38.54,1.72h-3.4c-.12-.3-.2-.88-.2-1.4-.74.96-2.12,1.6-3.58,1.6-1.96,0-3.38-1.18-3.38-2.78Zm4.92,1.76c.8,0,1.58-.44,2.04-1.16v-2.46c-.36-.3-.98-.48-1.66-.48-1.34,0-2.16.78-2.16,2.08,0,1.2.68,2.02,1.78,2.02Z"/>
    <path class="cls-3" d="m176.66,77.91v-7.1h-1.2v-.2c1.58-.4,3.28-1.66,4.26-3.22v3.02h2.56v.4h-2.56v7.6c0,.84.54,1.46,1.28,1.46.6,0,1.2-.42,1.4-.98l.32.18c-.2.88-1.48,1.54-2.86,1.54-1.84,0-3.2-1.16-3.2-2.7Z"/>
    <path class="cls-3" d="m183.32,77.83c0-1.76,1.68-2.94,4.12-2.94,1.12,0,2.28.26,2.84.64v-2.42c0-1.46-.94-2.4-2.5-2.4-1.02,0-1.72.4-1.72,1.04,0,.5.42.86,1.04.86,0,.84-.6,1.48-1.48,1.48s-1.52-.6-1.52-1.48c0-1.42,1.74-2.4,4.3-2.4,2.94,0,4.94,1.6,4.94,3.7v4.78c0,.68.22,1.38.54,1.72h-3.4c-.12-.3-.2-.88-.2-1.4-.74.96-2.12,1.6-3.58,1.6-1.96,0-3.38-1.18-3.38-2.78Zm4.92,1.76c.8,0,1.58-.44,2.04-1.16v-2.46c-.36-.3-.98-.48-1.66-.48-1.34,0-2.16.78-2.16,2.08,0,1.2.68,2.02,1.78,2.02Z"/>
    <path class="cls-3" d="m195.74,78.69v-6c0-.68-.22-1.38-.54-1.72l3.6-.66v1.82c.54-1.18,1.54-1.92,2.76-1.92,1.34,0,2.28.88,2.28,2.06,0,.94-.6,1.58-1.5,1.58s-1.56-.66-1.56-1.52c.8,0,1.3-.34,1.3-.86,0-.4-.3-.62-.82-.62-1.08,0-2.04.88-2.46,2.18v5.66c0,.68.28,1.38.7,1.72h-4.3c.32-.34.54-1.04.54-1.72Z"/>
    <path class="cls-3" d="m205.18,78.69v-6c0-.68-.22-1.38-.54-1.72l3.6-.66v8.38c0,.68.2,1.38.52,1.72h-4.12c.32-.34.54-1.04.54-1.72Zm-.14-11.16c0-.94.74-1.64,1.72-1.64.92,0,1.62.7,1.62,1.64s-.7,1.66-1.62,1.66c-.98,0-1.72-.7-1.72-1.66Z"/>
    <path class="cls-3" d="m210.12,77.83c0-1.76,1.68-2.94,4.12-2.94,1.12,0,2.28.26,2.84.64v-2.42c0-1.46-.94-2.4-2.5-2.4-1.02,0-1.72.4-1.72,1.04,0,.5.42.86,1.04.86,0,.84-.6,1.48-1.48,1.48s-1.52-.6-1.52-1.48c0-1.42,1.74-2.4,4.3-2.4,2.94,0,4.94,1.6,4.94,3.7v4.78c0,.68.22,1.38.54,1.72h-3.4c-.12-.3-.2-.88-.2-1.4-.74.96-2.12,1.6-3.58,1.6-1.96,0-3.38-1.18-3.38-2.78Zm4.92,1.76c.8,0,1.58-.44,2.04-1.16v-2.46c-.36-.3-.98-.48-1.66-.48-1.34,0-2.16.78-2.16,2.08,0,1.2.68,2.02,1.78,2.02Z"/>
  </g>
  <g>
    <path class="cls-2" d="m98.42,66.26c-.07-.09-.15-.18-.22-.26.67,1,1.35,2,2.02,3-.45-.87-1.18-1.94-1.8-2.74Z"/>
    <path class="cls-2" d="m33.12,86.13c.37-.28.85-.44,1.44-.43,5.45.12,10.89.55,16.34.77,2.64.11,5.32.25,7.96.02,2.39-.21,4.74-.79,7.06-1.36,2.17-.54,4.15-1.48,6.25-2.21,1.85-.65,3.78-.92,5.71-1.24,1.64-.27,3.29-.54,4.87-1.07,1.62-.55,2.87-1.52,4.18-2.59,1.54-1.26,3.34-1.95,5.28-2.29,1.81-.31,3.68-.4,5.43-1.01,1.2-.42,2.69-1.59,3.03-2.34.25-.54.29-1.02.21-1.54-.03.05-.05.09-.09.15-.85,1.32-2.13,2.09-3.52,2.69-1.96.84-3.99,1.41-6.14,1.55-.32.02-.48-.05-.6-.36-.46-1.19-.8-2.42-1.18-3.63-.83-2.67-1.76-5.29-2.79-7.89-1.26-3.18-2.65-6.3-4.2-9.35-1.44-2.84-3.01-5.61-4.75-8.29-.22-.34-.38-.4-.7-.15-.59.46-1.21.89-1.83,1.31-.33.22-.31.42-.15.73.47.89,1.03,1.73,1.54,2.59,2.15,3.64,4.01,7.42,5.69,11.3,1.38,3.18,2.58,6.42,3.68,9.69.52,1.55.99,3.12,1.42,4.7.17.61.06,1.08-.4,1.53-1.18,1.15-2.45,2.18-4.03,2.71-.78.26-1.62.35-2.44.52-2.43.61-4.91.83-7.42.84-.23,0-.33-.05-.36-.29-.27-2.38-.75-4.72-1.18-7.07-.92-4.98-1.93-9.94-3.02-14.88-.58-2.63-1.33-5.23-2.11-7.81-.18-.59-.37-1.18-.54-1.77-.09-.33-.23-.45-.6-.34-.76.23-1.51.48-2.24.78-.32.13-.4.33-.3.66,1.92,6.33,3.42,12.76,4.68,19.25.69,3.56,1.3,7.13,1.84,10.72.08.5.13,1.01.23,1.51.04.24-.04.36-.21.51-1.18,1.04-2.58,1.67-4.07,2.12-1.78.53-3.6.86-5.45,1.03-2.28.2-4.55.09-6.81-.3-.5-.09-1-.19-1.5-.29-.27-.05-.4-.22-.42-.51-.14-2.02-.31-4.04-.44-6.06-.17-2.6-.35-5.19-.48-7.79-.14-2.89-.25-5.79-.32-8.68-.08-3.27-.12-6.54-.08-9.81,0-.54-.01-.57-.54-.61-.8-.05-1.6-.05-2.41-.04-.28,0-.36.11-.36.39-.04,2.29,0,4.58.03,6.88.05,3.08.11,6.17.25,9.25.14,3.03.28,6.05.5,9.08.17,2.43.32,4.87.49,7.3.02.35-.08.5-.43.54-3.11.32-6.22.57-9.29-.36-.78-.24-1.49-.6-2.21-.97-.22-.11-.24-.24-.2-.44.39-2.57.78-5.14,1.17-7.71,1.17-7.81,2.33-15.61,3.5-23.42.33-2.19.69-4.37,1.04-6.55.03-.16.05-.32.09-.47.14-.62.14-.62.77-.63,1.8-.03,3.59-.03,5.39-.08,2.44-.07,4.87-.34,7.29-.68,2.46-.34,4.9-.81,7.32-1.36,3.29-.76,6.53-1.67,9.7-2.8,2.06-.74,4.08-1.56,6.12-2.34.04-.01.07-.03.11-.05.64-.23.65-.24,1.04.33,2.42,3.52,4.84,7.05,7.25,10.58,1.39,2.05,2.78,4.1,4.17,6.15-.09-.22-.18-.43-.27-.65-1.68-3.95-4.57-7.09-6.63-10.81-.71-1.28-1.36-2.6-2.02-3.92-2.5-1.99-4.49-4.55-6.45-7.13.43.66.86,1.32,1.26,2,.14.24.07.34-.17.45-1.21.58-2.46,1.05-3.71,1.52-1.78.67-3.59,1.27-5.42,1.81-2.72.81-5.46,1.52-7.15,1.86-5.05,1.03-9.05,1.61-13.09,1.75-1.47.05-2.94.05-4.41.01-.32,0-.43-.1-.4-.45.18-2.05.56-4.06.82-6.09.03-.25.17-.27.36-.27,1.66,0,3.32-.1,4.98-.19,2.83-.16,5.64-.49,8.43-.98,2.78-.49,5.52-1.14,8.22-1.96,2.16-.65,4.26-1.46,6.35-2.29.42-.17.85-.33,1.3-.43.03,0,.06,0,.09-.01-.78-.96-1.59-1.89-2.45-2.76-.72.31-1.44.62-2.16.91-2.57,1.02-5.2,1.85-7.93,2.39-2.83.56-5.65,1.18-8.52,1.51-3.03.34-6.07.41-9.11.45-.6,0-1.21,0-1.81-.04-.61-.03-.62-.05-.68.56-.17,1.84-.43,3.67-.71,5.5-.71,4.7-1.43,9.4-2.14,14.1-1.05,6.98-2.11,13.96-3.15,20.94-.62,4.16-1.24,8.32-1.86,12.48-.01.1,0,.22-.08.3.01.05.02.11.03.16.22.06.34.25.5.38.25.21.5.41.75.6Z"/>
  </g>
  <path class="cls-3" d="m29.35,84.55l-.03-.16c.09-.08.07-.2.08-.3.62-4.16,1.24-8.32,1.86-12.48,1.05-6.98,2.1-13.96,3.15-20.94.71-4.7,1.42-9.4,2.14-14.1.28-1.83.55-3.66.71-5.5.05-.61.07-.59.68-.56.6.03,1.21.05,1.81.04,3.04-.03,6.09-.1,9.11-.45,2.87-.33,5.69-.95,8.52-1.51,2.72-.54,5.35-1.37,7.93-2.39,1.81-.72,3.58-1.5,5.33-2.36.56-.27.57-.27.91.23,2.25,3.25,4.51,6.49,6.74,9.75,3.96,5.78,7.91,11.57,11.83,17.38,3.89,5.77,7.98,11.42,11.63,17.35l.15.71c-.05.4-.06.8-.15,1.19-.41,1.8-1.5,3.14-2.99,4.14-3.12,2.09-6.58,3.16-10.31,3.37-.55.03-.91.21-1.29.62-1.96,2.14-4.21,3.81-7.16,4.41-2.98.6-5.94,1.26-8.99,1.29-1.14,0-2.1.3-2.98,1.03-1.84,1.51-4.06,2.21-6.32,2.77-1.53.38-3.09.55-4.66.64-2.99.18-5.95.03-8.86-.7-.7-.17-1.39-.31-2.11-.18-2.45.45-4.93.49-7.42.4-3.31-.11-6.29-1.09-8.82-3.29-.16-.14-.28-.33-.5-.38Zm48.52-4.51c.82-.17,1.66-.25,2.44-.52,1.58-.53,2.85-1.56,4.03-2.71.46-.45.56-.92.4-1.53-.43-1.58-.89-3.15-1.42-4.7-1.1-3.28-2.3-6.52-3.68-9.69-1.68-3.88-3.54-7.66-5.69-11.3-.51-.86-1.07-1.7-1.54-2.59-.16-.31-.18-.52.15-.73.62-.41,1.24-.85,1.83-1.31.33-.25.48-.19.7.15,1.74,2.68,3.3,5.44,4.75,8.29,1.55,3.05,2.94,6.17,4.2,9.35,1.03,2.59,1.96,5.22,2.79,7.89.38,1.22.72,2.44,1.18,3.63.12.31.28.38.6.36,2.15-.13,4.18-.71,6.14-1.55,1.4-.6,2.67-1.37,3.52-2.69.36-.56.37-.6,0-1.14-1.61-2.4-3.22-4.81-4.84-7.21-3.24-4.8-6.49-9.59-9.75-14.38-2.41-3.53-4.83-7.06-7.25-10.58-.39-.57-.4-.56-1.04-.33-.04.01-.07.03-.11.05-2.04.78-4.06,1.61-6.12,2.34-3.17,1.14-6.42,2.05-9.7,2.8-2.42.56-4.86,1.02-7.32,1.36-2.42.34-4.85.6-7.29.68-1.8.05-3.59.05-5.39.08-.63,0-.64.02-.77.63-.03.16-.06.31-.09.47-.35,2.18-.71,4.36-1.04,6.55-1.17,7.8-2.33,15.61-3.5,23.42-.38,2.57-.78,5.14-1.17,7.71-.03.21-.01.33.2.44.72.37,1.43.74,2.21.97,3.07.93,6.18.68,9.29.36.36-.04.46-.19.43-.54-.17-2.43-.31-4.87-.49-7.3-.22-3.02-.36-6.05-.5-9.08-.14-3.08-.2-6.16-.25-9.25-.04-2.29-.07-4.58-.03-6.88,0-.28.09-.38.36-.39.8,0,1.61,0,2.41.04.53.04.55.07.54.61-.04,3.27,0,6.54.08,9.81.07,2.89.18,5.79.32,8.68.13,2.6.3,5.19.48,7.79.13,2.02.3,4.04.44,6.06.02.29.14.45.42.51.5.1,1,.2,1.5.29,2.26.4,4.53.51,6.81.31,1.85-.16,3.67-.49,5.45-1.03,1.49-.45,2.89-1.08,4.07-2.12.17-.15.25-.27.21-.51-.1-.5-.15-1.01-.23-1.51-.54-3.59-1.15-7.16-1.84-10.72-1.26-6.49-2.76-12.92-4.68-19.25-.1-.34-.03-.53.3-.66.73-.3,1.48-.54,2.24-.78.37-.12.51,0,.6.34.17.59.36,1.18.54,1.77.78,2.58,1.52,5.18,2.11,7.81,1.09,4.94,2.1,9.91,3.02,14.88.44,2.35.92,4.69,1.18,7.07.03.25.12.3.36.29,2.5,0,4.98-.22,7.42-.84Zm-20.58-41.08c1.69-.33,4.43-1.05,7.15-1.86,1.83-.54,3.64-1.14,5.42-1.81,1.25-.47,2.5-.95,3.71-1.52.23-.11.31-.21.17-.45-1.05-1.76-2.19-3.47-3.41-5.11-.13-.18-.28-.2-.49-.15-.45.11-.87.27-1.3.43-2.09.83-4.19,1.64-6.35,2.29-2.7.82-5.44,1.46-8.22,1.96-2.79.5-5.6.82-8.43.98-1.66.09-3.32.19-4.98.19-.19,0-.32.02-.36.27-.26,2.03-.65,4.05-.82,6.09-.03.35.08.44.4.45,1.47.04,2.94.04,4.41-.01,4.05-.14,8.04-.73,13.09-1.75Z"/>
</svg>