<?xml version="1.0" encoding="UTF-8"?>
<svg id="Camada_1" data-name="Camada 1" xmlns="http://www.w3.org/2000/svg" viewBox="0 0 240 120">
  <defs>
    <style>
      .cls-1 {
        fill: #bda189;
      }

      .cls-1, .cls-2, .cls-3 {
        stroke-width: 0px;
      }

      .cls-2 {
        fill: #f2eade;
      }

      .cls-3 {
        fill: #745646;
      }
    </style>
  </defs>
  <rect class="cls-1" x="14.88" y="13.11" width="93.78" height="93.78" rx="12" ry="12"/>
  <g>
    <path class="cls-3" d="m121.48,66.69v-10.56c0-.68-.22-1.38-.54-1.72h6.5c2.98,0,5.26,1.68,5.26,4.02,0,2.08-1.8,3.6-4.28,3.92,1.26.22,2.38.8,2.86,1.86l1.3,2.68c.3.64.84,1.24,1.34,1.52h-3.18c-.56-.28-1.08-.84-1.36-1.44l-1.74-3.74c-.2-.36-.48-.66-.94-.82h-2.16v4.28c0,.68.2,1.38.52,1.72h-4.12c.32-.34.54-1.04.54-1.72Zm3.06-11.88v7.2h2.18c1.72,0,2.84-1.42,2.84-3.6s-1.12-3.6-2.84-3.6h-2.18Z"/>
    <path class="cls-3" d="m133.94,63.39c0-2.98,2.36-5.18,5.34-5.18s4.94,2.1,4.94,4.86h-7.14c0,3.32,1.3,4.9,3.46,4.9,1.06,0,1.92-.4,1.92-1.1,0-.58-.58-1-1.38-1,0-.82.66-1.48,1.54-1.48s1.46.68,1.46,1.52c0,1.52-1.92,2.7-4.4,2.7-3.36,0-5.74-2.24-5.74-5.22Zm3.14-.72h4.26c-.06-2.54-.82-4.06-2.06-4.06s-2.12,1.7-2.2,4.06Z"/>
    <path class="cls-3" d="m146.1,66.69v-10.5c0-.68-.22-1.38-.54-1.72l3.6-.66v12.88c0,.68.2,1.38.52,1.72h-4.12c.32-.34.54-1.04.54-1.72Z"/>
    <path class="cls-3" d="m151.04,63.41c0-2.96,2.34-5.2,5.46-5.2s5.46,2.24,5.46,5.2-2.34,5.2-5.46,5.2-5.46-2.24-5.46-5.2Zm7.78,0c0-3-.9-4.8-2.32-4.8s-2.32,1.8-2.32,4.8.88,4.8,2.32,4.8,2.32-1.8,2.32-4.8Zm-3.22-6.46c.46-1.12.84-2.46.92-3.4l3.4.34c-1.02,1.12-2.54,2.32-3.88,3.06h-.44Z"/>
    <path class="cls-3" d="m163.3,63.41c0-2.96,1.94-5.2,4.4-5.2,1.38,0,2.64.7,3.32,1.78.06-.44.22-.86.4-1.16l2.6-.52v10.6c0,2.34-2.28,4.1-5.5,4.1-2.44,0-4.24-1.02-4.24-2.44,0-.88.66-1.46,1.48-1.46s1.42.62,1.42,1.42c-.64,0-1.06.34-1.06.88,0,.66.66,1.06,1.7,1.06,1.78,0,3.14-1.18,3.14-2.72v-2.74c-.72.98-1.9,1.6-3.22,1.6-2.5,0-4.44-2.24-4.44-5.2Zm5.56,4.32c.86,0,1.64-.6,2.1-1.58v-5.36c-.48-1.04-1.28-1.68-2.14-1.68-1.42,0-2.38,1.72-2.38,4.3s.98,4.32,2.42,4.32Z"/>
    <path class="cls-3" d="m176.54,66.69v-6c0-.68-.22-1.38-.54-1.72l3.6-.66v8.38c0,.68.2,1.38.52,1.72h-4.12c.32-.34.54-1.04.54-1.72Zm-.14-11.16c0-.94.74-1.64,1.72-1.64.92,0,1.62.7,1.62,1.64s-.7,1.66-1.62,1.66c-.98,0-1.72-.7-1.72-1.66Z"/>
    <path class="cls-3" d="m181.52,63.41c0-2.96,2.34-5.2,5.46-5.2s5.46,2.24,5.46,5.2-2.34,5.2-5.46,5.2-5.46-2.24-5.46-5.2Zm7.78,0c0-3-.9-4.8-2.32-4.8s-2.32,1.8-2.32,4.8.88,4.8,2.32,4.8,2.32-1.8,2.32-4.8Z"/>
    <path class="cls-3" d="m193.7,66.43c0-.72.54-1.24,1.28-1.24s1.2.5,1.2,1.22c-.54,0-.9.28-.9.68,0,.64.92,1.08,2.28,1.08,1.48,0,2.42-.52,2.42-1.38s-.98-1.32-2.54-2.04c-1.32-.58-3.64-1.4-3.64-3.52,0-1.84,1.76-3.02,4.34-3.02,2,0,3.6.7,3.6,1.98,0,.68-.48,1.22-1.2,1.22s-1.26-.52-1.26-1.22c.52,0,.82-.26.82-.64,0-.56-.72-.9-1.82-.9-1.38,0-2.3.54-2.3,1.4s1.02,1.34,2.54,2c1.54.66,3.64,1.42,3.64,3.48,0,1.82-1.6,3.08-4.38,3.08-2.3,0-4.08-.86-4.08-2.18Z"/>
  </g>
  <g>
    <path class="cls-2" d="m84.53,56.66c-.05-.11-.11-.22-.16-.34-.41-.99-.66-2.02-.94-3.05-.13-.48-.28-.96-.45-1.43-.02-.05-.04-.11-.06-.16-.05-.13-.04-.11.01.06.08.19.06.19-.04.02-.03-.04-.06-.08-.09-.13-.04-.06-.09-.12-.13-.18-.65-.67-1.23-1.46-1.8-2.2-.7-.91-1.24-1.84-1.62-2.93-.16-.45-.13-.9,0-1.31-1.14-.93-2.32-1.82-3.53-2.65-2.23-1.54-4.96-2.29-6.8-4.37-1.04-1.18-1.53-2.72-2.21-4.11-1.47-.32-2.77-.96-3.62-2.55-1.12-2.09-.99-5.38-3.18-6.78-.71-.46-1.04-1.1-1.11-1.76-5.99,1.95-11.98,3.91-17.97,5.87-1.54.5-2.02,1.46-1.52,3.01l.24.75c.51,1.57,1.02,3.15,1.56,4.78-.22.07-.43.14-.65.22l-.43.15c-1.87.61-2.28,1.4-1.68,3.25.12.35.23.71.34,1.06.25.81.52,1.65.83,2.47.78,2.06.68,4.02-.3,6.2-2.44,5.37-2.85,11-1.22,16.75,1.89,6.66,5.92,11.76,12,15.14,1.65.92,2.72,2.25,3.29,4.07.2.65.42,1.29.63,1.93.13,0,.27.02.41.05.12-.06.25-.11.37-.14.68-.2,1.37-.14,2.02.13,1.14.47,1.86,1.52,2.55,2.49,1.03,1.45,1.57,3.07,1.61,4.72.88-.27,1.74-.67,2.62-1.08.15-.07.31-.13.46-.19-.83-2.6-1.71-5.31-2.65-8.14,2.08-.66,4.16-1.35,6.24-2.03l4.07-1.33c2.05-.67,4.1-1.33,6.14-2.02.82,2.58,1.71,5.33,2.73,8.37-2.99.97-5.97,1.95-8.95,2.92,2-.35,4.03-.59,6.04-.88.84-.12,1.68-.23,2.48-.49.3-.1.16.02.55-.26.02-.01.03-.02.05-.03.04-.04.06-.07.09-.09.02-.04.04-.07.05-.08.03-.09.06-.18.08-.28-.01-.09,0-.71-.01-.8-.1-.86-.52-1.6-.83-2.39-.79-1.99-.6-4.16,1.11-5.62.27-.23.79-.49,1.08-.78.09-.71-.34-1.61-.49-2.27-.54-2.43.06-4.72.74-7.06.11-.37.29-.68.52-.93.35-1.25.72-2.49.99-3.75.24-1.1.38-2.2.34-3.33-.03-1.03-.33-2.01-.45-3.03-.14-1.19.07-2.38.65-3.44Zm-24.49-30.11c.95,2.99,1.84,5.71,2.73,8.37-2.05.66-4.1,1.33-6.14,2l-4.28,1.4c-1.98.65-3.96,1.29-6.01,1.97-.95-2.98-1.84-5.71-2.73-8.36,5.48-1.78,10.97-3.57,16.44-5.37Zm21.15,42.49c-1.21,2.79-1.46,5.4-.75,7.95-.54-.58-1.31-.72-2.27-.41-2.61.85-5.22,1.7-7.83,2.55l-11.72,3.83c-1.06.35-1.63.91-1.71,1.73-.94-2.54-2.64-4.5-5.06-5.82-3.53-1.93-6.26-4.66-8.11-8.12-3.29-6.13-3.58-12.4-.84-18.63,1.21-2.76,1.47-5.37.78-7.96.53.56,1.3.73,2.2.44,6.61-2.15,13.21-4.31,19.82-6.47.92-.3,1.45-.9,1.53-1.69.09.26.2.52.3.77.88,2.1,2.42,3.76,4.59,4.95,3.34,1.83,5.95,4.3,7.76,7.37,3.75,6.34,4.2,12.91,1.32,19.51Z"/>
    <path class="cls-2" d="m61.88,79.13c1.95,0,3.94-.31,5.91-.96,4.78-1.57,8.62-4.86,10.82-9.26,2.19-4.38,2.56-9.5,1.01-14.05-1.44-4.58-4.75-8.5-9.09-10.74-4.41-2.28-9.45-2.68-14.19-1.15-4.75,1.54-8.61,4.82-10.85,9.24-2.22,4.36-2.58,9.38-1.02,14.12,2.59,7.88,9.65,12.79,17.41,12.79Zm-5.82-30.78c.53.84,1.49,1.15,2.41.75.9-.38,1.35-1.25,1.16-2.21-.04-.2-.1-.39-.16-.58,2.5-.42,4.95-.22,7.29.56-.1.2-.18.4-.25.62-.32.99.08,1.92,1.02,2.38.89.43,1.82.21,2.42-.58.12-.16.23-.35.36-.6h0c2.12,1.5,3.67,3.3,4.75,5.54-.15.05-.29.11-.44.17-1.01.42-1.46,1.37-1.15,2.42.29.96,1.15,1.51,2.18,1.37.24-.03.45-.1.61-.16h.04c.44,2.41.25,4.85-.56,7.25-.14-.07-.28-.13-.41-.18-1.07-.43-2.16-.01-2.6.99-.41.95-.12,1.91.77,2.51.09.06.18.11.33.18.04.02.07.04.11.06-.03.04-.06.08-.09.12-1.39,1.96-3.18,3.49-5.46,4.65-.06-.17-.13-.33-.19-.48-.4-.96-1.31-1.42-2.31-1.16-1.01.26-1.58,1.1-1.45,2.15.03.24.08.48.15.72-2.33.37-4.5.25-6.59-.37l-.38-.12c-.09-.03-.19-.06-.28-.09.04-.08.07-.17.11-.25.49-1.12.11-2.28-.9-2.76-.99-.46-2.05-.08-2.64.95-.05.08-.1.17-.14.25-.09-.06-.18-.13-.27-.2-1.88-1.37-3.34-3.1-4.48-5.33.16-.05.31-.12.46-.18,1.04-.45,1.5-1.56,1.08-2.57-.4-.97-1.31-1.42-2.46-1.14-.11.03-.23.06-.34.09-.02-.11-.03-.23-.05-.33-.34-2.37-.12-4.7.63-6.94.18.09.34.16.47.2,1.04.4,2.02.03,2.5-.94.47-.94.2-1.94-.7-2.56-.14-.1-.28-.18-.45-.27,1.45-2.05,3.26-3.62,5.5-4.75.11.32.25.6.37.79Z"/>
    <path class="cls-2" d="m58.16,55.1c.34,1.04.67,2.07,1.02,3.11.03.08.04.12,0,.11-1.12,1.36-1.07,3.32.11,4.67,1.16,1.32,3.07,1.64,4.61.74,0,0,.01.01.03.02,1.17.61,2.35,1.21,3.53,1.8l1.23.63c.24.12.59.31,1.05.31.03,0,.06,0,.09,0,.94-.05,1.62-.57,1.86-1.42.29-.99-.12-1.88-1.09-2.38-1.62-.83-3.24-1.65-4.86-2.46l-.06-.03c-.12-1.49-.94-2.6-2.16-2.9-.51-.13-.61-.33-.88-1.21l-.03-.1c-.08-.28-.18-.56-.27-.85l-.35-1.07c-.19-.59-.38-1.19-.59-1.77-.24-.64-.75-1.13-1.38-1.29-.62-.16-1.25-.02-1.74.4-.48.41-.97,1.14-.56,2.37l.43,1.33Zm3.81,5.18c.16-.02.33.07.38.18.04.09,0,.28-.08.35l-.29-.52Zm.11.61c-.12.04-.28-.11-.33-.21-.04-.11.04-.31.14-.38l.18.59Z"/>
  </g>
  <g>
    <path class="cls-3" d="m86.92,51.28c-.66-2.05-2.41-3.3-4.73-3.36-2.31-4.21-5.62-7.53-9.85-9.84-1.63-.89-2.69-2.2-3.24-4-.39-1.28-.82-2.56-1.24-3.83l-.21-.62c-.43-1.28-1.42-1.78-2.71-1.38l-.32.1c-.4.12-.81.24-1.22.4-.48-1.56-1-3.12-1.51-4.67l-.3-.91c-.51-1.53-1.42-1.99-2.96-1.49-6.49,2.12-12.99,4.24-19.48,6.36-1.54.5-2.02,1.46-1.52,3.01l.24.75c.51,1.57,1.02,3.15,1.56,4.78-.22.07-.43.14-.65.22l-.43.15c-1.87.61-2.28,1.4-1.68,3.25.12.35.23.71.34,1.06.25.81.52,1.65.83,2.47.78,2.06.68,4.02-.3,6.2-2.44,5.37-2.85,11-1.22,16.75,1.89,6.66,5.92,11.76,12,15.14,1.65.92,2.72,2.25,3.29,4.07.47,1.49.96,2.97,1.46,4.46.42,1.25,1.39,1.74,2.67,1.35l.25-.08c.42-.13.84-.26,1.29-.42.43,1.37.88,2.73,1.33,4.09l.46,1.38c.4,1.22,1.01,1.79,1.96,1.79.33,0,.71-.07,1.12-.21l19.08-6.23c2-.65,2.39-1.42,1.75-3.39l-.49-1.51c-.4-1.24-.8-2.47-1.24-3.76.32-.1.64-.21.96-.32l.43-.15c1.41-.47,1.92-1.46,1.46-2.86l-.31-.97c-.37-1.14-.73-2.28-1.12-3.41-.62-1.76-.52-3.47.3-5.21,2.01-4.3,2.72-8.9,2.11-13.68,1.82-1.38,2.52-3.41,1.85-5.46Zm-27.29,34.34c2.08-.66,4.16-1.35,6.24-2.03l4.07-1.33c2.05-.67,4.1-1.33,6.14-2.02.82,2.58,1.71,5.33,2.73,8.37-5.49,1.77-10.97,3.57-16.45,5.37-.85-2.67-1.76-5.46-2.73-8.37Zm-4.72-49.34l-4.28,1.4c-1.98.65-3.96,1.29-6.01,1.97-.95-2.98-1.84-5.71-2.73-8.36,5.48-1.78,10.97-3.57,16.44-5.37.95,2.99,1.84,5.71,2.73,8.37-2.05.66-4.1,1.33-6.14,2Zm-13.73,15.21c1.21-2.76,1.47-5.37.78-7.96.53.56,1.3.73,2.2.44,6.61-2.15,13.21-4.31,19.82-6.47.92-.3,1.45-.9,1.53-1.69.09.26.2.52.3.77.88,2.1,2.42,3.76,4.59,4.95,3.34,1.83,5.95,4.3,7.76,7.37,3.75,6.34,4.2,12.91,1.32,19.51-1.21,2.79-1.46,5.4-.75,7.95-.54-.58-1.31-.72-2.27-.41-2.61.85-5.22,1.7-7.83,2.55l-11.72,3.83c-1.06.35-1.63.91-1.71,1.73-.94-2.54-2.64-4.5-5.06-5.82-3.53-1.93-6.26-4.66-8.11-8.12-3.29-6.13-3.58-12.4-.84-18.63Z"/>
    <path class="cls-3" d="m60.17,78.49c1.95,0,3.94-.31,5.91-.96,4.78-1.57,8.62-4.86,10.82-9.26,2.19-4.38,2.56-9.5,1.01-14.05-1.44-4.58-4.75-8.5-9.09-10.74-4.41-2.28-9.45-2.68-14.19-1.15-4.75,1.54-8.61,4.82-10.85,9.24-2.22,4.36-2.58,9.38-1.02,14.12,2.59,7.88,9.65,12.79,17.41,12.79Zm-5.82-30.78c.53.84,1.49,1.15,2.41.75.9-.38,1.35-1.25,1.16-2.21-.04-.2-.1-.39-.16-.58,2.5-.42,4.95-.22,7.29.56-.1.2-.18.4-.25.62-.32.99.08,1.92,1.02,2.38.89.43,1.82.21,2.42-.58.12-.16.23-.35.36-.6h0c2.12,1.5,3.67,3.3,4.75,5.54-.15.05-.29.11-.44.17-1.01.42-1.46,1.37-1.15,2.42.29.96,1.15,1.51,2.18,1.37.24-.03.45-.1.61-.16h.04c.44,2.41.25,4.85-.56,7.25-.14-.07-.28-.13-.41-.18-1.07-.43-2.16-.01-2.6.99-.41.95-.12,1.91.77,2.51.09.06.18.11.33.18.04.02.07.04.11.06-.03.04-.06.08-.09.12-1.39,1.96-3.18,3.49-5.46,4.65-.06-.17-.13-.33-.19-.48-.4-.96-1.31-1.42-2.31-1.16-1.01.26-1.58,1.1-1.45,2.15.03.24.08.48.15.72-2.33.37-4.5.25-6.59-.37l-.38-.12c-.09-.03-.19-.06-.28-.09.04-.08.07-.17.11-.25.49-1.12.11-2.28-.9-2.76-.99-.46-2.05-.08-2.64.95-.05.08-.1.17-.14.25-.09-.06-.18-.13-.27-.2-1.88-1.37-3.34-3.1-4.48-5.33.16-.05.31-.12.46-.18,1.04-.45,1.5-1.56,1.08-2.57-.4-.97-1.31-1.42-2.46-1.14-.11.03-.23.06-.34.09-.02-.11-.03-.23-.05-.33-.34-2.37-.12-4.7.63-6.94.18.09.34.16.47.2,1.04.4,2.02.03,2.5-.94.47-.94.2-1.94-.7-2.56-.14-.1-.28-.18-.45-.27,1.45-2.05,3.26-3.62,5.5-4.75.11.32.25.6.37.79Z"/>
    <path class="cls-3" d="m56.44,54.47c.34,1.04.67,2.07,1.02,3.11.03.08.04.12,0,.11-1.12,1.36-1.07,3.32.11,4.67,1.16,1.32,3.07,1.64,4.61.74,0,0,.01.01.03.02,1.17.61,2.35,1.21,3.53,1.8l1.23.63c.24.12.59.31,1.05.31.03,0,.06,0,.09,0,.94-.05,1.62-.57,1.86-1.42.29-.99-.12-1.88-1.09-2.38-1.62-.83-3.24-1.65-4.86-2.46l-.06-.03c-.12-1.49-.94-2.6-2.16-2.9-.51-.13-.61-.33-.88-1.21l-.03-.1c-.08-.28-.18-.56-.27-.85l-.35-1.07c-.19-.59-.38-1.19-.59-1.77-.24-.64-.75-1.13-1.38-1.29-.62-.16-1.25-.02-1.74.4-.48.41-.97,1.14-.56,2.37l.43,1.33Zm3.81,5.18c.16-.02.33.07.38.18.04.09,0,.28-.08.35l-.29-.52Zm.11.61c-.12.04-.28-.11-.33-.21-.04-.11.04-.31.14-.38l.18.59Z"/>
  </g>
</svg>