<?xml version="1.0" encoding="UTF-8"?>
<svg id="Camada_1" data-name="Camada 1" xmlns="http://www.w3.org/2000/svg" viewBox="0 0 240 120">
  <defs>
    <style>
      .cls-1 {
        fill: #bda189;
      }

      .cls-1, .cls-2, .cls-3 {
        stroke-width: 0px;
      }

      .cls-2 {
        fill: #f2eade;
      }

      .cls-3 {
        fill: #745646;
      }
    </style>
  </defs>
  <rect class="cls-1" x="14.88" y="13.11" width="93.78" height="93.78" rx="12" ry="12"/>
  <g>
    <path class="cls-3" d="m120.62,61.43c0-4.06,3.22-7.22,7.5-7.22,3.06,0,5.5,1.66,5.5,3.58,0,.98-.66,1.68-1.6,1.68s-1.64-.68-1.64-1.6c1,0,1.72-.5,1.72-1.22,0-.94-1.24-1.74-3.04-1.74-3.2,0-5.3,2.44-5.3,6.5s2.06,6.5,5.3,6.5c1.96,0,3.44-.9,4.24-2.34l.44.28c-.86,1.58-2.96,2.76-5.58,2.76-4.18,0-7.54-3.04-7.54-7.18Z"/>
    <path class="cls-3" d="m134.7,63.41c0-2.96,2.34-5.2,5.46-5.2s5.46,2.24,5.46,5.2-2.34,5.2-5.46,5.2-5.46-2.24-5.46-5.2Zm7.78,0c0-3-.9-4.8-2.32-4.8s-2.32,1.8-2.32,4.8.88,4.8,2.32,4.8,2.32-1.8,2.32-4.8Z"/>
    <path class="cls-3" d="m147.5,66.69v-10.5c0-.68-.22-1.38-.54-1.72l3.6-.66v12.88c0,.68.2,1.38.52,1.72h-4.12c.32-.34.54-1.04.54-1.72Z"/>
    <path class="cls-3" d="m152.42,65.83c0-1.76,1.68-2.94,4.12-2.94,1.12,0,2.28.26,2.84.64v-2.42c0-1.46-.94-2.4-2.5-2.4-1.02,0-1.72.4-1.72,1.04,0,.5.42.86,1.04.86,0,.84-.6,1.48-1.48,1.48s-1.52-.6-1.52-1.48c0-1.42,1.74-2.4,4.3-2.4,2.94,0,4.94,1.6,4.94,3.7v4.78c0,.68.22,1.38.54,1.72h-3.4c-.12-.3-.2-.88-.2-1.4-.74.96-2.12,1.6-3.58,1.6-1.96,0-3.38-1.18-3.38-2.78Zm4.92,1.76c.8,0,1.58-.44,2.04-1.16v-2.46c-.36-.3-.98-.48-1.66-.48-1.34,0-2.16.78-2.16,2.08,0,1.2.68,2.02,1.78,2.02Z"/>
    <path class="cls-3" d="m164.84,66.69v-6c0-.68-.22-1.38-.54-1.72l3.6-.66v1.82c.54-1.18,1.54-1.92,2.76-1.92,1.34,0,2.28.88,2.28,2.06,0,.94-.6,1.58-1.5,1.58s-1.56-.66-1.56-1.52c.8,0,1.3-.34,1.3-.86,0-.4-.3-.62-.82-.62-1.08,0-2.04.88-2.46,2.18v5.66c0,.68.28,1.38.7,1.72h-4.3c.32-.34.54-1.04.54-1.72Z"/>
    <path class="cls-3" d="m173.32,63.39c0-2.98,2.36-5.18,5.34-5.18s4.94,2.1,4.94,4.86h-7.14c0,3.32,1.3,4.9,3.46,4.9,1.06,0,1.92-.4,1.92-1.1,0-.58-.58-1-1.38-1,0-.82.66-1.48,1.54-1.48s1.46.68,1.46,1.52c0,1.52-1.92,2.7-4.4,2.7-3.36,0-5.74-2.24-5.74-5.22Zm3.14-.72h4.26c-.06-2.54-.82-4.06-2.06-4.06s-2.12,1.7-2.2,4.06Z"/>
    <path class="cls-3" d="m184.86,66.43c0-.72.54-1.24,1.28-1.24s1.2.5,1.2,1.22c-.54,0-.9.28-.9.68,0,.64.92,1.08,2.28,1.08,1.48,0,2.42-.52,2.42-1.38s-.98-1.32-2.54-2.04c-1.32-.58-3.64-1.4-3.64-3.52,0-1.84,1.76-3.02,4.34-3.02,2,0,3.6.7,3.6,1.98,0,.68-.48,1.22-1.2,1.22s-1.26-.52-1.26-1.22c.52,0,.82-.26.82-.64,0-.56-.72-.9-1.82-.9-1.38,0-2.3.54-2.3,1.4s1.02,1.34,2.54,2c1.54.66,3.64,1.42,3.64,3.48,0,1.82-1.6,3.08-4.38,3.08-2.3,0-4.08-.86-4.08-2.18Z"/>
  </g>
  <path class="cls-2" d="m84.79,78.82c-.3.34-.6.68-.92,1.02-1.49-1.42-3.34-2.14-5.28-2.04-2.04.1-3.9,1.1-5.29,2.82-3.03-1.12-5.85-.41-8.03,2.03-.33-.13-.69-.21-1.04-.28-.03,0-.07.02-.1.03-1.34.36-2.91.63-4.44.65-.17.08-.34.15-.5.25-.05-.09-.11-.17-.17-.26-.86-.03-1.71-.14-2.48-.37-.48-.14-.94-.34-1.4-.54-.1.06-.2.1-.29.17-.1-.15-.2-.29-.31-.44-.16-.07-.33-.15-.49-.22-.91-.38-1.85-.61-2.79-.88-2.24-.66-4-1.9-5.73-3.43-1.35-1.19-2.88-2.32-4.11-3.62-1.21-1.28-1.61-2.83-1.57-4.55-.55-.03-1.09.16-1.5.6-.16.17-.29.35-.38.54.04-.2.04-.42.02-.64-.13-1.03-.89-1.71-1.94-1.74-.14,0-.29.01-.51.05-.22-.01-.42.03-.59.08-.03-.16-.07-.32-.11-.46l-.06-.22c-2.02-7.49-1.64-15.01,1.13-22.37,2.13-5.65,5.5-10.47,10.07-14.37.11-.09.22-.19.32-.29.75-.78.81-1.89.15-2.68-.7-.84-1.83-.95-2.75-.27-.14.1-.27.22-.47.39-5.76,4.99-9.8,11.28-12,18.71-2.32,7.85-2.27,15.71.19,23.47,0,.01-.02.02-.03.04-2.12,2.21-2.67,4.83-1.6,7.6.07.18.15.33.23.5.64-.36,1.43-.41,2.26.08,3.66,2.19,6.64,5.24,10.21,7.56,1.71,1.12,3.27,2.43,4.93,3.61,1.6,1.13,3.28,2.23,4.65,3.65.64.66,1.12,1.38,1.55,2.18.01.02.03.05.04.08.16-.09.35-.18.55-.28-.78-1.71-1.57-3.42-2.39-5.14,1.47-1.17,2.93-2.34,4.4-3.55.78,1.71,1.57,3.41,2.38,5.13-.38.29-.75.6-1.11.9l-.38.31c-.17.14-.41.33-.58.62-.16.28-.25.57-.29.85.68-.22,1.38-.32,2.09-.39,1.63-.16,3.27-.02,4.91-.04.15,0,.31,0,.46,0,.24-.92.98-1.69,2.24-1.68,1.64.07,3.4-.09,4.76-.32.68-.12,1.38-.26,2.05-.46.14-.63.5-1.22,1.07-1.55.76-.44,1.47-.59,2.33-.55.38.02.71.11,1.02.25.92-.21,1.82-.72,2.65-1.36-.67.21-1.33.19-2.04-.09.17-1.77-.29-3.39-1.36-4.85.93-1.22,2.71-1.61,4.03-.85,1.21.71,1.73,1.73,1.63,3.23,0,.11,0,.2,0,.29.48-.59.89-1.16,1.2-1.68.58-.95.86-2.06,1.31-3.07.2-.45.43-.87.68-1.29-.22-.23-.39-.52-.5-.83Zm-48.65-.63c-1.54-.13-2.78-1.39-2.89-2.95-.11-1.61.99-3.04,2.57-3.33.06-.01.12-.02.18-.03.19-.02.38-.05.56-.11.58-.18,1.02-.55,1.24-1.03-.11.6.07,1.24.56,1.78.07.08.14.15.22.22l.12.12c.4.42.66.92.8,1.56-1.57.8-2.72,2.08-3.36,3.77Zm5.95,5.64c-.68-.14-1.33-.55-1.79-1.17-.54-.7-.77-1.57-.64-2.38.14-.88.61-1.63,1.32-2.11.54-.36,1.2-.55,1.9-.55.32,0,.64.04.97.11.88.26,1.54.92,1.92,1.94-1.77.84-3.03,2.26-3.67,4.16Zm7.31,2.86l-.68.55c-.71.57-.99,1.22-1.08,1.78-1.2-.48-2.02-1.7-1.97-2.98.06-1.57,1.16-2.83,2.68-3.07.16-.03.32-.04.48-.04,1.22,0,2.36.72,2.9,1.89-.79.61-1.56,1.24-2.33,1.88Zm16.38,3.99c-.55,1.21-1.79,1.93-3.09,1.83.21-.69.13-1.42-.22-2.17-.2-.42-.39-.85-.58-1.27-.32-.71-.65-1.42-1-2.14,1.1-.92,2.71-.98,3.88-.14,1.24.89,1.66,2.49,1.03,3.89Zm7.98-2.7c-.21.88-.8,1.63-1.64,2.07-.68.36-1.44.45-2.16.26.26-1.98-.25-3.81-1.48-5.36.94-.92,2.39-1.16,3.57-.58,1.39.69,2.05,2.1,1.7,3.61Z"/>
  <path class="cls-3" d="m94.76,43.55c-.41-1.79-1.05-3.67-2.04-5.91-.46-1.05-1.27-1.26-1.72-1.29-.75-.05-1.41.28-1.8.91-.58.92-.18,1.82-.05,2.12.78,1.75,1.39,3.56,1.83,5.38,1.67,6.88,1.33,13.8-.99,20.57-1.67,4.85-4.29,9.17-7.79,12.84-1.49-1.42-3.34-2.14-5.28-2.04-2.04.1-3.9,1.1-5.29,2.82-3.03-1.12-5.85-.41-8.03,2.03-.44-.17-.91-.29-1.4-.34-1.67-.21-3.25.13-4.68,1-.44-.82-1.12-1.37-1.92-1.56-.8-.18-1.65.01-2.41.56-1.17-1.86-2.92-2.98-5.15-3.26-.76-3.04-3.18-5.11-6.31-5.39-.28-1.55-1.04-2.88-2.26-3.95-.86-.75-2.03-.73-2.78.06-.16.17-.29.35-.38.54.04-.2.04-.42.02-.64-.13-1.03-.89-1.71-1.94-1.74-.14,0-.29.01-.51.05-.22-.01-.42.03-.59.08-.03-.16-.07-.32-.11-.46l-.06-.22c-2.02-7.49-1.64-15.01,1.13-22.37,2.13-5.65,5.5-10.47,10.07-14.37.11-.09.22-.19.32-.29.75-.78.81-1.89.15-2.68-.7-.84-1.83-.95-2.75-.27-.14.1-.27.22-.47.39-5.76,4.99-9.8,11.28-12,18.71-2.32,7.85-2.27,15.71.19,23.47,0,.01-.02.02-.03.04-2.12,2.21-2.67,4.83-1.6,7.6,1.03,2.67,3.09,4.22,6.03,4.51.6,3.04,3.01,5.29,6.12,5.68.81,3.27,3.66,5.5,7.09,5.41.31.7.64,1.4.96,2.09.32.69.64,1.38.95,2.08.23.51.62,1.26,1.36,1.83l.17.13,1.28.3.18-.03c1.11-.15,1.89-.82,2.54-1.43.69-.65.81-1.61.3-2.44-.45-.74-1.24-1.07-2.13-.89-.16.03-.3.09-.43.15-.79-1.72-1.58-3.43-2.4-5.17,1.47-1.17,2.93-2.34,4.4-3.55.78,1.71,1.57,3.41,2.38,5.13-.38.29-.75.6-1.11.9l-.38.31c-.17.14-.41.33-.58.62-.52.9-.37,1.86.37,2.5.76.65,1.71.68,2.55.06.06-.04.12-.09.18-.14,2.96,1.56,6.49.89,8.73-1.72,2.91,1.04,6.06.11,7.99-2.39,2.33.9,4.58.63,6.69-.79.82-.55,1.14-1.41.86-2.3-.13-.42-.38-.77-.7-1.01.23.1.49.16.76.18,1.1.04,1.94-.73,2.06-1.95l.02-.21c.05-.37.1-.84-.07-1.32-.18-.51-.04-.73.7-1.54,9.68-10.62,12.97-23.2,9.76-37.39Zm-54.34,38.61c-.68-.14-1.33-.55-1.79-1.17-.54-.7-.77-1.57-.64-2.38.14-.88.61-1.63,1.32-2.11.54-.36,1.2-.55,1.9-.55.32,0,.64.04.97.11.88.26,1.54.92,1.92,1.94-1.77.84-3.03,2.26-3.67,4.16Zm6.26-.87c.16-.03.32-.04.48-.04,1.22,0,2.36.72,2.9,1.89-.79.61-1.56,1.24-2.33,1.88l-.68.55c-.71.57-.99,1.22-1.08,1.78-1.2-.48-2.02-1.7-1.97-2.98.06-1.57,1.16-2.83,2.68-3.07Zm14.11,7.38c-.2-.42-.39-.85-.58-1.27-.32-.71-.65-1.42-1-2.14,1.1-.92,2.71-.98,3.88-.14,1.24.89,1.66,2.49,1.03,3.89-.55,1.21-1.79,1.93-3.09,1.83.21-.69.13-1.42-.22-2.17Zm6.02-5.39c.94-.92,2.39-1.16,3.57-.58,1.39.69,2.05,2.1,1.7,3.61-.21.88-.8,1.63-1.64,2.07-.68.36-1.44.45-2.16.26.26-1.98-.25-3.81-1.48-5.36Zm14.09,2.04c.08.09.18.18.28.25-.25-.11-.53-.17-.84-.17-.56,0-.96.26-1.22.43l-.12.08c-.95.58-1.88.67-2.89.29.17-1.77-.29-3.39-1.36-4.85.93-1.22,2.71-1.61,4.03-.85,1.21.71,1.73,1.73,1.63,3.23-.05.81.24,1.32.49,1.6Zm-44.76-16.24c-.11.6.07,1.24.56,1.78.07.08.14.15.22.22l.12.12c.4.42.66.92.8,1.56-1.57.8-2.72,2.08-3.36,3.77-1.54-.13-2.78-1.39-2.89-2.95-.11-1.61.99-3.04,2.57-3.33.06-.01.12-.02.18-.03.19-.02.38-.05.56-.11.58-.18,1.02-.55,1.24-1.03Z"/>
</svg>