<?xml version="1.0" encoding="UTF-8"?>
<svg id="Camada_1" data-name="Camada 1" xmlns="http://www.w3.org/2000/svg" viewBox="0 0 240 120">
  <defs>
    <style>
      .cls-1 {
        fill: #bda189;
      }

      .cls-1, .cls-2, .cls-3 {
        stroke-width: 0px;
      }

      .cls-2 {
        fill: #f2eade;
      }

      .cls-3 {
        fill: #745646;
      }
    </style>
  </defs>
  <rect class="cls-1" x="14.88" y="13.11" width="93.78" height="93.78" rx="12" ry="12"/>
  <g>
    <path class="cls-3" d="m121.48,66.69v-10.56c0-.68-.22-1.38-.54-1.72h6.9c2.98,0,5.26,1.86,5.26,4.36s-2.28,4.36-5.26,4.36h-3.3v3.56c0,.68.28,1.38.72,1.72h-4.32c.32-.34.54-1.04.54-1.72Zm3.06-11.88v7.92h2.46c1.8,0,2.96-1.58,2.96-3.96s-1.16-3.96-2.96-3.96h-2.46Z"/>
    <path class="cls-3" d="m134.66,65.29v-4.6c0-.68-.22-1.38-.52-1.72l3.58-.66v7.7c0,.92.64,1.62,1.54,1.62s1.76-.72,2.22-1.78v-5.16c0-.68-.22-1.38-.54-1.72l3.6-.66v8.38c0,.68.2,1.38.52,1.72h-3.38c-.12-.34-.2-1.02-.2-1.72-.7,1.14-2,1.92-3.42,1.92-1.92,0-3.4-1.4-3.4-3.32Z"/>
    <path class="cls-3" d="m147.08,66.69v-10.5c0-.68-.22-1.38-.54-1.72l3.6-.66v12.88c0,.68.2,1.38.52,1.72h-4.12c.32-.34.54-1.04.54-1.72Z"/>
    <path class="cls-3" d="m152.12,66.43c0-.72.54-1.24,1.28-1.24s1.2.5,1.2,1.22c-.54,0-.9.28-.9.68,0,.64.92,1.08,2.28,1.08,1.48,0,2.42-.52,2.42-1.38s-.98-1.32-2.54-2.04c-1.32-.58-3.64-1.4-3.64-3.52,0-1.84,1.76-3.02,4.34-3.02,2,0,3.6.7,3.6,1.98,0,.68-.48,1.22-1.2,1.22s-1.26-.52-1.26-1.22c.52,0,.82-.26.82-.64,0-.56-.72-.9-1.82-.9-1.38,0-2.3.54-2.3,1.4s1.02,1.34,2.54,2c1.54.66,3.64,1.42,3.64,3.48,0,1.82-1.6,3.08-4.38,3.08-2.3,0-4.08-.86-4.08-2.18Z"/>
    <path class="cls-3" d="m161.66,63.39c0-2.98,2.36-5.18,5.34-5.18s4.94,2.1,4.94,4.86h-7.14c0,3.32,1.3,4.9,3.46,4.9,1.06,0,1.92-.4,1.92-1.1,0-.58-.58-1-1.38-1,0-.82.66-1.48,1.54-1.48s1.46.68,1.46,1.52c0,1.52-1.92,2.7-4.4,2.7-3.36,0-5.74-2.24-5.74-5.22Zm3.14-.72h4.26c-.06-2.54-.82-4.06-2.06-4.06s-2.12,1.7-2.2,4.06Z"/>
    <path class="cls-3" d="m173.86,66.69v-6c0-.68-.22-1.38-.54-1.72l3.6-.66v8.38c0,.68.2,1.38.52,1.72h-4.12c.32-.34.54-1.04.54-1.72Zm-.14-11.16c0-.94.74-1.64,1.72-1.64.92,0,1.62.7,1.62,1.64s-.7,1.66-1.62,1.66c-.98,0-1.72-.7-1.72-1.66Z"/>
    <path class="cls-3" d="m179.52,66.69v-6c0-.68-.22-1.38-.54-1.72l3.6-.66v1.82c.54-1.18,1.54-1.92,2.76-1.92,1.34,0,2.28.88,2.28,2.06,0,.94-.6,1.58-1.5,1.58s-1.56-.66-1.56-1.52c.8,0,1.3-.34,1.3-.86,0-.4-.3-.62-.82-.62-1.08,0-2.04.88-2.46,2.18v5.66c0,.68.28,1.38.7,1.72h-4.3c.32-.34.54-1.04.54-1.72Z"/>
    <path class="cls-3" d="m187.82,65.83c0-1.76,1.68-2.94,4.12-2.94,1.12,0,2.28.26,2.84.64v-2.42c0-1.46-.94-2.4-2.5-2.4-1.02,0-1.72.4-1.72,1.04,0,.5.42.86,1.04.86,0,.84-.6,1.48-1.48,1.48s-1.52-.6-1.52-1.48c0-1.42,1.74-2.4,4.3-2.4,2.94,0,4.94,1.6,4.94,3.7v4.78c0,.68.22,1.38.54,1.72h-3.4c-.12-.3-.2-.88-.2-1.4-.74.96-2.12,1.6-3.58,1.6-1.96,0-3.38-1.18-3.38-2.78Zm4.92,1.76c.8,0,1.58-.44,2.04-1.16v-2.46c-.36-.3-.98-.48-1.66-.48-1.34,0-2.16.78-2.16,2.08,0,1.2.68,2.02,1.78,2.02Z"/>
    <path class="cls-3" d="m199.66,66.43c0-.72.54-1.24,1.28-1.24s1.2.5,1.2,1.22c-.54,0-.9.28-.9.68,0,.64.92,1.08,2.28,1.08,1.48,0,2.42-.52,2.42-1.38s-.98-1.32-2.54-2.04c-1.32-.58-3.64-1.4-3.64-3.52,0-1.84,1.76-3.02,4.34-3.02,2,0,3.6.7,3.6,1.98,0,.68-.48,1.22-1.2,1.22s-1.26-.52-1.26-1.22c.52,0,.82-.26.82-.64,0-.56-.72-.9-1.82-.9-1.38,0-2.3.54-2.3,1.4s1.02,1.34,2.54,2c1.54.66,3.64,1.42,3.64,3.48,0,1.82-1.6,3.08-4.38,3.08-2.3,0-4.08-.86-4.08-2.18Z"/>
  </g>
  <path class="cls-2" d="m67.4,26.11c-11.9-1.9-22.98,6.13-24.61,18.11-1.1,8.08,1.72,14.77,8.11,19.88.6.48.67.81.36,1.47-.7,1.52-.67,1.56-1.97.5-6.3-5.13-9.44-11.76-9.23-19.89.27-10.84,8.66-20.52,19.34-22.43,5.22-.93,10.26-.22,14.62,1.8-.36-.29-.72-.56-1.11-.81-1.96-1.24-4.28-1.73-6.33-2.79-1.16-.09-2.32-.31-3.49-.22-.15.04-.31.08-.46.15-.23.07-.46.12-.71.12l-.64-.09c-.49-.11-.9-.42-1.21-.8-1.6.23-3.21.61-4.8,1.15-12.42,4.19-20,17.55-17.18,30.33,1.19,5.41,3.72,9.92,7.53,13.58.29-.03.59-.02.85.07.93.32,1.81.68,2.56,1.32.34.29.58.67.75,1.07.25.59.29,1.2.12,1.83-.2.72-.71,1.27-1.32,1.68-.31.2-.67.34-1.02.46-.58.21-1.21.29-1.82.37-1.47.23-2.85.8-4.36.81-.4,0-.77-.11-1.11-.29-3.86,2.76-6.08,7.58-5.03,12.61.78,3.7,2.93,6.53,5.7,8.25.95.13,1.89.25,2.84.38,1.23.16,2.47.31,3.71.42.18.02.36.05.53.09.4-.11.8-.23,1.2-.35,1.45-.44,3.06-.99,4.11-2.04,1.02-1.02,2.3-.83,3.16-.12.16,0,.31.09.5.27,1.88,1.7,3.78,3.38,5.67,5.07,1.28-2.27,3.77-3.97,6.06-5.31.11-.18.21-.36.33-.53,1.39-1.91,3.52-3.42,4.55-5.49,1.87-3.77-1.33-9.4-5.68-9.41-3.13,0-3.12-4.83,0-4.85.29,0,.25.02.58-.25.39-.31.71-.72,1.04-1.09.28-.32.56-.63.85-.93-.81.22-1.64.4-2.49.53-.05,0-.1-.02-.21-.04,0-.69.01-1.4,0-2.1-.01-.48.35-.43.64-.5,7.08-1.65,12.2-5.75,15.17-12.37,5.65-12.63-2.43-27.43-16.1-29.61Zm-13.69,65.52c-3.38,2.55-7.77,2.8-11.35.63-3.54-2.14-5.36-6.16-4.68-10.37.62-3.89,3.76-7.15,7.76-8.05.72-.16,1.44-.26,2.18-.23,2.77.06,5.14,1.05,7.12,3,.42.41.39.6-.09.91-.5.32-.91,1.01-1.39,1.04-.42.02-.86-.68-1.32-1.01-2.75-1.96-6.36-1.88-9,.18-2.61,2.03-3.59,5.52-2.42,8.61,1.17,3.1,4.28,5.1,7.59,4.86,1.58-.12,3.03-.66,4.22-1.71.48-.42.7-.36.99.13.13.22.34.4.52.59q.75.77-.14,1.44Zm5.57-18.47c.71.08,1.02.36.87,1.09-.04.18,0,.37,0,.55,0,0,.01,0,.02,0-.02.44.1.99-.11,1.29-.2.29-.78-.07-1.17.04-1.65.45-2.07-1.09-2.9-1.88-.34-.33.24-.99.45-1.48.16-.36.51-.09.77-.04.69.13,1.37.35,2.07.43Zm-1.26-4.26c.46-1.11.62-1.17,1.79-.76.23.08.35.19.34.44-.01.31,0,.63,0,.94q0,1.31-1.25,1.04-1.43-.31-.87-1.66Zm-1.84-2.14c-.74,1.79-1.49,3.57-2.21,5.36-.17.42-.32.62-.77.3-.52-.37-1.48-.3-1.63-.87-.13-.49.38-1.15.62-1.73.58-1.4,1.15-2.8,1.75-4.19.27-.63.76-.94,1.44-.8.64.14.95.6,1,1.31-.05.17-.11.4-.2.61Zm-4.62,19.2c.12.49,0,.79-.31,1.11-1.01,1.05-2.25,1.58-3.43,1.61-2.6,0-4.63-1.64-5.14-3.91-.52-2.32.62-4.66,2.76-5.67,2.11-.99,4.63-.38,6.07,1.45.27.34.33.64.19,1.07-.46,1.42-.51,2.89-.15,4.33Zm19.19-6.96c2.07.85,3.08,2.53,3.22,4.72.13,1.97-.58,3.65-2.05,4.97-2.52,2.26-5.05,4.49-7.57,6.75-.31.28-.5.32-.83.02-2.53-2.28-5.09-4.52-7.62-6.8-1.37-1.23-2.03-2.78-2.03-5.04.06-1.64.86-3.33,2.72-4.37,1.65-.92,3.31-.82,4.92.16.79.49,1.37,1.21,2.01,1.86.3.31.5.37.81.02.3-.36.66-.67.99-1.01,1.54-1.58,3.37-2.12,5.44-1.28Zm-8.08-2.42c0-2.99,0-5.97,0-8.96,0-.99.47-1.57,1.26-1.57.78,0,1.25.58,1.26,1.57,0,1.47,0,2.93,0,4.4s0,3.04,0,4.56c0,.47-.9,1.46-1.3,1.43-.41-.04-1.22-.98-1.22-1.43Zm5.56-11.03c-.59.14-.93.06-1.33-.49-1.52-2.11-4.56-2.01-6.08.15-.17.24-.25.61-.69.43-.49-.21-1.14.02-1.42-.72-.83-2.22-2.79-3.12-4.98-2.31-.41.15-.63.02-.91-.19-5.66-4.35-8.32-10.08-7.6-17.18.88-8.68,7.39-15.38,15.95-16.71,9.63-1.5,19.04,4.94,21.16,14.47.31,1.38.48,2.78.48,4.2,0,8.72-6.08,16.37-14.56,18.36Z"/>
  <path class="cls-3" d="m88.93,46.52c-.01,13.55-9.2,24.48-21.81,26.63-.6.1-.93.26-.84.97.08.64-.2,1.46.11,1.92.29.43,1.14.04,1.75.09,4.34.36,7.56,4.59,6.91,9.06-.31,2.13-1.22,3.94-2.83,5.37-3.07,2.74-6.15,5.46-9.21,8.21-.38.34-.6.32-.97-.01-2.14-1.93-4.31-3.83-6.45-5.76-.39-.35-.6-.38-1.01-.01-7.41,6.51-18.73,2.73-20.75-6.9-1.65-7.89,4.74-15.29,12.93-14.99.27.01.63.2.8-.11.26-.48.48-1,.61-1.52.05-.2-.31-.31-.5-.44-5.78-4.06-9.47-9.53-10.99-16.44-2.81-12.78,4.76-26.14,17.18-30.33,14.11-4.76,29.01,2.62,33.75,16.72.9,2.68,1.31,5.44,1.32,7.55Zm-7.54.68c0-1.42-.17-2.82-.48-4.2-2.12-9.53-11.54-15.97-21.16-14.47-8.56,1.33-15.07,8.03-15.95,16.71-.72,7.1,1.95,12.84,7.6,17.18.27.21.5.34.91.19,2.19-.81,4.15.09,4.98,2.31.28.75.93.51,1.42.72.44.19.52-.18.69-.43,1.52-2.15,4.56-2.26,6.08-.15.4.56.75.63,1.33.49,8.49-1.99,14.57-9.64,14.56-18.36Zm-15.09,23.49c.11.02.17.04.21.04,13.29-2.05,22.39-15.48,19.37-28.59-2.96-12.84-14.89-20.71-27.88-18.38-10.68,1.91-19.07,11.59-19.34,22.43-.21,8.13,2.93,14.76,9.23,19.89,1.3,1.06,1.27,1.02,1.97-.5.3-.66.24-.99-.36-1.47-6.39-5.11-9.21-11.81-8.11-19.88,1.63-11.98,12.71-20.01,24.61-18.11,13.67,2.18,21.75,16.98,16.1,29.61-2.96,6.62-8.09,10.73-15.17,12.37-.29.07-.65.02-.64.5.02.7,0,1.41,0,2.1Zm-13.83,12.93c0,2.26.66,3.81,2.03,5.04,2.53,2.28,5.09,4.52,7.62,6.8.33.3.52.26.83-.02,2.51-2.26,5.05-4.49,7.57-6.75,1.48-1.32,2.18-3,2.05-4.97-.14-2.19-1.15-3.88-3.22-4.72-2.07-.84-3.9-.3-5.44,1.28-.33.34-.69.65-.99,1.01-.3.36-.51.29-.81-.02-.64-.65-1.22-1.38-2.01-1.86-1.6-.99-3.27-1.09-4.92-.16-1.86,1.04-2.65,2.74-2.72,4.37Zm-6.24-10.02c-.74-.03-1.47.07-2.18.23-4,.9-7.14,4.17-7.76,8.05-.68,4.21,1.14,8.23,4.68,10.37,3.58,2.16,7.98,1.92,11.35-.63q.89-.67.14-1.44c-.18-.19-.39-.36-.52-.59-.29-.49-.52-.55-.99-.13-1.19,1.05-2.64,1.59-4.22,1.71-3.32.24-6.43-1.76-7.59-4.86-1.17-3.09-.19-6.58,2.42-8.61,2.64-2.06,6.25-2.14,9-.18.47.33.9,1.04,1.32,1.01.48-.03.89-.72,1.39-1.04.48-.31.51-.5.09-.91-1.98-1.95-4.36-2.93-7.12-3Zm.21,15.09c1.18-.03,2.41-.56,3.43-1.61.31-.32.43-.62.31-1.11-.36-1.45-.31-2.91.15-4.33.14-.43.07-.73-.19-1.07-1.44-1.83-3.96-2.44-6.07-1.45-2.14,1-3.28,3.35-2.76,5.67.51,2.28,2.54,3.91,5.14,3.91Zm17.36-16.66c0-1.47,0-2.93,0-4.4,0-.99-.47-1.57-1.26-1.57-.78,0-1.25.58-1.26,1.57,0,2.99,0,5.97,0,8.96,0,.45.8,1.39,1.22,1.43.39.04,1.3-.95,1.3-1.43,0-1.52,0-3.04,0-4.56Zm-8.79-5.88c-.05-.71-.37-1.17-1-1.31-.68-.15-1.18.17-1.44.8-.59,1.39-1.17,2.79-1.75,4.19-.24.58-.75,1.24-.62,1.73.15.57,1.11.51,1.63.87.45.31.6.11.77-.3.72-1.79,1.47-3.57,2.21-5.36.09-.22.14-.44.2-.61Zm3.78,8.65s-.01,0-.02,0c0-.18-.03-.37,0-.55.15-.73-.17-1.01-.87-1.09-.7-.08-1.38-.29-2.07-.43-.26-.05-.61-.32-.77.04-.21.48-.79,1.15-.45,1.48.83.78,1.24,2.33,2.9,1.88.39-.11.96.25,1.17-.04.22-.31.09-.85.11-1.29Zm-.02-5.28c0-.31,0-.63,0-.94.01-.25-.1-.36-.34-.44-1.17-.41-1.33-.34-1.79.76q-.56,1.35.87,1.66,1.25.27,1.25-1.04Z"/>
</svg>