<?xml version="1.0" encoding="UTF-8"?>
<svg id="Camada_1" data-name="Camada 1" xmlns="http://www.w3.org/2000/svg" viewBox="0 0 120 120">
  <defs>
    <style>
      .cls-1 {
        fill: #755647;
      }

      .cls-2 {
        fill: #bda189;
      }

      .cls-3 {
        fill: #f1e9dd;
      }
    </style>
  </defs>
  <rect class="cls-2" x="13.11" y="13.11" width="93.78" height="93.78" rx="12" ry="12"/>
  <g>
    <g>
      <path class="cls-3" d="m65.7,74.26c-1.18-.43-2.31-.99-3.33-1.64-.66-.43-1.16-.99-1.46-1.64-1.45-.13-2.83-.05-4.27.49-3.57,1.35-5.49,3.98-6.35,7.6-1.8.18-3.67.41-5.55.54-1.6.1-2.47.73-2.88,2.27-.1.38-.02.79.15,1.17.59-1,1.65-1.69,3.2-1.61,2.51.13,4.95.26,6.86,2.1.83.8,1.42,1.81,1.8,2.9.1.23.16.47.22.71.2,0,.51.11.95.34,2.05-.47,3.89.26,6.18-.81,1.59-.74,4.45-2.45,5.14-4.2.35-.88.48-6.54-.12-7.29-.24-.3-.42-.62-.56-.94Zm-5.81,11.28c-2.72-.1-4.89-2.21-4.78-5.18.08-2.09,1.74-4.61,4.75-4.53,2.96-.03,5.08,2.15,5.06,4.86-.02,2.5-2.13,4.95-5.02,4.85Z"/>
      <path class="cls-3" d="m98.45,71.21c-.3-.12-.59-.25-.89-.36-.32-.12-.65-.21-.97-.3-.14,0-.29,0-.43.03-1.71.18-3.06-1.2-3.55-2.72-.51.04-1.02.11-1.53.24-3.52.87-5.93,2.96-7,6.4.21.31.4.65.53,1.03.52,1.45.41,3.01-.25,4.26,3.4,1.05,6.4,3.72,10.16,2.72.02-.02.03-.04.05-.06.09-.09.18-.18.26-.27-.49.15-1,.26-1.57.25-3.17.02-4.78-2.21-4.86-4.56-.09-2.99,1.91-5.05,4.71-5.14,1.83-.06,3.58,1.02,4.47,2.48.33-.27.71-.5,1.15-.72.11-.06.21-.11.32-.16.16-.07.33-.15.51-.22-.24-.35-.47-.72-.65-1.1-.28-.57-.43-1.18-.46-1.79Z"/>
      <path class="cls-3" d="m102.54,57.67c.36.42,3.57,3.39,3.95,3.8.75-.71-1.22-3.91-.38-4.43-1.65-2.03-4.18-3.9-5.59-5.77-2-2.65-3.76-7.23-6.43-9.21-2.87-2.13-7.3-1.77-10.67-1.77-3.35,0-4.44-3.47-3.32-5.77-.34.03-.67.07-1.01.1-2.42.22-4.83.45-7.25.66-2.16.18-4.31.33-6.47.5-.7.05-1.4.1-2.1.17-2.09.21-4.18.45-6.27.65-1.45.14-2.91.2-4.37.34-2.06.2-4.12.45-6.18.64-1.54.14-3.08.21-4.61.35-.66.06-1.34.13-1.96.33-1.23.39-2.13,1.72-1.97,2.76.16,1.02,1.53,2.06,2.78,2,1.29-.06,2.58-.22,3.88-.32,1.54-.12,3.08-.19,4.61-.34,2.65-.25,5.3-.55,7.96-.81,1.77-.18,3.54-.33,5.32-.5,2.45-.22,4.89-.45,7.34-.66,2.16-.18,4.31-.32,6.47-.5.82-.07,1.63-.19,2.51-.29.17,1.66.36,3.31.51,4.97.14,1.54.21,3.08.34,4.62.2,2.34.44,4.67.65,7.01.12,1.28,1.04,2.84,2.76,2.66.51-.05,1.02-.12,1.53-.16,2.39-.22,4.78-.45,7.17-.66,2.16-.18,4.31-.32,6.47-.51.8-.07,1.59-.27,2.39-.3.66-.02,1.38-.23,1.95.44Zm-17.57-3.98c-.28-3.18-.56-6.36-.85-9.62,1.2-.14,2.28-.27,3.37-.38,1.83-.18,3.66-.35,5.5-.48.23-.02.58.16.71.35.97,1.43,1.9,2.88,2.85,4.32.98,1.48,1.96,2.95,3.02,4.53-4.91.43-9.71.85-14.6,1.27Z"/>
      <path class="cls-3" d="m52.01,50.43c0,1.41-1,2.33-2.43,2.43-2.12.15-4.23.43-6.35.64-1.34.13-2.69.22-4.04.34-2.28.21-4.56.44-6.84.65-1.23.12-2.47.27-3.7.32-.87.04-2.08-1.13-2.35-2.12-.18-.67.52-2.14,1.35-2.46.85-.33,1.78-.54,2.69-.65,1.47-.18,2.97-.22,4.45-.36,2.12-.2,4.23-.43,6.35-.65.7-.07,1.4-.13,2.1-.17,2.09-.12,4.18-.22,6.26-.33,1.57-.09,2.51.8,2.51,2.36Z"/>
      <path class="cls-3" d="m45.38,62.83c-2.36.24-4.72.5-7.08.73-1.4.14-2.8.21-4.2.34-2.17.2-4.34.54-6.51.6-1,.03-2,.49-3.08-.06-.7-.35-1.03-.92-1.14-1.42-.39-1.84.49-2.97,2.24-3.22,1.97-.28,3.98-.34,5.97-.53,2.06-.2,4.12-.45,6.18-.65,1.51-.14,3.02-.22,4.53-.34,1.35-.1,2.69-.22,4.04-.33,1.15-.09,2.51.89,2.57,2.41.05,1.27-1.32,2.54-2.52,2.53-.33,0-.66,0-.99,0,0-.03,0-.05,0-.08Z"/>
      <path class="cls-3" d="m44.1,70.21c0,1.71-1.06,2.68-2.65,2.78-2.2.14-4.39.46-6.6.62-1.65.13-3.32.18-4.98.18-.82,0-1.68-.97-1.77-1.82-.16-1.46.44-2.41,1.9-2.8.97-.26,1.99-.38,2.99-.49,2.3-.25,4.61-.51,6.92-.64,1.21-.07,2.51-.32,3.54.72.44.45.86.87.63,1.45Z"/>
    </g>
    <g>
      <path class="cls-1" d="m110.7,74.15c-.07-1.13-.19-2.25-.3-3.37-.06-.59-.12-1.18-.18-1.77-.03-.35-.06-.7-.08-1.05-.03-.38-.05-.75-.09-1.13l-.15-1.57c-.15-1.65-.31-3.35-.52-5.01-.1-.77-.23-1.63-.62-2.16-.57-.77-1.25-1.46-1.97-2.18-.31-.31-.62-.63-.93-.95-.21-.23-.44-.45-.66-.67-.53-.53-1.08-1.07-1.52-1.71-1.22-1.78-2.38-3.64-3.5-5.44l-.39-.63c-1.23-1.97-2.44-3.95-3.66-5.94l-1.15-1.87c-.39-.64-.88-.94-1.62-.94h0c-.41.02-.82.05-1.23.09-.23.02-.46.04-.69.06l-2.12.16c-1.45.11-2.9.22-4.34.34-.52.04-1.04.11-1.56.18l-1.25.16-.05-.51c-.02-.24-.05-.47-.08-.71-.06-.54-.13-1.09-.15-1.65-.03-1.12-.81-1.91-1.89-1.91-.43,0-.86.05-1.32.1-.19.02-.38.04-.57.06l-2.39.22c-1.62.15-3.25.3-4.87.44-1.43.12-2.87.23-4.3.34l-2.66.2c-.53.04-1.07.08-1.6.13-.83.08-1.65.17-2.47.26-1.26.13-2.53.27-3.79.39-.72.07-1.45.12-2.17.17-.73.05-1.46.1-2.19.17-.99.09-1.97.2-2.96.31-1.08.12-2.15.23-3.23.34-.81.08-1.62.13-2.43.18-.73.05-1.46.1-2.18.16-.58.05-1.26.12-1.86.31-1.06.34-1.74,1.46-1.62,2.2.11.7,1.17,1.58,2.26,1.58h0c.81-.04,1.62-.11,2.42-.19.48-.04.96-.09,1.43-.13.59-.05,1.19-.09,1.78-.12.94-.06,1.88-.12,2.83-.21,1.57-.15,3.13-.31,4.7-.48,1.08-.11,2.17-.23,3.26-.34,1.47-.15,2.95-.28,4.42-.41l2.43-.22c1.94-.18,3.87-.35,5.81-.52,1.12-.09,2.23-.18,3.35-.26,1.04-.08,2.08-.16,3.12-.24.55-.05,1.11-.12,1.68-.19l1.31-.16.21,2c.12,1.16.25,2.32.35,3.48.07.78.12,1.57.17,2.35.05.75.1,1.51.17,2.26.12,1.36.25,2.71.38,4.07.09.98.19,1.96.28,2.94.08.89.68,2.22,2,2.22.07,0,.14,0,.21-.01l.6-.07c.31-.03.62-.07.93-.1l1.78-.17c1.8-.17,3.59-.34,5.39-.49,1.07-.09,2.14-.17,3.21-.25,1.09-.08,2.18-.16,3.26-.25.34-.03.67-.08,1.01-.14.46-.07.93-.15,1.41-.17.11,0,.22-.01.33-.02.17-.01.34-.03.51-.03.41,0,1.01.07,1.52.67.69.8,1.42,1.59,2.14,2.35.33.36.67.72,1.06,1.14.13.13.33.33.35.62.05.51.08,1.02.11,1.54.02.36.04.71.07,1.07.1,1.37.21,2.75.33,4.12.14,1.6.3,3.19.46,4.79l.03.28c.03.26.03.63-.22.93-.26.3-.66.36-.93.37-.59.03-1.17.09-1.76.15-.51.05-1.02.11-1.58.14-.37,0-.89-.25-1.06-.63-1.18-2.63-2.83-4.28-5.18-5.18-1.21-.47-2.35-.69-3.5-.69-.68,0-1.38.08-2.05.25-3.61.89-5.9,3.1-6.81,6.55-.17.67-.55,1.56-1.75,1.56-.08,0-.17,0-.36-.02-.18,0-.37.04-.55.07-.18.03-.36.06-.54.08l-3.26.26c-1.66.13-3.32.26-4.98.41-.35.03-.7.08-1.05.13-.5.07-1.01.15-1.53.17-.09,0-.18.02-.28.04-.17.03-.34.05-.51.05-.6,0-1-.33-1.14-.92-.36-1.56-1.48-2.61-2.62-3.52-1.37-1.08-2.56-1.65-3.89-1.84-.83-.12-1.52-.18-2.15-.18-1.07,0-2.04.17-2.95.52-3.24,1.23-5.16,3.53-6.04,7.25l-.08.35s-1.42.15-1.96.2c-1.29.14-2.62.28-3.96.37-1.43.09-2.08.61-2.43,1.9-.1.37.04.84.37,1.27.38.49.92.81,1.39.81.04,0,.07,0,.11,0,1.54-.17,3.08-.31,4.64-.46l2.37-.22.11.41c.57,2.16,2.65,4.13,4.33,5.04,1.32.71,2.73,1.06,4.32,1.06.38,0,.76-.02,1.15-.06,1.17-.12,2.32-.5,3.44-1.15,2.39-1.38,3.91-3.44,4.53-6.13.1-.44.6-.9,1.05-.96.59-.08,1.18-.11,1.75-.14.29-.01.58-.03.87-.05,1.37-.1,2.74-.21,4.12-.33,1.7-.15,3.41-.3,5.1-.46l2.42-.22.14.33c.9,2.12,2.08,3.63,3.62,4.62,1.47.95,2.84,1.42,4.17,1.43h.62c.52,0,1.07-.01,1.6-.11l.53-.1c.89-.16,1.81-.33,2.5-.75,2.59-1.55,4.21-3.68,4.8-6.35.07-.32.41-.81.85-.85.44-.04.88-.09,1.33-.14,1.5-.16,3.06-.33,4.61-.35.96-.02,1.63-.24,2.04-.68.43-.47.6-1.24.53-2.36Zm-27.27-20.9l-.89-10.6,1.54-.19c.74-.09,1.44-.18,2.15-.25,1.67-.17,3.44-.34,5.25-.48h0c.45,0,.92.26,1.13.58.61.93,1.19,1.88,1.78,2.83.31.5.62,1,.93,1.5.63,1,1.27,2,1.93,3.04l1.38,2.18-15.21,1.39Zm-24.41,31.82h-.19c-1.5-.06-2.86-.66-3.84-1.71-.97-1.05-1.48-2.46-1.42-3.99.09-2.46,2.03-5.01,5.1-5.01h.17c1.6,0,3.01.57,4.03,1.6.99.99,1.52,2.33,1.51,3.77-.02,2.58-2.18,5.35-5.35,5.35Zm37.01-4.63c-.99.99-2.28,1.51-3.75,1.51h-.06c-3.58,0-5.28-2.62-5.35-5.05-.1-3.18,2.08-5.56,5.19-5.66h.16c2.84,0,5.44,2.37,5.45,4.98,0,1.65-.58,3.15-1.64,4.22Z"/>
      <path class="cls-1" d="m27.57,53.33c-.61,0-1.61-.97-1.83-1.76-.11-.41.44-1.63,1.05-1.87.77-.3,1.63-.51,2.57-.62.85-.1,1.74-.16,2.59-.22.62-.04,1.23-.08,1.84-.14,1.3-.12,2.59-.26,3.89-.39.82-.09,1.64-.17,2.46-.25.69-.07,1.38-.13,2.08-.17,1.07-.06,5.25-.28,6.26-.33.06,0,.12,0,.18,0,1.16,0,1.8.66,1.8,1.87,0,1.1-.75,1.85-1.97,1.93-1.35.1-2.71.25-4.02.39-.78.09-1.56.17-2.34.25-.73.07-1.46.13-2.18.19-.62.05-1.23.1-1.85.15-1.31.12-2.62.25-3.93.37l-3.85.37c-.9.09-1.83.19-2.74.22h-.02Z"/>
      <path class="cls-1" d="m24.65,63.23c-.36,0-.66-.07-.95-.21-.62-.31-.81-.81-.87-1.08-.16-.75-.09-1.35.22-1.79.3-.44.86-.72,1.6-.83,1.23-.18,2.5-.26,3.72-.35.74-.05,1.48-.1,2.22-.17,1.02-.1,2.04-.21,3.06-.32,1.04-.11,2.08-.23,3.12-.33.95-.09,1.9-.15,2.86-.22.55-.04,1.11-.08,1.66-.12,1.02-.08,2.04-.16,3.07-.25l.97-.08h.11c.88,0,1.87.77,1.92,1.94.02.42-.19.9-.58,1.3-.42.44-.97.71-1.44.71h-.55s0-.05,0-.05l-.5-.03-2.06.22c-1.67.18-3.34.35-5.01.51-.72.07-1.43.12-2.15.18-.68.05-1.37.1-2.05.17-.71.07-1.42.15-2.13.23-1.43.16-2.9.33-4.34.37-.32,0-.64.06-.96.11-.33.05-.63.1-.94.1Z"/>
      <path class="cls-1" d="m28.83,72.31c-.52,0-1.2-.73-1.27-1.37-.13-1.25.34-1.95,1.53-2.26.95-.25,1.96-.37,2.92-.47l.71-.08c2.03-.22,4.13-.44,6.19-.56l.45-.03c.3-.02.6-.05.9-.05.82,0,1.36.19,1.8.65.48.49.62.68.52.92l-.03.09v.09c0,1.38-.78,2.19-2.18,2.28-1.2.08-2.42.21-3.59.33-1,.11-2.01.21-3.01.29-1.52.12-3.13.17-4.94.18h0Z"/>
    </g>
  </g>
</svg>