<?xml version="1.0" encoding="UTF-8"?>
<svg id="Camada_1" data-name="Camada 1" xmlns="http://www.w3.org/2000/svg" viewBox="0 0 240 120">
  <defs>
    <style>
      .cls-1 {
        fill: #bda189;
      }

      .cls-1, .cls-2, .cls-3 {
        stroke-width: 0px;
      }

      .cls-2 {
        fill: #f2eade;
      }

      .cls-3 {
        fill: #745646;
      }
    </style>
  </defs>
  <rect class="cls-1" x="14.88" y="13.11" width="93.78" height="93.78" rx="12" ry="12"/>
  <g>
    <path class="cls-3" d="m121.48,66.69v-10.56c0-.68-.22-1.38-.54-1.72h7.22c2.56,0,4.46,1.5,4.46,3.46,0,1.64-1.34,2.8-3.52,3.28,2.42.42,4.12,1.66,4.12,3.6,0,2.14-2,3.66-4.46,3.66h-7.82c.32-.34.54-1.04.54-1.72Zm3.06-11.88v6.2h2.08c1.72,0,2.86-.96,2.86-3.04,0-1.96-1.02-3.16-2.56-3.16h-2.38Zm2.68,6.6h-2.68v6.6h2.98c1.54,0,2.56-1.24,2.56-3.3,0-2.84-1.86-3.3-2.86-3.3Z"/>
    <path class="cls-3" d="m134.56,63.41c0-2.96,2.34-5.2,5.46-5.2s5.46,2.24,5.46,5.2-2.34,5.2-5.46,5.2-5.46-2.24-5.46-5.2Zm7.78,0c0-3-.9-4.8-2.32-4.8s-2.32,1.8-2.32,4.8.88,4.8,2.32,4.8,2.32-1.8,2.32-4.8Z"/>
    <path class="cls-3" d="m147.36,66.69v-10.5c0-.68-.22-1.38-.54-1.72l3.6-.66v12.88c0,.68.2,1.38.52,1.72h-4.12c.32-.34.54-1.04.54-1.72Z"/>
    <path class="cls-3" d="m152.4,66.43c0-.72.54-1.24,1.28-1.24s1.2.5,1.2,1.22c-.54,0-.9.28-.9.68,0,.64.92,1.08,2.28,1.08,1.48,0,2.42-.52,2.42-1.38s-.98-1.32-2.54-2.04c-1.32-.58-3.64-1.4-3.64-3.52,0-1.84,1.76-3.02,4.34-3.02,2,0,3.6.7,3.6,1.98,0,.68-.48,1.22-1.2,1.22s-1.26-.52-1.26-1.22c.52,0,.82-.26.82-.64,0-.56-.72-.9-1.82-.9-1.38,0-2.3.54-2.3,1.4s1.02,1.34,2.54,2c1.54.66,3.64,1.42,3.64,3.48,0,1.82-1.6,3.08-4.38,3.08-2.3,0-4.08-.86-4.08-2.18Z"/>
    <path class="cls-3" d="m162.1,65.83c0-1.76,1.68-2.94,4.12-2.94,1.12,0,2.28.26,2.84.64v-2.42c0-1.46-.94-2.4-2.5-2.4-1.02,0-1.72.4-1.72,1.04,0,.5.42.86,1.04.86,0,.84-.6,1.48-1.48,1.48s-1.52-.6-1.52-1.48c0-1.42,1.74-2.4,4.3-2.4,2.94,0,4.94,1.6,4.94,3.7v4.78c0,.68.22,1.38.54,1.72h-3.4c-.12-.3-.2-.88-.2-1.4-.74.96-2.12,1.6-3.58,1.6-1.96,0-3.38-1.18-3.38-2.78Zm4.92,1.76c.8,0,1.58-.44,2.04-1.16v-2.46c-.36-.3-.98-.48-1.66-.48-1.34,0-2.16.78-2.16,2.08,0,1.2.68,2.02,1.78,2.02Z"/>
    <path class="cls-3" d="m173.94,66.43c0-.72.54-1.24,1.28-1.24s1.2.5,1.2,1.22c-.54,0-.9.28-.9.68,0,.64.92,1.08,2.28,1.08,1.48,0,2.42-.52,2.42-1.38s-.98-1.32-2.54-2.04c-1.32-.58-3.64-1.4-3.64-3.52,0-1.84,1.76-3.02,4.34-3.02,2,0,3.6.7,3.6,1.98,0,.68-.48,1.22-1.2,1.22s-1.26-.52-1.26-1.22c.52,0,.82-.26.82-.64,0-.56-.72-.9-1.82-.9-1.38,0-2.3.54-2.3,1.4s1.02,1.34,2.54,2c1.54.66,3.64,1.42,3.64,3.48,0,1.82-1.6,3.08-4.38,3.08-2.3,0-4.08-.86-4.08-2.18Z"/>
  </g>
  <g>
    <path class="cls-2" d="m87.95,65.09c.07-1.64.21-3.28.24-4.92.06-3.08-.34-5.99-2.64-8.22-1.02-.99-.86-2.22-.19-3.09-.14-.04-.26-.09-.4-.13-.53-.12-1.24-.11-1.52-.44,0,0,0-.02-.01-.03-.47.03-.96-.05-1.39-.27-.86-.45-1.16-1.15-1.45-2-.26-.76-.03-1.52.44-2.1h0c0-.3-.03-.6-.06-.9,0,0,0-.01,0-.02,0-.02,0-.04-.02-.07-.03-.15-.06-.31-.09-.46-.14-.67-.33-1.33-.55-1.97-.06-.16-.11-.31-.17-.47-.02-.04-.06-.14-.09-.21-.11-.26-.23-.52-.36-.78-.31-.63-.66-1.24-1.04-1.84-.2-.3-.41-.6-.62-.89-.01-.02-.01-.02-.02-.03,0,0,0,0-.01-.01-.1-.12-.2-.25-.31-.37-.42-.49-.87-.95-1.35-1.37-.11-.09-.22-.18-.33-.28.08.07.13.11.17.14-.05-.04-.11-.09-.15-.12-.25-.16-.5-.32-.76-.47-1.03-.57-1.38-1.8-1.06-2.86-.19-.07-.37-.16-.56-.22-.14-.05-.27-.13-.41-.2-.83-.19-1.66-.39-2.49-.58-.79-.03-1.58-.09-2.37-.09-6.68.03-12.71,4.7-14.4,11.18-.11.43-.26.5-.67.4-.79-.2-1.57-.44-2.39-.49-2.85-.18-5.08.9-6.59,3.32-2.44,3.91-4.63,7.96-6.6,12.13-2.63,5.59-4.71,11.38-6.4,17.32-.07.26-.12.51-.17.77,1.05,1.05,2.01,2.2,2.93,3.37.62.79,1.22,1.58,1.82,2.38,3.3,1.04,6.69,1.91,10,2.87,4.31,1.26,8.73,2.03,13.14,2.83,4.22.76,8.39,1.68,12.56,2.68.45.11.91.22,1.36.32,3.62-.14,7.18.64,10.72,1.3,1.92-2.04,1.61-5.76,1.89-8.34.42-3.88,2.11-7.55,2.37-11.43.12-1.77-.07-3.56,0-5.34Zm-29.45-23.09c1.59-5.73,8.05-9.01,13.64-6.91,4.75,1.79,7.51,6.45,6.79,11.43q-.11.78-.88.6c-3.15-.73-6.3-1.46-9.46-2.2-3.23-.75-6.45-1.51-9.69-2.24-.46-.1-.52-.26-.41-.69Zm-7.59,3.61c3.08.71,6.16,1.43,9.23,2.14,2.44.57,4.87,1.13,7.31,1.7,5.44,1.26,10.88,2.53,16.31,3.79.98.23.98.23.48,1.08-1.9,3.26-4.23,6.14-7.25,8.45-7.62,5.84-18.71,3.23-23.24-4.92-2.07-3.71-3.03-7.72-3.37-11.92-.05-.57.27-.38.52-.32Zm34.7,34.31c-.24,2.31-.56,4.62-.98,6.91-.29,1.57-1.48,2.34-3.03,1.99-14.7-3.41-29.39-6.82-44.08-10.24-1.54-.36-2.26-1.56-1.84-3.12,2.18-8.14,5.33-15.9,9.39-23.28.35-.64.71-1.27,1.14-2.04.38,2.03.85,3.86,1.49,5.65,1.67,4.62,4.29,8.53,8.43,11.32,1.27.86,2.63,1.57,4.08,2.08.39.14.53.3.41.75-.27.99-.46,2-.72,3-.09.35,0,.47.34.55,1.21.26,2.42.54,3.63.84.36.09.51.03.59-.35.2-.97.47-1.92.65-2.89.09-.52.31-.62.8-.58,3.7.37,7.21-.3,10.54-1.95,3.71-1.84,6.63-4.6,9.14-7.85.13-.17.26-.33.48-.6.04,1.47.08,2.82.11,4.17.11,5.23-.03,10.46-.57,15.66Z"/>
    <path class="cls-3" d="m88.15,85.25l-.47,2.04c-.12.06-.14.18-.18.28-1.37,3.11-4.66,4.8-7.98,4.03-14.83-3.43-29.66-6.88-44.48-10.33-1.63-.38-2.96-1.25-3.95-2.59-1.55-2.08-1.68-4.35-.98-6.79,1.7-5.94,3.77-11.73,6.4-17.32,1.97-4.17,4.16-8.22,6.6-12.13,1.51-2.41,3.74-3.5,6.59-3.32.82.05,1.6.29,2.39.49.41.1.55.04.67-.4,1.7-6.48,7.72-11.16,14.4-11.18.79,0,1.58.06,2.37.09.83.19,1.66.39,2.49.58.14.07.27.15.41.2,6.61,2.31,10.82,9.13,9.94,16.06-.07.53-.43,1.2-.14,1.55.28.34.99.32,1.52.44,3.25.77,5.39,3.33,5.54,6.68.12,2.71.24,5.41.31,8.12.17,6.75-.05,13.48-.98,20.17-.16,1.11-.3,2.22-.45,3.33Zm-43.16-36.9c-.43.77-.79,1.4-1.14,2.04-4.07,7.38-7.21,15.14-9.39,23.28-.42,1.56.29,2.76,1.84,3.12,14.69,3.42,29.39,6.83,44.08,10.24,1.54.36,2.74-.42,3.03-1.99.42-2.29.74-4.59.98-6.91.54-5.21.68-10.43.57-15.66-.03-1.35-.07-2.7-.11-4.17-.21.27-.35.43-.48.6-2.5,3.25-5.43,6-9.14,7.85-3.32,1.65-6.84,2.33-10.54,1.95-.49-.05-.71.06-.8.58-.17.97-.45,1.93-.65,2.89-.08.39-.23.44-.59.35-1.2-.3-2.41-.58-3.63-.84-.35-.07-.43-.19-.34-.55.26-1,.45-2.01.72-3,.12-.45-.02-.61-.41-.75-1.45-.51-2.81-1.22-4.08-2.08-4.13-2.78-6.75-6.7-8.43-11.32-.65-1.78-1.11-3.62-1.49-5.65Zm21.23-.69c-2.44-.57-4.87-1.13-7.31-1.7-3.08-.71-6.15-1.43-9.23-2.14-.26-.06-.57-.25-.52.32.34,4.2,1.3,8.21,3.37,11.92,4.54,8.15,15.63,10.76,23.24,4.92,3.02-2.31,5.34-5.2,7.25-8.45.5-.85.5-.85-.48-1.08-5.44-1.26-10.88-2.53-16.31-3.79Zm1.14-4.51c3.15.73,6.3,1.46,9.46,2.2q.77.18.88-.6c.73-4.99-2.04-9.65-6.79-11.43-5.59-2.1-12.05,1.18-13.64,6.91-.12.43-.06.59.41.69,3.23.73,6.46,1.49,9.69,2.24Z"/>
  </g>
</svg>