<?xml version="1.0" encoding="UTF-8"?>
<svg id="Camada_1" data-name="Camada 1" xmlns="http://www.w3.org/2000/svg" viewBox="0 0 240 120">
  <defs>
    <style>
      .cls-1 {
        fill: #bda189;
      }

      .cls-1, .cls-2, .cls-3, .cls-4 {
        stroke-width: 0px;
      }

      .cls-2 {
        fill: #f1e9dd;
      }

      .cls-3 {
        fill: #755647;
      }

      .cls-4 {
        fill: #745646;
      }
    </style>
  </defs>
  <g>
    <rect class="cls-1" x="14.79" y="13.11" width="93.78" height="93.78" rx="12" ry="12"/>
    <g>
      <g>
        <path class="cls-2" d="m40.56,84.28c5.88,5.63,15.26,5.04,22.86,5.6,4.35.32,8.72.56,13.05,1.09,2.78.34,7.82,1.98,10.19.28-.03-.35-.02-.71.06-1.09.49-2.31.26-4.61.16-6.9-.16.75-.33.69-1.43.5-1.2-.21-2.42-.3-3.63-.46-1.23-.16-2.45-.35-3.68-.52-1.18-.16-2.37-.3-3.55-.46-1.27-.17-2.54-.37-3.81-.54-1.21-.16-2.42-.29-3.63-.45-1.23-.16-2.45-.35-3.68-.52-1.21-.16-2.42-.31-3.62-.47-1.27-.18-2.54-.38-3.81-.55-1.19-.16-2.38-.28-3.56-.44-1.25-.17-2.49-.37-3.74-.54-1.23-.16-2.47-.29-3.7-.45-.67-.09-1.32-.21-1.99-.32.16-1.14.28-2.06.41-2.99.18-1.27.36-2.54.53-3.82.16-1.21.33-2.41.45-3.63.14-1.4.6-2.61,1.9-3.33.75-.42,1.57-.39,2.38-.3,1.27.15,2.54.36,3.81.55,1.59.23,3.17.48,4.76.7,1.23.17,2.47.27,3.7.44,1.59.21,3.17.48,4.76.69,1.55.21,3.11.37,4.65.58,1.59.21,3.18.46,4.77.68,1.57.21,3.15.39,4.72.59,2.12.28,4.26.44,6.34.89,1.09.24,1.97,1.15,2.1,2.35.1.91-.05,1.85-.16,2.77-.1.88-.23,1.75-.35,2.62.94-2.01,2.51-5.14,1.75-6.08-1.23-1.51-1.07-3.28-.27-4.61-.25-.17-.51-.33-.79-.48-.51-.27-1.08-.47-1.65-.57-1.2-.2-2.42-.3-3.63-.46-1.61-.22-3.22-.47-4.84-.68-1.21-.16-2.42-.28-3.63-.44-1.25-.17-2.49-.37-3.74-.54-1.21-.16-2.42-.29-3.63-.46-1.23-.17-2.45-.36-3.68-.53-1.23-.17-2.46-.31-3.69-.47-1.57-.21-3.13-.45-4.7-.66-1.21-.16-2.42-.31-3.62-.47-1.34-.18-2.69-.37-4.22-.59-.81.21-1.85.3-2.73.73-1.84.9-3.1,2.35-3.77,4.37-.57,1.7-.62,3.46-.9,5.2-.19,1.18-.31,2.37-.47,3.55-.17,1.23-.36,2.45-.52,3.68-.16,1.21-.24,2.43-.46,3.63-.14.77-.23,1.53-.21,2.29.73.08,1.47.4,2.14,1.04Zm1.98-2.21c14.57,1.96,29.14,3.92,43.69,5.87.13,2.82-2.07,3.81-4.28,3.51-1.2-.16-2.4-.36-3.6-.53-1.63-.24-3.27-.48-4.9-.69-1.23-.16-2.47-.28-3.7-.44-1.2-.16-2.4-.36-3.6-.53-1.16-.16-2.32-.3-3.48-.46-1.3-.18-2.59-.37-3.88-.54-1.18-.16-2.37-.29-3.56-.45-1.27-.17-2.54-.38-3.81-.55-1.21-.16-2.42-.29-3.63-.43-.87-.11-1.75-.16-2.6-.35-2.01-.44-3.11-2.45-2.63-4.41Z"/>
        <path class="cls-2" d="m79.33,40.3c-1.78-2.35-3.6-4.69-5.36-7.05-.8-1.07-1.67-2.1-2.82-2.72-1.37-.74-2.9-1.1-4.51-.89-1.2.16-2.31.52-3.28,1.24-1.05.78-2.07,1.6-3.11,2.39-1.93,1.47-3.87,2.92-5.8,4.4-2.64,2.02-5.27,4.05-7.91,6.06-2.29,1.75-4.61,3.47-6.9,5.22-2.1,1.6-4.14,3.27-6.28,4.81-1.61,1.16-2.64,2.73-2.97,4.58-.31,1.81-.09,3.68,1.08,5.26.51.68,1.03,1.36,1.54,2.04.57-.97,1.59-1.68,3.07-1.68.23,0,.43.03.63.06-.61-.79-1.22-1.57-1.82-2.37-.96-1.26-.57-3.77.71-4.72.75-.56,1.5-1.12,2.25-1.69,2.27-1.74,4.54-3.5,6.81-5.24,1.64-1.25,3.31-2.45,4.94-3.7,2.73-2.09,5.43-4.22,8.17-6.31,2.49-1.91,4.99-3.8,7.51-5.67,1.3-.97,3.37-1.06,4.5.24.68.78,1.31,1.6,1.94,2.42,1.35,1.76,2.69,3.54,4.06,5.34-1.14.86-2.29,1.69-3.4,2.58-1.45,1.15-2.87,2.35-4.31,3.52-.98.79-1.99,1.55-2.98,2.34-1.37,1.09-2.71,2.21-4.08,3.3-.98.79-2.03,1.51-2.97,2.35-1.21,1.08-.76,2.65.25,3.23.75.43,1.82.33,2.56-.28,1.61-1.32,3.19-2.65,4.82-3.95,1.67-1.33,3.38-2.61,5.05-3.94,2.38-1.89,4.75-3.79,7.11-5.7.29-.24.46-.23.68.07.39.54.79,1.07,1.21,1.58.09-.22.18-.43.25-.65.42-1.35,1.34-2.12,2.4-2.44-1.03-1.33-2.01-2.69-3.02-4.03Z"/>
      </g>
      <g>
        <path class="cls-3" d="m46.54,58.45c1.54.22,2.88.41,4.22.59,1.21.16,2.42.3,3.62.47,1.57.21,3.13.45,4.7.66,1.23.17,2.46.3,3.69.47,1.23.17,2.45.36,3.68.53,1.21.16,2.42.29,3.63.46,1.25.17,2.49.38,3.74.54,1.21.16,2.42.28,3.63.44,1.61.22,3.22.47,4.84.68,1.21.16,2.43.26,3.63.46.57.09,1.14.3,1.65.57,2.13,1.12,3.43,2.91,3.86,5.25.18.95.03,1.98-.08,2.96-.13,1.25-.36,2.49-.54,3.74-.19,1.27-.38,2.54-.55,3.81-.16,1.21-.27,2.42-.44,3.63-.26,1.86-.43,3.74-.89,5.55-.41,1.59-1.54,2.79-2.93,3.7-1.06.7-2.24,1.15-3.48,1.23-1.07.06-2.15-.15-3.23-.28-.89-.1-1.77-.26-2.65-.39-1.61-.23-3.22-.46-4.84-.68-1.21-.16-2.42-.29-3.63-.45-1.61-.22-3.23-.46-4.84-.68-1.21-.16-2.42-.29-3.63-.45-1.23-.16-2.45-.35-3.68-.52-1.18-.16-2.37-.31-3.55-.47-1.27-.17-2.54-.36-3.82-.53-1.21-.16-2.42-.29-3.63-.46-.88-.12-1.83-.11-2.63-.46-2.13-.91-3.74-2.43-4.54-4.67-.53-1.49-.48-3.02-.19-4.56.22-1.2.3-2.42.46-3.63.16-1.23.35-2.45.52-3.68.16-1.18.28-2.37.47-3.55.28-1.74.33-3.5.9-5.2.67-2.01,1.93-3.46,3.77-4.37.88-.43,1.92-.53,2.73-.73Zm-4.43,18.24c.66.11,1.32.23,1.99.32,1.23.16,2.47.28,3.7.45,1.25.17,2.49.37,3.74.54,1.19.16,2.38.28,3.56.44,1.27.17,2.54.38,3.81.55,1.21.17,2.42.31,3.62.47,1.23.17,2.45.35,3.68.52,1.21.16,2.42.29,3.63.45,1.27.17,2.54.36,3.81.54,1.18.16,2.37.3,3.55.46,1.23.17,2.45.36,3.68.52,1.21.16,2.43.24,3.63.46,1.26.22,1.31.27,1.5-.9.27-1.63.48-3.27.71-4.9.18-1.25.38-2.5.52-3.75.1-.92.26-1.86.16-2.77-.14-1.2-1.02-2.12-2.1-2.35-2.08-.45-4.22-.62-6.34-.89-1.57-.2-3.15-.38-4.72-.59-1.59-.21-3.18-.47-4.77-.68-1.55-.21-3.11-.37-4.65-.58-1.59-.21-3.17-.48-4.76-.69-1.23-.17-2.47-.27-3.7-.44-1.59-.21-3.18-.46-4.76-.7-1.27-.19-2.54-.4-3.81-.55-.81-.1-1.63-.12-2.38.3-1.3.73-1.76,1.93-1.9,3.33-.12,1.21-.29,2.42-.45,3.63-.17,1.27-.36,2.54-.53,3.82-.13.93-.26,1.86-.41,2.99Zm-.51,4.04c-.48,1.96.63,3.98,2.63,4.41.85.18,1.73.24,2.6.35,1.21.15,2.42.27,3.63.43,1.27.17,2.54.38,3.81.55,1.18.16,2.37.29,3.56.45,1.3.17,2.59.37,3.88.54,1.16.16,2.32.3,3.48.46,1.2.17,2.4.37,3.61.53,1.23.16,2.47.28,3.7.44,1.64.22,3.27.46,4.9.69,1.2.17,2.4.37,3.6.53,2.21.29,4.41-.69,4.28-3.51-14.55-1.96-29.12-3.91-43.69-5.87Z"/>
        <path class="cls-3" d="m74.82,40.97c-1.36-1.8-2.7-3.57-4.06-5.34-.63-.82-1.26-1.64-1.94-2.42-1.13-1.3-3.2-1.21-4.5-.24-2.51,1.88-5.02,3.77-7.51,5.67-2.73,2.09-5.43,4.22-8.17,6.31-1.63,1.25-3.3,2.45-4.94,3.7-2.28,1.74-4.54,3.49-6.81,5.24-.74.57-1.49,1.13-2.25,1.69-1.28.95-1.67,3.46-.71,4.72,1.25,1.64,2.5,3.28,3.78,4.9.52.66.5,1.84-.03,2.38-.69.7-1.88,1.19-2.57.53-.57-.55-1.05-1.19-1.53-1.82-1.03-1.34-2.06-2.69-3.06-4.05-1.17-1.58-1.39-3.46-1.08-5.26.32-1.85,1.35-3.42,2.97-4.58,2.14-1.54,4.18-3.21,6.28-4.81,2.29-1.75,4.61-3.47,6.9-5.22,2.64-2.01,5.27-4.05,7.91-6.06,1.93-1.47,3.87-2.93,5.8-4.4,1.04-.79,2.06-1.61,3.11-2.39.97-.72,2.08-1.09,3.28-1.24,1.61-.21,3.14.15,4.51.89,1.15.62,2.03,1.65,2.82,2.72,1.77,2.37,3.58,4.7,5.36,7.05,1.24,1.64,2.42,3.34,3.71,4.93,1.05,1.29,1.57,2.76,1.57,4.35,0,1.49-.4,2.93-1.25,4.25-.83,1.31-2.09,2.1-3.24,3.02-1.89,1.51-3.88,2.91-5.78,4.42-.9.71-2.99.62-3.38-.93-.24-.96.15-1.75,1.29-2.61,2.37-1.78,4.72-3.57,7.05-5.4,1.5-1.18,1.7-3.32.48-4.8-.45-.55-.88-1.12-1.3-1.69-.22-.3-.39-.31-.68-.07-2.36,1.91-4.73,3.82-7.11,5.7-1.67,1.33-3.38,2.61-5.05,3.94-1.62,1.3-3.21,2.64-4.82,3.95-.74.6-1.81.71-2.56.28-1.01-.58-1.45-2.15-.25-3.23.94-.84,1.98-1.56,2.97-2.35,1.37-1.09,2.71-2.21,4.08-3.3.99-.79,1.99-1.55,2.98-2.34,1.44-1.17,2.86-2.37,4.31-3.52,1.11-.88,2.27-1.72,3.4-2.58Z"/>
      </g>
    </g>
  </g>
  <g>
    <path class="cls-4" d="m121.48,42.58v-10.56c0-.68-.22-1.38-.54-1.72h6.9c2.98,0,5.26,1.86,5.26,4.36s-2.28,4.36-5.26,4.36h-3.3v3.56c0,.68.28,1.38.72,1.72h-4.32c.32-.34.54-1.04.54-1.72Zm3.06-11.88v7.92h2.46c1.8,0,2.96-1.58,2.96-3.96s-1.16-3.96-2.96-3.96h-2.46Z"/>
    <path class="cls-4" d="m133.44,41.72c0-1.76,1.68-2.94,4.12-2.94,1.12,0,2.28.26,2.84.64v-2.42c0-1.46-.94-2.4-2.5-2.4-1.02,0-1.72.4-1.72,1.04,0,.5.42.86,1.04.86,0,.84-.6,1.48-1.48,1.48s-1.52-.6-1.52-1.48c0-1.42,1.74-2.4,4.3-2.4,2.94,0,4.94,1.6,4.94,3.7v4.78c0,.68.22,1.38.54,1.72h-3.4c-.12-.3-.2-.88-.2-1.4-.74.96-2.12,1.6-3.58,1.6-1.96,0-3.38-1.18-3.38-2.78Zm4.92,1.76c.8,0,1.58-.44,2.04-1.16v-2.46c-.36-.3-.98-.48-1.66-.48-1.34,0-2.16.78-2.16,2.08,0,1.2.68,2.02,1.78,2.02Z"/>
    <path class="cls-4" d="m145.86,42.58v-6c0-.68-.22-1.38-.54-1.72l3.6-.66v1.82c.54-1.18,1.54-1.92,2.76-1.92,1.34,0,2.28.88,2.28,2.06,0,.94-.6,1.58-1.5,1.58s-1.56-.66-1.56-1.52c.8,0,1.3-.34,1.3-.86,0-.4-.3-.62-.82-.62-1.08,0-2.04.88-2.46,2.18v5.66c0,.68.28,1.38.7,1.72h-4.3c.32-.34.54-1.04.54-1.72Z"/>
    <path class="cls-4" d="m154.34,39.29c0-2.96,2.38-5.2,5.52-5.2,2.24,0,3.94,1.18,3.94,2.7,0,.92-.62,1.54-1.48,1.54s-1.52-.64-1.52-1.48c.9,0,1.5-.42,1.5-1.08s-.62-1.04-1.58-1.04c-1.98,0-3.24,1.7-3.24,4.54s1.28,4.56,3.32,4.56c1.16,0,2.18-.56,2.64-1.38l.42.26c-.56,1.02-2.12,1.78-3.98,1.78-3.22,0-5.54-2.3-5.54-5.2Z"/>
    <path class="cls-4" d="m164.78,39.27c0-2.98,2.36-5.18,5.34-5.18s4.94,2.1,4.94,4.86h-7.14c0,3.32,1.3,4.9,3.46,4.9,1.06,0,1.92-.4,1.92-1.1,0-.58-.58-1-1.38-1,0-.82.66-1.48,1.54-1.48s1.46.68,1.46,1.52c0,1.52-1.92,2.7-4.4,2.7-3.36,0-5.74-2.24-5.74-5.22Zm3.14-.72h4.26c-.06-2.54-.82-4.06-2.06-4.06s-2.12,1.7-2.2,4.06Z"/>
    <path class="cls-4" d="m176.94,42.58v-10.5c0-.68-.22-1.38-.54-1.72l3.6-.66v12.88c0,.68.2,1.38.52,1.72h-4.12c.32-.34.54-1.04.54-1.72Z"/>
    <path class="cls-4" d="m181.88,39.27c0-2.98,2.36-5.18,5.34-5.18s4.94,2.1,4.94,4.86h-7.14c0,3.32,1.3,4.9,3.46,4.9,1.06,0,1.92-.4,1.92-1.1,0-.58-.58-1-1.38-1,0-.82.66-1.48,1.54-1.48s1.46.68,1.46,1.52c0,1.52-1.92,2.7-4.4,2.7-3.36,0-5.74-2.24-5.74-5.22Zm3.14-.72h4.26c-.06-2.54-.82-4.06-2.06-4.06s-2.12,1.7-2.2,4.06Z"/>
    <path class="cls-4" d="m120.7,66.32c0-.72.54-1.24,1.28-1.24s1.2.5,1.2,1.22c-.54,0-.9.28-.9.68,0,.64.92,1.08,2.28,1.08,1.48,0,2.42-.52,2.42-1.38s-.98-1.32-2.54-2.04c-1.32-.58-3.64-1.4-3.64-3.52,0-1.84,1.76-3.02,4.34-3.02,2,0,3.6.7,3.6,1.98,0,.68-.48,1.22-1.2,1.22s-1.26-.52-1.26-1.22c.52,0,.82-.26.82-.64,0-.56-.72-.9-1.82-.9-1.38,0-2.3.54-2.3,1.4s1.02,1.34,2.54,2c1.54.66,3.64,1.42,3.64,3.48,0,1.82-1.6,3.08-4.38,3.08-2.3,0-4.08-.86-4.08-2.18Z"/>
    <path class="cls-4" d="m130.78,65.17v-4.6c0-.68-.22-1.38-.52-1.72l3.58-.66v7.7c0,.92.64,1.62,1.54,1.62s1.76-.72,2.22-1.78v-5.16c0-.68-.22-1.38-.54-1.72l3.6-.66v8.38c0,.68.2,1.38.52,1.72h-3.38c-.12-.34-.2-1.02-.2-1.72-.7,1.14-2,1.92-3.42,1.92-1.92,0-3.4-1.4-3.4-3.32Z"/>
    <path class="cls-4" d="m142.48,65.72c0-1.76,1.68-2.94,4.12-2.94,1.12,0,2.28.26,2.84.64v-2.42c0-1.46-.94-2.4-2.5-2.4-1.02,0-1.72.4-1.72,1.04,0,.5.42.86,1.04.86,0,.84-.6,1.48-1.48,1.48s-1.52-.6-1.52-1.48c0-1.42,1.74-2.4,4.3-2.4,2.94,0,4.94,1.6,4.94,3.7v4.78c0,.68.22,1.38.54,1.72h-3.4c-.12-.3-.2-.88-.2-1.4-.74.96-2.12,1.6-3.58,1.6-1.96,0-3.38-1.18-3.38-2.78Zm4.92,1.76c.8,0,1.58-.44,2.04-1.16v-2.46c-.36-.3-.98-.48-1.66-.48-1.34,0-2.16.78-2.16,2.08,0,1.2.68,2.02,1.78,2.02Z"/>
    <path class="cls-4" d="m154.32,66.32c0-.72.54-1.24,1.28-1.24s1.2.5,1.2,1.22c-.54,0-.9.28-.9.68,0,.64.92,1.08,2.28,1.08,1.48,0,2.42-.52,2.42-1.38s-.98-1.32-2.54-2.04c-1.32-.58-3.64-1.4-3.64-3.52,0-1.84,1.76-3.02,4.34-3.02,2,0,3.6.7,3.6,1.98,0,.68-.48,1.22-1.2,1.22s-1.26-.52-1.26-1.22c.52,0,.82-.26.82-.64,0-.56-.72-.9-1.82-.9-1.38,0-2.3.54-2.3,1.4s1.02,1.34,2.54,2c1.54.66,3.64,1.42,3.64,3.48,0,1.82-1.6,3.08-4.38,3.08-2.3,0-4.08-.86-4.08-2.18Z"/>
    <path class="cls-4" d="m120.62,85.31c0-4.06,3.22-7.22,7.5-7.22,3.06,0,5.5,1.66,5.5,3.58,0,.98-.66,1.68-1.6,1.68s-1.64-.68-1.64-1.6c1,0,1.72-.5,1.72-1.22,0-.94-1.24-1.74-3.04-1.74-3.2,0-5.3,2.44-5.3,6.5s2.06,6.5,5.3,6.5c1.96,0,3.44-.9,4.24-2.34l.44.28c-.86,1.58-2.96,2.76-5.58,2.76-4.18,0-7.54-3.04-7.54-7.18Z"/>
    <path class="cls-4" d="m134.7,87.29c0-2.96,2.34-5.2,5.46-5.2s5.46,2.24,5.46,5.2-2.34,5.2-5.46,5.2-5.46-2.24-5.46-5.2Zm7.78,0c0-3-.9-4.8-2.32-4.8s-2.32,1.8-2.32,4.8.88,4.8,2.32,4.8,2.32-1.8,2.32-4.8Z"/>
    <path class="cls-4" d="m147.46,90.58v-6c0-.68-.22-1.38-.54-1.72l3.6-.66v1.8c.68-1.14,1.94-1.9,3.3-1.9,1.5,0,2.72.88,3.16,2.22.62-1.32,1.98-2.22,3.5-2.22,1.86,0,3.32,1.4,3.32,3.3v5.18c0,.68.22,1.38.54,1.72h-4.12c.3-.34.52-1.04.52-1.72v-5.88c0-.92-.62-1.62-1.46-1.62s-1.74.78-2.16,1.88c.02.14.04.3.04.44v5.18c0,.68.22,1.38.52,1.72h-4.12c.32-.34.54-1.04.54-1.72v-5.88c0-.92-.62-1.62-1.46-1.62s-1.7.72-2.12,1.78v5.72c0,.68.2,1.38.52,1.72h-4.12c.32-.34.54-1.04.54-1.72Z"/>
    <path class="cls-4" d="m166.2,94.98v-10.4c0-.68-.22-1.38-.54-1.72l3.6-.66v1.6c.7-1.04,1.92-1.7,3.26-1.7,2.46,0,4.4,2.24,4.4,5.2s-1.94,5.2-4.44,5.2c-1.32,0-2.5-.62-3.22-1.58v4.06c0,.68.2,1.38.52,1.72h-4.12c.32-.34.54-1.04.54-1.72Zm3.06-10.32v5.42c.46.94,1.24,1.54,2.1,1.54,1.44,0,2.42-1.72,2.42-4.32s-.96-4.3-2.36-4.3c-.88,0-1.68.62-2.16,1.66Z"/>
    <path class="cls-4" d="m178.76,90.58v-6c0-.68-.22-1.38-.54-1.72l3.6-.66v1.82c.54-1.18,1.54-1.92,2.76-1.92,1.34,0,2.28.88,2.28,2.06,0,.94-.6,1.58-1.5,1.58s-1.56-.66-1.56-1.52c.8,0,1.3-.34,1.3-.86,0-.4-.3-.62-.82-.62-1.08,0-2.04.88-2.46,2.18v5.66c0,.68.28,1.38.7,1.72h-4.3c.32-.34.54-1.04.54-1.72Z"/>
    <path class="cls-4" d="m187.06,89.72c0-1.76,1.68-2.94,4.12-2.94,1.12,0,2.28.26,2.84.64v-2.42c0-1.46-.94-2.4-2.5-2.4-1.02,0-1.72.4-1.72,1.04,0,.5.42.86,1.04.86,0,.84-.6,1.48-1.48,1.48s-1.52-.6-1.52-1.48c0-1.42,1.74-2.4,4.3-2.4,2.94,0,4.94,1.6,4.94,3.7v4.78c0,.68.22,1.38.54,1.72h-3.4c-.12-.3-.2-.88-.2-1.4-.74.96-2.12,1.6-3.58,1.6-1.96,0-3.38-1.18-3.38-2.78Zm4.92,1.76c.8,0,1.58-.44,2.04-1.16v-2.46c-.36-.3-.98-.48-1.66-.48-1.34,0-2.16.78-2.16,2.08,0,1.2.68,2.02,1.78,2.02Z"/>
    <path class="cls-4" d="m198.9,90.32c0-.72.54-1.24,1.28-1.24s1.2.5,1.2,1.22c-.54,0-.9.28-.9.68,0,.64.92,1.08,2.28,1.08,1.48,0,2.42-.52,2.42-1.38s-.98-1.32-2.54-2.04c-1.32-.58-3.64-1.4-3.64-3.52,0-1.84,1.76-3.02,4.34-3.02,2,0,3.6.7,3.6,1.98,0,.68-.48,1.22-1.2,1.22s-1.26-.52-1.26-1.22c.52,0,.82-.26.82-.64,0-.56-.72-.9-1.82-.9-1.38,0-2.3.54-2.3,1.4s1.02,1.34,2.54,2c1.54.66,3.64,1.42,3.64,3.48,0,1.82-1.6,3.08-4.38,3.08-2.3,0-4.08-.86-4.08-2.18Z"/>
  </g>
</svg>