<?xml version="1.0" encoding="UTF-8"?>
<svg id="Camada_1" data-name="Camada 1" xmlns="http://www.w3.org/2000/svg" viewBox="0 0 240 120">
  <defs>
    <style>
      .cls-1 {
        fill: #bda189;
      }

      .cls-1, .cls-2, .cls-3 {
        stroke-width: 0px;
      }

      .cls-2 {
        fill: #f2eade;
      }

      .cls-3 {
        fill: #745646;
      }
    </style>
  </defs>
  <rect class="cls-1" x="14.88" y="13.11" width="93.78" height="93.78" rx="12" ry="12"/>
  <g>
    <path class="cls-3" d="m120.62,61.43c0-4.06,3.22-7.22,7.5-7.22,3.06,0,5.5,1.66,5.5,3.58,0,.98-.66,1.68-1.6,1.68s-1.64-.68-1.64-1.6c1,0,1.72-.5,1.72-1.22,0-.94-1.24-1.74-3.04-1.74-3.2,0-5.3,2.44-5.3,6.5s2.06,6.5,5.3,6.5c1.96,0,3.44-.9,4.24-2.34l.44.28c-.86,1.58-2.96,2.76-5.58,2.76-4.18,0-7.54-3.04-7.54-7.18Z"/>
    <path class="cls-3" d="m135.54,66.69v-6c0-.68-.22-1.38-.54-1.72l3.6-.66v1.82c.54-1.18,1.54-1.92,2.76-1.92,1.34,0,2.28.88,2.28,2.06,0,.94-.6,1.58-1.5,1.58s-1.56-.66-1.56-1.52c.8,0,1.3-.34,1.3-.86,0-.4-.3-.62-.82-.62-1.08,0-2.04.88-2.46,2.18v5.66c0,.68.28,1.38.7,1.72h-4.3c.32-.34.54-1.04.54-1.72Z"/>
    <path class="cls-3" d="m144.02,63.41c0-2.96,2.34-5.2,5.46-5.2s5.46,2.24,5.46,5.2-2.34,5.2-5.46,5.2-5.46-2.24-5.46-5.2Zm7.78,0c0-3-.9-4.8-2.32-4.8s-2.32,1.8-2.32,4.8.88,4.8,2.32,4.8,2.32-1.8,2.32-4.8Z"/>
    <path class="cls-3" d="m156.78,71.09v-10.4c0-.68-.22-1.38-.54-1.72l3.6-.66v1.6c.7-1.04,1.92-1.7,3.26-1.7,2.46,0,4.4,2.24,4.4,5.2s-1.94,5.2-4.44,5.2c-1.32,0-2.5-.62-3.22-1.58v4.06c0,.68.2,1.38.52,1.72h-4.12c.32-.34.54-1.04.54-1.72Zm3.06-10.32v5.42c.46.94,1.24,1.54,2.1,1.54,1.44,0,2.42-1.72,2.42-4.32s-.96-4.3-2.36-4.3c-.88,0-1.68.62-2.16,1.66Z"/>
    <path class="cls-3" d="m169.34,71.09v-10.4c0-.68-.22-1.38-.54-1.72l3.6-.66v1.6c.7-1.04,1.92-1.7,3.26-1.7,2.46,0,4.4,2.24,4.4,5.2s-1.94,5.2-4.44,5.2c-1.32,0-2.5-.62-3.22-1.58v4.06c0,.68.2,1.38.52,1.72h-4.12c.32-.34.54-1.04.54-1.72Zm3.06-10.32v5.42c.46.94,1.24,1.54,2.1,1.54,1.44,0,2.42-1.72,2.42-4.32s-.96-4.3-2.36-4.3c-.88,0-1.68.62-2.16,1.66Z"/>
    <path class="cls-3" d="m181.4,63.39c0-2.98,2.36-5.18,5.34-5.18s4.94,2.1,4.94,4.86h-7.14c0,3.32,1.3,4.9,3.46,4.9,1.06,0,1.92-.4,1.92-1.1,0-.58-.58-1-1.38-1,0-.82.66-1.48,1.54-1.48s1.46.68,1.46,1.52c0,1.52-1.92,2.7-4.4,2.7-3.36,0-5.74-2.24-5.74-5.22Zm3.14-.72h4.26c-.06-2.54-.82-4.06-2.06-4.06s-2.12,1.7-2.2,4.06Z"/>
    <path class="cls-3" d="m193.02,63.41c0-2.96,1.94-5.2,4.4-5.2,1.34,0,2.56.66,3.26,1.7v-3.72c0-.68-.22-1.38-.54-1.72l3.6-.66v12.88c0,.68.2,1.38.52,1.72h-3.38c-.1-.28-.18-.8-.2-1.38-.74.96-1.92,1.58-3.22,1.58-2.5,0-4.44-2.24-4.44-5.2Zm5.56,4.32c.86,0,1.62-.6,2.1-1.54v-5.42c-.48-1.04-1.28-1.66-2.16-1.66-1.4,0-2.36,1.72-2.36,4.3s.98,4.32,2.42,4.32Z"/>
    <path class="cls-3" d="m205.72,66.43c0-.72.54-1.24,1.28-1.24s1.2.5,1.2,1.22c-.54,0-.9.28-.9.68,0,.64.92,1.08,2.28,1.08,1.48,0,2.42-.52,2.42-1.38s-.98-1.32-2.54-2.04c-1.32-.58-3.64-1.4-3.64-3.52,0-1.84,1.76-3.02,4.34-3.02,2,0,3.6.7,3.6,1.98,0,.68-.48,1.22-1.2,1.22s-1.26-.52-1.26-1.22c.52,0,.82-.26.82-.64,0-.56-.72-.9-1.82-.9-1.38,0-2.3.54-2.3,1.4s1.02,1.34,2.54,2c1.54.66,3.64,1.42,3.64,3.48,0,1.82-1.6,3.08-4.38,3.08-2.3,0-4.08-.86-4.08-2.18Z"/>
  </g>
  <g>
    <path class="cls-2" d="m87.55,36.52c-6.02-5.83-17.26-4.69-22.51,1.98-3.91,4.96-10.3,6.4-16.05,3.6-1.08-.53-2.13-1.41-3.25-1.52-7.34-.74-15.67,5.18-17.54,12.38-1.12,4.32-1.92,8.73-3.26,12.97-.17.53-.26,1.01-.31,1.45,2.63,1.29,5.16,2.77,7.68,4.26,2,1.19,4.16,2.23,5.87,3.84,1.87,1.76,2.9,4.46,3.25,7.18.86,2.01,1.42,4.27,1.65,6.8.8-.06,1.62-.19,2.45-.36-1.72-6.9-3.41-13.66-5.1-20.41-.48.04-.96.08-1.44.12-.28,1.36-.57,2.73-.93,4.48-3-1.54-6.05-2.94-8.9-4.68-.7-.43-1.17-2.04-.98-2.95.89-4.36,1.88-8.73,3.16-12.99,2.03-6.76,10.55-10.48,17.05-7.64,6.86,3,14.3,1.13,18.95-4.74,4.38-5.54,13.69-6.25,18.65-1.25,1.12,1.13,2.2,2.29,3.27,3.47.15-1.03.78-1.93,1.65-2.55-1.09-1.17-2.2-2.32-3.35-3.43Z"/>
    <path class="cls-3" d="m67.75,86.37c-7.09,1.77-14.2,3.45-21.25,5.35-2.74.74-4.67.49-4.83-2.72-.53-10.32-6.27-16.31-15.71-19.34-2.66-.85-3.42-2.4-2.52-5.25,1.34-4.24,2.14-8.66,3.26-12.97,1.87-7.2,10.2-13.12,17.54-12.38,1.12.11,2.17.99,3.25,1.52,5.75,2.8,12.14,1.37,16.05-3.6,5.25-6.67,16.5-7.81,22.51-1.98,3.97,3.85,7.56,8.1,11.08,12.37.63.76.53,2.78-.04,3.74-1.93,3.25-4.08,6.4-6.44,9.35-1.72,2.16-1.94,4.21-1.15,6.74.93,2.96,1.41,6.07,2.34,9.03.89,2.82.2,4.18-2.81,4.86-7.13,1.6-14.19,3.48-21.28,5.25Zm21.31-8.64c-.55-2.19-.97-3.89-1.39-5.59-1.14-4.59-2.36-9.17-3.36-13.79-.17-.79.55-1.78.86-2.68.64.57,1.32,1.1,1.89,1.73.32.35.46.87.92,1.82,2.15-3.09,4.19-5.76,5.89-8.63.42-.7.08-2.35-.51-3.07-2.84-3.43-5.76-6.82-8.89-9.98-4.96-5.01-14.27-4.3-18.65,1.25-4.65,5.88-12.09,7.74-18.95,4.74-6.5-2.84-15.02.88-17.05,7.64-1.28,4.26-2.26,8.63-3.16,12.99-.19.91.29,2.53.98,2.95,2.85,1.74,5.91,3.14,8.9,4.68.36-1.75.65-3.11.93-4.48.48-.04.96-.08,1.44-.12,1.79,7.17,3.58,14.34,5.42,21.7,15.29-3.82,29.77-7.43,44.72-11.17Z"/>
  </g>
</svg>