<?xml version="1.0" encoding="UTF-8"?>
<svg id="Camada_1" data-name="Camada 1" xmlns="http://www.w3.org/2000/svg" viewBox="0 0 240 120">
  <defs>
    <style>
      .cls-1 {
        fill: #bda189;
      }

      .cls-1, .cls-2, .cls-3 {
        stroke-width: 0px;
      }

      .cls-2 {
        fill: #f2eade;
      }

      .cls-3 {
        fill: #745646;
      }
    </style>
  </defs>
  <rect class="cls-1" x="14.88" y="13.11" width="93.78" height="93.78" rx="12" ry="12"/>
  <g>
    <path class="cls-3" d="m121.48,66.69v-10.56c0-.68-.22-1.38-.54-1.72h7.22c2.56,0,4.46,1.5,4.46,3.46,0,1.64-1.34,2.8-3.52,3.28,2.42.42,4.12,1.66,4.12,3.6,0,2.14-2,3.66-4.46,3.66h-7.82c.32-.34.54-1.04.54-1.72Zm3.06-11.88v6.2h2.08c1.72,0,2.86-.96,2.86-3.04,0-1.96-1.02-3.16-2.56-3.16h-2.38Zm2.68,6.6h-2.68v6.6h2.98c1.54,0,2.56-1.24,2.56-3.3,0-2.84-1.86-3.3-2.86-3.3Z"/>
    <path class="cls-3" d="m135,66.69v-6c0-.68-.22-1.38-.54-1.72l3.6-.66v1.82c.54-1.18,1.54-1.92,2.76-1.92,1.34,0,2.28.88,2.28,2.06,0,.94-.6,1.58-1.5,1.58s-1.56-.66-1.56-1.52c.8,0,1.3-.34,1.3-.86,0-.4-.3-.62-.82-.62-1.08,0-2.04.88-2.46,2.18v5.66c0,.68.28,1.38.7,1.72h-4.3c.32-.34.54-1.04.54-1.72Z"/>
    <path class="cls-3" d="m144.44,66.69v-6c0-.68-.22-1.38-.54-1.72l3.6-.66v8.38c0,.68.2,1.38.52,1.72h-4.12c.32-.34.54-1.04.54-1.72Zm-.14-11.16c0-.94.74-1.64,1.72-1.64.92,0,1.62.7,1.62,1.64s-.7,1.66-1.62,1.66c-.98,0-1.72-.7-1.72-1.66Z"/>
    <path class="cls-3" d="m150.1,66.69v-6c0-.68-.22-1.38-.54-1.72l3.6-.66v1.78c.68-1.12,2.02-1.88,3.5-1.88,1.98,0,3.42,1.42,3.42,3.3v5.18c0,.68.22,1.38.54,1.72h-4.12c.32-.34.52-1.04.52-1.72v-5.88c0-.94-.66-1.66-1.56-1.66-.94.02-1.86.7-2.3,1.74v5.8c0,.68.2,1.38.52,1.72h-4.12c.32-.34.54-1.04.54-1.72Z"/>
    <path class="cls-3" d="m161.74,63.41c0-2.96,2.38-5.2,5.52-5.2,2.24,0,3.94,1.18,3.94,2.7,0,.92-.62,1.54-1.48,1.54s-1.52-.64-1.52-1.48c.9,0,1.5-.42,1.5-1.08s-.62-1.04-1.58-1.04c-1.98,0-3.24,1.7-3.24,4.54s1.28,4.56,3.32,4.56c1.16,0,2.18-.56,2.64-1.38l.42.26c-.56,1.02-2.12,1.78-3.98,1.78-3.22,0-5.54-2.3-5.54-5.2Z"/>
    <path class="cls-3" d="m172.18,63.41c0-2.96,2.34-5.2,5.46-5.2s5.46,2.24,5.46,5.2-2.34,5.2-5.46,5.2-5.46-2.24-5.46-5.2Zm7.78,0c0-3-.9-4.8-2.32-4.8s-2.32,1.8-2.32,4.8.88,4.8,2.32,4.8,2.32-1.8,2.32-4.8Z"/>
    <path class="cls-3" d="m184.36,66.43c0-.72.54-1.24,1.28-1.24s1.2.5,1.2,1.22c-.54,0-.9.28-.9.68,0,.64.92,1.08,2.28,1.08,1.48,0,2.42-.52,2.42-1.38s-.98-1.32-2.54-2.04c-1.32-.58-3.64-1.4-3.64-3.52,0-1.84,1.76-3.02,4.34-3.02,2,0,3.6.7,3.6,1.98,0,.68-.48,1.22-1.2,1.22s-1.26-.52-1.26-1.22c.52,0,.82-.26.82-.64,0-.56-.72-.9-1.82-.9-1.38,0-2.3.54-2.3,1.4s1.02,1.34,2.54,2c1.54.66,3.64,1.42,3.64,3.48,0,1.82-1.6,3.08-4.38,3.08-2.3,0-4.08-.86-4.08-2.18Z"/>
  </g>
  <g>
    <path class="cls-2" d="m77.07,86.26c.91-.32,1.84-.55,2.77-.75-1.1-.09-2.2-.36-3.25-.81-4.17-1.8-6.74-6.36-6.07-10.8,2.59,4.15,6.26,6.2,11.13,5.23,4.62-.92,7.19-4.05,8.13-8.58.3.51.54,1.08.73,1.69.11-.56.22-1.11.23-1.67.01-.75-.27-1.54-.54-2.26-.64-1.69-1.62-3.27-2.61-4.77-1.06-1.6-2.79-2.46-3.88-4.07-1.09-1.62-2.21-2.98-3.6-4.36-1.38-1.37-2.84-2.78-3.82-4.49-1.08-1.88-1.25-3.93-1.46-6.04-.09-.93-.34-1.83-.39-2.77-.02-.35,0-.69.02-1.04-.79-.81-.94-2.15-.01-3.33.28-.36.57-.72.81-1.11,0,0,.15-.28.21-.39-.02-.03,0-.27.03-.18-.07-.92-.32-1.84-.58-2.74-.24-.83-.79-1.3-1.45-1.85-.29-.24-.59-.46-.91-.67-1.82.41-3.19,2-3.36,4.01-.17,1.96,1.14,3.87,3.1,4.43.45.13.59.34.66.76.55,3.22,1.12,6.44,1.7,9.66.1.55.17,1.02-.32,1.45-.23.2-.34.55-.47.85-.88,2.08-1.73,4.16-2.48,6.29-1.61,4.56-3.06,9.17-3.67,13.99-.32,2.5-.41,5.01.44,7.43,1.38,3.93,3.9,6.59,7.47,8.06.31-.52.83-.94,1.45-1.16Zm-4.95-51.27c-.12-.77.45-1.54,1.23-1.66.77-.12,1.56.45,1.68,1.2.12.76-.46,1.54-1.23,1.67-.76.12-1.56-.45-1.68-1.21Zm1.24,27.42c.86-3.11,1.94-6.15,3.2-9.13.12-.28.17-.51.5-.14,3.11,3.45,6.12,6.98,8.38,11.08.92,1.67,1.64,3.4,1.5,5.38-.24,3.36-2.73,6.13-6.05,6.72-4.6.81-8.73-2.79-8.62-7.48.05-2.2.5-4.32,1.08-6.42Z"/>
    <path class="cls-2" d="m43.35,44.03c.28.08.43.2.52.36.06-1.1.31-2.16.84-3.09-.72.03-1.42-.51-1.53-1.21-.12-.77.45-1.54,1.23-1.66.65-.1,1.31.29,1.57.87.01-.06.04-.1.04-.16.05-.68.05-1.6-.57-2.03-.58-.4-.98-.98-1.13-1.61-.1,0-.21,0-.31.01-2.02.25-3.57,1.95-3.76,4.1-.17,1.96,1.14,3.87,3.1,4.43Z"/>
    <path class="cls-2" d="m42.82,90.11c.15.05.3.11.45.16,2.31.7,4.36.51,6.73.36.26-.02.51-.01.77-.02-1.14-.1-2.26-.39-3.31-.89-4.13-1.97-6.32-5.93-5.9-10.76,2.53,4.11,6.13,6.17,10.91,5.33,4.75-.84,7.42-4,8.41-8.75,2.28,4.81.96,9.4-1.98,12.25-1.62,1.57-3.71,2.51-5.88,2.79.35,0,.71,0,1.06,0,1.01-.01,2.2.08,3.14-.33,1.5-.66,2.52-2.1,3.98-2.9.1-.49.17-.99.2-1.51.04-.81.41-1.4.91-1.79-.1-.4-.13-.83-.05-1.27.36-1.94.62-3.57.12-5.51-.44-1.73-1.02-3.51-1.69-5.16-1.36-3.33-3.98-5.98-6.36-8.6-.39-.42-.58-.89-.64-1.35-.21-.06-.43-.15-.65-.27-1.2-.7-2.14-1.68-3.06-2.7-.88-.96-1.78-1.87-2.52-2.95-.92-1.32-1.64-2.84-2.21-4.39.16.87.3,1.74.46,2.61.1.55.17,1.02-.32,1.45-.23.2-.34.55-.47.85-.88,2.08-1.73,4.16-2.48,6.29-1.61,4.56-3.06,9.17-3.67,13.99-.32,2.5-.41,5.01.44,7.43.82,2.32,2.03,4.19,3.61,5.65Zm1.63-22.73c.85-3.04,1.91-6,3.12-8.92.18-.44.29-.51.64-.12,2.73,3.02,5.33,6.14,7.5,9.61.82,1.31,1.55,2.68,1.99,4.18,1.25,4.21-1.44,8.55-5.78,9.3-4.57.79-8.7-2.79-8.59-7.45.05-2.25.52-4.43,1.12-6.59Z"/>
  </g>
  <g>
    <path class="cls-3" d="m80.32,88.13c-1.22-.04-2.44.02-3.64-.25-5-1.11-8.37-4.06-10.07-8.89-.85-2.42-.76-4.93-.44-7.43.61-4.82,2.07-9.43,3.67-13.99.75-2.13,1.6-4.21,2.48-6.29.13-.3.24-.65.47-.85.49-.43.42-.9.32-1.45-.58-3.22-1.15-6.44-1.7-9.66-.07-.42-.2-.63-.66-.76-1.96-.56-3.27-2.47-3.1-4.43.19-2.15,1.74-3.84,3.76-4.1,2.07-.26,4.06.92,4.75,2.82.67,1.84.06,3.91-1.54,5.06-.31.22-.41.4-.34.79.62,3.41,1.21,6.82,1.8,10.23.05.31.16.52.47.64.32.13.58.37.82.62,4.39,4.75,8.55,9.68,11.85,15.27,1.34,2.28,2.53,4.64,2.97,7.28,1,6.03-2.17,11.79-7.84,14.31-.57.25-1.17.45-1.76.67l-2.26.4Zm-.98-12.18c3.32-.59,5.81-3.36,6.05-6.72.14-1.98-.58-3.72-1.5-5.38-2.26-4.09-5.27-7.63-8.38-11.08-.33-.37-.39-.13-.5.14-1.26,2.98-2.34,6.02-3.2,9.13-.58,2.1-1.03,4.23-1.08,6.42-.12,4.69,4.02,8.29,8.62,7.48Zm-10.37-2.42c-.67,4.45,1.9,9,6.07,10.8,4.25,1.83,9.24.61,12.09-2.92,2.92-3.62,2.79-8.31,1.11-11.22-.94,4.53-3.51,7.66-8.13,8.58-4.87.97-8.54-1.08-11.13-5.23Zm2.82-40.56c-.78.13-1.34.9-1.23,1.66.12.75.92,1.33,1.68,1.21.77-.12,1.34-.9,1.23-1.67-.12-.76-.91-1.33-1.68-1.2Z"/>
    <path class="cls-3" d="m51.38,93.23c-1.22-.04-2.44.02-3.64-.25-5-1.11-8.37-4.06-10.07-8.89-.85-2.42-.76-4.93-.44-7.43.61-4.82,2.07-9.43,3.67-13.99.75-2.13,1.6-4.21,2.48-6.29.13-.3.24-.65.47-.85.49-.43.42-.9.32-1.45-.58-3.22-1.15-6.44-1.7-9.66-.07-.42-.2-.63-.66-.76-1.96-.56-3.27-2.47-3.1-4.43.19-2.15,1.74-3.84,3.76-4.1,2.07-.26,4.06.92,4.75,2.82.68,1.87.06,3.92-1.58,5.09-.27.19-.36.36-.3.7.62,3.44,1.22,6.89,1.82,10.34.05.27.14.45.41.56.34.14.62.38.87.65,4.39,4.75,8.55,9.68,11.85,15.27,1.34,2.28,2.53,4.64,2.97,7.28,1,6.03-2.17,11.79-7.84,14.31-.57.25-1.17.45-1.76.67l-2.26.4Zm-1-12.18c4.33-.75,7.03-5.09,5.78-9.3-.44-1.5-1.17-2.86-1.99-4.18-2.17-3.46-4.77-6.59-7.5-9.61-.35-.39-.46-.32-.64.12-1.2,2.92-2.27,5.88-3.12,8.92-.6,2.16-1.07,4.33-1.12,6.59-.1,4.66,4.02,8.25,8.59,7.45Zm8.95-5.89c-.99,4.75-3.65,7.91-8.41,8.75-4.77.85-8.37-1.22-10.91-5.33-.42,4.83,1.77,8.79,5.9,10.76,3.73,1.78,8.41.99,11.43-1.93,2.93-2.85,4.26-7.44,1.98-12.25Zm-16.47-37.1c-.78.13-1.34.9-1.23,1.66.12.75.92,1.33,1.68,1.21.77-.12,1.34-.9,1.23-1.67-.12-.76-.91-1.33-1.68-1.2Z"/>
  </g>
</svg>