<?xml version="1.0" encoding="UTF-8"?>
<svg id="Camada_1" data-name="Camada 1" xmlns="http://www.w3.org/2000/svg" viewBox="0 0 240 120">
  <defs>
    <style>
      .cls-1 {
        fill: #bda189;
      }

      .cls-1, .cls-2, .cls-3 {
        stroke-width: 0px;
      }

      .cls-2 {
        fill: #f2eade;
      }

      .cls-3 {
        fill: #745646;
      }
    </style>
  </defs>
  <rect class="cls-1" x="14.88" y="13.11" width="93.78" height="93.78" rx="12" ry="12"/>
  <g>
    <path class="cls-3" d="m121.5,65.79l4.98-11.38h1.08l5.14,11.78c.42.96.98,1.84,1.44,2.22h-4.9c.48-.52.56-1.46.16-2.38l-.6-1.4h-6.24l-.5,1.18c-.44.98-.24,2,.46,2.6h-2.9c.62-.42,1.34-1.42,1.88-2.62Zm7.12-1.56l-2.92-6.76-2.96,6.76h5.88Z"/>
    <path class="cls-3" d="m134.1,63.41c0-2.96,2.38-5.2,5.52-5.2,2.24,0,3.94,1.18,3.94,2.7,0,.92-.62,1.54-1.48,1.54s-1.52-.64-1.52-1.48c.9,0,1.5-.42,1.5-1.08s-.62-1.04-1.58-1.04c-1.98,0-3.24,1.7-3.24,4.54s1.28,4.56,3.32,4.56c1.16,0,2.18-.56,2.64-1.38l.42.26c-.56,1.02-2.12,1.78-3.98,1.78-3.22,0-5.54-2.3-5.54-5.2Z"/>
    <path class="cls-3" d="m144.54,63.39c0-2.98,2.36-5.18,5.34-5.18s4.94,2.1,4.94,4.86h-7.14c0,3.32,1.3,4.9,3.46,4.9,1.06,0,1.92-.4,1.92-1.1,0-.58-.58-1-1.38-1,0-.82.66-1.48,1.54-1.48s1.46.68,1.46,1.52c0,1.52-1.92,2.7-4.4,2.7-3.36,0-5.74-2.24-5.74-5.22Zm3.14-.72h4.26c-.06-2.54-.82-4.06-2.06-4.06s-2.12,1.7-2.2,4.06Z"/>
    <path class="cls-3" d="m156.08,66.43c0-.72.54-1.24,1.28-1.24s1.2.5,1.2,1.22c-.54,0-.9.28-.9.68,0,.64.92,1.08,2.28,1.08,1.48,0,2.42-.52,2.42-1.38s-.98-1.32-2.54-2.04c-1.32-.58-3.64-1.4-3.64-3.52,0-1.84,1.76-3.02,4.34-3.02,2,0,3.6.7,3.6,1.98,0,.68-.48,1.22-1.2,1.22s-1.26-.52-1.26-1.22c.52,0,.82-.26.82-.64,0-.56-.72-.9-1.82-.9-1.38,0-2.3.54-2.3,1.4s1.02,1.34,2.54,2c1.54.66,3.64,1.42,3.64,3.48,0,1.82-1.6,3.08-4.38,3.08-2.3,0-4.08-.86-4.08-2.18Z"/>
    <path class="cls-3" d="m165.56,66.43c0-.72.54-1.24,1.28-1.24s1.2.5,1.2,1.22c-.54,0-.9.28-.9.68,0,.64.92,1.08,2.28,1.08,1.48,0,2.42-.52,2.42-1.38s-.98-1.32-2.54-2.04c-1.32-.58-3.64-1.4-3.64-3.52,0-1.84,1.76-3.02,4.34-3.02,2,0,3.6.7,3.6,1.98,0,.68-.48,1.22-1.2,1.22s-1.26-.52-1.26-1.22c.52,0,.82-.26.82-.64,0-.56-.72-.9-1.82-.9-1.38,0-2.3.54-2.3,1.4s1.02,1.34,2.54,2c1.54.66,3.64,1.42,3.64,3.48,0,1.82-1.6,3.08-4.38,3.08-2.3,0-4.08-.86-4.08-2.18Z"/>
    <path class="cls-3" d="m175.1,63.41c0-2.96,2.34-5.2,5.46-5.2s5.46,2.24,5.46,5.2-2.34,5.2-5.46,5.2-5.46-2.24-5.46-5.2Zm7.78,0c0-3-.9-4.8-2.32-4.8s-2.32,1.8-2.32,4.8.88,4.8,2.32,4.8,2.32-1.8,2.32-4.8Zm-3.22-6.46c.46-1.12.84-2.46.92-3.4l3.4.34c-1.02,1.12-2.54,2.32-3.88,3.06h-.44Z"/>
    <path class="cls-3" d="m187.86,66.69v-6c0-.68-.22-1.38-.54-1.72l3.6-.66v1.82c.54-1.18,1.54-1.92,2.76-1.92,1.34,0,2.28.88,2.28,2.06,0,.94-.6,1.58-1.5,1.58s-1.56-.66-1.56-1.52c.8,0,1.3-.34,1.3-.86,0-.4-.3-.62-.82-.62-1.08,0-2.04.88-2.46,2.18v5.66c0,.68.28,1.38.7,1.72h-4.3c.32-.34.54-1.04.54-1.72Z"/>
    <path class="cls-3" d="m197.3,66.69v-6c0-.68-.22-1.38-.54-1.72l3.6-.66v8.38c0,.68.2,1.38.52,1.72h-4.12c.32-.34.54-1.04.54-1.72Zm-.14-11.16c0-.94.74-1.64,1.72-1.64.92,0,1.62.7,1.62,1.64s-.7,1.66-1.62,1.66c-.98,0-1.72-.7-1.72-1.66Z"/>
    <path class="cls-3" d="m202.28,63.41c0-2.96,2.34-5.2,5.46-5.2s5.46,2.24,5.46,5.2-2.34,5.2-5.46,5.2-5.46-2.24-5.46-5.2Zm7.78,0c0-3-.9-4.8-2.32-4.8s-2.32,1.8-2.32,4.8.88,4.8,2.32,4.8,2.32-1.8,2.32-4.8Z"/>
    <path class="cls-3" d="m214.46,66.43c0-.72.54-1.24,1.28-1.24s1.2.5,1.2,1.22c-.54,0-.9.28-.9.68,0,.64.92,1.08,2.28,1.08,1.48,0,2.42-.52,2.42-1.38s-.98-1.32-2.54-2.04c-1.32-.58-3.64-1.4-3.64-3.52,0-1.84,1.76-3.02,4.34-3.02,2,0,3.6.7,3.6,1.98,0,.68-.48,1.22-1.2,1.22s-1.26-.52-1.26-1.22c.52,0,.82-.26.82-.64,0-.56-.72-.9-1.82-.9-1.38,0-2.3.54-2.3,1.4s1.02,1.34,2.54,2c1.54.66,3.64,1.42,3.64,3.48,0,1.82-1.6,3.08-4.38,3.08-2.3,0-4.08-.86-4.08-2.18Z"/>
  </g>
  <g>
    <path class="cls-2" d="m100.33,53.99c-.13-.69-.06-1.38-.17-2.06-.09-.56-.3-1.13-.48-1.67-.84-2.47-2.22-4.89-4.24-6.57-.1-.08-.18-.18-.26-.28-.78.06-1.61.4-2.5.89-.58.32-1.16.65-1.74.98-2.56,1.46-5.21,2.96-7.97,3.82-.55.17-1.11.36-1.67.55-.69-1.39-1.42-2.73-2.38-3.95-3.82-4.81-8.57-6.51-13.03-4.68-1.85.75-2.57,1.84-2.8,2.88.3.12.58.29.82.51,0,0,.03.03.05.04.04.03.09.06.1.07.17.11.35.2.53.29.02,0,.05.02.07.03-.01-.02.09.01.2.09.2.08.4.15.6.22.84.29,1.71.58,2.57.78,2.45.56,4.88.69,7.09,2.02,1.04.63,1.46,1.92.99,3.03-.51,1.2-1.65,1.59-2.86,1.4-.11-.02-.19-.05-.3-.07-.38-.09-.7-.29-.96-.53-.06-.03-.12-.07-.18-.1-.02,0-.03-.01-.05-.02-.1-.03-.19-.06-.29-.09-.57-.05-1.14-.13-1.69-.26-6.31-1.54-11.71-.24-15.65,3.77-.44-.2-.83-.46-1.18-.79-4.01-3.82-8.58-7.42-14.55-11.44-.2.07-.4.12-.6.2-1.23.48-2.66-.53-2.98-1.69-.37-1.36.47-2.51,1.69-2.98,2.13-.83,4.52-1.24,6.8-1.33,1.11-.04,2.29,0,3.35.33,1.11.33,2.14.94,3.19,1.42.07.03.65.28.64.28.21.08.43.16.64.23.2.06.4.1.6.15-.08-.45-.16-.89-.19-1.35-.03-.49.05-.97.12-1.45.01-.07.02-.13.03-.18.01-.13.02-.25,0-.38,0-.13-.04-.31-.13-.62-.09-.32-.2-.64-.3-.96-.04-.13-.07-.26-.11-.38-2.86-2.08-6.52-2.37-10.92-.86-1.51.52-3,1.19-4.44,1.84-2.37,1.06-4.61,2.07-6.97,2.5-2.97.55-3.68,1.95-3.86,4.04-.46,5.22-.54,12.03,2.94,18.39.6,1.1,1.29,2.09,2.05,2.98.53-.06,1.1.03,1.6.25.25.11.5.22.75.32.06.02.54.23.6.25.57.23,1.14.45,1.71.67,1.07.4,2.16.79,3.25,1.11.41.12.82.22,1.24.3.14.03.28.05.43.08.08,0,.17.02.25.02.22.02.45.02.67.02.08,0,.16,0,.24-.01.08-.02.16-.03.24-.06.19-.14.44-.35.06-.02,0,0,.02,0,.02,0,1.01-.82,2.34-.83,3.33.07.92.85.96,2.59,0,3.43-1.37,1.2-3.02,1.5-4.71,1.39-1.68,1.14-3.44,2.19-5.35,3-3.51,1.48-5.52,2.4-6.12,4.04-.61,1.7.44,3.74,2.35,7.45.27.52.51,1.06.75,1.6.39.88.8,1.78,1.33,2.63.37-.6,1.02-1.01,1.96-.98,2.93.09,5.59-2.37,8.04-3.68,3.3-1.76,7.05-2.87,10.76-3.29,3.33-.38,6.72-.23,10.07-.33,1.93-.06,3.86-.12,5.78-.22,1.26-.06,2.61,0,3.75-.61,2.6-1.42,4.45-4.26,5.72-6.83,1.42-2.87,3.41-5.21,5.75-7.37,2.49-2.3,5.29-4.2,8.25-5.84,1.56-.86,3.14-1.68,4.69-2.55,1.16-.65,2.31-1.52,3.53-2.07.01,0,.02,0,.03-.01-.1-.6-.49-1.19-.61-1.8Zm-29.73-9.74c-.64,0-1.28.05-1.9.1-.44.04-.89.07-1.34.09,1.47-.71,2.9-.9,4.27-.54.8.21,1.58.59,2.32,1.16-1.04-.64-2.2-.8-3.36-.8Zm-23.88-8.77h0c1.83.55,3.06,1.36,3.76,2.51-1.96-1.77-3.95-2.41-5.92-2.41-1.29,0-2.58.28-3.85.69,2.33-.86,4.58-1.22,6.01-.79Zm29.02,11.39c-.07-.11-.14-.22-.21-.32.79.92,1.54,2.06,2.22,3.41-.68-1.03-1.35-2.06-2.01-3.09Zm.19,7.25c.11-.09.23-.16.38-.24.1.37.2.76.29,1.18-.07,0-.14,0-.21-.01-.06-.05-.13-.11-.19-.16-.17-.14-.5-.41-.54-.49,0,0,.03-.1.26-.28Zm-10.58-.46c1.38,0,2.76.22,4.09.68h0c.39.13.77.28,1.15.45-4.17-.1-7.86.03-11.31.39,1.88-1,3.97-1.52,6.08-1.52Zm-16.45,27.85c-.4.25-.83.51-1.29.75-1.41.73-2.83,1.44-4.26,2.15-.96.48-1.92.96-2.88,1.45-2.37,1.2-3.8,1.93-4.57,1.73-.73-.19-1.43-1.38-2.7-3.54l-.5-.85c-1.1-1.85-1.46-3.21-1.11-4.15.34-.9,1.43-1.64,3.33-2.27.73-.24,1.39-.6,2.03-.96.55-.3,1.06-.59,1.6-.79.84-.32,1.69-.88,2.51-1.42,1.19-.79,2.1-1.35,2.74-1.35.21,0,.4.06.56.2,1.52,1.32,2.42,3.41,3.38,5.62.4.92.81,1.87,1.26,2.75.03.06.05.25.07.44,0,.04,0,.08.01.13-.06.04-.13.08-.19.12Zm4.66-.19c-.69-.11-1.34-1.23-1.95-2.43l-.26-.51c-2.76-5.43-4.15-8.16-3.79-9.25.14-.43.67-.79,1.47-1.21.32,4.84,2.32,8.86,6.25,12.54-.71.63-1.31.93-1.73.86Zm24.73-9.31c-1.06,3.31-3.37,6-6.51,7.59-3.18,1.6-6.79,1.86-10.15.72-6.82-2.3-10.69-9.49-9.04-16.4.02.17.04.34.06.51.88,4.8,3.66,8.69,7.65,10.67,4.07,2.02,9,1.87,13.53-.43,1.61-.82,3.12-1.83,4.58-3.05-.04.12-.07.25-.11.37Zm5.66-6.05c-.1.28-.39.52-.84.74.29-.37.59-.76.89-1.16.01.16,0,.3-.05.43Zm-.29-5.19l-.06.09c-.26.37-.53.74-.8,1.12-.8,1.13-1.55,2.12-2.3,3.04-.47.56-.94,1.11-1.42,1.64-2.59,2.82-5.18,4.69-8.17,5.88-3.29,1.31-6.71,1.15-9.61-.46-2.86-1.59-4.87-4.47-5.5-7.92-.04-.25-.08-.5-.11-.75-.18-1.33-.42-2.98-2.25-3.74-.11-.05-.22-.09-.36-.13-.41-.14-.81-.2-1.19-.2-.18,0-.35.02-.51.04-1.31.21-2.15,1.18-2.89,2.04l-.34.39c-2.7,3-6.15,3.79-10.81,2.5-4.93-1.68-7.76-5.55-8.9-12.19-.1-.6-.23-1.24-.36-1.89-.65-3.26-1.46-7.32.43-8.73.63-.47,1.38-.45,2.26-.08l-.62.67,1.18-.4c.92.49,1.96,1.27,3.14,2.2.94.73,1.9,1.49,2.83,2.03,3.44,2.03,7.36,4.57,10.45,8.02,1.65,1.83,3.42,3.08,5.42,3.82.62.23,1.2.39,1.79.51,1.82.38,3.78.37,6,0,4.99-.86,10.04-.52,14.4-.14.75.06,1.52.13,2.29.2l.99.09c.82.08,1.65.16,2.45.21.22.02.43.04.64.06l1.11,1.7-.46-1.64c.06,0,.12.01.18.02,1.33.15,1.6.44,1.66.56.08.19-.01.66-.54,1.44Zm14.55-3.87c-.66.22-1.34.45-1.87.85-.57.43-1.26.73-1.99,1.06-.33.15-.67.3-1,.46-3.4,1.7-5.44,2.57-6.75,2.5,1.53-2.56.7-3.74.04-4.23-1.67-1.23-2.77-2.83-3.82-4.82,2.2-1.07,4.38-2.17,6.56-3.27,1.63-.82,3.25-1.64,4.88-2.45.28-.14.61-.23,1.11-.36.17-.04.36-.09.56-.15.37.79.76,1.58,1.15,2.35,1.11,2.23,2.16,4.33,2.75,6.57.19.72-.07.96-1.64,1.48Z"/>
    <path class="cls-2" d="m63.16,72.1h.01c.69.23,1.43.33,2.2.33,2.66,0,5.61-1.21,7.79-2.57,3.25-2.03,5.38-4.65,5.7-7,.11-.82-.02-1.45-.39-1.91-.55-.68-1.44-.75-2.15-.8l-.28-.02c-.73-.07-1.45-.15-2.18-.22-3.87-.4-7.87-.81-11.88-.45-2.65.24-4.15.87-4.86,2.02-.7,1.15-.58,2.74.39,5.16,1.08,2.69,2.98,4.53,5.65,5.47Zm-3.01-7.53c-.19-.71-.2-1.22-.03-1.46.17-.25.65-.41,1.42-.48h0c1.41-.14,2.84-.2,4.28-.2,2.89,0,5.87.27,8.99.82-1.47,2.9-3.68,4.75-6.9,5.81-1.65.54-3.25.43-4.65-.33-1.5-.81-2.6-2.28-3.1-4.16Z"/>
    <path class="cls-2" d="m45.52,53.72c-.26-.18-.52-.35-.75-.53-2.76-2.07-5.73-3.92-8.6-5.72l-2.06-1.3c-.6-.4-1.36-.89-2.22-.68-.58.15-1.06.57-1.46,1.31-1.12,2.05-.97,5.33.39,8.78,1.27,3.23,3.89,7.09,7.43,8.28l.24.04c.14,0,.29,0,.49.02.32.01.72.03,1.17.03.5,0,1.05-.02,1.6-.1,3.64-.53,5.97-2.22,6.76-4.91.77-2.67-1.4-4.15-2.98-5.23Zm-10.09,4.43c-1.71-2.55-2.37-5.23-2.09-8.58,4.5,2.03,8.01,4.72,11.15,7.34.4.33.86.81.86,1.22,0,.38-.4.87-1.18,1.46-1.49,1.12-3.17,1.6-4.73,1.34-1.57-.26-2.96-1.22-4-2.78Z"/>
  </g>
  <g>
    <path class="cls-3" d="m97.92,45.21l-.16-.29c-1.82-3.24-3.78-3.03-6.16-1.71-.58.32-1.16.65-1.74.98-2.56,1.46-5.21,2.96-7.97,3.82-.55.17-1.11.36-1.67.55-.69-1.39-1.42-2.73-2.38-3.95-3.82-4.81-8.57-6.51-13.03-4.68-2.64,1.07-3.02,2.85-2.87,4.15.3,2.66,2.68,2.62,4.1,2.6h.12c4.52-.06,6.72.89,8.11,3.58-2.07.39-3.86.37-5.58-.05-6.31-1.54-11.71-.24-15.65,3.77-.44-.2-.83-.46-1.18-.79-4.36-4.16-9.37-8.05-16.16-12.52,5.5-3.8,7.35-3.73,11.92-.22.91.71,2.31,1.8,3.82,1.27l.19.26v-.34c.31-.14.62-.34.93-.64,1.56-1.47,1.55-3.31-.01-5.46-3.1-4.23-7.61-5.36-13.4-3.36-1.51.52-3,1.19-4.44,1.84-2.37,1.06-4.61,2.07-6.97,2.5-2.97.55-3.68,1.95-3.86,4.04-.46,5.22-.54,12.03,2.94,18.39,2.33,4.26,5.98,7,10.26,7.73,2.05.35,4.13.21,6.13-.39,0,0-.02.01-.02.02-3.06,2.39-6.23,4.86-9.97,6.44-3.51,1.48-5.52,2.4-6.12,4.04-.61,1.7.44,3.74,2.35,7.45.27.52.51,1.06.75,1.6.73,1.63,1.48,3.31,3.03,4.68l.33.29.42-.15c.28-.1.56-.19.83-.29.66-.22,1.33-.45,1.99-.77,1.1-.54,2.19-1.11,3.27-1.68,1.97-1.04,4.01-2.11,6.08-2.95,4.66-1.87,10.13-3.75,16.05-2.32,6.75,1.63,13.62-1.71,16.7-8.12,2.67-5.58,6.93-9.61,13.82-13.05,5.44-2.71,8.17-4.08,8.86-6.32.68-2.21-.77-4.8-3.66-9.97ZM30.52,77.95c.34-.9,1.43-1.64,3.33-2.27.73-.24,1.39-.6,2.03-.96.55-.3,1.06-.59,1.6-.79.84-.32,1.69-.88,2.51-1.42,1.19-.79,2.1-1.35,2.74-1.35.21,0,.4.06.56.2,1.52,1.32,2.42,3.41,3.38,5.62.4.92.81,1.87,1.26,2.75.03.06.05.25.07.44,0,.04,0,.08.01.13-.06.04-.13.08-.19.12-.4.25-.83.51-1.29.75-1.41.73-2.83,1.44-4.26,2.15-.96.48-1.92.96-2.88,1.45-2.37,1.2-3.8,1.93-4.57,1.73-.73-.19-1.43-1.38-2.7-3.54l-.5-.85c-1.1-1.85-1.46-3.21-1.11-4.15Zm15.12-43.56h0c1.83.55,3.06,1.36,3.76,2.51-1.96-1.77-3.95-2.41-5.92-2.41-1.29,0-2.58.28-3.85.69,2.33-.86,4.58-1.22,6.01-.79Zm31.03,14.48c-.68-1.03-1.35-2.06-2.01-3.09-.07-.11-.14-.22-.21-.32.79.92,1.54,2.06,2.22,3.41Zm-7.15-5.71c-.64,0-1.28.05-1.9.1-.44.04-.89.07-1.34.09,1.47-.71,2.9-.9,4.27-.54.8.21,1.58.59,2.32,1.16-1.04-.64-2.2-.8-3.36-.8Zm5.8,10.79c-.06-.05-.13-.11-.19-.16-.17-.14-.5-.41-.54-.49,0,0,.03-.1.26-.28.11-.09.23-.16.38-.24.1.37.2.76.29,1.18-.07,0-.14,0-.21-.01Zm-25.05,23.34c-2.76-5.43-4.15-8.16-3.79-9.25.14-.43.67-.79,1.47-1.21.32,4.84,2.32,8.86,6.25,12.54-.71.63-1.31.93-1.73.86-.69-.11-1.34-1.23-1.95-2.43l-.26-.51Zm42.99-19.58c-.33.15-.67.3-1,.46-3.4,1.7-5.44,2.57-6.75,2.5,1.53-2.56.7-3.74.04-4.23-1.67-1.23-2.77-2.83-3.82-4.82,2.2-1.07,4.38-2.17,6.56-3.27,1.63-.82,3.25-1.64,4.88-2.45.28-.14.61-.23,1.11-.36.17-.04.36-.09.56-.15.37.79.76,1.58,1.15,2.35,1.11,2.23,2.16,4.33,2.75,6.57.19.72-.07.96-1.64,1.48-.66.22-1.34.45-1.87.85-.57.43-1.26.73-1.99,1.06Zm-35.07-3.63c1.88-1,3.97-1.52,6.08-1.52,1.38,0,2.76.22,4.09.68h0c.39.13.77.28,1.15.45-4.17-.1-7.86.03-11.31.39Zm1.67,3.08c4.99-.86,10.04-.52,14.4-.14.75.06,1.52.13,2.29.2l.99.09c.82.08,1.65.16,2.45.21.22.02.43.04.64.06l1.11,1.7-.46-1.64c.06,0,.12.01.18.02,1.33.15,1.6.44,1.66.56.08.19-.01.66-.54,1.44l-.06.09c-.26.37-.53.74-.8,1.12-.8,1.13-1.55,2.12-2.3,3.04-.47.56-.94,1.11-1.42,1.64-2.59,2.82-5.18,4.69-8.17,5.88-3.29,1.31-6.71,1.15-9.61-.46-2.86-1.59-4.87-4.47-5.5-7.92-.04-.25-.08-.5-.11-.75-.18-1.33-.42-2.98-2.25-3.74-.11-.05-.22-.09-.36-.13-.41-.14-.81-.2-1.19-.2-.18,0-.35.02-.51.04-1.31.21-2.15,1.18-2.89,2.04l-.34.39c-2.7,3-6.15,3.79-10.81,2.5-4.93-1.68-7.76-5.55-8.9-12.19-.1-.6-.23-1.24-.36-1.89-.65-3.26-1.46-7.32.43-8.73.63-.47,1.38-.45,2.26-.08l-.62.67,1.18-.4c.92.49,1.96,1.27,3.14,2.2.94.73,1.9,1.49,2.83,2.03,3.44,2.03,7.36,4.57,10.45,8.02,1.65,1.83,3.42,3.08,5.42,3.82.62.23,1.2.39,1.79.51,1.82.38,3.78.37,6,0Zm-8.37,5.67c.02.17.04.34.06.51.88,4.8,3.66,8.69,7.65,10.67,4.07,2.02,9,1.87,13.53-.43,1.61-.82,3.12-1.83,4.58-3.05-.04.12-.07.25-.11.37-1.06,3.31-3.37,6-6.51,7.59-3.18,1.6-6.79,1.86-10.15.72-6.82-2.3-10.69-9.49-9.04-16.4Zm31.36,2.04c-.1.28-.39.52-.84.74.29-.37.59-.76.89-1.16.01.16,0,.3-.05.43Z"/>
    <path class="cls-3" d="m62.07,71.02h.01c.69.23,1.43.33,2.2.33,2.66,0,5.61-1.21,7.79-2.57,3.25-2.03,5.38-4.65,5.7-7,.11-.82-.02-1.45-.39-1.91-.55-.68-1.44-.75-2.15-.8l-.28-.02c-.73-.07-1.45-.15-2.18-.22-3.87-.4-7.87-.81-11.88-.45-2.65.24-4.15.87-4.86,2.02-.7,1.15-.58,2.74.39,5.16,1.08,2.69,2.98,4.53,5.65,5.47Zm-3.01-7.53c-.19-.71-.2-1.22-.03-1.46.17-.25.65-.41,1.42-.48h0c1.41-.14,2.84-.2,4.28-.2,2.89,0,5.87.27,8.99.82-1.47,2.9-3.68,4.75-6.9,5.81-1.65.54-3.25.43-4.65-.33-1.5-.81-2.6-2.28-3.1-4.16Z"/>
    <path class="cls-3" d="m44.44,52.63c-.26-.18-.52-.35-.75-.53-2.76-2.07-5.73-3.92-8.6-5.72l-2.06-1.3c-.6-.4-1.36-.89-2.22-.68-.58.15-1.06.57-1.46,1.31-1.12,2.05-.97,5.33.39,8.78,1.27,3.23,3.89,7.09,7.43,8.28l.24.04c.14,0,.29,0,.49.02.32.01.72.03,1.17.03.5,0,1.05-.02,1.6-.1,3.64-.53,5.97-2.22,6.76-4.91.77-2.67-1.4-4.15-2.98-5.23Zm-10.09,4.43c-1.71-2.55-2.37-5.23-2.09-8.58,4.5,2.03,8.01,4.72,11.15,7.34.4.33.86.81.86,1.22,0,.38-.4.87-1.18,1.46-1.49,1.12-3.17,1.6-4.73,1.34-1.57-.26-2.96-1.22-4-2.78Z"/>
  </g>
</svg>