<?xml version="1.0" encoding="UTF-8"?>
<svg id="Camada_1" data-name="Camada 1" xmlns="http://www.w3.org/2000/svg" viewBox="0 0 240 120">
  <defs>
    <style>
      .cls-1 {
        fill: #bda189;
      }

      .cls-1, .cls-2, .cls-3 {
        stroke-width: 0px;
      }

      .cls-2 {
        fill: #f2eade;
      }

      .cls-3 {
        fill: #745646;
      }
    </style>
  </defs>
  <rect class="cls-1" x="14.88" y="13.11" width="93.78" height="93.78" rx="12" ry="12"/>
  <g>
    <path class="cls-3" d="m124.6,66.69v-11.88h-.9c-1.34,0-2.7,1.14-3.38,2.84v-3.24h11.6v3.24c-.66-1.7-2.02-2.84-3.38-2.84h-.88v11.88c0,.68.22,1.38.52,1.72h-4.12c.32-.34.54-1.04.54-1.72Z"/>
    <path class="cls-3" d="m132.22,62.73h5.58v.56h-5.58v-.56Z"/>
    <path class="cls-3" d="m139.5,66.43c0-.72.54-1.24,1.28-1.24s1.2.5,1.2,1.22c-.54,0-.9.28-.9.68,0,.64.92,1.08,2.28,1.08,1.48,0,2.42-.52,2.42-1.38s-.98-1.32-2.54-2.04c-1.32-.58-3.64-1.4-3.64-3.52,0-1.84,1.76-3.02,4.34-3.02,2,0,3.6.7,3.6,1.98,0,.68-.48,1.22-1.2,1.22s-1.26-.52-1.26-1.22c.52,0,.82-.26.82-.64,0-.56-.72-.9-1.82-.9-1.38,0-2.3.54-2.3,1.4s1.02,1.34,2.54,2c1.54.66,3.64,1.42,3.64,3.48,0,1.82-1.6,3.08-4.38,3.08-2.3,0-4.08-.86-4.08-2.18Z"/>
    <path class="cls-3" d="m149.72,66.69v-10.5c0-.68-.22-1.38-.54-1.72l3.6-.66v6.28c.68-1.12,2.02-1.88,3.5-1.88,1.98,0,3.42,1.42,3.42,3.3v5.18c0,.68.22,1.38.54,1.72h-4.12c.32-.34.52-1.04.52-1.72v-5.88c0-.94-.66-1.66-1.56-1.66-.94.02-1.86.7-2.3,1.74v5.8c0,.68.2,1.38.52,1.72h-4.12c.32-.34.54-1.04.54-1.72Z"/>
    <path class="cls-3" d="m162.14,66.69v-6c0-.68-.22-1.38-.54-1.72l3.6-.66v8.38c0,.68.2,1.38.52,1.72h-4.12c.32-.34.54-1.04.54-1.72Zm-.14-11.16c0-.94.74-1.64,1.72-1.64.92,0,1.62.7,1.62,1.64s-.7,1.66-1.62,1.66c-.98,0-1.72-.7-1.72-1.66Z"/>
    <path class="cls-3" d="m167.8,66.69v-6c0-.68-.22-1.38-.54-1.72l3.6-.66v1.82c.54-1.18,1.54-1.92,2.76-1.92,1.34,0,2.28.88,2.28,2.06,0,.94-.6,1.58-1.5,1.58s-1.56-.66-1.56-1.52c.8,0,1.3-.34,1.3-.86,0-.4-.3-.62-.82-.62-1.08,0-2.04.88-2.46,2.18v5.66c0,.68.28,1.38.7,1.72h-4.3c.32-.34.54-1.04.54-1.72Z"/>
    <path class="cls-3" d="m177.58,65.91v-7.1h-1.2v-.2c1.58-.4,3.28-1.66,4.26-3.22v3.02h2.56v.4h-2.56v7.6c0,.84.54,1.46,1.28,1.46.6,0,1.2-.42,1.4-.98l.32.18c-.2.88-1.48,1.54-2.86,1.54-1.84,0-3.2-1.16-3.2-2.7Z"/>
    <path class="cls-3" d="m184.36,66.43c0-.72.54-1.24,1.28-1.24s1.2.5,1.2,1.22c-.54,0-.9.28-.9.68,0,.64.92,1.08,2.28,1.08,1.48,0,2.42-.52,2.42-1.38s-.98-1.32-2.54-2.04c-1.32-.58-3.64-1.4-3.64-3.52,0-1.84,1.76-3.02,4.34-3.02,2,0,3.6.7,3.6,1.98,0,.68-.48,1.22-1.2,1.22s-1.26-.52-1.26-1.22c.52,0,.82-.26.82-.64,0-.56-.72-.9-1.82-.9-1.38,0-2.3.54-2.3,1.4s1.02,1.34,2.54,2c1.54.66,3.64,1.42,3.64,3.48,0,1.82-1.6,3.08-4.38,3.08-2.3,0-4.08-.86-4.08-2.18Z"/>
  </g>
  <g>
    <path class="cls-2" d="m38.37,85.97c-1.5-.8-1.55-.92-1.12-2.56,3.17-12.04,6.31-24.1,9.56-36.12.4-1.47-.67-2.58-1.93-2.31-.74.16-1.08.66-1.25,1.37-.6,2.38-1.26,4.74-1.85,7.12-.2.8-.37,1.14-1.26.6-3.08-1.88-6.21-3.68-9.34-5.49-.54-.31-.7-.54-.25-1.13,2.76-3.61,5.45-7.28,8.22-10.88,2.07-2.69,4.92-4.12,8.21-4.7,3.06-.54,6.14-.96,9.2-1.5.78-.14,1.09.12,1.4.77,1.23,2.6,2.88,4.9,5.13,6.71,4.21,3.39,9.63,3.67,14.87.8.68-.37,1.43-.69,1.99-1.21,1.09-1.01,1.9-.71,2.95.13,2.24,1.8,4.6,3.45,6.9,5.17,2.25,1.68,3.87,3.7,4.81,6.12-.1-2.49-.47-5.02-1.83-6.65-.43-.51-.71-1.06-.87-1.61-2.97-2.25-5.98-4.44-8.97-6.66-.67-.49-1.4-.82-2.2-1.03-6.96-1.82-13.93-3.66-20.89-5.5-.8-.21-1.6-.3-2.42-.17-3.91.63-7.84,1.18-11.73,1.92-3.62.69-6.77,2.42-9.07,5.33-3.17,4.02-6.2,8.17-9.26,12.28-.21.28-.34.56-.43.84.46.08.91.24,1.31.54,2,1.49,4.55,3.64,6.58,4.41,2.26.86,4.79,1.74,5.91,4.08.93,1.94.59,4.25-1.26,5.51-.78,2.94-1.55,5.88-2.33,8.82-1.06,4.03-2.12,8.05-3.18,12.08-.13.51-.2.98-.21,1.41.13.08.25.16.38.25,3.05,2.24,7.06,3.52,10.52,5.05,3.56,1.57,7.44,2.6,11.2,3.56,3.91,1,11.31,3.14,15.68,1.58-7.4.18-14.5-1.33-21.45-3.73-4.05-1.4-7.94-3.16-11.72-5.18Zm39.23-50.87c-6.32,4.39-12.47,3.1-16.13-4.25,5.38,1.42,10.68,2.81,16.13,4.25Z"/>
    <path class="cls-2" d="m85.85,55.65c-.68-.4-1.33-.31-1.96.13-.43.3-.47.79-.59,1.23-.75,2.83-1.49,5.65-2.24,8.48,1.18-.14,2.35-.32,3.55-.52.67-2.47,1.31-4.95,1.97-7.43.22-.82,0-1.46-.73-1.9Z"/>
  </g>
  <path class="cls-3" d="m35.93,69.72c1.09-4.14,2.17-8.28,3.29-12.41.2-.72.08-1.09-.6-1.48-3.64-2.09-7.24-4.24-10.85-6.37-.37-.22-.75-.41-1.09-.66-1.15-.85-1.38-2.11-.52-3.27,3.06-4.11,6.08-8.26,9.26-12.28,2.3-2.91,5.45-4.64,9.07-5.33,3.89-.74,7.82-1.29,11.73-1.92.82-.13,1.62-.04,2.42.17,6.96,1.84,13.92,3.68,20.89,5.5.8.21,1.53.54,2.2,1.03,3.06,2.27,6.14,4.51,9.17,6.81,3.98,3.03,6.28,7,6.7,12.04.34,4.18.78,8.35,1.17,12.52.19,2.07-.58,2.97-2.67,3.05-4.15.15-8.3.34-12.45.41-1.03.02-1.36.4-1.6,1.33-2.08,8.03-4.2,16.04-6.31,24.05-.7,2.64-1.78,3.53-4.52,3.64-7.36.29-14.48-1.02-21.45-3.25-5.16-1.65-10.1-3.82-14.83-6.47-2.14-1.2-2.79-2.69-2.17-5.05,1.06-4.03,2.12-8.05,3.18-12.08Zm41.33,4.36c1.61-6.1,3.21-12.2,4.82-18.29.12-.44.16-.93.59-1.23.63-.45,1.29-.53,1.96-.13.73.43.95,1.07.73,1.9-.66,2.48-1.3,4.97-1.98,7.45-.18.65-.12.88.67.85,3.49-.17,6.98-.3,10.47-.37.83-.02.96-.29.88-1.03-.4-3.86-.8-7.73-1.11-11.6-.34-4.28-2.33-7.58-5.72-10.11-2.3-1.72-4.66-3.37-6.9-5.17-1.05-.84-1.86-1.14-2.95-.13-.56.52-1.31.84-1.99,1.21-5.24,2.87-10.66,2.59-14.87-.8-2.26-1.81-3.91-4.11-5.13-6.71-.31-.65-.63-.91-1.4-.77-3.06.54-6.14.97-9.2,1.5-3.29.58-6.14,2.01-8.21,4.7-2.77,3.6-5.45,7.27-8.22,10.88-.45.59-.29.82.25,1.13,3.12,1.81,6.25,3.61,9.34,5.49.9.55,1.07.21,1.26-.6.59-2.38,1.25-4.74,1.85-7.12.18-.7.52-1.21,1.25-1.37,1.26-.28,2.33.83,1.93,2.31-3.24,12.03-6.39,24.08-9.56,36.12-.43,1.64-.38,1.76,1.12,2.56,3.78,2.02,7.67,3.78,11.72,5.18,7.03,2.43,14.22,3.95,21.72,3.73,1.13-.03,1.65-.39,1.93-1.5,1.54-6.03,3.15-12.05,4.74-18.07Zm-.88-40.19c-5.45-1.43-10.75-2.83-16.13-4.25,3.66,7.35,9.81,8.64,16.13,4.25Z"/>
</svg>