<?xml version="1.0" encoding="UTF-8"?>
<svg id="Camada_1" data-name="Camada 1" xmlns="http://www.w3.org/2000/svg" viewBox="0 0 240 120">
  <defs>
    <style>
      .cls-1 {
        fill: #bda189;
      }

      .cls-1, .cls-2, .cls-3 {
        stroke-width: 0px;
      }

      .cls-2 {
        fill: #f2eade;
      }

      .cls-3 {
        fill: #745646;
      }
    </style>
  </defs>
  <rect class="cls-1" x="14.88" y="13.11" width="93.78" height="93.78" rx="12" ry="12"/>
  <g>
    <path class="cls-3" d="m120.62,61.43c0-4.06,3.22-7.22,7.5-7.22,3.06,0,5.5,1.66,5.5,3.58,0,.98-.66,1.68-1.6,1.68s-1.64-.68-1.64-1.6c1,0,1.72-.5,1.72-1.22,0-.94-1.24-1.74-3.04-1.74-3.2,0-5.3,2.44-5.3,6.5s2.06,6.5,5.3,6.5c1.96,0,3.44-.9,4.24-2.34l.44.28c-.86,1.58-2.96,2.76-5.58,2.76-4.18,0-7.54-3.04-7.54-7.18Z"/>
    <path class="cls-3" d="m134.96,65.83c0-1.76,1.68-2.94,4.12-2.94,1.12,0,2.28.26,2.84.64v-2.42c0-1.46-.94-2.4-2.5-2.4-1.02,0-1.72.4-1.72,1.04,0,.5.42.86,1.04.86,0,.84-.6,1.48-1.48,1.48s-1.52-.6-1.52-1.48c0-1.42,1.74-2.4,4.3-2.4,2.94,0,4.94,1.6,4.94,3.7v4.78c0,.68.22,1.38.54,1.72h-3.4c-.12-.3-.2-.88-.2-1.4-.74.96-2.12,1.6-3.58,1.6-1.96,0-3.38-1.18-3.38-2.78Zm4.92,1.76c.8,0,1.58-.44,2.04-1.16v-2.46c-.36-.3-.98-.48-1.66-.48-1.34,0-2.16.78-2.16,2.08,0,1.2.68,2.02,1.78,2.02Z"/>
    <path class="cls-3" d="m147.38,66.69v-10.5c0-.68-.22-1.38-.54-1.72l3.6-.66v12.88c0,.68.2,1.38.52,1.72h-4.12c.32-.34.54-1.04.54-1.72Z"/>
    <path class="cls-3" d="m157.54,68.61l-.64.84c.22-.08.48-.12.78-.12,1.2,0,2.02.72,2.02,1.72,0,1.1-1.04,1.82-2.38,1.82-.82,0-1.5-.3-1.9-.76l.18-.28c.26.28.72.48,1.16.48.76,0,1.26-.52,1.26-1.32,0-.72-.4-1.2-1-1.2-.3,0-.52.12-.62.3l-.36-.12,1-1.42c-2.78-.34-4.72-2.48-4.72-5.14,0-2.96,2.38-5.2,5.52-5.2,2.24,0,3.94,1.18,3.94,2.7,0,.92-.62,1.54-1.48,1.54s-1.52-.64-1.52-1.48c.9,0,1.5-.42,1.5-1.08s-.62-1.04-1.58-1.04c-1.98,0-3.24,1.7-3.24,4.54s1.28,4.56,3.32,4.56c1.16,0,2.18-.56,2.64-1.38l.42.26c-.56,1.02-2.12,1.78-3.98,1.78h-.32Z"/>
    <path class="cls-3" d="m162.84,65.83c0-1.76,1.68-2.94,4.12-2.94,1.12,0,2.28.26,2.84.64v-2.42c0-1.46-.94-2.4-2.5-2.4-1.02,0-1.72.4-1.72,1.04,0,.5.42.86,1.04.86,0,.84-.6,1.48-1.48,1.48s-1.52-.6-1.52-1.48c0-1.42,1.74-2.4,4.3-2.4,2.94,0,4.94,1.6,4.94,3.7v4.78c0,.68.22,1.38.54,1.72h-3.4c-.12-.3-.2-.88-.2-1.4-.74.96-2.12,1.6-3.58,1.6-1.96,0-3.38-1.18-3.38-2.78Zm4.92,1.76c.8,0,1.58-.44,2.04-1.16v-2.46c-.36-.3-.98-.48-1.66-.48-1.34,0-2.16.78-2.16,2.08,0,1.2.68,2.02,1.78,2.02Z"/>
    <path class="cls-3" d="m174.52,63.41c0-2.96,1.94-5.2,4.4-5.2,1.34,0,2.56.66,3.26,1.7v-3.72c0-.68-.22-1.38-.54-1.72l3.6-.66v12.88c0,.68.2,1.38.52,1.72h-3.38c-.1-.28-.18-.8-.2-1.38-.74.96-1.92,1.58-3.22,1.58-2.5,0-4.44-2.24-4.44-5.2Zm5.56,4.32c.86,0,1.62-.6,2.1-1.54v-5.42c-.48-1.04-1.28-1.66-2.16-1.66-1.4,0-2.36,1.72-2.36,4.3s.98,4.32,2.42,4.32Z"/>
    <path class="cls-3" d="m187.12,63.41c0-2.96,2.34-5.2,5.46-5.2s5.46,2.24,5.46,5.2-2.34,5.2-5.46,5.2-5.46-2.24-5.46-5.2Zm7.78,0c0-3-.9-4.8-2.32-4.8s-2.32,1.8-2.32,4.8.88,4.8,2.32,4.8,2.32-1.8,2.32-4.8Z"/>
    <path class="cls-3" d="m199.3,66.43c0-.72.54-1.24,1.28-1.24s1.2.5,1.2,1.22c-.54,0-.9.28-.9.68,0,.64.92,1.08,2.28,1.08,1.48,0,2.42-.52,2.42-1.38s-.98-1.32-2.54-2.04c-1.32-.58-3.64-1.4-3.64-3.52,0-1.84,1.76-3.02,4.34-3.02,2,0,3.6.7,3.6,1.98,0,.68-.48,1.22-1.2,1.22s-1.26-.52-1.26-1.22c.52,0,.82-.26.82-.64,0-.56-.72-.9-1.82-.9-1.38,0-2.3.54-2.3,1.4s1.02,1.34,2.54,2c1.54.66,3.64,1.42,3.64,3.48,0,1.82-1.6,3.08-4.38,3.08-2.3,0-4.08-.86-4.08-2.18Z"/>
  </g>
  <path class="cls-2" d="m30.27,57.76c.22-.62.45-.81,1.13-.55,2.73,1.05,5.53,1.9,8,2.94,3.58,1.34,6.91,2.66,10.16,4.17,2.74,1.27,5.24,2.91,7.6,4.77,3.59,2.85,7.61,4.97,11.75,6.88,8.09,3.73,16.61,5.44,25.5,5.47.47,0,.56.15.56.57,0,.11,0,.19,0,.29,1.55-2.39,1.81-5.09,1.78-7.71-.31-.4-.66-.79-1.09-1.14-1.41-1.19-3.08-1.92-4.79-2.54-1.96-.71-3.97-1.26-5.91-2.01-2.52-.97-4.52-2.56-5.59-5.14-.47-1.14-1.04-2.24-1.64-3.32-3.18-5.74-7.01-11-11.36-15.9-.85-.96-1.44-1-2.4-.13-1.16,1.05-2.4,1.97-3.74,2.76-2.51,1.46-5.18,2.38-8.13,1.92-2.5-.4-4.66-1.62-6.74-2.98-2.31-1.51-4.32-3.34-6.04-5.5-.47-.58-1-.81-1.73-.53-1.6.61-3,1.52-4.16,2.78-2.21,2.37-3.43,5.26-4.02,8.36-.49,2.6-1.18,5.11-2.22,7.54-.36.84-.69,1.7-1.02,2.55.85.12,1.69.13,2.54.39.56-1.3,1.07-2.62,1.55-3.95Zm46.81,6.97c1.27,3.08,3.62,5.04,6.59,6.34,1.89.82,3.89,1.32,5.83,1.99,1.67.58,3.3,1.24,4.67,2.42.85.72,1.29,1.63,1.35,2.75.03.54-.13.73-.7.73-3.8.01-7.57-.32-11.3-1-5.21-.96-10.16-2.64-14.96-4.9-4.59-2.16-8.71-4.98-12.71-8.04-.68-.52-1.44-.94-2.28-1.48,1.97-.96,3.91-1.3,5.88-.6,3.82,1.37,7.5,3.08,11.24,4.65.72.3,1.43.29,2.16.28.6,0,.89-.52,1.18-.95.75-1.11,1.48-2.23,2.53-3.26.19.39.37.73.51,1.07Zm-42.02-19.92c.61-.73,1.36-1.31,2.17-1.81.41-.26.66-.21.98.16,1.97,2.29,4.25,4.22,6.86,5.74,2.92,1.7,5.94,3.09,9.45,2.79,3.1-.26,5.83-1.52,8.38-3.22.59-.39,1.14-.84,1.71-1.27.23-.18.47-.45.7-.06.21.35.89.56.41,1.16-.36.45-.74.89-1.09,1.35-.52.68-.46,1.43.13,1.89.54.42,1.25.3,1.81-.32.11-.12.2-.24.3-.37.77-.93,1.12-.87,1.66.24.12.25.03.38-.11.55-.44.52-.88,1.05-1.3,1.59-.57.74-.53,1.46.09,1.95.57.45,1.26.31,1.86-.39.39-.45.76-.92,1.18-1.43.52.73.97,1.41,1.46,2.05.24.32.1.52-.09.76-.36.45-.75.88-1.08,1.35-.41.58-.31,1.27.2,1.7.51.43,1.18.39,1.7-.14.32-.33.61-.7.97-1.11.61,1.04,1.18,2.01,1.77,2.98.19.31.12.52-.13.74-.98.85-1.78,1.86-2.49,2.94-.27.41-.53.45-.97.27-3.15-1.26-6.35-2.43-9.47-3.77-3.68-1.58-7.2-1.5-10.63.62-.47.29-.86.32-1.38.08-5.92-2.72-12.03-4.93-18.18-7.06-.31-.11-.61-.16-.54-.62.53-3.39,1.41-6.65,3.67-9.35Z"/>
  <path class="cls-3" d="m68.39,79.8c-7.32-2.66-13.86-6.72-20.11-11.28-.59-.43-1.21-.84-1.81-1.27-.35-.26-.55-.18-.69.22-.16.45-.33.89-.53,1.32-.36.75-.89.97-1.68.73-.2-.06-.4-.15-.59-.22-5.4-2.11-10.79-4.22-16.19-6.34-1.46-.57-1.66-1.02-1.1-2.46.47-1.2.91-2.42,1.42-3.6,1.04-2.43,1.73-4.94,2.22-7.54.59-3.1,1.81-5.99,4.02-8.36,1.17-1.26,2.56-2.17,4.16-2.78.73-.28,1.26-.05,1.73.53,1.72,2.15,3.73,3.99,6.04,5.5,2.08,1.36,4.24,2.58,6.74,2.98,2.96.47,5.62-.45,8.13-1.92,1.35-.78,2.59-1.71,3.74-2.76.96-.87,1.55-.83,2.4.13,4.35,4.9,8.18,10.16,11.36,15.9.6,1.08,1.17,2.18,1.64,3.32,1.07,2.58,3.07,4.17,5.59,5.14,1.94.74,3.95,1.3,5.91,2.01,1.71.62,3.37,1.34,4.79,2.54,2.14,1.8,2.88,4.21,2.03,6.88-.17.54-.24,1.06-.23,1.62.01,1.08-.15,2.15-.3,3.22-.12.84-.56,1.23-1.36,1.39-3.52.68-7.06.66-10.6.2-2.46-.32-4.86-.93-7.21-1.69-3.21-1.04-6.4-2.12-9.52-3.38Zm1.78-28.33c-.42.51-.79.98-1.18,1.43-.6.7-1.29.84-1.86.39-.62-.49-.67-1.21-.09-1.95.42-.54.86-1.07,1.3-1.59.14-.17.24-.3.11-.55-.54-1.12-.9-1.17-1.66-.24-.1.12-.19.25-.3.37-.56.62-1.28.75-1.81.32-.59-.46-.65-1.21-.13-1.89.35-.46.73-.9,1.09-1.35.48-.6-.2-.81-.41-1.16-.23-.39-.47-.12-.7.06-.56.43-1.12.88-1.71,1.27-2.55,1.7-5.27,2.96-8.38,3.22-3.51.3-6.54-1.09-9.45-2.79-2.61-1.52-4.9-3.45-6.86-5.74-.32-.37-.56-.42-.98-.16-.81.5-1.56,1.08-2.17,1.81-2.26,2.71-3.14,5.96-3.67,9.35-.07.45.23.51.54.62,6.15,2.13,12.26,4.34,18.18,7.06.52.24.91.21,1.38-.08,3.43-2.12,6.95-2.2,10.63-.62,3.12,1.34,6.31,2.51,9.47,3.77.44.18.71.14.97-.27.71-1.08,1.51-2.09,2.49-2.94.26-.22.33-.42.13-.74-.59-.96-1.15-1.94-1.77-2.98-.36.41-.64.78-.97,1.11-.52.53-1.19.57-1.7.14-.51-.43-.61-1.12-.2-1.7.33-.47.72-.91,1.08-1.35.19-.23.33-.44.09-.76-.49-.65-.94-1.32-1.46-2.05Zm-30.85,6.8c-2.47-1.04-5.27-1.89-8-2.94-.68-.26-.91-.07-1.13.55-.49,1.39-1.03,2.77-1.61,4.12-.28.64-.21.92.5,1.19,4.18,1.6,8.35,3.25,12.52,4.88q1.79.7,2.51-1.08c.54-1.33,1.26-1.55,2.43-.74,1.88,1.3,3.78,2.57,5.63,3.92,4.47,3.25,9.24,5.93,14.32,8.12,4.19,1.81,8.49,3.32,12.83,4.7,4.36,1.39,8.82,1.98,13.39,1.6,2.23-.19,2.22-.21,2.2-2.45,0-.43-.09-.57-.56-.57-8.88-.03-17.4-1.74-25.5-5.47-4.15-1.91-8.16-4.03-11.75-6.88-2.36-1.87-4.86-3.51-7.6-4.77-3.25-1.5-6.58-2.83-10.16-4.17Zm14.18,3.38c.84.54,1.59.96,2.28,1.48,4,3.06,8.12,5.88,12.71,8.04,4.8,2.26,9.75,3.95,14.96,4.9,3.73.69,7.5,1.02,11.3,1,.56,0,.72-.19.7-.73-.06-1.12-.5-2.03-1.35-2.75-1.37-1.17-3-1.84-4.67-2.42-1.94-.67-3.94-1.17-5.83-1.99-2.98-1.3-5.32-3.26-6.59-6.34-.14-.35-.32-.68-.51-1.07-1.06,1.02-1.79,2.15-2.53,3.26-.29.43-.58.95-1.18.95-.72,0-1.44.02-2.16-.28-3.74-1.57-7.42-3.28-11.24-4.65-1.97-.71-3.91-.36-5.88.6Z"/>
</svg>