<?xml version="1.0" encoding="UTF-8"?>
<svg id="Camada_2" data-name="Camada 2" xmlns="http://www.w3.org/2000/svg" xmlns:xlink="http://www.w3.org/1999/xlink" viewBox="0 0 95.85 95.85">
  <defs>
    <style>
      .cls-1 {
        fill: none;
      }

      .cls-1, .cls-2 {
        stroke-width: 0px;
      }

      .cls-3 {
        clip-path: url(#clippath-1);
      }

      .cls-4 {
        clip-path: url(#clippath);
      }

      .cls-2 {
        fill: #bfa38b;
      }
    </style>
    <clipPath id="clippath">
      <rect class="cls-1" width="95.85" height="95.85"/>
    </clipPath>
    <clipPath id="clippath-1">
      <rect class="cls-1" width="95.85" height="95.85"/>
    </clipPath>
  </defs>
  <g id="Camada_1-2" data-name="Camada 1">
    <g id="Arte_11" data-name="Arte 11">
      <g class="cls-4">
        <g class="cls-3">
          <path class="cls-2" d="m95.85,49.29c-.02-.91-.04-1.82-.04-2.73-1.76-.16-11.99-1.17-25.91-4.4-8.05-1.86-14.36-8.17-16.22-16.22C50.47,12.02,49.45,1.8,49.29.04c-.91,0-1.82-.02-2.73-.04-.21,1.65-1.57,11.94-4.79,25.99-1.85,8.08-8.17,14.42-16.25,16.27C11.82,45.41,1.78,46.4.04,46.56c0,.91-.02,1.82-.04,2.73,1.63.2,11.73,1.55,25.57,4.7,8.1,1.85,14.45,8.19,16.3,16.3,3.15,13.83,4.49,23.94,4.7,25.57.91-.02,1.82-.04,2.73-.04.16-1.75,1.15-11.78,4.3-25.48,1.85-8.08,8.19-14.4,16.27-16.25,14.05-3.22,24.34-4.59,25.99-4.79"/>
        </g>
      </g>
    </g>
  </g>
</svg>