<?xml version="1.0" encoding="UTF-8"?>
<svg id="Camada_1" data-name="Camada 1" xmlns="http://www.w3.org/2000/svg" xmlns:xlink="http://www.w3.org/1999/xlink" viewBox="0 0 500 500">
  <defs>
    <style>
      .cls-1 {
        fill: #00323d;
      }

      .cls-1, .cls-2, .cls-3, .cls-4 {
        stroke-width: 0px;
      }

      .cls-2 {
        fill: none;
      }

      .cls-5 {
        clip-path: url(#clippath-1);
      }

      .cls-6 {
        letter-spacing: 0em;
      }

      .cls-3, .cls-7 {
        fill: #fff;
      }

      .cls-8 {
        letter-spacing: -.05em;
      }

      .cls-9 {
        clip-path: url(#clippath);
      }

      .cls-7 {
        font-family: Lufga-Black, Lufga;
        font-size: 64.25px;
        font-weight: 800;
      }

      .cls-4 {
        fill: #063;
      }

      .cls-10 {
        letter-spacing: .02em;
      }
    </style>
    <clipPath id="clippath">
      <rect class="cls-2" x="92.12" y="61.06" width="315.76" height="263.11"/>
    </clipPath>
    <clipPath id="clippath-1">
      <rect class="cls-2" x="92.12" y="61.06" width="315.76" height="263.11"/>
    </clipPath>
  </defs>
  <path class="cls-1" d="m108.11,31h283.78c59.67,0,108.11,48.44,108.11,108.11v299.33c0,33.97-27.58,61.56-61.56,61.56H61.56c-33.97,0-61.56-27.58-61.56-61.56V139.11C0,79.44,48.44,31,108.11,31Z"/>
  <path class="cls-4" d="m109.67,0h280.67c60.53,0,109.67,49.14,109.67,109.67v275.56H0V109.67C0,49.14,49.14,0,109.67,0Z"/>
  <g id="SÃMBOLO">
    <g class="cls-9">
      <g class="cls-5">
        <path class="cls-3" d="m187.94,161.48c-7.43,5.64-20.68,17.26-30.26,36.49-8.58,17.22-10.43,32.94-10.82,41.99-1.77-8.74-2.1-16.02-2.1-21.05,0-35.06,21.05-63.15,21.05-63.15,2.73-3.66,7.14-9.04,13.52-14.83,1.15,3.37,2.49,6.93,4.05,10.64,1.49,3.54,3.03,6.85,4.57,9.91"/>
        <path class="cls-3" d="m356.23,172.8c1.51,3.46,3,7.37,4.35,11.7,1.2,3.87,2.11,7.52,2.81,10.88,2.09.92,5,2.32,8.31,4.33,3.7,2.25,6.46,3.93,8.95,6.64,1.24,1.36,5.97,6.51,6.08,12.57.2,11.66-16.79,20.24-23.34,23.54-6.14,3.1-11.19,4.45-11.98,4.72-25.02,8.51-61.19,13.86-101.41,13.86-23.11,0-44.87-1.77-63.96-4.89,6.3,10.72,13.92,17.61,17.83,20.69,1.36,1.08,2.74,2.06,4.13,3,13.38,1.46,27.46,2.25,42.01,2.25,34.24,0,65.96-4.35,91.83-11.72,4.9-1.39,9.6-2.89,14.05-4.51,31.93-11.49,51.99-28.1,51.99-46.59s-19.93-34.98-51.64-46.47"/>
        <path class="cls-3" d="m146.6,246.47c-2.46-.83-5.94-2.12-9.97-4.01-6.31-2.96-10.17-4.77-14.13-8.46-2.29-2.14-7.65-7.12-9.23-15.08-1.09-5.5.1-9.96.81-12.51,4.92-17.61,26.16-31.37,29.7-33.61-31.73,11.47-51.66,28.05-51.66,46.47s20.07,35.12,52.03,46.61c1.02.36,2.1.71,3.14,1.07-.6-6.86-.85-13.71-.69-20.47"/>
        <path class="cls-3" d="m298.94,163.67c-.83-.73-3.86-3.32-8.23-6.21-.43-.27-2.73-1.67-5.93-3.4-.66-.36-6.3-3.39-11.69-5.47-2.05,1.91-10.47,9.29-23.1,9.3-17.63.02-27.72-14.33-28.59-15.62-2.63-4.26-4.31-9.13-4.88-14.09-.15-1.28-.21-2.56-.21-3.85,0-.04,0-.09,0-.13,0-.02,0-.03,0-.05,0-.94.06-1.89.14-2.83.03-.32.05-.63.09-.95.1-.87.24-1.75.4-2.61.05-.26.11-.51.16-.76.36-1.64.82-3.26,1.42-4.84l.1-.08c4.91-12.56,17.16-21.56,31.37-21.56,12.26,0,23.04,6.71,28.94,16.61,7.83,2.01,17.54,5.21,26.63,10.2,2.57,1.41,5.07,2.93,7.51,4.53-1.25-33.57-29.23-60.81-63.09-60.81s-63.15,28.5-63.15,63.14,63.15,121.01,63.15,121.01c0,0,31.48-43.07,49.99-80.57-.35-.32-.69-.65-1.05-.97"/>
        <path class="cls-3" d="m230.38,136.76c2.23-.64,5.75-1.54,10.14-2.14,3.06-.42,18.6-2.37,35.24,3.73,6.02,2.2,12.43,5.58,14.04,6.46,3.92,2.12,6.61,3.8,6.61,3.8,5.01,3.31,8.49,6.29,9.5,7.17,17.81,15.68,23.83,35.44,25.23,40.48.73,2.62,2.96,11.14,3.08,22.67.05,5.05-.31,9.91-.98,14.54-.32,1.86-.92,4.84-1.97,8.52,5.99-1.43,11.62-3.01,16.76-4.76l1.19-.4c1.26-.41,2.89-.95,4.76-1.68.81-5.1,1.3-10.49,1.28-16.21-.11-37.47-21.05-73.87-54.75-92.36-17.7-9.71-38.43-12.02-38.43-12.02-3.64-.49-7.68-.83-12.07-.87-8.38-.08-15.7.94-21.62,2.22-.76,2-1.97,6.01-1.39,11.1.52,4.61,2.29,7.98,3.38,9.77"/>
        <path class="cls-3" d="m295.72,290c-19.31,12.23-38.7,13.11-45.73,13.11-8.34,0-29.19-1.22-49.34-15.56-1.19-.83-2.25-1.62-3.26-2.42-.02-.02-.04-.03-.06-.04-4.74-3.74-22.48-18.58-29.27-45.11-4.11-16.06-2.5-29.68-1.04-37.22-2.62,5.14-5.87,12.75-7.86,22.4-1.47,7.13-1.74,12.8-1.81,15.13-.18,6.55-.83,29.74,14.76,49.19,5.64,7.03,11.36,11.05,17.83,15.57,10.01,6.99,19.91,11.42,28.42,14.25,4.72,1.48,10.36,2.89,16.8,3.81,5.46.78,10.45,1.05,14.81,1.04,0,0,0,0,0,0,9.14,0,24.97-1.18,42.58-8.97,7.83-3.46,25.6-12.5,40.5-31.69-11.81,2.8-24.34,4.97-37.37,6.49"/>
      </g>
    </g>
  </g>
  <text class="cls-7" transform="translate(75.5 467.21)"><tspan class="cls-8" x="0" y="0">A</tspan><tspan x="43.24" y="0">G</tspan><tspan class="cls-6" x="92" y="0">R</tspan><tspan x="133.25" y="0">OP</tspan><tspan class="cls-10" x="224.87" y="0">L</tspan><tspan x="259.82" y="0">AN</tspan></text>
</svg>