<?xml version="1.0" encoding="UTF-8"?>
<svg id="Camada_1" data-name="Camada 1" xmlns="http://www.w3.org/2000/svg" xmlns:xlink="http://www.w3.org/1999/xlink" viewBox="0 0 500 500">
  <defs>
    <style>
      .cls-1 {
        fill: #1b98e0;
      }

      .cls-2 {
        fill: #ff7122;
      }

      .cls-3, .cls-4, .cls-5 {
        fill: none;
      }

      .cls-4 {
        clip-path: url(#clippath);
      }

      .cls-5 {
        clip-path: url(#clippath-1);
      }

      .cls-6 {
        fill: #006494;
      }

      .cls-7 {
        fill: #fff7eb;
      }

      .cls-8 {
        fill: #13293d;
      }
    </style>
    <clipPath id="clippath">
      <rect class="cls-3" x="135.69" y="78.3" width="228.62" height="228.62"/>
    </clipPath>
    <clipPath id="clippath-1">
      <rect class="cls-3" x="135.69" y="78.3" width="228.62" height="228.62"/>
    </clipPath>
  </defs>
  <path class="cls-2" d="m108.11,31h283.78c59.67,0,108.11,48.44,108.11,108.11v299.33c0,33.97-27.58,61.56-61.56,61.56H61.56c-33.97,0-61.56-27.58-61.56-61.56V139.11C0,79.44,48.44,31,108.11,31Z"/>
  <path class="cls-7" d="m109.67,0h280.67c60.53,0,109.67,49.14,109.67,109.67v275.56H0V109.67C0,49.14,49.14,0,109.67,0Z"/>
  <g id="SÃMBOLO">
    <g class="cls-4">
      <g class="cls-5">
        <path class="cls-1" d="m364.31,192.6c0,8.82-1,17.4-2.88,25.66h-100.03l8.33-25.66h0s8.33-25.69,8.33-25.69h-.01l11.41-35.21,13.16-40.6s.01,0,.01.01c36.65,19.04,61.69,57.32,61.69,101.49"/>
        <path class="cls-8" d="m250.02,253.46h96.76c-10.82,17.17-26.08,31.25-44.17,40.64-10.99,5.72-23.01,9.69-35.72,11.57-5.51.82-11.16,1.24-16.91,1.24s-11.38-.42-16.9-1.24l16.91-52.18v-.04Z"/>
        <path class="cls-2" d="m249.99,131.71h-96.75c10.81-17.14,26.05-31.21,44.12-40.59,10.99-5.72,23.01-9.69,35.73-11.57,5.51-.82,11.15-1.24,16.9-1.24s11.38.42,16.9,1.24l-16.9,52.15h0Z"/>
        <path class="cls-6" d="m238.58,166.92l-8.31,25.69-32.91,101.5c-36.65-19.04-61.68-57.35-61.68-101.5,0-8.83,1-17.43,2.89-25.69h100Z"/>
        <polyline points="250.01 253.5 249.99 253.49 249.98 253.46"/>
      </g>
    </g>
  </g>
  <g>
    <path class="cls-7" d="m110.51,455.93v8.91h-33.32v-6.77l19.89-26.42h-19.65v-8.91h32.65v6.77l-19.89,26.42h20.32Z"/>
    <path class="cls-7" d="m115.08,424.26c0-3.11,2.38-5.43,5.49-5.43s5.55,2.32,5.55,5.43-2.38,5.49-5.55,5.49-5.49-2.32-5.49-5.49Zm1.04,9.46h8.91v31.12h-8.91v-31.12Z"/>
    <path class="cls-7" d="m132.11,420.9h8.91v43.93h-8.91v-43.93Z"/>
    <path class="cls-7" d="m148.09,420.9h8.91v43.93h-8.91v-43.93Z"/>
    <path class="cls-7" d="m195.69,433.71v31.12h-8.91v-3.11c-2.38,2.44-5.61,3.84-9.4,3.84-8.54,0-15.01-7.02-15.01-16.29s6.47-16.29,15.01-16.29c3.78,0,7.02,1.4,9.4,3.84v-3.11h8.91Zm-8.91,15.56c0-4.39-3.23-7.69-7.63-7.69s-7.57,3.3-7.57,7.69,3.23,7.69,7.57,7.69,7.63-3.3,7.63-7.69Z"/>
    <path class="cls-7" d="m205.63,422.73h10.37l-7.02,17.45h-7.69l4.33-17.45Z"/>
    <path class="cls-7" d="m214.11,460.87l4.15-5.74c2.38,2.01,5.31,3.36,8.91,3.36,2.93,0,4.94-.85,4.94-2.5,0-1.77-2.38-2.38-5.55-3.11-4.94-1.1-11.47-2.56-11.47-9.88,0-6.71,5.86-10.01,12.94-10.01,5.49,0,9.46,1.95,12.39,4.09l-4.15,5.74c-2.32-1.59-4.88-2.75-7.93-2.75-2.38,0-4.33.67-4.33,2.26,0,1.77,2.38,2.32,5.55,2.99,4.88,1.04,11.47,2.56,11.47,9.82,0,6.83-5.98,10.43-13.55,10.43-5.92,0-10.31-2.2-13.36-4.7Z"/>
    <path class="cls-7" d="m292.58,449.27c0,9.28-6.41,16.29-15.01,16.29-3.78,0-7.02-1.4-9.4-3.84v14.71h-8.91v-42.71h8.91v3.11c2.38-2.44,5.61-3.84,9.4-3.84,8.6,0,15.01,7.02,15.01,16.29Zm-9.15,0c0-4.39-3.23-7.69-7.63-7.69s-7.63,3.3-7.63,7.69,3.23,7.69,7.63,7.69,7.63-3.3,7.63-7.69Z"/>
    <path class="cls-7" d="m316.62,433.23v9.15h-1.34c-5.43,0-8.42,3.11-8.42,7.93v14.52h-8.91v-31.12h8.91v3.54c2.2-2.56,5.06-4.03,8.42-4.03h1.34Z"/>
    <path class="cls-7" d="m319.91,424.26c0-3.11,2.38-5.43,5.49-5.43s5.55,2.32,5.55,5.43-2.38,5.49-5.55,5.49-5.49-2.32-5.49-5.49Zm1.04,9.46h8.91v31.12h-8.91v-31.12Z"/>
    <path class="cls-7" d="m386.12,444.52v20.32h-8.91v-17.63c0-3.36-2.14-5.61-5.43-5.61s-5.8,2.32-5.8,5.74v17.51h-8.91v-17.63c0-3.36-2.14-5.61-5.43-5.61s-5.8,2.32-5.8,5.74v17.51h-8.91v-31.12h8.91v2.99c2.26-2.44,5.25-3.72,8.85-3.72,4.21,0,7.57,1.77,9.52,4.82,2.5-3.17,6.04-4.82,10.37-4.82,7.02,0,11.53,4.58,11.53,11.53Z"/>
    <path class="cls-7" d="m423.58,452.2h-23.19c1.1,3.48,4.09,5.61,7.99,5.61,3.54,0,6.35-1.65,7.81-3.48l5.98,5.19c-3.3,3.72-8.3,6.04-14.04,6.04-9.88,0-17.33-7.08-17.33-16.48s7.14-16.11,16.6-16.11,16.35,6.96,16.35,16.41c0,.85-.06,2.01-.18,2.81Zm-23.25-5.92h13.97c-.98-3.48-3.66-5.61-7.02-5.61s-6.04,2.2-6.96,5.61Z"/>
  </g>
</svg>