<?xml version="1.0" encoding="UTF-8"?>
<svg id="Camada_1" data-name="Camada 1" xmlns="http://www.w3.org/2000/svg" viewBox="0 0 1000.01 223.93">
  <defs>
    <style>
      .cls-1 {
        fill: #f2eade;
      }

      .cls-1, .cls-2, .cls-3 {
        stroke-width: 0px;
      }

      .cls-2 {
        fill: #bfa38b;
      }

      .cls-3 {
        fill: #745646;
      }
    </style>
  </defs>
  <g>
    <path class="cls-1" d="m4.72,207.25v-120.65c0-5.78-1.93-11.55-4.71-14.55h70.16c26.31,0,45.78,16.26,45.78,36.79,0,16.9-13.05,29.73-32.52,35.3,22.89,4.49,38.93,19.04,38.93,38.72,0,22.46-19.89,38.93-45.78,38.93H0c2.78-3,4.71-8.77,4.71-14.55h0ZM23.76,76.33v66.31h37.86c20.96,0,34.44-12.19,34.44-32.94s-12.41-33.37-31.23-33.37H23.76Zm44.28,70.59H23.76v70.59h47.49c18.82,0,31.23-13.48,31.23-34.44,0-24.6-15.83-36.15-34.44-36.15h0Z"/>
    <path class="cls-1" d="m323.7,221.79c-3.85-3-8.77-10.27-12.62-18.82l-57.11-130.92h-8.56l-55.19,125.57c-5.35,12.41-11.55,21.18-16.69,24.17h25.67c-5.99-4.92-7.06-14.12-2.78-23.74l8.98-20.54,1.93-4.28,35.51-81.72,35.3,81.72,1.93,4.28,10.27,23.53c3.85,8.56,3.42,16.9-.64,20.75h34.01,0Z"/>
    <path class="cls-1" d="m379.1,190.99c0-7.33,5.62-12.03,5.62-12.03,2.24-2.13,4.63-3.22,6.2-3.78,4.58,4.68,9.16,9.36,13.73,14.04-.78,0-8.19.14-10.99,5.23-1.8,3.26-.77,6.88-.49,7.86,2.85,9.98,21.11,17.29,36.84,16.71,20.03-.74,43-14.54,43-28.24,0-17.97-19.89-26.31-42.78-35.3-21.61-8.56-47.7-19.25-47.7-45.14,0-23.74,22.03-40.43,51.77-40.43,27.17,0,48.13,13.91,48.13,31.02,0,6.96-5.05,11.39-5.05,11.39-2.29,2.27-4.81,3.37-6.46,3.93-4.58-4.68-9.16-9.36-13.73-14.04,7.27,0,11.98-3.42,11.98-9.63,0-10.7-13.48-17.97-31.66-17.97-23.53,0-40.22,12.41-40.22,28.67,0,18.4,21.39,27.38,42.57,35.51,24.81,9.41,48.34,18.61,48.34,44.07s-22.67,41.07-54.55,41.07-54.55-14.76-54.55-32.94h0Z"/>
    <path class="cls-1" d="m558.99,207.25v-120.65c0-5.78-1.93-11.55-4.71-14.55h28.45c-2.78,2.99-4.71,8.77-4.71,14.55v120.65c0,5.78,1.93,11.55,4.71,14.55h-28.45c2.78-3,4.71-8.77,4.71-14.55Z"/>
    <path class="cls-1" d="m648.91,162.54v-75.94c0-5.78-1.93-11.55-4.71-14.55h28.45c-2.78,2.99-4.71,8.77-4.71,14.55v79.36c0,31.02,20.32,51.13,50.91,51.13s49.63-20.11,49.63-51.13v-74.23c0-7.91-3.85-15.83-9.63-19.68h24.6c-5.78,3.85-9.84,11.77-9.84,19.68v74.44c0,34.87-22.46,57.76-59.47,57.76s-65.24-24.39-65.24-61.39h0Z"/>
    <path class="cls-1" d="m844.49,202.11v-115.51c0-5.78-2.78-11.55-6.85-14.55h27.38l54.98,124.5,54.98-124.5h25.03c-2.78,2.99-4.71,8.77-4.71,14.55v120.65c0,5.78,1.93,11.55,4.71,14.55h-28.45c2.78-3,4.71-8.77,4.71-14.55v-124.5l-61.18,139.04h-4.28l-61.18-139.04v119.36c0,7.91,3.85,15.83,9.63,19.68h-24.6c5.78-3.85,9.84-11.77,9.84-19.68h0Z"/>
  </g>
  <path class="cls-2" d="m267.57,176.22c0-.47-.02-.95-.02-1.42-.92-.08-6.24-.61-13.49-2.29-4.19-.97-7.48-4.25-8.45-8.45-1.68-7.25-2.21-12.57-2.29-13.49-.47,0-.95,0-1.42-.02-.11.86-.82,6.22-2.5,13.53-.96,4.21-4.25,7.51-8.46,8.47-7.14,1.64-12.36,2.16-13.27,2.24,0,.47,0,.95-.02,1.42.85.11,6.11.81,13.31,2.45,4.22.96,7.52,4.27,8.49,8.49,1.64,7.2,2.34,12.46,2.45,13.31.47,0,.95-.02,1.42-.02.08-.91.6-6.13,2.24-13.27.97-4.21,4.27-7.5,8.47-8.46,7.32-1.68,12.67-2.39,13.53-2.5h.01Z"/>
  <g>
    <path class="cls-3" d="m4.52,32.75V3.98c0-1.38-.46-2.75-1.12-3.47h25.76v6.27c-1.43-3.16-4.39-5.25-7.29-5.25h-12.8v16.07h10.41c2.24,0,4.49-1.17,5.61-2.96v6.94c-1.12-1.79-3.37-2.96-5.61-2.96h-10.41v16.58h13.31c2.91,0,5.87-2.09,7.29-5.3v6.32H3.4c.66-.71,1.12-2.09,1.12-3.47h0Z"/>
    <path class="cls-3" d="m52.53,28.87c0-2.09,1.33-3.37,3.01-3.37s3.01,1.28,3.01,2.96c-1.53,0-2.55.92-2.55,2.4,0,2.81,3.62,4.69,8.67,4.69,6.12,0,10.25-2.81,10.25-6.73,0-4.29-4.74-6.27-10.2-8.42-5.15-2.04-11.38-4.59-11.38-10.76,0-5.66,5.25-9.64,12.34-9.64,6.48,0,11.48,3.32,11.48,7.4,0,1.99-1.22,3.26-2.96,3.26s-3.06-1.28-3.06-2.96c1.73,0,2.86-.82,2.86-2.3,0-2.55-3.21-4.29-7.55-4.29-5.61,0-9.59,2.96-9.59,6.84,0,4.39,5.1,6.53,10.15,8.47,5.92,2.25,11.53,4.44,11.53,10.51s-5.41,9.79-13.01,9.79-13.01-3.52-13.01-7.86h.01Z"/>
    <path class="cls-3" d="m113.5,32.75V1.53h-4.85c-2.91,0-5.76,2.14-7.24,5.36V.51h28.67v6.38c-1.43-3.21-4.34-5.36-7.19-5.36h-4.85v31.22c0,1.38.46,2.75,1.12,3.47h-6.78c.66-.71,1.12-2.09,1.12-3.47Z"/>
    <path class="cls-3" d="m154.07,32.75V3.98c0-1.38-.46-2.75-1.12-3.47h6.78c-.66.71-1.12,2.09-1.12,3.47v28.77c0,1.38.46,2.75,1.12,3.47h-6.78c.66-.71,1.12-2.09,1.12-3.47Z"/>
    <path class="cls-3" d="m183.72,32.75V3.98c0-1.38-.46-2.75-1.12-3.47h6.78c-.66.71-1.12,2.09-1.12,3.47v31.22h11.94c2.96,0,5.92-2.14,7.4-5.36v6.38h-25c.66-.71,1.12-2.09,1.12-3.47h0Z"/>
    <path class="cls-3" d="m230.46,18.36C230.46,7.9,238.47,0,249.08,0s18.62,7.91,18.62,18.36-8.01,18.36-18.62,18.36-18.62-7.91-18.62-18.36h0Zm32.49,0c0-10.46-5.51-17.34-13.87-17.34s-13.87,6.89-13.87,17.34,5.51,17.34,13.87,17.34,13.87-6.89,13.87-17.34Z"/>
  </g>
</svg>